<svg xmlns="http://www.w3.org/2000/svg" xmlns:xlink="http://www.w3.org/1999/xlink" viewBox="0 0 147.67 147.56"><defs><style>.cls-1{isolation:isolate;}.cls-2{fill:url(#radial-gradient);}.cls-3{fill:url(#radial-gradient-2);}.cls-4{opacity:0.75;}.cls-11,.cls-5{fill:#168e19;}.cls-6{fill:url(#linear-gradient);}.cls-7{fill:url(#linear-gradient-2);}.cls-8{fill:url(#linear-gradient-3);}.cls-9{fill:url(#linear-gradient-4);}.cls-10{fill:url(#linear-gradient-5);}.cls-11{opacity:0.5;}.cls-12{fill:url(#linear-gradient-6);}.cls-13,.cls-14{mix-blend-mode:multiply;opacity:0.45;}.cls-13{fill:url(#linear-gradient-7);}.cls-14{fill:url(#linear-gradient-8);}.cls-15{mix-blend-mode:hard-light;fill:url(#linear-gradient-9);}</style><radialGradient id="radial-gradient" cx="73.84" cy="73.78" r="63.7" gradientUnits="userSpaceOnUse"><stop offset="0" stop-color="#90dd6f"/><stop offset="1" stop-color="#b8ffa9" stop-opacity="0"/></radialGradient><radialGradient id="radial-gradient-2" cx="76.4" cy="53.02" r="64.69" gradientUnits="userSpaceOnUse"><stop offset="0" stop-color="#c3e533"/><stop offset="1" stop-color="#1cc61c"/></radialGradient><linearGradient id="linear-gradient" x1="38.73" y1="-8.3" x2="50.96" y2="145.02" gradientUnits="userSpaceOnUse"><stop offset="0" stop-color="#f2f236"/><stop offset="1" stop-color="#f2f236" stop-opacity="0"/></linearGradient><linearGradient id="linear-gradient-2" x1="98.55" y1="-13.07" x2="110.78" y2="140.25" xlink:href="#linear-gradient"/><linearGradient id="linear-gradient-3" x1="103.3" y1="-13.45" x2="115.53" y2="139.87" xlink:href="#linear-gradient"/><linearGradient id="linear-gradient-4" x1="65.95" y1="-10.47" x2="78.18" y2="142.85" xlink:href="#linear-gradient"/><linearGradient id="linear-gradient-5" x1="86.59" y1="-12.12" x2="98.82" y2="141.21" xlink:href="#linear-gradient"/><linearGradient id="linear-gradient-6" x1="56.14" y1="-9.69" x2="68.37" y2="143.63" xlink:href="#linear-gradient"/><linearGradient id="linear-gradient-7" x1="65.65" y1="142.9" x2="73.65" y2="70" gradientUnits="userSpaceOnUse"><stop offset="0" stop-color="#168e26"/><stop offset="1" stop-color="#168e26" stop-opacity="0.3"/></linearGradient><linearGradient id="linear-gradient-8" x1="71.03" y1="139.76" x2="79.97" y2="63.57" gradientUnits="userSpaceOnUse"><stop offset="0" stop-color="#166f38"/><stop offset="1" stop-color="#16653b" stop-opacity="0.3"/></linearGradient><linearGradient id="linear-gradient-9" x1="112.47" y1="-8.79" x2="78.92" y2="57.38" gradientUnits="userSpaceOnUse"><stop offset="0" stop-color="#e2ffb5"/><stop offset="1" stop-color="#ffffb3" stop-opacity="0"/></linearGradient></defs><g class="cls-1"><g id="Layer_2" data-name="Layer 2"><g id="OBJECTS"><path class="cls-2" d="M66.8.36c-57.2,5.43-88,73.52-50.1,120h0a73.72,73.72,0,0,0,113.88.52h0C172.11,71,133-5.94,66.8.36Z"/><path class="cls-3" d="M73.76,127.19A53.29,53.29,0,0,1,27.06,99.6c-20-36.27,7.59-80.3,47.88-79a53.31,53.31,0,0,1-1.18,106.6Z"/><g class="cls-4"><path class="cls-5" d="M94.93,82.51c-2.22-.56-2.83,2.19-1.57,2.82s4.39,2.51,5,1.25S97.43,83.13,94.93,82.51Z"/><path class="cls-5" d="M116.88,59.3c-2.14.5-4.71,1.57-2.51,3.14s5.64.94,6-.94S121,58.36,116.88,59.3Z"/><path class="cls-5" d="M73.92,109.79C69.31,107,62.63,106,62,108.85s3.76,7.21,9.1,6.58S77.05,111.67,73.92,109.79Z"/><path class="cls-5" d="M88.92,125a53.31,53.31,0,0,1-13,2.15c1-6.54,7.24-4.47,10.56-3.57A6.15,6.15,0,0,1,88.92,125Z"/><path class="cls-5" d="M44.76,109.47c2,.89,3.44-3.45.62-7.21s-4.07-8.47-7.52-9.41S32.53,104.14,44.76,109.47Z"/><path class="cls-5" d="M31,94.11c-1.11.2-1.57,2.51.94,2.82S34.41,93.48,31,94.11Z"/><path class="cls-5" d="M58.87,81.25c-2.21-.2-4.39.94-4.08,3.45s3.76,0,5.33,0S62.32,81.57,58.87,81.25Z"/><path class="cls-5" d="M80.5,52.09c-1.9-.9-2.19,3.14-.62,3.76S85.83,54.6,80.5,52.09Z"/></g><path class="cls-6" d="M60.43,72.47c-10.66,1.88-12.23,2.2-22,10.35-6.43,5.39-13.13,3.65-16.93,1.85A53.34,53.34,0,0,1,36.94,35.33a20.15,20.15,0,0,1,5.93,5.16c4.71,6.27,3.77,8.78,17.56,16S71.1,70.59,60.43,72.47Z"/><path class="cls-7" d="M121.94,51c-9.84-2-16.55,9.07-23.25,8.26-7.84-.94-5.64-12.54-12.23-24.77-3.3-6.12-3.53-10.36-2.94-13.06A53.38,53.38,0,0,1,121.94,51Z"/><path class="cls-8" d="M127.07,73.88a53.31,53.31,0,0,1-29,47.46c-3.93-6.22,2.43-10.82,10-15.63,9.4-6,.62-8.47,2.19-18.19S105.9,77.18,108.72,69c2-5.81,12.49-.3,18.33,3.34C127.06,72.87,127.07,73.37,127.07,73.88Z"/><path class="cls-9" d="M77.05,90c-5.69,1.78-8.78-5-16-3.45S47.89,101,57.61,100.69s12.23-1.57,19.44,3.45,15.68,1.57,18.19-6.27S96.18,84.07,77.05,90Z"/><path class="cls-10" d="M89,66.51c-3,1-3.76,2.51-2.82,4.39s4.7,1.57,6.58,4.39,6.59,6.28,7.84,0S95.87,64.32,89,66.51Z"/><path class="cls-11" d="M78,50.21c-.55,4.18-4.39,0-10.66-1.26s-8.78-5-6-7.52S68,37,71.72,39.23,78.62,45.5,78,50.21Z"/><path class="cls-12" d="M71.41,25.44c-7.84,0-11.6,4.39-18.82,6.89a9.89,9.89,0,0,1-9.75-1.88,53.12,53.12,0,0,1,30.92-9.87h1.18C75.5,22.85,75.3,25.44,71.41,25.44Z"/><path class="cls-13" d="M124.53,90.19a53.28,53.28,0,0,1-48.63,37c-.71,0-1.42,0-2.14,0A53.33,53.33,0,0,1,23.69,55.56c6,18,19.82,41.25,51.2,45.56a77.23,77.23,0,0,0,17.18.49A69,69,0,0,0,124.53,90.19Z"/><path class="cls-14" d="M127.07,73.88A53.27,53.27,0,0,1,75.9,127.15c-.71,0-1.42,0-2.14,0A53.29,53.29,0,0,1,27.06,99.6a96.58,96.58,0,0,0,33.22,6.89c12.62.5,23.1-1.44,31.79-4.88,18.66-7.39,29.06-21.66,34.7-33.42.14,1.37.23,2.77.28,4.17C127.06,72.87,127.07,73.37,127.07,73.88Z"/><path class="cls-15" d="M126.35,65.15s-7.59-27.8-42.48-36.95C63,22.71,48.43,27.66,40.16,32.5a53.28,53.28,0,0,1,86.19,32.65Z"/></g></g></g></svg>