<svg xmlns="http://www.w3.org/2000/svg" xmlns:xlink="http://www.w3.org/1999/xlink" viewBox="0 0 59.19 59.19"><defs><style>.cls-1{isolation:isolate;}.cls-2,.cls-4,.cls-47,.cls-48,.cls-49,.cls-50{mix-blend-mode:screen;}.cls-2{fill:url(#radial-gradient);}.cls-3{fill:url(#radial-gradient-2);}.cls-4,.cls-47,.cls-48{opacity:0.45;}.cls-4{fill:url(#radial-gradient-3);}.cls-10,.cls-11,.cls-12,.cls-13,.cls-14,.cls-15,.cls-16,.cls-17,.cls-18,.cls-19,.cls-20,.cls-21,.cls-22,.cls-5,.cls-6,.cls-7,.cls-8,.cls-9{mix-blend-mode:multiply;}.cls-5,.cls-6{opacity:0.5;}.cls-5{fill:url(#radial-gradient-4);}.cls-6{fill:url(#radial-gradient-5);}.cls-7{opacity:0.35;}.cls-8{fill:url(#radial-gradient-6);}.cls-9{fill:url(#radial-gradient-7);}.cls-10{fill:url(#radial-gradient-8);}.cls-11{fill:url(#radial-gradient-9);}.cls-12{fill:url(#radial-gradient-10);}.cls-13{fill:url(#radial-gradient-11);}.cls-14{fill:url(#radial-gradient-12);}.cls-15{fill:url(#radial-gradient-13);}.cls-16{fill:url(#radial-gradient-14);}.cls-17{fill:url(#radial-gradient-15);}.cls-18{fill:url(#radial-gradient-16);}.cls-19{fill:url(#radial-gradient-17);}.cls-20{fill:url(#radial-gradient-18);}.cls-21{fill:url(#radial-gradient-19);}.cls-22{fill:url(#radial-gradient-20);}.cls-23{fill:url(#radial-gradient-21);}.cls-24{fill:url(#radial-gradient-22);}.cls-25{fill:url(#radial-gradient-23);}.cls-26{fill:url(#radial-gradient-24);}.cls-27{fill:url(#radial-gradient-25);}.cls-28{fill:url(#radial-gradient-26);}.cls-29{fill:url(#radial-gradient-27);}.cls-30{fill:url(#radial-gradient-28);}.cls-31{fill:url(#radial-gradient-29);}.cls-32{fill:url(#radial-gradient-30);}.cls-33{fill:url(#radial-gradient-31);}.cls-34{fill:url(#radial-gradient-32);}.cls-35{fill:url(#radial-gradient-33);}.cls-36{fill:url(#radial-gradient-34);}.cls-37{fill:url(#radial-gradient-35);}.cls-38{fill:url(#radial-gradient-36);}.cls-39{fill:url(#radial-gradient-37);}.cls-40{fill:url(#radial-gradient-38);}.cls-41{fill:url(#radial-gradient-39);}.cls-42{fill:url(#radial-gradient-40);}.cls-43{fill:url(#radial-gradient-41);}.cls-44{fill:url(#radial-gradient-42);}.cls-45{fill:url(#radial-gradient-43);}.cls-46{fill:url(#radial-gradient-44);}.cls-47{fill:url(#radial-gradient-45);}.cls-48{fill:url(#radial-gradient-46);}.cls-49{fill:url(#radial-gradient-47);}.cls-50{fill:url(#radial-gradient-48);}</style><radialGradient id="radial-gradient" cx="29.6" cy="29.82" r="27.75" gradientUnits="userSpaceOnUse"><stop offset="0" stop-color="#51167b"/><stop offset="0" stop-color="#4f1579"/><stop offset="0.2" stop-color="#50167a" stop-opacity="0.97"/><stop offset="0.38" stop-color="#53187e" stop-opacity="0.88"/><stop offset="0.54" stop-color="#591c84" stop-opacity="0.73"/><stop offset="0.7" stop-color="#60218e" stop-opacity="0.52"/><stop offset="0.86" stop-color="#6a2899" stop-opacity="0.25"/><stop offset="0.98" stop-color="#732fa4" stop-opacity="0"/></radialGradient><radialGradient id="radial-gradient-2" cx="1.8" cy="-31.68" r="89.23" gradientUnits="userSpaceOnUse"><stop offset="0.02" stop-color="#732fa4"/><stop offset="0.35" stop-color="#702da1"/><stop offset="0.62" stop-color="#682797"/><stop offset="0.77" stop-color="#60218d"/><stop offset="1" stop-color="#4f1579"/><stop offset="1" stop-color="#51167b"/></radialGradient><radialGradient id="radial-gradient-3" cx="2.5" cy="-25.99" r="76.89" xlink:href="#radial-gradient-2"/><radialGradient id="radial-gradient-4" cx="3.06" cy="-21.66" r="80.82" xlink:href="#radial-gradient-2"/><radialGradient id="radial-gradient-5" cx="-32.99" cy="31.82" r="69.91" gradientTransform="matrix(1.05, -0.08, 0.08, 1.01, 35.07, -47.3)" xlink:href="#radial-gradient-2"/><radialGradient id="radial-gradient-6" cx="12.54" cy="16.69" r="17.96" xlink:href="#radial-gradient-2"/><radialGradient id="radial-gradient-7" cx="12.13" cy="32.41" r="11.21" xlink:href="#radial-gradient-2"/><radialGradient id="radial-gradient-8" cx="18.65" cy="25.78" r="22.34" xlink:href="#radial-gradient-2"/><radialGradient id="radial-gradient-9" cx="27.87" cy="-3.93" r="27.97" xlink:href="#radial-gradient-2"/><radialGradient id="radial-gradient-10" cx="46.67" cy="3.95" r="26.57" xlink:href="#radial-gradient-2"/><radialGradient id="radial-gradient-11" cx="34.82" cy="13.81" r="15.31" xlink:href="#radial-gradient-2"/><radialGradient id="radial-gradient-12" cx="17.45" cy="2.11" r="31.94" xlink:href="#radial-gradient-2"/><radialGradient id="radial-gradient-13" cx="33.62" cy="20.2" r="20.72" xlink:href="#radial-gradient-2"/><radialGradient id="radial-gradient-14" cx="11.96" cy="38.1" r="20.03" xlink:href="#radial-gradient-2"/><radialGradient id="radial-gradient-15" cx="6.89" cy="17.43" r="21.28" xlink:href="#radial-gradient-2"/><radialGradient id="radial-gradient-16" cx="32.24" cy="26.99" r="27.33" xlink:href="#radial-gradient-2"/><radialGradient id="radial-gradient-17" cx="6.87" cy="7.66" r="18.63" xlink:href="#radial-gradient-2"/><radialGradient id="radial-gradient-18" cx="25.88" cy="15.68" r="0.69" xlink:href="#radial-gradient-2"/><radialGradient id="radial-gradient-19" cx="26.57" cy="15.79" r="0.06" xlink:href="#radial-gradient-2"/><radialGradient id="radial-gradient-20" cx="12.73" cy="0.64" r="18.88" xlink:href="#radial-gradient-2"/><radialGradient id="radial-gradient-21" cx="29.47" cy="30.43" r="5.55" xlink:href="#radial-gradient-2"/><radialGradient id="radial-gradient-22" cx="32.67" cy="29.07" r="3.62" xlink:href="#radial-gradient-2"/><radialGradient id="radial-gradient-23" cx="25.18" cy="9.22" r="8.45" xlink:href="#radial-gradient-2"/><radialGradient id="radial-gradient-24" cx="26.22" cy="9.78" r="3.62" xlink:href="#radial-gradient-2"/><radialGradient id="radial-gradient-25" cx="10.36" cy="21.53" r="5.79" xlink:href="#radial-gradient-2"/><radialGradient id="radial-gradient-26" cx="10.53" cy="22.82" r="8.2" xlink:href="#radial-gradient-2"/><radialGradient id="radial-gradient-27" cx="13.86" cy="31.95" r="4.1" xlink:href="#radial-gradient-2"/><radialGradient id="radial-gradient-28" cx="15.38" cy="31.99" r="5.55" xlink:href="#radial-gradient-2"/><radialGradient id="radial-gradient-29" cx="28.1" cy="41.41" r="9.17" xlink:href="#radial-gradient-2"/><radialGradient id="radial-gradient-30" cx="30.73" cy="42.27" r="5.31" xlink:href="#radial-gradient-2"/><radialGradient id="radial-gradient-31" cx="31.2" cy="46.04" r="4.59" xlink:href="#radial-gradient-2"/><radialGradient id="radial-gradient-32" cx="34.77" cy="33.57" r="9.89" xlink:href="#radial-gradient-2"/><radialGradient id="radial-gradient-33" cx="44.67" cy="23.68" r="4.34" xlink:href="#radial-gradient-2"/><radialGradient id="radial-gradient-34" cx="46.12" cy="26.08" r="2.41" xlink:href="#radial-gradient-2"/><radialGradient id="radial-gradient-35" cx="47.46" cy="28.22" r="7" xlink:href="#radial-gradient-2"/><radialGradient id="radial-gradient-36" cx="31.5" cy="19.31" r="3.14" xlink:href="#radial-gradient-2"/><radialGradient id="radial-gradient-37" cx="32.61" cy="17.04" r="8.93" xlink:href="#radial-gradient-2"/><radialGradient id="radial-gradient-38" cx="16.76" cy="21.68" r="3.62" xlink:href="#radial-gradient-2"/><radialGradient id="radial-gradient-39" cx="14" cy="12.85" r="3.62" xlink:href="#radial-gradient-2"/><radialGradient id="radial-gradient-40" cx="43.28" cy="13.12" r="6.76" xlink:href="#radial-gradient-2"/><radialGradient id="radial-gradient-41" cx="44.96" cy="17.3" r="3.14" xlink:href="#radial-gradient-2"/><radialGradient id="radial-gradient-42" cx="37.55" cy="25.56" r="3.86" xlink:href="#radial-gradient-2"/><radialGradient id="radial-gradient-43" cx="38.07" cy="36.76" r="5.07" xlink:href="#radial-gradient-2"/><radialGradient id="radial-gradient-44" cx="18.63" cy="40.78" r="3.86" xlink:href="#radial-gradient-2"/><radialGradient id="radial-gradient-45" cx="5.08" cy="-16.83" r="61.11" xlink:href="#radial-gradient-2"/><radialGradient id="radial-gradient-46" cx="-171.36" cy="47.16" r="36.27" gradientTransform="matrix(1.34, -0.17, 0.15, 1.18, 226.5, -89.32)" xlink:href="#radial-gradient-2"/><radialGradient id="radial-gradient-47" cx="-331.89" cy="477.01" r="12.04" gradientTransform="translate(-186.79 -526.77) rotate(-54.35)" xlink:href="#radial-gradient-2"/><radialGradient id="radial-gradient-48" cx="-112.08" cy="317.08" r="6.64" gradientTransform="translate(-44.05 -318.27) rotate(-29.87)" xlink:href="#radial-gradient-2"/></defs><g class="cls-1"><g id="Layer_2" data-name="Layer 2"><g id="OBJECTS"><circle class="cls-2" cx="29.6" cy="29.6" r="29.6"/><circle class="cls-3" cx="29.6" cy="29.6" r="22"/><path class="cls-4" d="M8.81,30.89A22,22,0,0,1,46.27,15.26a22,22,0,1,0-32.15,30A21.92,21.92,0,0,1,8.81,30.89Z"/><path class="cls-5" d="M43.76,12.89c-.39.86.32,2.14.51,3a11.91,11.91,0,0,1,.21,4.33,7.31,7.31,0,0,1-3.86,5.57,21.88,21.88,0,0,1-3,.89,14.16,14.16,0,0,0-8.58,6.89c-1.15,2.17-1.78,4.69-3.52,6.41-2.37,2.36-6.26,2.54-9.38,1.34s-4.88-3.43-7.44-5.13c-.06,1.92,1.87,4.62,3,6.15a22.46,22.46,0,0,0,4.87,5A22,22,0,0,0,49.45,20.13C48.4,17.92,46.17,13.8,43.76,12.89Z"/><path class="cls-6" d="M47.72,19.27a25.42,25.42,0,0,0-3.1-4.38c.45.68.84,1.32,1.14,1.84A20.53,20.53,0,0,1,12.29,40.27a29.54,29.54,0,0,0,1.93,2.5,20.54,20.54,0,0,0,33.5-23.5Z"/><g class="cls-7"><path class="cls-8" d="M17.53,26.48s-1.92-2.33-3.45-1.12.48,2.16.64,4.24,1,5.85,4.73,4.41S18.89,27.68,17.53,26.48Z"/><path class="cls-9" d="M16.73,36.89a5.4,5.4,0,0,0-3.37,1.93c-1.28,1.68,1.2,3.76,4.41,2.88S20.09,36.73,16.73,36.89Z"/><path class="cls-10" d="M27.46,44.75c6.9-.64,7.14-5.93,5.37-7.54s-6.73-2.4-6.73-2.4a4.87,4.87,0,0,0-5.05,2.4C19.45,40.26,20.57,45.39,27.46,44.75Z"/><path class="cls-11" d="M31.06,10.18c.13,3.15-3.66,8.2,2.15,10.09,4.78,1.56,6-3.39,12.67-5.46A22,22,0,0,0,30.56,7.62,7.24,7.24,0,0,1,31.06,10.18Z"/><path class="cls-12" d="M47.5,25c.64,3.4,2,6.06,3.91,7.38a24,24,0,0,0,.18-2.82,21.88,21.88,0,0,0-3.7-12.22A17.82,17.82,0,0,0,47.5,25Z"/><path class="cls-13" d="M44.69,25c1.6-2.09.08-3.21.08-3.21s-2.08-2.64-4.49-1.68-5.76,3.44-3.44,5.29S43.09,27,44.69,25Z"/><path class="cls-14" d="M33.77,26.22c-.83-2.69-3.94-4.14-4.86-6.8-.39-1.13-.36-2-1.62-2.57-1.9-.79-3.13,0-4.81.91a5.84,5.84,0,0,0-2.88,2.77A5,5,0,0,0,19.47,23a13.77,13.77,0,0,0,2.78,6.09c1.48,2,3.66,3.74,6.11,3.51a7.19,7.19,0,0,0,3.36-1.41A6.36,6.36,0,0,0,33.13,30,4.21,4.21,0,0,0,33.77,26.22Z"/><path class="cls-15" d="M35.24,35.21c.4,2.08,3.44,4.09,7.21,2.25a6.78,6.78,0,0,0,2.76-1.87A15.64,15.64,0,0,0,47,31.9v0c1-2.76-2.79-3.53-4.59-3.08C37.64,30,34.84,33.13,35.24,35.21Z"/><path class="cls-16" d="M29.06,51.58a16.33,16.33,0,0,0-6-5.79A11.72,11.72,0,0,0,14,45.05,21.9,21.9,0,0,0,29.06,51.58Z"/><path class="cls-17" d="M11.76,29.86A5.67,5.67,0,0,0,7.67,28c0,.54-.07,1.09-.07,1.64a21.83,21.83,0,0,0,2.49,10.15C12.77,36.91,14.08,32.53,11.76,29.86Z"/><path class="cls-18" d="M49.66,38.62c-3.09-.63-6.27-.24-8.09,2-2.65,3.21-4,3.13-6.17,5.77a6,6,0,0,0-1,4.72A22.06,22.06,0,0,0,49.66,38.62Z"/><path class="cls-19" d="M8.86,24.56c3.15-2.52,7.57-.38,8.45-3.91.65-2.59-2.92-4.17-4.86-4.82A21.89,21.89,0,0,0,8.09,25,2.38,2.38,0,0,0,8.86,24.56Z"/><path class="cls-20" d="M26.58,15.81A1.11,1.11,0,0,0,26,16Z"/><path class="cls-21" d="M26.64,15.8h0Z"/><path class="cls-22" d="M22.61,15c4.25-2.17,2.7-4.27,3.88-7.15a22,22,0,0,0-12.15,5.94A6.73,6.73,0,0,0,22.61,15Z"/></g><circle class="cls-23" cx="30.38" cy="34.1" r="0.72"/><path class="cls-24" d="M33.73,31.46a.47.47,0,1,1-.47-.47A.47.47,0,0,1,33.73,31.46Z"/><circle class="cls-25" cx="26.56" cy="14.8" r="1.1"/><path class="cls-26" d="M27.28,12.17a.47.47,0,1,1-.47-.47A.47.47,0,0,1,27.28,12.17Z"/><path class="cls-27" d="M12.06,25.36a.76.76,0,1,1-.75-.76A.76.76,0,0,1,12.06,25.36Z"/><path class="cls-28" d="M12.93,28.24a1.07,1.07,0,0,1-2.13,0,1.07,1.07,0,1,1,2.13,0Z"/><path class="cls-29" d="M15.06,34.66a.53.53,0,0,1-.53.53.53.53,0,0,1-.53-.53.53.53,0,0,1,.53-.53A.52.52,0,0,1,15.06,34.66Z"/><path class="cls-30" d="M17,35.66a.72.72,0,1,1-.72-.72A.72.72,0,0,1,17,35.66Z"/><path class="cls-31" d="M30.79,47.47a1.19,1.19,0,1,1-1.19-1.19A1.19,1.19,0,0,1,30.79,47.47Z"/><circle class="cls-32" cx="31.6" cy="45.78" r="0.69"/><path class="cls-33" d="M32.54,49.07a.58.58,0,0,1-.59.59.59.59,0,0,1-.6-.59.6.6,0,0,1,.6-.6A.59.59,0,0,1,32.54,49.07Z"/><path class="cls-34" d="M37.68,40.11a1.29,1.29,0,1,1-1.29-1.29A1.28,1.28,0,0,1,37.68,40.11Z"/><circle class="cls-35" cx="45.38" cy="26.55" r="0.56"/><path class="cls-36" d="M46.82,27.67a.31.31,0,1,1-.31-.31A.31.31,0,0,1,46.82,27.67Z"/><path class="cls-37" d="M49.52,32.84a.91.91,0,1,1-.91-.91A.91.91,0,0,1,49.52,32.84Z"/><circle class="cls-38" cx="32.01" cy="21.38" r="0.41"/><path class="cls-39" d="M35.24,22.94a1.16,1.16,0,1,1-1.16-1.15A1.16,1.16,0,0,1,35.24,22.94Z"/><path class="cls-40" d="M17.82,24.07a.47.47,0,1,1-.47-.47A.47.47,0,0,1,17.82,24.07Z"/><path class="cls-41" d="M15.06,15.24a.47.47,0,1,1-.47-.47A.47.47,0,0,1,15.06,15.24Z"/><path class="cls-42" d="M45.26,17.59a.88.88,0,1,1-.88-.88A.88.88,0,0,1,45.26,17.59Z"/><circle class="cls-43" cx="45.48" cy="19.37" r="0.41"/><path class="cls-44" d="M38.68,28.11a.5.5,0,0,1-1,0,.5.5,0,1,1,1,0Z"/><path class="cls-45" d="M39.56,40.11a.66.66,0,1,1-.66-.66A.67.67,0,0,1,39.56,40.11Z"/><path class="cls-46" d="M19.76,43.34a.5.5,0,1,1-.5-.51A.5.5,0,0,1,19.76,43.34Z"/><path class="cls-47" d="M11.39,35.9c-.94-1.34-5.5-9.93,4.16-20.67S39.85,9.59,42.27,15s-1.88,9.93-9.13,10.2-10.34,10.47-15,12S12.37,37.3,11.39,35.9Z"/><path class="cls-48" d="M13,31.05c-.87-.84-5.25-6.4,1.52-14.86s18.87-6.35,21.26-2.83-.64,7.13-6.39,8-7.32,8.35-10.94,9.84S13.9,31.93,13,31.05Z"/><path class="cls-49" d="M18.32,16.79c1,.75.76,2.92-.62,4.84s-3.34,2.89-4.38,2.14-.77-2.91.61-4.84S17.28,16.05,18.32,16.79Z"/><path class="cls-50" d="M23.08,12.94c.36.61-.28,1.63-1.41,2.29s-2.34.68-2.69.07.28-1.64,1.41-2.29S22.73,12.32,23.08,12.94Z"/></g></g></g></svg>