<svg xmlns="http://www.w3.org/2000/svg" xmlns:xlink="http://www.w3.org/1999/xlink" viewBox="0 0 147.38 147.26"><defs><style>.cls-1{isolation:isolate;}.cls-2{fill:url(#radial-gradient);}.cls-3{fill:url(#radial-gradient-2);}.cls-4{fill:url(#linear-gradient);}.cls-5{fill:url(#linear-gradient-2);}.cls-6{fill:url(#linear-gradient-3);}.cls-7{fill:url(#linear-gradient-4);}.cls-8{fill:url(#linear-gradient-5);}.cls-9{fill:url(#linear-gradient-6);}.cls-10{fill:url(#linear-gradient-7);}.cls-11{fill:url(#linear-gradient-8);}.cls-12,.cls-13{mix-blend-mode:multiply;}.cls-12{opacity:0.55;fill:url(#linear-gradient-9);}.cls-13{stroke-miterlimit:10;opacity:0.5;fill:url(#linear-gradient-10);stroke:url(#radial-gradient-3);}.cls-14{mix-blend-mode:hard-light;fill:url(#linear-gradient-11);}</style><radialGradient id="radial-gradient" cx="73.69" cy="73.63" r="64.62" gradientUnits="userSpaceOnUse"><stop offset="0" stop-color="#77e5b5"/><stop offset="1" stop-color="#95f6b0" stop-opacity="0"/></radialGradient><radialGradient id="radial-gradient-2" cx="79.81" cy="45.17" r="64.89" gradientUnits="userSpaceOnUse"><stop offset="0" stop-color="#beef8f"/><stop offset="1" stop-color="#24c9a9"/></radialGradient><linearGradient id="linear-gradient" x1="47.19" y1="137.56" x2="93.28" y2="10.56" gradientUnits="userSpaceOnUse"><stop offset="0" stop-color="#138677"/><stop offset="1" stop-color="#139b77" stop-opacity="0.1"/></linearGradient><linearGradient id="linear-gradient-2" x1="40.41" y1="135.1" x2="86.51" y2="8.11" xlink:href="#linear-gradient"/><linearGradient id="linear-gradient-3" x1="46.72" y1="137.39" x2="92.81" y2="10.39" xlink:href="#linear-gradient"/><linearGradient id="linear-gradient-4" x1="49.02" y1="138.23" x2="95.12" y2="11.23" xlink:href="#linear-gradient"/><linearGradient id="linear-gradient-5" x1="50.07" y1="138.61" x2="96.16" y2="11.61" xlink:href="#linear-gradient"/><linearGradient id="linear-gradient-6" x1="19.4" y1="127.47" x2="65.5" y2="0.48" xlink:href="#linear-gradient"/><linearGradient id="linear-gradient-7" x1="64.77" y1="143.94" x2="110.87" y2="16.95" xlink:href="#linear-gradient"/><linearGradient id="linear-gradient-8" x1="73.65" y1="147.16" x2="119.75" y2="20.17" xlink:href="#linear-gradient"/><linearGradient id="linear-gradient-9" x1="79.63" y1="121.38" x2="51.41" y2="18.38" gradientUnits="userSpaceOnUse"><stop offset="0" stop-color="#127f6a"/><stop offset="1" stop-color="#3dd565" stop-opacity="0.1"/></linearGradient><linearGradient id="linear-gradient-10" x1="82.34" y1="129.99" x2="73.72" y2="79.84" gradientUnits="userSpaceOnUse"><stop offset="0" stop-color="#126d6a"/><stop offset="1" stop-color="#12656a" stop-opacity="0"/></linearGradient><radialGradient id="radial-gradient-3" cx="73.48" cy="100.89" r="43.93" xlink:href="#radial-gradient-2"/><linearGradient id="linear-gradient-11" x1="121.01" y1="-7.63" x2="67.38" y2="77.98" gradientUnits="userSpaceOnUse"><stop offset="0" stop-color="#d4ffae"/><stop offset="1" stop-color="#d4ffae" stop-opacity="0"/></linearGradient></defs><g class="cls-1"><g id="Layer_2" data-name="Layer 2"><g id="OBJECTS"><path class="cls-2" d="M66.67.36c-57.09,5.42-87.82,73.38-50,119.79h0a73.57,73.57,0,0,0,113.65.52h0C171.76,70.85,132.72-5.93,66.67.36Z"/><path class="cls-3" d="M41.13,118c-30.78-22.47-29.82-69,2.2-90.11a54.87,54.87,0,0,1,84.88,41.27C132.14,116.07,78.85,145.63,41.13,118Z"/><path class="cls-4" d="M125.94,57.38c-8.71,0-25.28-1.54-44.57-10.66C60.05,36.65,42.4,35,34.84,34.77a54.71,54.71,0,0,1,8.49-6.9c5,.72,14.49,2.8,31.77,8.5,20.48,6.76,32.26,2.82,38-.73A54.78,54.78,0,0,1,125.94,57.38Z"/><path class="cls-5" d="M108.31,31.25c-4.78,1.9-14.18,3.54-30.39-1.15C63.73,26,55.32,24.41,50.6,23.82a54.47,54.47,0,0,1,8.82-3.18c4.14,1.11,9.64,2.81,16.93,5.38,14.47,5.12,23.73,4.43,29,2.94C106.35,29.69,107.34,30.45,108.31,31.25Z"/><path class="cls-6" d="M100,25.62c-5.48.54-16,.44-23.06-6.7A54.52,54.52,0,0,1,100,25.62Z"/><path class="cls-7" d="M128.4,73.69c0,.73,0,1.46,0,2.19-7.33.84-22.39,0-46.68-12.54C51,47.45,35.46,46.54,25.14,47.78c.59-1.09,1.22-2.17,1.88-3.22,6.86-.86,22.2-.61,47.76,10.63,31.61,13.89,41.67,16.9,53.43,14C128.34,70.64,128.4,72.15,128.4,73.69Z"/><path class="cls-8" d="M64.12,63.65a67.26,67.26,0,0,0-43.58-4.26,54.73,54.73,0,0,0-1.85,12.23c37-6.7,64,14,54.84,15.55C64.12,88.74,60.05,90,45.31,94.7A30.23,30.23,0,0,1,22.1,92.87a55,55,0,0,0,5.74,11.22c19.08,7.13,34.33-.41,54.15-6.57,15.42-4.79,30.41.24,38.75,4.16a54.42,54.42,0,0,0,6.2-15.37C100.24,91.23,86.74,74.09,64.12,63.65Z"/><path class="cls-9" d="M52.52,85.92c-5.64.31-8.78,1.88-17.56,3.13-4.33.62-9.95-.36-14.54-1.52a53.93,53.93,0,0,1-1.66-10.47C44.83,72.85,57.83,85.62,52.52,85.92Z"/><path class="cls-10" d="M113.06,111.74q-1.92,2-4,3.79a63.32,63.32,0,0,0-22.33-3c-18.61,1-29.76,7.42-45.57,5.41-.94-.69-1.86-1.41-2.75-2.15,6.46.87,18.07.45,38.28-5.14A59.87,59.87,0,0,1,113.06,111.74Z"/><path class="cls-11" d="M100.45,121.52a55.07,55.07,0,0,1-37.18,6.08C75.05,114.55,92.21,118.51,100.45,121.52Z"/><path class="cls-12" d="M123,97.44q-1,2.18-2.27,4.24a54.65,54.65,0,0,1-7.68,10.06q-1.92,2-4,3.79a55.82,55.82,0,0,1-8.58,6A54.89,54.89,0,0,1,41.13,118c-.94-.69-1.86-1.41-2.75-2.15a55,55,0,0,1-16.28-23,55,55,0,0,1-3.34-15.81c0-.62-.07-1.24-.08-1.86s0-1,0-1.51c0-.7,0-1.39,0-2.07a54.84,54.84,0,0,1,6.45-23.84c.59-1.09,1.22-2.17,1.88-3.22s1.3-2,2-3c7.73,3.56,15.68,11.16,21.46,26.3,8.3,21.74,23.19,34.79,40.06,37.32C101,106.77,112.15,104.33,123,97.44Z"/><path class="cls-13" d="M128.24,78a55.21,55.21,0,0,1-1.3,8.3A54.24,54.24,0,0,1,123,97.44q-1,2.18-2.27,4.24a54.65,54.65,0,0,1-7.68,10.06q-1.92,2-4,3.79a55.82,55.82,0,0,1-8.58,6A54.89,54.89,0,0,1,41.13,118c-.94-.69-1.86-1.41-2.75-2.15a55,55,0,0,1-16.28-23,55,55,0,0,1-3.34-15.81c0-.62-.07-1.24-.08-1.86C24,87.06,33.59,98.51,50.64,105a55.54,55.54,0,0,0,39.9.17C107.24,99.14,120.47,86.74,128.24,78Z"/><path class="cls-14" d="M128.25,77.88c0-1.16-.72-28.23-33.24-44.73C56.33,13.52,31.53,38.48,31,39a54.88,54.88,0,0,1,97.28,38.84Z"/></g></g></g></svg>