<svg xmlns="http://www.w3.org/2000/svg" xmlns:xlink="http://www.w3.org/1999/xlink" viewBox="0 0 137.69 137.69"><defs><style>.cls-1{isolation:isolate;}.cls-2{fill:url(#radial-gradient);}.cls-3{fill:url(#radial-gradient-2);}.cls-10,.cls-101,.cls-102,.cls-111,.cls-112,.cls-113,.cls-114,.cls-116,.cls-117,.cls-118,.cls-12,.cls-126,.cls-127,.cls-128,.cls-129,.cls-13,.cls-131,.cls-132,.cls-133,.cls-134,.cls-137,.cls-138,.cls-139,.cls-14,.cls-140,.cls-143,.cls-144,.cls-145,.cls-149,.cls-15,.cls-150,.cls-151,.cls-152,.cls-154,.cls-155,.cls-158,.cls-159,.cls-160,.cls-161,.cls-163,.cls-164,.cls-167,.cls-168,.cls-169,.cls-17,.cls-170,.cls-172,.cls-173,.cls-176,.cls-177,.cls-178,.cls-179,.cls-18,.cls-181,.cls-182,.cls-185,.cls-186,.cls-187,.cls-188,.cls-190,.cls-191,.cls-194,.cls-195,.cls-196,.cls-197,.cls-199,.cls-20,.cls-200,.cls-22,.cls-23,.cls-24,.cls-25,.cls-27,.cls-29,.cls-31,.cls-35,.cls-37,.cls-38,.cls-39,.cls-4,.cls-42,.cls-45,.cls-46,.cls-47,.cls-48,.cls-5,.cls-50,.cls-57,.cls-58,.cls-59,.cls-6,.cls-60,.cls-62,.cls-7,.cls-70,.cls-71,.cls-72,.cls-73,.cls-75,.cls-83,.cls-84,.cls-85,.cls-86,.cls-88,.cls-9,.cls-96,.cls-97,.cls-98,.cls-99{mix-blend-mode:screen;}.cls-10,.cls-101,.cls-102,.cls-111,.cls-112,.cls-113,.cls-114,.cls-116,.cls-117,.cls-118,.cls-12,.cls-126,.cls-127,.cls-128,.cls-129,.cls-13,.cls-131,.cls-132,.cls-133,.cls-137,.cls-138,.cls-139,.cls-14,.cls-140,.cls-143,.cls-144,.cls-149,.cls-15,.cls-150,.cls-151,.cls-152,.cls-154,.cls-158,.cls-159,.cls-160,.cls-161,.cls-163,.cls-167,.cls-168,.cls-169,.cls-170,.cls-172,.cls-176,.cls-177,.cls-178,.cls-179,.cls-18,.cls-181,.cls-185,.cls-186,.cls-187,.cls-188,.cls-190,.cls-194,.cls-195,.cls-196,.cls-197,.cls-199,.cls-20,.cls-22,.cls-23,.cls-24,.cls-31,.cls-35,.cls-38,.cls-4,.cls-42,.cls-45,.cls-46,.cls-47,.cls-48,.cls-5,.cls-50,.cls-57,.cls-58,.cls-59,.cls-6,.cls-60,.cls-62,.cls-7,.cls-70,.cls-71,.cls-72,.cls-73,.cls-75,.cls-83,.cls-84,.cls-85,.cls-86,.cls-88,.cls-96,.cls-97,.cls-98,.cls-99{opacity:0.25;}.cls-4{fill:url(#radial-gradient-3);}.cls-5{fill:url(#radial-gradient-4);}.cls-6{fill:url(#radial-gradient-5);}.cls-7{fill:url(#radial-gradient-6);}.cls-8{fill:url(#radial-gradient-7);}.cls-9{fill:url(#radial-gradient-8);}.cls-10{fill:url(#radial-gradient-9);}.cls-11{fill:url(#radial-gradient-10);}.cls-12{fill:url(#radial-gradient-11);}.cls-13{fill:url(#radial-gradient-12);}.cls-14{fill:url(#radial-gradient-13);}.cls-15{fill:url(#radial-gradient-14);}.cls-16{fill:url(#radial-gradient-15);}.cls-17{fill:url(#radial-gradient-16);}.cls-18{fill:url(#radial-gradient-17);}.cls-19{fill:url(#radial-gradient-18);}.cls-20{fill:url(#radial-gradient-19);}.cls-21{fill:url(#radial-gradient-20);}.cls-22{fill:url(#radial-gradient-21);}.cls-23{fill:url(#radial-gradient-22);}.cls-24{fill:url(#radial-gradient-23);}.cls-25{fill:url(#radial-gradient-24);}.cls-26{fill:url(#radial-gradient-25);}.cls-192,.cls-27,.cls-32,.cls-37{opacity:0.45;}.cls-27{fill:url(#radial-gradient-26);}.cls-28{fill:url(#radial-gradient-27);}.cls-30{fill:url(#radial-gradient-28);}.cls-31{fill:url(#radial-gradient-29);}.cls-109,.cls-124,.cls-135,.cls-146,.cls-183,.cls-192,.cls-32,.cls-33,.cls-43,.cls-55,.cls-68,.cls-81,.cls-94{mix-blend-mode:multiply;}.cls-32{fill:url(#radial-gradient-30);}.cls-109,.cls-124,.cls-135,.cls-146,.cls-183,.cls-33,.cls-43,.cls-55,.cls-68,.cls-81,.cls-94{opacity:0.5;}.cls-33{fill:url(#radial-gradient-31);}.cls-34{fill:url(#radial-gradient-32);}.cls-35{fill:url(#radial-gradient-33);}.cls-36{fill:url(#radial-gradient-34);}.cls-37{fill:url(#radial-gradient-35);}.cls-38{fill:url(#radial-gradient-36);}.cls-39{fill:url(#radial-gradient-37);}.cls-40{fill:url(#radial-gradient-38);}.cls-41{fill:url(#radial-gradient-39);}.cls-42{fill:url(#radial-gradient-40);}.cls-43{fill:url(#radial-gradient-41);}.cls-44{fill:url(#radial-gradient-42);}.cls-45{fill:url(#radial-gradient-43);}.cls-46{fill:url(#radial-gradient-44);}.cls-47{fill:url(#radial-gradient-45);}.cls-48{fill:url(#radial-gradient-46);}.cls-49{fill:url(#radial-gradient-47);}.cls-50{fill:url(#radial-gradient-48);}.cls-51{fill:url(#radial-gradient-49);}.cls-52{fill:url(#radial-gradient-50);}.cls-53{fill:url(#radial-gradient-51);}.cls-54{fill:url(#radial-gradient-52);}.cls-55{fill:url(#radial-gradient-53);}.cls-56{fill:url(#radial-gradient-54);}.cls-57{fill:url(#radial-gradient-55);}.cls-58{fill:url(#radial-gradient-56);}.cls-59{fill:url(#radial-gradient-57);}.cls-60{fill:url(#radial-gradient-58);}.cls-61{fill:url(#radial-gradient-59);}.cls-62{fill:url(#radial-gradient-60);}.cls-63{fill:url(#radial-gradient-61);}.cls-64{fill:url(#radial-gradient-62);}.cls-65{fill:url(#radial-gradient-63);}.cls-66{fill:url(#radial-gradient-64);}.cls-67{fill:url(#radial-gradient-65);}.cls-68{fill:url(#radial-gradient-66);}.cls-69{fill:url(#radial-gradient-67);}.cls-70{fill:url(#radial-gradient-68);}.cls-71{fill:url(#radial-gradient-69);}.cls-72{fill:url(#radial-gradient-70);}.cls-73{fill:url(#radial-gradient-71);}.cls-74{fill:url(#radial-gradient-72);}.cls-75{fill:url(#radial-gradient-73);}.cls-76{fill:url(#radial-gradient-74);}.cls-77{fill:url(#radial-gradient-75);}.cls-78{fill:url(#radial-gradient-76);}.cls-79{fill:url(#radial-gradient-77);}.cls-80{fill:url(#radial-gradient-78);}.cls-81{fill:url(#radial-gradient-79);}.cls-82{fill:url(#radial-gradient-80);}.cls-83{fill:url(#radial-gradient-81);}.cls-84{fill:url(#radial-gradient-82);}.cls-85{fill:url(#radial-gradient-83);}.cls-86{fill:url(#radial-gradient-84);}.cls-87{fill:url(#radial-gradient-85);}.cls-88{fill:url(#radial-gradient-86);}.cls-89{fill:url(#radial-gradient-87);}.cls-90{fill:url(#radial-gradient-88);}.cls-91{fill:url(#radial-gradient-89);}.cls-92{fill:url(#radial-gradient-90);}.cls-93{fill:url(#radial-gradient-91);}.cls-94{fill:url(#radial-gradient-92);}.cls-95{fill:url(#radial-gradient-93);}.cls-96{fill:url(#radial-gradient-94);}.cls-97{fill:url(#radial-gradient-95);}.cls-98{fill:url(#radial-gradient-96);}.cls-99{fill:url(#radial-gradient-97);}.cls-100{fill:url(#radial-gradient-98);}.cls-101{fill:url(#radial-gradient-99);}.cls-102{fill:url(#radial-gradient-100);}.cls-103{fill:url(#radial-gradient-101);}.cls-104{fill:url(#radial-gradient-102);}.cls-105{fill:url(#radial-gradient-103);}.cls-106{fill:url(#radial-gradient-104);}.cls-107{fill:url(#radial-gradient-105);}.cls-108{fill:url(#radial-gradient-106);}.cls-109{fill:url(#radial-gradient-107);}.cls-110{fill:url(#radial-gradient-108);}.cls-111{fill:url(#radial-gradient-109);}.cls-112{fill:url(#radial-gradient-110);}.cls-113{fill:url(#radial-gradient-111);}.cls-114{fill:url(#radial-gradient-112);}.cls-115{fill:url(#radial-gradient-113);}.cls-116{fill:url(#radial-gradient-114);}.cls-117{fill:url(#radial-gradient-115);}.cls-118{fill:url(#radial-gradient-116);}.cls-119{fill:url(#radial-gradient-117);}.cls-120{fill:url(#radial-gradient-118);}.cls-121{fill:url(#radial-gradient-119);}.cls-122{fill:url(#radial-gradient-120);}.cls-123{fill:url(#radial-gradient-121);}.cls-124{fill:url(#radial-gradient-122);}.cls-125{fill:url(#radial-gradient-123);}.cls-126{fill:url(#radial-gradient-124);}.cls-127{fill:url(#radial-gradient-125);}.cls-128{fill:url(#radial-gradient-126);}.cls-129{fill:url(#radial-gradient-127);}.cls-130{fill:url(#radial-gradient-128);}.cls-131{fill:url(#radial-gradient-129);}.cls-132{fill:url(#radial-gradient-130);}.cls-133{fill:url(#radial-gradient-131);}.cls-134{fill:url(#radial-gradient-132);}.cls-135{fill:url(#radial-gradient-133);}.cls-136{fill:url(#radial-gradient-134);}.cls-137{fill:url(#radial-gradient-135);}.cls-138{fill:url(#radial-gradient-136);}.cls-139{fill:url(#radial-gradient-137);}.cls-140{fill:url(#radial-gradient-138);}.cls-141{fill:url(#radial-gradient-139);}.cls-142{fill:url(#radial-gradient-140);}.cls-143{fill:url(#radial-gradient-141);}.cls-144{fill:url(#radial-gradient-142);}.cls-145{fill:url(#radial-gradient-143);}.cls-147{fill:url(#radial-gradient-144);}.cls-148{fill:url(#radial-gradient-145);}.cls-149{fill:url(#radial-gradient-146);}.cls-150{fill:url(#radial-gradient-147);}.cls-151{fill:url(#radial-gradient-148);}.cls-152{fill:url(#radial-gradient-149);}.cls-153{fill:url(#radial-gradient-150);}.cls-154{fill:url(#radial-gradient-151);}.cls-155{fill:url(#radial-gradient-152);}.cls-156{fill:url(#radial-gradient-153);}.cls-157{fill:url(#radial-gradient-154);}.cls-158{fill:url(#radial-gradient-155);}.cls-159{fill:url(#radial-gradient-156);}.cls-160{fill:url(#radial-gradient-157);}.cls-161{fill:url(#radial-gradient-158);}.cls-162{fill:url(#radial-gradient-159);}.cls-163{fill:url(#radial-gradient-160);}.cls-164{fill:url(#radial-gradient-161);}.cls-165{fill:url(#radial-gradient-162);}.cls-166{fill:url(#radial-gradient-163);}.cls-167{fill:url(#radial-gradient-164);}.cls-168{fill:url(#radial-gradient-165);}.cls-169{fill:url(#radial-gradient-166);}.cls-170{fill:url(#radial-gradient-167);}.cls-171{fill:url(#radial-gradient-168);}.cls-172{fill:url(#radial-gradient-169);}.cls-173{fill:url(#radial-gradient-170);}.cls-174{fill:url(#radial-gradient-171);}.cls-175{fill:url(#radial-gradient-172);}.cls-176{fill:url(#radial-gradient-173);}.cls-177{fill:url(#radial-gradient-174);}.cls-178{fill:url(#radial-gradient-175);}.cls-179{fill:url(#radial-gradient-176);}.cls-180{fill:url(#radial-gradient-177);}.cls-181{fill:url(#radial-gradient-178);}.cls-182{fill:url(#radial-gradient-179);}.cls-183{fill:url(#radial-gradient-180);}.cls-184{fill:url(#radial-gradient-181);}.cls-185{fill:url(#radial-gradient-182);}.cls-186{fill:url(#radial-gradient-183);}.cls-187{fill:url(#radial-gradient-184);}.cls-188{fill:url(#radial-gradient-185);}.cls-189{fill:url(#radial-gradient-186);}.cls-190{fill:url(#radial-gradient-187);}.cls-191{fill:url(#radial-gradient-188);}.cls-192{fill:url(#radial-gradient-189);}.cls-193{fill:url(#radial-gradient-190);}.cls-194{fill:url(#radial-gradient-191);}.cls-195{fill:url(#radial-gradient-192);}.cls-196{fill:url(#radial-gradient-193);}.cls-197{fill:url(#radial-gradient-194);}.cls-198{fill:url(#radial-gradient-195);}.cls-199{fill:url(#radial-gradient-196);}.cls-200{fill:url(#radial-gradient-197);}</style><radialGradient id="radial-gradient" cx="67.86" cy="68.84" r="69.06" gradientUnits="userSpaceOnUse"><stop offset="0" stop-color="#8ee1ee"/><stop offset="0.36" stop-color="#8ee0ee" stop-opacity="0.99"/><stop offset="0.48" stop-color="#8cdeee" stop-opacity="0.96"/><stop offset="0.57" stop-color="#8adaee" stop-opacity="0.91"/><stop offset="0.65" stop-color="#86d4ee" stop-opacity="0.84"/><stop offset="0.71" stop-color="#82ccee" stop-opacity="0.75"/><stop offset="0.77" stop-color="#7dc2ed" stop-opacity="0.64"/><stop offset="0.82" stop-color="#76b7ed" stop-opacity="0.5"/><stop offset="0.86" stop-color="#6eaaed" stop-opacity="0.34"/><stop offset="0.9" stop-color="#669bec" stop-opacity="0.17"/><stop offset="0.94" stop-color="#5e8dec" stop-opacity="0"/></radialGradient><radialGradient id="radial-gradient-2" cx="39.64" cy="-3.39" r="127.87" gradientUnits="userSpaceOnUse"><stop offset="0.02" stop-color="#a43797"/><stop offset="0.41" stop-color="#a6349a"/><stop offset="0.73" stop-color="#ae2aa3"/><stop offset="1" stop-color="#b81bb0"/><stop offset="1" stop-color="#7b166c"/></radialGradient><radialGradient id="radial-gradient-3" cx="17.19" cy="16.1" r="98.45" gradientTransform="matrix(1, 0.02, -0.02, 1.05, 7.14, -7.84)" gradientUnits="userSpaceOnUse"><stop offset="0.02" stop-color="#a43797"/><stop offset="0.35" stop-color="#a13494"/><stop offset="0.62" stop-color="#972a8b"/><stop offset="0.77" stop-color="#8d2182"/><stop offset="0.88" stop-color="#a11e97"/><stop offset="1" stop-color="#b81bb0"/><stop offset="1" stop-color="#7b166c"/></radialGradient><radialGradient id="radial-gradient-4" cx="17.16" cy="16.9" r="96.28" xlink:href="#radial-gradient-3"/><radialGradient id="radial-gradient-5" cx="17.19" cy="18.64" r="94.59" xlink:href="#radial-gradient-3"/><radialGradient id="radial-gradient-6" cx="37.78" cy="-3.38" r="127.74" gradientTransform="matrix(1, 0, 0, 1, 0, 0)" xlink:href="#radial-gradient-3"/><radialGradient id="radial-gradient-7" cx="35.76" cy="2.87" r="116.9" xlink:href="#radial-gradient-2"/><radialGradient id="radial-gradient-8" cx="21.02" cy="62.95" r="12.97" xlink:href="#radial-gradient-2"/><radialGradient id="radial-gradient-9" cx="26.97" cy="61.95" r="7.13" gradientTransform="matrix(1, 0, 0, 1, 0, 0)" xlink:href="#radial-gradient-3"/><radialGradient id="radial-gradient-10" cx="-354.19" cy="669.45" r="127.87" gradientTransform="translate(-591.31 534.5) rotate(-148.89)" xlink:href="#radial-gradient-2"/><radialGradient id="radial-gradient-11" cx="-361.2" cy="667.09" r="98.45" gradientTransform="matrix(-0.84, -0.54, 0.56, -0.88, -600.52, 537.48)" xlink:href="#radial-gradient-3"/><radialGradient id="radial-gradient-12" cx="-361.22" cy="667.9" r="96.27" gradientTransform="matrix(-0.84, -0.54, 0.56, -0.88, -600.52, 537.48)" xlink:href="#radial-gradient-3"/><radialGradient id="radial-gradient-13" cx="-361.2" cy="669.64" r="94.58" gradientTransform="matrix(-0.84, -0.54, 0.56, -0.88, -600.52, 537.48)" xlink:href="#radial-gradient-3"/><radialGradient id="radial-gradient-14" cx="-356.05" cy="669.45" r="127.73" gradientTransform="translate(-591.31 534.5) rotate(-148.89)" xlink:href="#radial-gradient-3"/><radialGradient id="radial-gradient-15" cx="-358.06" cy="675.71" r="116.89" gradientTransform="translate(-591.31 534.5) rotate(-148.89)" xlink:href="#radial-gradient-2"/><radialGradient id="radial-gradient-16" cx="-372.8" cy="735.78" r="12.97" gradientTransform="translate(-591.31 534.5) rotate(-148.89)" xlink:href="#radial-gradient-2"/><radialGradient id="radial-gradient-17" cx="-366.86" cy="734.79" r="7.13" gradientTransform="translate(-591.31 534.5) rotate(-148.89)" xlink:href="#radial-gradient-3"/><radialGradient id="radial-gradient-18" cx="17.78" cy="-31.55" r="126.97" gradientTransform="translate(23.77 23.65) rotate(5.26)" xlink:href="#radial-gradient-2"/><radialGradient id="radial-gradient-19" cx="42.69" cy="-2.49" r="126.17" gradientTransform="matrix(1, 0, 0, 1, 0, 0)" xlink:href="#radial-gradient-3"/><radialGradient id="radial-gradient-20" cx="39.12" cy="-5.15" r="107.55" gradientTransform="translate(8.91 7.75) rotate(1.84)" xlink:href="#radial-gradient-2"/><radialGradient id="radial-gradient-21" cx="85.5" cy="-31.44" r="85.75" gradientTransform="matrix(0.92, 0, 0, 0.86, -16.61, 35.44)" xlink:href="#radial-gradient-2"/><radialGradient id="radial-gradient-22" cx="38.38" cy="-1.92" r="158.96" gradientTransform="matrix(1, 0, 0, 1, 0, 0)" xlink:href="#radial-gradient-3"/><radialGradient id="radial-gradient-23" cx="60.39" cy="11.12" r="83.32" gradientTransform="matrix(1, 0, 0, 1, 0, 0)" xlink:href="#radial-gradient-3"/><radialGradient id="radial-gradient-24" cx="94.11" cy="28.84" r="12.47" xlink:href="#radial-gradient-2"/><radialGradient id="radial-gradient-25" cx="50.7" cy="41.83" r="85.72" gradientTransform="translate(123.39 -11.8) rotate(79.08)" gradientUnits="userSpaceOnUse"><stop offset="0.08" stop-color="#4597df"/><stop offset="1" stop-color="#4424e6"/></radialGradient><radialGradient id="radial-gradient-26" cx="57.03" cy="30.07" r="59.48" gradientTransform="translate(-8.33 8.62) scale(0.96 0.97)" gradientUnits="userSpaceOnUse"><stop offset="0" stop-color="#4424e6"/><stop offset="0.92" stop-color="#4597df"/></radialGradient><radialGradient id="radial-gradient-27" cx="50.7" cy="42.94" r="85" gradientTransform="matrix(1, 0, 0, 1, 0, 0)" xlink:href="#radial-gradient-26"/><radialGradient id="radial-gradient-28" cx="83.99" cy="27.96" r="8.59" gradientTransform="matrix(1, 0, 0, 1, 0, 0)" xlink:href="#radial-gradient-26"/><radialGradient id="radial-gradient-29" cx="54.25" cy="89.08" r="0.01" gradientTransform="matrix(1, 0, 0, 1, 0, 0)" xlink:href="#radial-gradient-3"/><radialGradient id="radial-gradient-30" cx="38.87" cy="64.75" r="75.78" gradientTransform="matrix(1, 0, 0, 1, 0, 0)" xlink:href="#radial-gradient-25"/><radialGradient id="radial-gradient-31" cx="40.9" cy="5.46" r="117.57" gradientTransform="matrix(1, 0, 0, 1, 0, 0)" xlink:href="#radial-gradient-25"/><radialGradient id="radial-gradient-32" cx="39.77" cy="-2.79" r="126.97" xlink:href="#radial-gradient-2"/><radialGradient id="radial-gradient-33" cx="39.77" cy="-0.74" r="123.08" gradientTransform="matrix(1, 0, 0, 1, 0, 0)" xlink:href="#radial-gradient-3"/><radialGradient id="radial-gradient-34" cx="66.55" cy="-5.14" r="119.38" gradientTransform="translate(-20.22 5.21) scale(0.93 0.98)" xlink:href="#radial-gradient-2"/><radialGradient id="radial-gradient-35" cx="40.11" cy="4.7" r="84.48" xlink:href="#radial-gradient-2"/><radialGradient id="radial-gradient-36" cx="51.6" cy="5.34" r="36.81" gradientTransform="matrix(1, 0, 0, 1, 0, 0)" xlink:href="#radial-gradient-3"/><radialGradient id="radial-gradient-37" cx="42.53" cy="23.69" r="6.36" xlink:href="#radial-gradient-2"/><radialGradient id="radial-gradient-38" cx="44.45" cy="39.35" r="5.08" xlink:href="#radial-gradient-2"/><radialGradient id="radial-gradient-39" cx="56.99" cy="34.01" r="3.44" xlink:href="#radial-gradient-2"/><radialGradient id="radial-gradient-40" cx="51.96" cy="15.61" r="64.36" gradientTransform="matrix(1, 0, 0, 1, 0, 0)" xlink:href="#radial-gradient-3"/><radialGradient id="radial-gradient-41" cx="43.52" cy="4.38" r="116.67" gradientTransform="matrix(1, 0, 0, 1, 0, 0)" xlink:href="#radial-gradient-25"/><radialGradient id="radial-gradient-42" cx="39.77" cy="-2.79" r="126.97" xlink:href="#radial-gradient-2"/><radialGradient id="radial-gradient-43" cx="50.86" cy="46.88" r="96.32" gradientTransform="translate(-21.99 -18.9) rotate(-3.55)" xlink:href="#radial-gradient-3"/><radialGradient id="radial-gradient-44" cx="52.86" cy="61.78" r="80.36" gradientTransform="translate(-21.99 -18.9) rotate(-3.55)" xlink:href="#radial-gradient-3"/><radialGradient id="radial-gradient-45" cx="50.29" cy="44.21" r="100.19" gradientTransform="translate(-21.99 -18.9) rotate(-3.55)" xlink:href="#radial-gradient-3"/><radialGradient id="radial-gradient-46" cx="40.2" cy="0.03" r="122.91" gradientTransform="matrix(1, 0, 0, 1, 0, 0)" xlink:href="#radial-gradient-3"/><radialGradient id="radial-gradient-47" cx="69.19" cy="10.13" r="112.52" gradientTransform="translate(-23.81 -2.93) scale(0.92 1.01)" xlink:href="#radial-gradient-2"/><radialGradient id="radial-gradient-48" cx="42.51" cy="59.65" r="46.71" gradientTransform="matrix(1, 0, 0, 1, 0, 0)" xlink:href="#radial-gradient-3"/><radialGradient id="radial-gradient-49" cx="25.31" cy="101.97" r="3.24" xlink:href="#radial-gradient-2"/><radialGradient id="radial-gradient-50" cx="34.58" cy="110.8" r="4.61" xlink:href="#radial-gradient-2"/><radialGradient id="radial-gradient-51" cx="31.58" cy="88.18" r="2.75" xlink:href="#radial-gradient-2"/><radialGradient id="radial-gradient-52" cx="42.97" cy="96.83" r="5.12" xlink:href="#radial-gradient-2"/><radialGradient id="radial-gradient-53" cx="53.61" cy="26.47" r="126.87" gradientTransform="translate(-11.08 -39.88) scale(0.96 1.14)" xlink:href="#radial-gradient-25"/><radialGradient id="radial-gradient-54" cx="40.08" cy="-2.74" r="126.88" xlink:href="#radial-gradient-2"/><radialGradient id="radial-gradient-55" cx="176.42" cy="-200.13" r="126.89" gradientTransform="matrix(0.57, 0.13, -0.16, 0.7, -89.2, 130.55)" xlink:href="#radial-gradient-3"/><radialGradient id="radial-gradient-56" cx="176.19" cy="-199.04" r="124.12" gradientTransform="matrix(0.57, 0.13, -0.16, 0.7, -89.2, 130.55)" xlink:href="#radial-gradient-3"/><radialGradient id="radial-gradient-57" cx="176.16" cy="-200.13" r="126.88" gradientTransform="matrix(0.57, 0.13, -0.16, 0.7, -89.2, 130.55)" xlink:href="#radial-gradient-3"/><radialGradient id="radial-gradient-58" cx="40.02" cy="-2.26" r="125.98" gradientTransform="matrix(1, 0, 0, 1, 0, 0)" xlink:href="#radial-gradient-3"/><radialGradient id="radial-gradient-59" cx="41.69" cy="-16.19" r="118.71" gradientTransform="translate(-2.01 20.14) scale(0.99 0.93)" xlink:href="#radial-gradient-2"/><radialGradient id="radial-gradient-60" cx="39.31" cy="15.44" r="83.32" gradientTransform="matrix(1, 0, 0, 1, 0, 0)" xlink:href="#radial-gradient-3"/><radialGradient id="radial-gradient-61" cx="30.28" cy="58.86" r="1.52" xlink:href="#radial-gradient-2"/><radialGradient id="radial-gradient-62" cx="27.8" cy="53.31" r="2.74" xlink:href="#radial-gradient-2"/><radialGradient id="radial-gradient-63" cx="30.98" cy="48.9" r="0.61" xlink:href="#radial-gradient-2"/><radialGradient id="radial-gradient-64" cx="37.31" cy="53.92" r="3.23" xlink:href="#radial-gradient-2"/><radialGradient id="radial-gradient-65" cx="36.05" cy="60.55" r="1.08" xlink:href="#radial-gradient-2"/><radialGradient id="radial-gradient-66" cx="-661.37" cy="160.23" r="126.88" gradientTransform="matrix(-0.87, 0.41, 0.48, 1.03, -591.79, 89.99)" xlink:href="#radial-gradient-25"/><radialGradient id="radial-gradient-67" cx="-648.58" cy="149.57" r="126.88" gradientTransform="matrix(-0.91, 0.42, 0.42, 0.91, -584.99, 130.98)" xlink:href="#radial-gradient-2"/><radialGradient id="radial-gradient-68" cx="-905.45" cy="224.67" r="126.88" gradientTransform="matrix(-0.46, 0.36, 0.44, 0.56, -448.35, 211.78)" xlink:href="#radial-gradient-3"/><radialGradient id="radial-gradient-69" cx="-905.69" cy="225.76" r="124.12" gradientTransform="matrix(-0.46, 0.36, 0.44, 0.56, -448.35, 211.78)" xlink:href="#radial-gradient-3"/><radialGradient id="radial-gradient-70" cx="-905.71" cy="224.67" r="126.88" gradientTransform="matrix(-0.46, 0.36, 0.44, 0.56, -448.35, 211.78)" xlink:href="#radial-gradient-3"/><radialGradient id="radial-gradient-71" cx="-648.64" cy="150.04" r="125.98" gradientTransform="matrix(-0.91, 0.42, 0.42, 0.91, -584.99, 130.98)" xlink:href="#radial-gradient-3"/><radialGradient id="radial-gradient-72" cx="-651.36" cy="147.01" r="118.71" gradientTransform="matrix(-0.9, 0.42, 0.39, 0.85, -574.51, 148.21)" xlink:href="#radial-gradient-2"/><radialGradient id="radial-gradient-73" cx="-649.35" cy="167.74" r="83.32" gradientTransform="matrix(-0.91, 0.42, 0.42, 0.91, -584.99, 130.98)" xlink:href="#radial-gradient-3"/><radialGradient id="radial-gradient-74" cx="-658.38" cy="211.17" r="1.52" gradientTransform="matrix(-0.91, 0.42, 0.42, 0.91, -584.99, 130.98)" xlink:href="#radial-gradient-2"/><radialGradient id="radial-gradient-75" cx="-660.86" cy="205.61" r="2.74" gradientTransform="matrix(-0.91, 0.42, 0.42, 0.91, -584.99, 130.98)" xlink:href="#radial-gradient-2"/><radialGradient id="radial-gradient-76" cx="-657.68" cy="201.21" r="0.61" gradientTransform="matrix(-0.91, 0.42, 0.42, 0.91, -584.99, 130.98)" xlink:href="#radial-gradient-2"/><radialGradient id="radial-gradient-77" cx="-651.35" cy="206.23" r="3.23" gradientTransform="matrix(-0.91, 0.42, 0.42, 0.91, -584.99, 130.98)" xlink:href="#radial-gradient-2"/><radialGradient id="radial-gradient-78" cx="-652.61" cy="212.86" r="1.08" gradientTransform="matrix(-0.91, 0.42, 0.42, 0.91, -584.99, 130.98)" xlink:href="#radial-gradient-2"/><radialGradient id="radial-gradient-79" cx="-301.82" cy="-135.57" r="126.87" gradientTransform="matrix(-0.69, -0.67, -0.72, 0.73, -162.65, -67.62)" xlink:href="#radial-gradient-25"/><radialGradient id="radial-gradient-80" cx="-299.68" cy="-140.89" r="126.87" gradientTransform="matrix(-0.71, -0.7, -0.7, 0.71, -172.17, -73.71)" xlink:href="#radial-gradient-2"/><radialGradient id="radial-gradient-81" cx="-438.43" cy="-279.27" r="126.89" gradientTransform="matrix(-0.5, -0.31, -0.37, 0.61, -198.7, 81.85)" xlink:href="#radial-gradient-3"/><radialGradient id="radial-gradient-82" cx="-438.67" cy="-278.17" r="124.12" gradientTransform="matrix(-0.5, -0.31, -0.37, 0.61, -198.7, 81.85)" xlink:href="#radial-gradient-3"/><radialGradient id="radial-gradient-83" cx="-438.69" cy="-279.27" r="126.89" gradientTransform="matrix(-0.5, -0.31, -0.37, 0.61, -198.7, 81.85)" xlink:href="#radial-gradient-3"/><radialGradient id="radial-gradient-84" cx="-299.73" cy="-140.41" r="125.98" gradientTransform="matrix(-0.71, -0.7, -0.7, 0.71, -172.17, -73.71)" xlink:href="#radial-gradient-3"/><radialGradient id="radial-gradient-85" cx="-299.84" cy="-164.24" r="118.72" gradientTransform="matrix(-0.71, -0.7, -0.65, 0.67, -184.55, -57.5)" xlink:href="#radial-gradient-2"/><radialGradient id="radial-gradient-86" cx="-300.44" cy="-122.72" r="83.32" gradientTransform="matrix(-0.71, -0.7, -0.7, 0.71, -172.17, -73.71)" xlink:href="#radial-gradient-3"/><radialGradient id="radial-gradient-87" cx="-309.48" cy="-79.29" r="1.52" gradientTransform="matrix(-0.71, -0.7, -0.7, 0.71, -172.17, -73.71)" xlink:href="#radial-gradient-2"/><radialGradient id="radial-gradient-88" cx="-311.96" cy="-84.84" r="2.74" gradientTransform="matrix(-0.71, -0.7, -0.7, 0.71, -172.17, -73.71)" xlink:href="#radial-gradient-2"/><radialGradient id="radial-gradient-89" cx="-308.77" cy="-89.25" r="0.61" gradientTransform="matrix(-0.71, -0.7, -0.7, 0.71, -172.17, -73.71)" xlink:href="#radial-gradient-2"/><radialGradient id="radial-gradient-90" cx="-302.44" cy="-84.23" r="3.23" gradientTransform="matrix(-0.71, -0.7, -0.7, 0.71, -172.17, -73.71)" xlink:href="#radial-gradient-2"/><radialGradient id="radial-gradient-91" cx="-303.7" cy="-77.6" r="1.08" gradientTransform="matrix(-0.71, -0.7, -0.7, 0.71, -172.17, -73.71)" xlink:href="#radial-gradient-2"/><radialGradient id="radial-gradient-92" cx="16.87" cy="7.96" r="126.97" gradientTransform="translate(21.96 -15.73) scale(1.07 1.05)" xlink:href="#radial-gradient-25"/><radialGradient id="radial-gradient-93" cx="40.04" cy="-4.7" r="126.97" xlink:href="#radial-gradient-2"/><radialGradient id="radial-gradient-94" cx="148.11" cy="-108.28" r="125.39" gradientTransform="translate(-70.16 87.2) scale(0.76 0.7)" xlink:href="#radial-gradient-3"/><radialGradient id="radial-gradient-95" cx="148.82" cy="-108.06" r="123.84" gradientTransform="translate(-70.16 87.2) scale(0.76 0.7)" xlink:href="#radial-gradient-3"/><radialGradient id="radial-gradient-96" cx="148.34" cy="-108.12" r="124.76" gradientTransform="translate(-70.16 87.2) scale(0.76 0.7)" xlink:href="#radial-gradient-3"/><radialGradient id="radial-gradient-97" cx="40.04" cy="5.03" r="113.37" gradientTransform="matrix(1, 0, 0, 1, 0, 0)" xlink:href="#radial-gradient-3"/><radialGradient id="radial-gradient-98" cx="50.4" cy="47.24" r="36.56" xlink:href="#radial-gradient-2"/><radialGradient id="radial-gradient-99" cx="40.59" cy="41.03" r="47.86" gradientTransform="matrix(1, 0, 0, 1, 0, 0)" xlink:href="#radial-gradient-3"/><radialGradient id="radial-gradient-100" cx="56.55" cy="18.69" r="102.44" gradientTransform="matrix(1, 0, 0, 1, 0, 0)" xlink:href="#radial-gradient-3"/><radialGradient id="radial-gradient-101" cx="49.92" cy="63.64" r="2.95" xlink:href="#radial-gradient-2"/><radialGradient id="radial-gradient-102" cx="47.95" cy="49.38" r="1.48" xlink:href="#radial-gradient-2"/><radialGradient id="radial-gradient-103" cx="55.39" cy="47.22" r="3.22" xlink:href="#radial-gradient-2"/><radialGradient id="radial-gradient-104" cx="56.34" cy="62.56" r="0.68" xlink:href="#radial-gradient-2"/><radialGradient id="radial-gradient-105" cx="51" cy="73.54" r="2.48" xlink:href="#radial-gradient-2"/><radialGradient id="radial-gradient-106" cx="62.5" cy="66.56" r="5.33" xlink:href="#radial-gradient-2"/><radialGradient id="radial-gradient-107" cx="26.47" cy="14.97" r="126.97" gradientTransform="translate(11.16 -22.06) scale(1.04 1.08)" xlink:href="#radial-gradient-25"/><radialGradient id="radial-gradient-108" cx="39.77" cy="-2.79" r="126.97" xlink:href="#radial-gradient-2"/><radialGradient id="radial-gradient-109" cx="194.23" cy="-188.34" r="126.97" gradientTransform="translate(-82.84 121.61) scale(0.69 0.56)" xlink:href="#radial-gradient-3"/><radialGradient id="radial-gradient-110" cx="197.86" cy="-187.29" r="120.89" gradientTransform="translate(-82.84 121.61) scale(0.69 0.56)" xlink:href="#radial-gradient-3"/><radialGradient id="radial-gradient-111" cx="197.92" cy="-188.39" r="121.89" gradientTransform="translate(-82.84 121.61) scale(0.69 0.56)" xlink:href="#radial-gradient-3"/><radialGradient id="radial-gradient-112" cx="39.77" cy="-2.79" r="126.97" gradientTransform="matrix(1, 0, 0, 1, 0, 0)" xlink:href="#radial-gradient-3"/><radialGradient id="radial-gradient-113" cx="78.06" cy="28.53" r="33.98" xlink:href="#radial-gradient-2"/><radialGradient id="radial-gradient-114" cx="70.27" cy="32.62" r="23.34" gradientTransform="matrix(1, 0, 0, 1, 0, 0)" xlink:href="#radial-gradient-3"/><radialGradient id="radial-gradient-115" cx="62.47" cy="21.93" r="70.92" gradientTransform="matrix(1, 0, 0, 1, 0, 0)" xlink:href="#radial-gradient-3"/><radialGradient id="radial-gradient-116" cx="62.92" cy="31.71" r="33.98" gradientTransform="matrix(1, 0, 0, 1, 0, 0)" xlink:href="#radial-gradient-3"/><radialGradient id="radial-gradient-117" cx="74.53" cy="46.09" r="2.52" xlink:href="#radial-gradient-2"/><radialGradient id="radial-gradient-118" cx="80.11" cy="46.52" r="1.08" xlink:href="#radial-gradient-2"/><radialGradient id="radial-gradient-119" cx="74.88" cy="38.71" r="1.56" xlink:href="#radial-gradient-2"/><radialGradient id="radial-gradient-120" cx="78.91" cy="52.68" r="3.15" xlink:href="#radial-gradient-2"/><radialGradient id="radial-gradient-121" cx="85.68" cy="49.48" r="1.05" xlink:href="#radial-gradient-2"/><radialGradient id="radial-gradient-122" cx="40.59" cy="9.33" r="126.97" gradientTransform="translate(0 -17.73) scale(1 1.06)" xlink:href="#radial-gradient-25"/><radialGradient id="radial-gradient-123" cx="40.59" cy="-4.02" r="126.97" xlink:href="#radial-gradient-2"/><radialGradient id="radial-gradient-124" cx="54.42" cy="21.14" r="91.58" gradientTransform="matrix(1, 0, 0, 1, 0, 0)" xlink:href="#radial-gradient-3"/><radialGradient id="radial-gradient-125" cx="55.17" cy="21.14" r="91.1" gradientTransform="matrix(1, 0, 0, 1, 0, 0)" xlink:href="#radial-gradient-3"/><radialGradient id="radial-gradient-126" cx="56.27" cy="27.52" r="83.95" gradientTransform="matrix(1, 0, 0, 1, 0, 0)" xlink:href="#radial-gradient-3"/><radialGradient id="radial-gradient-127" cx="40.59" cy="-4.02" r="126.97" gradientTransform="matrix(1, 0, 0, 1, 0, 0)" xlink:href="#radial-gradient-3"/><radialGradient id="radial-gradient-128" cx="72.65" cy="51.03" r="47.75" xlink:href="#radial-gradient-2"/><radialGradient id="radial-gradient-129" cx="62.09" cy="78.49" r="24.79" gradientTransform="matrix(1, 0, 0, 1, 0, 0)" xlink:href="#radial-gradient-3"/><radialGradient id="radial-gradient-130" cx="81.05" cy="54.44" r="23.4" gradientTransform="matrix(1, 0, 0, 1, 0, 0)" xlink:href="#radial-gradient-3"/><radialGradient id="radial-gradient-131" cx="61.76" cy="53.3" r="31.36" gradientTransform="matrix(1, 0, 0, 1, 0, 0)" xlink:href="#radial-gradient-3"/><radialGradient id="radial-gradient-132" cx="80.48" cy="82.29" r="11.54" xlink:href="#radial-gradient-2"/><radialGradient id="radial-gradient-133" cx="18.23" cy="-0.35" r="154.83" gradientTransform="translate(13.82 -39.82) scale(1.04 1.12)" xlink:href="#radial-gradient-25"/><radialGradient id="radial-gradient-134" cx="33.22" cy="-27.38" r="154.83" xlink:href="#radial-gradient-2"/><radialGradient id="radial-gradient-135" cx="36.89" cy="9.59" r="106.23" gradientTransform="matrix(1, 0, 0, 1, 0, 0)" xlink:href="#radial-gradient-3"/><radialGradient id="radial-gradient-136" cx="37.07" cy="9.46" r="106.19" gradientTransform="matrix(1, 0, 0, 1, 0, 0)" xlink:href="#radial-gradient-3"/><radialGradient id="radial-gradient-137" cx="39.27" cy="16.88" r="96.8" gradientTransform="matrix(1, 0, 0, 1, 0, 0)" xlink:href="#radial-gradient-3"/><radialGradient id="radial-gradient-138" cx="33.22" cy="-27.33" r="154.77" gradientTransform="matrix(1, 0, 0, 1, 0, 0)" xlink:href="#radial-gradient-3"/><radialGradient id="radial-gradient-139" cx="51.44" cy="59.11" r="42.29" xlink:href="#radial-gradient-2"/><radialGradient id="radial-gradient-140" cx="51.44" cy="59.11" r="42.29" xlink:href="#radial-gradient-2"/><radialGradient id="radial-gradient-141" cx="55.53" cy="9.82" r="98.87" gradientTransform="matrix(1, 0, 0, 1, 0, 0)" xlink:href="#radial-gradient-3"/><radialGradient id="radial-gradient-142" cx="42.35" cy="43.44" r="48.81" gradientTransform="matrix(1, 0, 0, 1, 0, 0)" xlink:href="#radial-gradient-3"/><radialGradient id="radial-gradient-143" cx="52.25" cy="86.66" r="8.17" xlink:href="#radial-gradient-2"/><radialGradient id="radial-gradient-144" cx="47.06" cy="92.13" r="126.97" gradientTransform="matrix(1.07, -0.2, 0.22, 1.15, -47.98, -113.41)" xlink:href="#radial-gradient-25"/><radialGradient id="radial-gradient-145" cx="79.23" cy="65.33" r="126.97" gradientTransform="matrix(0.98, -0.19, 0.19, 0.98, -66.05, -52.99)" xlink:href="#radial-gradient-2"/><radialGradient id="radial-gradient-146" cx="144.64" cy="131.99" r="3.46" gradientTransform="matrix(0.82, -0.16, 0.18, 0.92, -112.3, -24.18)" xlink:href="#radial-gradient-3"/><radialGradient id="radial-gradient-147" cx="144.5" cy="131.95" r="3.23" gradientTransform="matrix(0.82, -0.16, 0.18, 0.92, -112.3, -24.18)" xlink:href="#radial-gradient-3"/><radialGradient id="radial-gradient-148" cx="144.8" cy="132.06" r="3.37" gradientTransform="matrix(0.82, -0.16, 0.18, 0.92, -112.3, -24.18)" xlink:href="#radial-gradient-3"/><radialGradient id="radial-gradient-149" cx="79.22" cy="65.38" r="126.9" gradientTransform="matrix(0.98, -0.19, 0.19, 0.98, -66.05, -52.99)" xlink:href="#radial-gradient-3"/><radialGradient id="radial-gradient-150" cx="82.42" cy="120.17" r="16.83" gradientTransform="matrix(0.94, -0.18, 0.17, 0.9, -73.9, -23.52)" xlink:href="#radial-gradient-2"/><radialGradient id="radial-gradient-151" cx="74.05" cy="144.94" r="4.5" gradientTransform="matrix(0.98, -0.19, 0.19, 0.98, -66.05, -52.99)" xlink:href="#radial-gradient-3"/><radialGradient id="radial-gradient-152" cx="71.89" cy="144.98" r="4.53" gradientTransform="matrix(0.98, -0.19, 0.19, 0.98, -66.05, -52.99)" xlink:href="#radial-gradient-2"/><radialGradient id="radial-gradient-153" cx="-607.28" cy="319.9" r="126.98" gradientTransform="matrix(-0.64, 0.88, 0.95, 0.7, -691.12, 292.43)" xlink:href="#radial-gradient-25"/><radialGradient id="radial-gradient-154" cx="-633.11" cy="332.92" r="126.97" gradientTransform="matrix(-0.59, 0.81, 0.81, 0.59, -628.76, 302.17)" xlink:href="#radial-gradient-2"/><radialGradient id="radial-gradient-155" cx="-705.66" cy="416.75" r="3.46" gradientTransform="matrix(-0.5, 0.68, 0.76, 0.56, -582.6, 273)" xlink:href="#radial-gradient-3"/><radialGradient id="radial-gradient-156" cx="-705.8" cy="416.71" r="3.23" gradientTransform="matrix(-0.5, 0.68, 0.76, 0.56, -582.6, 273)" xlink:href="#radial-gradient-3"/><radialGradient id="radial-gradient-157" cx="-705.5" cy="416.82" r="3.37" gradientTransform="matrix(-0.5, 0.68, 0.76, 0.56, -582.6, 273)" xlink:href="#radial-gradient-3"/><radialGradient id="radial-gradient-158" cx="-633.12" cy="332.97" r="126.9" gradientTransform="matrix(-0.59, 0.81, 0.81, 0.59, -628.76, 302.17)" xlink:href="#radial-gradient-3"/><radialGradient id="radial-gradient-159" cx="-662.12" cy="412.54" r="16.83" gradientTransform="matrix(-0.57, 0.77, 0.74, 0.54, -598.43, 307.34)" xlink:href="#radial-gradient-2"/><radialGradient id="radial-gradient-160" cx="-638.29" cy="412.53" r="4.5" gradientTransform="matrix(-0.59, 0.81, 0.81, 0.59, -628.76, 302.17)" xlink:href="#radial-gradient-3"/><radialGradient id="radial-gradient-161" cx="-640.45" cy="412.57" r="4.53" gradientTransform="matrix(-0.59, 0.81, 0.81, 0.59, -628.76, 302.17)" xlink:href="#radial-gradient-2"/><radialGradient id="radial-gradient-162" cx="-590.71" cy="326.63" r="154.08" gradientTransform="matrix(-0.64, 0.88, 0.95, 0.7, -691.12, 292.43)" xlink:href="#radial-gradient-25"/><radialGradient id="radial-gradient-163" cx="-342.7" cy="-182.89" r="154.07" gradientTransform="matrix(-0.8, -0.6, -0.6, 0.8, -237.16, -81.99)" xlink:href="#radial-gradient-2"/><radialGradient id="radial-gradient-164" cx="-360.44" cy="-114.36" r="4.2" gradientTransform="matrix(-0.67, -0.5, -0.56, 0.75, -207.52, -35.64)" xlink:href="#radial-gradient-3"/><radialGradient id="radial-gradient-165" cx="-360.62" cy="-114.41" r="3.91" gradientTransform="matrix(-0.67, -0.5, -0.56, 0.75, -207.52, -35.64)" xlink:href="#radial-gradient-3"/><radialGradient id="radial-gradient-166" cx="-360.25" cy="-114.28" r="4.09" gradientTransform="matrix(-0.67, -0.5, -0.56, 0.75, -207.52, -35.64)" xlink:href="#radial-gradient-3"/><radialGradient id="radial-gradient-167" cx="-342.72" cy="-182.84" r="153.99" gradientTransform="matrix(-0.8, -0.6, -0.6, 0.8, -237.16, -81.99)" xlink:href="#radial-gradient-3"/><radialGradient id="radial-gradient-168" cx="-361.98" cy="-134.39" r="20.43" gradientTransform="matrix(-0.76, -0.57, -0.55, 0.73, -243.15, -52.03)" xlink:href="#radial-gradient-2"/><radialGradient id="radial-gradient-169" cx="-348.99" cy="-86.3" r="5.46" gradientTransform="matrix(-0.8, -0.6, -0.6, 0.8, -237.16, -81.99)" xlink:href="#radial-gradient-3"/><radialGradient id="radial-gradient-170" cx="-351.61" cy="-86.25" r="5.49" gradientTransform="matrix(-0.8, -0.6, -0.6, 0.8, -237.16, -81.99)" xlink:href="#radial-gradient-2"/><radialGradient id="radial-gradient-171" cx="-191.57" cy="-104.29" r="126.97" gradientTransform="matrix(-0.64, -0.88, -0.95, 0.69, -56.28, -57.58)" xlink:href="#radial-gradient-25"/><radialGradient id="radial-gradient-172" cx="-179.26" cy="-164.27" r="126.97" gradientTransform="matrix(-0.59, -0.81, -0.81, 0.59, -83.85, -1.79)" xlink:href="#radial-gradient-2"/><radialGradient id="radial-gradient-173" cx="-164.06" cy="-112.78" r="3.46" gradientTransform="matrix(-0.49, -0.68, -0.76, 0.55, -70, 50.82)" xlink:href="#radial-gradient-3"/><radialGradient id="radial-gradient-174" cx="-164.2" cy="-112.83" r="3.23" gradientTransform="matrix(-0.49, -0.68, -0.76, 0.55, -70, 50.82)" xlink:href="#radial-gradient-3"/><radialGradient id="radial-gradient-175" cx="-163.9" cy="-112.71" r="3.37" gradientTransform="matrix(-0.49, -0.68, -0.76, 0.55, -70, 50.82)" xlink:href="#radial-gradient-3"/><radialGradient id="radial-gradient-176" cx="-179.28" cy="-164.22" r="126.91" gradientTransform="matrix(-0.59, -0.81, -0.81, 0.59, -83.85, -1.79)" xlink:href="#radial-gradient-3"/><radialGradient id="radial-gradient-177" cx="-188.12" cy="-132.05" r="16.83" gradientTransform="matrix(-0.56, -0.77, -0.74, 0.54, -99.36, 25.64)" xlink:href="#radial-gradient-2"/><radialGradient id="radial-gradient-178" cx="-184.45" cy="-84.66" r="4.5" gradientTransform="matrix(-0.59, -0.81, -0.81, 0.59, -83.85, -1.79)" xlink:href="#radial-gradient-3"/><radialGradient id="radial-gradient-179" cx="-186.61" cy="-84.62" r="4.53" gradientTransform="matrix(-0.59, -0.81, -0.81, 0.59, -83.85, -1.79)" xlink:href="#radial-gradient-2"/><radialGradient id="radial-gradient-180" cx="40.76" cy="27.28" r="96.33" gradientTransform="matrix(1, 0, 0, 1, 0, 0)" xlink:href="#radial-gradient-25"/><radialGradient id="radial-gradient-181" cx="39.51" cy="-2.76" r="127.04" xlink:href="#radial-gradient-2"/><radialGradient id="radial-gradient-182" cx="72.81" cy="24.7" r="88.77" gradientTransform="translate(-20.86 18.72) scale(0.92 0.95)" xlink:href="#radial-gradient-3"/><radialGradient id="radial-gradient-183" cx="72.8" cy="25.16" r="88.36" gradientTransform="translate(-20.86 18.72) scale(0.92 0.95)" xlink:href="#radial-gradient-3"/><radialGradient id="radial-gradient-184" cx="76" cy="31.37" r="80.99" gradientTransform="translate(-20.86 18.72) scale(0.92 0.95)" xlink:href="#radial-gradient-3"/><radialGradient id="radial-gradient-185" cx="39.54" cy="26.45" r="97.48" gradientTransform="matrix(1, 0, 0, 1, 0, 0)" xlink:href="#radial-gradient-3"/><radialGradient id="radial-gradient-186" cx="55.27" cy="20.25" r="85.55" gradientTransform="translate(-11.62 25.76) scale(0.96 0.93)" xlink:href="#radial-gradient-2"/><radialGradient id="radial-gradient-187" cx="27.21" cy="62.73" r="67.04" gradientTransform="matrix(1, 0, 0, 1, 0, 0)" xlink:href="#radial-gradient-3"/><radialGradient id="radial-gradient-188" cx="71.8" cy="112.54" r="9" xlink:href="#radial-gradient-2"/><radialGradient id="radial-gradient-189" cx="97.88" cy="-96.9" r="164.66" gradientTransform="matrix(1, 0, 0, 1, 0, 0)" xlink:href="#radial-gradient-25"/><radialGradient id="radial-gradient-190" cx="49.5" cy="450.53" r="100.5" gradientTransform="matrix(0.16, -0.99, 1.25, 0.21, -576.28, 23.95)" xlink:href="#radial-gradient-2"/><radialGradient id="radial-gradient-191" cx="82.74" cy="492" r="70.22" gradientTransform="matrix(0.15, -0.91, 1.19, 0.2, -555.58, 49.16)" xlink:href="#radial-gradient-3"/><radialGradient id="radial-gradient-192" cx="82.73" cy="492.37" r="69.9" gradientTransform="matrix(0.15, -0.91, 1.19, 0.2, -555.58, 49.16)" xlink:href="#radial-gradient-3"/><radialGradient id="radial-gradient-193" cx="85.26" cy="497.28" r="64.07" gradientTransform="matrix(0.15, -0.91, 1.19, 0.2, -555.58, 49.16)" xlink:href="#radial-gradient-3"/><radialGradient id="radial-gradient-194" cx="49.52" cy="473.64" r="77.12" gradientTransform="matrix(0.16, -0.99, 1.25, 0.21, -576.28, 23.95)" xlink:href="#radial-gradient-3"/><radialGradient id="radial-gradient-195" cx="65.57" cy="497.7" r="67.68" gradientTransform="matrix(0.16, -0.94, 1.16, 0.19, -544.97, 41.17)" xlink:href="#radial-gradient-2"/><radialGradient id="radial-gradient-196" cx="39.76" cy="502.34" r="53.03" gradientTransform="matrix(0.16, -0.99, 1.25, 0.21, -576.28, 23.95)" xlink:href="#radial-gradient-3"/><radialGradient id="radial-gradient-197" cx="75.04" cy="541.74" r="7.12" gradientTransform="matrix(0.16, -0.99, 1.25, 0.21, -576.28, 23.95)" xlink:href="#radial-gradient-2"/></defs><g class="cls-1"><g id="Layer_2" data-name="Layer 2"><g id="OBJECTS"><circle class="cls-2" cx="68.84" cy="68.84" r="68.84"/><path class="cls-3" d="M24.34,45.8a9.54,9.54,0,0,0-3.7.66c-7.28,2.8-9.65,10.72-9.36,18,.26,6.38,4.38,18.06,13,15.81a8,8,0,0,0,5.58-8c-.08-2.28-.94-3.25.28-5.32,1-1.75,2.51-3.13,3.39-5C36.78,55.08,31.6,46,24.34,45.8Z"/><path class="cls-4" d="M20.62,49.49c-1.47-2.17-5.3,2.38-6.07,3.67a20.74,20.74,0,0,0-2.5,10.93,22.18,22.18,0,0,0,1.88,8.49,11.55,11.55,0,0,0,2.41,3.84c1.59,1.43,2.63-.71,2.8-2.25a11.6,11.6,0,0,0-.26-3.42c-.65-3.71-1.26-7.56-.35-11.22.56-2.28,1.69-4.38,2.32-6.64a5,5,0,0,0,.21-2.2A3.18,3.18,0,0,0,20.62,49.49Z"/><path class="cls-5" d="M14.92,58.11a.66.66,0,0,0,.21,0c.37,0,.79-.17,1.12,0a1.1,1.1,0,0,1,.34.4c.37.58.74,1.17,1.1,1.76.63,1,.72-.32.84-.79.56-2.28,1.69-4.38,2.32-6.64a5,5,0,0,0,.21-2.2,3.18,3.18,0,0,0-.44-1.2c-1.33-2-4.27,1.36-5.1,2.36a11.34,11.34,0,0,0-2.11,2.67C13,55.64,13.54,57.81,14.92,58.11Z"/><path class="cls-6" d="M17.8,62.12a1.07,1.07,0,0,0-.67-.78,2,2,0,0,1-.35-.08c-.28-.13-.31-.51-.36-.82a1.44,1.44,0,0,0-.33-.77.76.76,0,0,0-.76-.23c-.27.08-.5.36-.77.29s-.29-.24-.4-.41a2.74,2.74,0,0,0-1.53-1.18,21.19,21.19,0,0,0-.58,6,22.18,22.18,0,0,0,1.88,8.49,11.55,11.55,0,0,0,2.41,3.84c1.59,1.43,2.63-.71,2.8-2.25a11.6,11.6,0,0,0-.26-3.42c-.49-2.73-.44-5.5-1-8.18A3.69,3.69,0,0,0,17.8,62.12Z"/><path class="cls-7" d="M24.34,45.8a9,9,0,0,0-1.85.14c1,.74,2.37,2.16,1.55,4.19-1.25,3.06-4.55,8.29-4.55,16.69,0,7,2.47,11.69-.2,13.14a7.42,7.42,0,0,0,5,.31,8,8,0,0,0,5.58-8c-.08-2.28-.94-3.25.28-5.32,1-1.75,2.51-3.13,3.39-5,.07-.15.13-.3.19-.45.29-1.88.53-3.69.74-5.36C33.85,50.85,29.66,45.94,24.34,45.8Z"/><path class="cls-8" d="M24.27,47.88a11.23,11.23,0,0,1,5.34,8.39c-.19,1.54-.42,3.2-.68,4.92-.06.14-.11.28-.18.41-.81,1.72-2.15,3-3.1,4.59-1.13,1.9-.33,2.79-.26,4.88a7.31,7.31,0,0,1-5.13,7.29,6.69,6.69,0,0,1-.75.16,1.93,1.93,0,0,1-.7.62,6.77,6.77,0,0,0,4.55.28,7.32,7.32,0,0,0,5.13-7.29c-.07-2.09-.87-3,.25-4.87,1-1.61,2.3-2.88,3.11-4.59.07-.14.12-.28.18-.41.26-1.73.48-3.39.67-4.92C32.2,52.72,28.75,48.46,24.27,47.88Z"/><path class="cls-9" d="M14.26,56.27c.11,0-.4,1.81-.61,3.62a25.26,25.26,0,0,0-.16,3.63,26,26,0,0,0,.23,3.62c.24,1.81.79,3.57.68,3.61a11.37,11.37,0,0,1-1.25-3.5,22.15,22.15,0,0,1-.46-3.72,21.66,21.66,0,0,1,.39-3.73A11.74,11.74,0,0,1,14.26,56.27ZM16.34,52a6.1,6.1,0,0,0-.66.73,6,6,0,0,0-.35.93c-.14.47-.18,1-.07,1s.33-.38.59-.76.52-.73.52-.73.19-.41.42-.81.48-.79.41-.87S16.71,51.65,16.34,52Zm7.6,24.27a6.46,6.46,0,0,1-.8,1.09,6.6,6.6,0,0,1-.89,1c-.5.47-1.14.8-1.1.9s.77,0,1.43-.44a5.4,5.4,0,0,0,1.19-1,5.54,5.54,0,0,0,.69-1.37c.25-.73.23-1.49.12-1.49S24.29,75.67,23.94,76.26Zm4.87-26.77a6.09,6.09,0,0,0-1.34-1.74,6.17,6.17,0,0,0-2-1,3.37,3.37,0,0,0-2.14-.06c0,.11,1,.18,1.95.6A6.15,6.15,0,0,1,27,48.38a6.2,6.2,0,0,1,1.36,1.4c.59.81.88,1.8,1,1.78A3.44,3.44,0,0,0,28.81,49.49Z"/><path class="cls-10" d="M24.71,60.14c-1.33-2.08-2.26-3.7-2.92-5a30.51,30.51,0,0,0-2.3,11.64c0,.66,0,1.29.07,1.91.57-1.77,2.19-3.4,6.6-1.74a25.78,25.78,0,0,1,3.36,1.57,4.46,4.46,0,0,1,.6-1.56c1-1.75,2.51-3.13,3.39-5,.07-.15.13-.3.19-.45.29-1.88.53-3.69.74-5.36,0,0,0,0,0-.06C31.25,60.06,27.07,63.81,24.71,60.14Z"/><path class="cls-11" d="M96.37,110.12a9.59,9.59,0,0,0,3.51,1.34c7.67,1.36,13.79-4.19,17.31-10.58,3.07-5.59,5.58-17.72-2.94-20.23a8,8,0,0,0-8.89,3.92c-1.12,2-.87,3.27-3,4.4-1.8,1-3.76,1.39-5.49,2.54C90.51,95.74,90.25,106.19,96.37,110.12Z"/><path class="cls-12" d="M101.46,108.87c.13,2.62,5.76.71,7.09,0a20.88,20.88,0,0,0,7.79-8.06,22.39,22.39,0,0,0,2.77-8.25A11.33,11.33,0,0,0,119,88c-.61-2-2.61-.75-3.56.48a12.21,12.21,0,0,0-1.54,3.06c-1.36,3.52-2.83,7.13-5.5,9.79-1.66,1.66-3.71,2.87-5.41,4.49a5,5,0,0,0-1.32,1.77A3.09,3.09,0,0,0,101.46,108.87Z"/><path class="cls-13" d="M110.79,104.44l-.16-.13c-.31-.22-.76-.27-.95-.6a1.12,1.12,0,0,1-.09-.52l0-2.07c0-1.19-.78-.1-1.13.24-1.66,1.66-3.71,2.87-5.41,4.49a5,5,0,0,0-1.32,1.77,3.09,3.09,0,0,0-.24,1.25c.12,2.38,4.35,1,5.58.62a11.73,11.73,0,0,0,3.19-1.19C111.17,107.55,111.82,105.41,110.79,104.44Z"/><path class="cls-14" d="M110.4,99.52a1.05,1.05,0,0,0,.17,1c.08.09.19.15.25.25.18.26,0,.61-.11.9a1.45,1.45,0,0,0-.12.82.76.76,0,0,0,.53.59c.28.07.62,0,.81.15a.76.76,0,0,1,.13.56,2.81,2.81,0,0,0,.71,1.8,21.35,21.35,0,0,0,3.57-4.79,22.39,22.39,0,0,0,2.77-8.25A11.33,11.33,0,0,0,119,88c-.61-2-2.61-.75-3.56.48a12.21,12.21,0,0,0-1.54,3.06c-1,2.59-2.47,4.94-3.4,7.51C110.48,99.22,110.44,99.37,110.4,99.52Z"/><path class="cls-15" d="M96.37,110.12A9.09,9.09,0,0,0,98,111c-.49-1.16-.91-3.08.84-4.38,2.65-2,8.17-4.75,12.51-11.95,3.64-6,3.93-11.28,7-11.15a7.43,7.43,0,0,0-4.09-2.82,8,8,0,0,0-8.89,3.92c-1.12,2-.87,3.27-3,4.4-1.8,1-3.76,1.39-5.49,2.54l-.39.28c-1.22,1.46-2.36,2.89-3.41,4.21C90.83,100.87,91.89,107.24,96.37,110.12Z"/><path class="cls-16" d="M97.5,108.37a11.19,11.19,0,0,1-.23-9.94c1-1.22,2-2.53,3.12-3.87l.36-.26c1.58-1,3.39-1.44,5-2.32,2-1,1.72-2.21,2.74-4a7.33,7.33,0,0,1,8.16-3.6c.25.08.49.16.73.26a1.85,1.85,0,0,1,.92-.17,6.83,6.83,0,0,0-3.75-2.6,7.32,7.32,0,0,0-8.16,3.6c-1,1.83-.8,3-2.74,4-1.65.88-3.45,1.27-5,2.32l-.37.26c-1.11,1.34-2.16,2.65-3.11,3.87C93.22,100.12,94,105.56,97.5,108.37Z"/><path class="cls-17" d="M110.4,106.35c-.07-.09,1.29-1.33,2.4-2.78a25.43,25.43,0,0,0,2-3,25.62,25.62,0,0,0,1.68-3.22c.73-1.67,1.17-3.47,1.28-3.44a11.37,11.37,0,0,1-.75,3.64A22.26,22.26,0,0,1,115.5,101a22.56,22.56,0,0,1-2.26,3A11.17,11.17,0,0,1,110.4,106.35Zm-4,2.6a6.06,6.06,0,0,0,.94-.29,5.85,5.85,0,0,0,.79-.61c.36-.34.65-.73.57-.81s-.48.15-.9.34-.83.36-.83.36-.37.25-.77.47-.82.43-.8.54S105.92,109.05,106.41,109Zm6-24.71a6.34,6.34,0,0,1,1.24-.52,6,6,0,0,1,1.29-.4c.67-.14,1.38-.1,1.41-.21s-.69-.36-1.46-.36a5.33,5.33,0,0,0-1.51.21,5.54,5.54,0,0,0-1.3.81c-.59.5-1,1.16-.88,1.22S111.85,84.57,112.45,84.24Zm-18,20.41a6.19,6.19,0,0,0,.25,2.17,6.38,6.38,0,0,0,1.19,1.85,3.49,3.49,0,0,0,1.8,1.16c0-.1-.79-.7-1.36-1.53a6.54,6.54,0,0,1-.87-1.75,6.18,6.18,0,0,1-.44-1.9c-.09-1,.18-2,.08-2A3.44,3.44,0,0,0,94.44,104.65Z"/><path class="cls-18" d="M103.46,97.64c.06,2.47,0,4.35-.07,5.76a30.4,30.4,0,0,0,8-8.78c.34-.56.65-1.12.93-1.67-1.4,1.22-3.63,1.78-6.54-1.92A23.73,23.73,0,0,1,103.69,88a4.44,4.44,0,0,1-1.32,1c-1.8,1-3.76,1.39-5.49,2.54l-.39.28c-1.22,1.46-2.36,2.89-3.41,4.21a.14.14,0,0,1,0,.06C97.82,94.33,103.34,93.29,103.46,97.64Z"/><path class="cls-19" d="M104.91,22.8c-4.51-3.27-10.14-5.88-15.77-6.14-2.16-.1-5.34-.21-7.3.75-3.2,1.58-4.4,5-4,8.41.49,3.79,3,6.82,6,9.11a16.15,16.15,0,0,0,1.88,1.2c1.88,1.08,4,1.61,5.7,2.94,3,2.21,5.52,6.06,9.55,6.41a9.83,9.83,0,0,0,8.61-4.39C113.94,34.77,110.57,26.92,104.91,22.8Z"/><path class="cls-20" d="M109.59,41.09a11,11,0,0,0,1.94-7.16c-1,1.62-2.4,1.72-4.48-1.27-3.19-4.6-15.45-10.09-20.18-11.75-3-1.06-3.22-2.91-3-4.1a7.65,7.65,0,0,0-2.06.6c-3.2,1.58-4.4,5-4,8.41.49,3.79,3,6.82,6,9.11a16.15,16.15,0,0,0,1.88,1.2c1.88,1.08,4,1.61,5.7,2.94,3,2.21,5.52,6.06,9.55,6.41A9.83,9.83,0,0,0,109.59,41.09Z"/><path class="cls-21" d="M82.53,24.54c5.4,2.1,19.36,8.9,22.88,14.33,1.41,2.17,2,2.35,3,2.23.33-1.16,1-1.71.91-2.88-1.07,1.59-2.45,1.64-4.43-1.41-3-4.7-15.12-10.59-19.79-12.4A6.19,6.19,0,0,1,82,22a4.3,4.3,0,0,1-.55-2.89c-1.12.62-2.6,1.78-1.88,3.11A5.55,5.55,0,0,0,82.53,24.54Z"/><path class="cls-22" d="M107.84,30.81c.59.26,1.15-.2,1.52-1.08a13.91,13.91,0,0,0-5.47-7c-4-2.72-9-4.9-14.08-5.12a5,5,0,0,0-2.63.2c-.62.35-1.12.75-.62,1.46a5.24,5.24,0,0,0,2.35,1.52c4.71,1.91,6,2.27,10,4.11S106.24,30.1,107.84,30.81Z"/><path class="cls-23" d="M96.07,23.18a.67.67,0,0,1-.25.08,3,3,0,0,1-1.64-.44l-1.49-.58c-1.26-.49-2.53-1-3.78-1.5a5.24,5.24,0,0,1-2.35-1.52c-.5-.71,0-1.11.62-1.46a5,5,0,0,1,2.63-.2,22.09,22.09,0,0,1,4.42.68c.73.19,1.44.43,2.16.65a1.35,1.35,0,0,1,1.06,1l.27.75a1.23,1.23,0,0,1,.09.75c-.18.58-1.11.62-1.33,1.19,0,.07,0,.16-.08.23A.68.68,0,0,1,96.07,23.18Zm7.82-.5a36.82,36.82,0,0,0-3.47-2.06A8.7,8.7,0,0,0,99,19.89a.4.4,0,0,0-.37.05.43.43,0,0,0-.12.36,2.53,2.53,0,0,0,.07.38,2,2,0,0,1-.21,1.42,3.62,3.62,0,0,0-.64,1.56c0,.61.72,1,1.17,1.19,4,1.85,7.3,5.25,8.9,6,.59.26,1.15-.2,1.52-1.08A13.91,13.91,0,0,0,103.89,22.68Z"/><path class="cls-24" d="M104.15,29.81a57.08,57.08,0,0,0-9.41-5.55,2.46,2.46,0,0,1-.1,3.23c-2.23,2.49-11.43,2.9-11.43,2.9l22,13.42S97.93,31.87,104.15,29.81Z"/><path class="cls-25" d="M92.74,18.36c0,.23-1.2.29-1.2.29s-1.14-.3-1.12-.52,1.2-.28,1.2-.28S92.76,18.14,92.74,18.36Zm9.73,4.24c-.58-.45-1.17-.89-1.64-1.21l-.77-.54a5.81,5.81,0,0,0-.83-.44,14.26,14.26,0,0,0-1.93-.74,10.84,10.84,0,0,0-2.9-.62,18.79,18.79,0,0,0,2.71,1.16,15.75,15.75,0,0,1,1.78.86,6.18,6.18,0,0,1,.76.47l.78.47c.46.27,1.09.67,1.71,1.06a14.4,14.4,0,0,0,2.58,1.45A14.38,14.38,0,0,0,102.47,22.6ZM98.91,33.29c1.43,1.15,2.76,2.46,2.76,2.46l.88.76c.53.45,1.24,1.07,2,1.65a10.09,10.09,0,0,0,2.21,1.39,2.11,2.11,0,0,0,1.16.27c0-.06-.43-.19-1-.55a12.16,12.16,0,0,1-2-1.55l-2.69-2.57-.9-.76c-.54-.44-1.28-1-2.06-1.56a9.43,9.43,0,0,0-3.38-1.65C95.83,31.27,97.49,32.1,98.91,33.29Zm-15.53-7.9a9,9,0,0,1-1.16-1.34,9.17,9.17,0,0,1-1-1.45A17,17,0,0,0,80.36,21a3.45,3.45,0,0,0,.31,1.88,8.49,8.49,0,0,0,.91,1.71A8,8,0,0,0,83,25.84a3.55,3.55,0,0,0,1.75.75C84.83,26.49,84,26,83.38,25.39Z"/><circle class="cls-26" cx="68.84" cy="68.84" r="47.09" transform="translate(-11.8 123.39) rotate(-79.08)"/><path class="cls-27" d="M91.92,51.21a16.87,16.87,0,0,1-4.66,3.5c-4.68,2.5-10,3.53-15.09,4.91s-10.33,3.27-14.09,7a50.36,50.36,0,0,0-4.61,5.86c-3,4.11-6.85,8-11.77,9.34A17.39,17.39,0,0,1,30,80.38c-2.78-1.45-4.23-5.42-4.74-8.29-1.18-6.68.9-13.85,3.49-20a43.82,43.82,0,0,1,40-26.55c11.24,0,28.73,4.54,26.16,19.18a13.42,13.42,0,0,1-2,5.24A11.17,11.17,0,0,1,91.92,51.21Z"/><path class="cls-28" d="M80.28,23.16a37.8,37.8,0,1,1-56.2,33c0-.71,0-1.42.06-2.12A47.09,47.09,0,1,0,80.28,23.16Z"/><g class="cls-29"><path class="cls-30" d="M91.14,34.8a35.74,35.74,0,0,0-5.73-7.27,43.63,43.63,0,0,0-4.59-1.42A35.71,35.71,0,0,1,91.14,34.8Z"/></g><path class="cls-31" d="M54.23,89.08h0Z"/><path class="cls-32" d="M114.37,69.1A44.31,44.31,0,0,1,32.3,92.27a44.3,44.3,0,0,0,72.53-50.64A44.07,44.07,0,0,1,114.37,69.1Z"/><path class="cls-33" d="M30.74,41.19c1.59,2.87,6,3.22,9,3.22a31.42,31.42,0,0,0,6.4-.82A44.91,44.91,0,0,0,63.1,36.17c4-2.9,11.59-6.12,10.09-11.87A6.87,6.87,0,0,0,72,21.87c-1-.07-2.07-.11-3.13-.11A47,47,0,0,0,30.74,41.19Z"/><path class="cls-34" d="M70.41,23.74c-1.45-5.5-10.78-7.92-15.47-7.55C44.4,17,33.44,22.8,30.77,33.56c-.13.55-.26,1.1-.37,1.65a8.48,8.48,0,0,0-.25,2.45c.38,4.38,5.61,4.83,9,4.83a28.73,28.73,0,0,0,6-.77A41.9,41.9,0,0,0,61,34.81C64.73,32.11,71.81,29.11,70.41,23.74Z"/><path class="cls-35" d="M70.41,23.74c-.81-3.08-4.1-5.2-7.66-6.4A5.33,5.33,0,0,1,63.54,19c1.21,4.6-4.86,7.18-8.09,9.5a36,36,0,0,1-13.59,5.92,25.29,25.29,0,0,1-5.13.66c-1.86,0-4.37-.17-6-1.28-.11.46-.22.92-.31,1.38a8.48,8.48,0,0,0-.25,2.45c.38,4.38,5.61,4.83,9,4.83a28.73,28.73,0,0,0,6-.77A41.9,41.9,0,0,0,61,34.81C64.73,32.11,71.81,29.11,70.41,23.74Z"/><path class="cls-36" d="M68.79,23.13c-.63-2.55-2.89-4.43-5.56-5.66A7.89,7.89,0,0,1,66.81,22c1.31,5.27-5.26,8.22-8.75,10.88a37.73,37.73,0,0,1-14.7,6.78,26,26,0,0,1-5.54.76,15.51,15.51,0,0,1-4.91-.66c1.76,1.54,4.73,1.75,6.89,1.75a26.19,26.19,0,0,0,5.55-.75A37.88,37.88,0,0,0,60.05,34C63.54,31.35,70.1,28.4,68.79,23.13Z"/><path class="cls-37" d="M62,18.77C58.7,15.49,49.59,16,42.12,21S30.77,30.5,34.56,32.66s12.1-.79,17.93-4.31C63,22,63.4,20.19,62,18.77Z"/><path class="cls-38" d="M50.15,26.82c-.2.49-.49.94-.71,1.42-.3.67-.13,1.52-.58,2.11-.68.89-2.83,1.2-3.82,1.55-3,1.08-7.43,2.5-10.48.76C30.77,30.5,34.66,26,42.12,21A14,14,0,0,1,46,18.87a2,2,0,0,1,2,.64c.4.59.33,1,.94,1.43a4.15,4.15,0,0,1,1.42,1.66,4.13,4.13,0,0,1,.27,1.46A7.24,7.24,0,0,1,50.15,26.82Zm11.83-8c-2.13-2.13-12.06-4-11.54,1A3.44,3.44,0,0,0,50.87,21a6.67,6.67,0,0,1,.69,5.28A6.46,6.46,0,0,0,51,27.78c-.17,1.94,1.71.42,2.41,0,1.2-.74,2.4-1.5,3.58-2.3a26.16,26.16,0,0,0,4.26-3.31C62.23,21.19,63.15,19.94,62,18.77Z"/><path class="cls-39" d="M45.78,20.34c0,.1-1.49.88-2.9,1.84a30.87,30.87,0,0,0-2.69,2.07,30.16,30.16,0,0,0-2.55,2.24C36.42,27.69,35.36,29,35.26,29a11.57,11.57,0,0,1,2-2.88,24.09,24.09,0,0,1,2.46-2.47,24.42,24.42,0,0,1,2.9-1.93A11.57,11.57,0,0,1,45.78,20.34Zm2.43-1.68s-1.38.74-1.3.94,1.6-.19,1.6-.19,1.38-.74,1.3-.95S48.21,18.66,48.21,18.66Z"/><g class="cls-29"><path class="cls-40" d="M51.41,37.55a12.26,12.26,0,0,1-3.16,1.85,26.31,26.31,0,0,1-3.46,1.23,25,25,0,0,1-3.64.49,11.89,11.89,0,0,1-3.66-.19c0-.11,1.82-.12,3.6-.37a30,30,0,0,0,3.51-.72,29.65,29.65,0,0,0,3.44-1C49.74,38.28,51.35,37.45,51.41,37.55Z"/><path class="cls-41" d="M61,31.19A8.37,8.37,0,0,1,59.25,33c-.91.82-1.89,1.57-1.89,1.57s-1,.68-2.09,1.28a8,8,0,0,1-2.24,1A12.13,12.13,0,0,1,55,35.33l1.93-1.46,2-1.36A10.57,10.57,0,0,1,61,31.19Z"/></g><path class="cls-42" d="M48.61,40.83a41.61,41.61,0,0,0,12.36-6c.76-.54,1.66-1.1,2.59-1.69-3.67,0-7.05-.9-5.47-4.49.38-.87.71-1.69,1-2.47-1.28.85-2.61,1.62-3.64,2.37a35.17,35.17,0,0,1-7.12,3.92c1.93.34,3.49,1.25,3.49,3.3C51.82,37.41,50.47,39.18,48.61,40.83Z"/><path class="cls-43" d="M53.46,100.87c-3-2.54-7.15-4-10-6.65s-4.26-5.43-7.8-7.17c-2.87-1.42-7.66-2.91-10.81-1.32a47.15,47.15,0,0,0,29.87,28.05C58,110.25,58.08,104.75,53.46,100.87Z"/><path class="cls-44" d="M50.68,100.41C47.91,98,44.13,96.54,41.55,94s-3.9-5.27-7.15-7-9-3.47-11.53.15c-9.45,13.41,8.51,30.71,22.47,29.09C53.78,115.25,57,106.06,50.68,100.41Z"/><path class="cls-45" d="M28.08,108.72A22.87,22.87,0,0,0,38.27,114c2.77.59,7.33,1.5,8.92-1.57a3.1,3.1,0,0,0,.36-1.37c0-1.37-1.11-2.46-2.22-3.27-3.25-2.37-7.11-3.86-10-6.61A60.35,60.35,0,0,1,30.91,96c-1.22-1.45-2.21-3.31-4.2-3.82-6.64-1.71-5.22,6-3.82,9.46A19.07,19.07,0,0,0,28.08,108.72Z"/><path class="cls-46" d="M45.33,107.81c-1.3-1-4.41-3.51-6.16-2.1-.9.71-.7,2.15-1.17,3.1s-1.55,1.45-1.79,2.36c-1.14,4.37,9.38,4.39,11,1.28a3.1,3.1,0,0,0,.36-1.37C47.56,109.71,46.44,108.62,45.33,107.81Z"/><path class="cls-47" d="M28.08,108.72c1.43,1.26,3.07,2,4.58,3.17a1.45,1.45,0,0,0,.92.4c.59-.05.87-.8.79-1.39a7.31,7.31,0,0,1-.27-1.77c.21-1.47,2.38-2.06,2.51-3.54,0-.51-.19-1.08.07-1.53a3.27,3.27,0,0,0,.32-.5,1,1,0,0,0-.09-.73c-.56-1.24-2.07-2-3-3.06-1.06-1.21-2-2.52-3-3.75-1.22-1.45-2.21-3.31-4.2-3.82-6.64-1.71-5.22,6-3.82,9.46A19.07,19.07,0,0,0,28.08,108.72Z"/><path class="cls-48" d="M50.68,100.41C47.91,98,44.13,96.54,41.55,94s-3.9-5.27-7.15-7-9-3.47-11.53.15a15.35,15.35,0,0,0-1.6,2.93c2.75-.53,6.16.68,8.35,1.82,3.25,1.7,4.69,4.49,7.15,7s6.36,4,9.13,6.45a8.89,8.89,0,0,1,2.73,10C54.5,112.68,56.1,105.25,50.68,100.41Z"/><path class="cls-49" d="M33.49,88.8c3,1.7,4.32,4.52,6.59,7s5.87,4,8.42,6.5a9.41,9.41,0,0,1,2,11.18,9.33,9.33,0,0,0-1.25-12.42c-2.55-2.48-6-3.9-8.42-6.5s-3.6-5.31-6.59-7S26,84.06,23.64,87.7c-.2.31-.38.62-.55.93C25.54,85.43,30.63,87.17,33.49,88.8Z"/><path class="cls-50" d="M41.55,94c-.66-.66-1.25-1.35-1.82-2a5.27,5.27,0,0,1-5,4.62c.64.78,1.3,1.57,2.06,2.33,1.84,1.85,4.3,3.09,6.56,4.55a8.33,8.33,0,0,1,4.86-4.85C45.9,97.08,43.41,95.83,41.55,94Z"/><g class="cls-29"><path class="cls-51" d="M27.31,106.08a5.83,5.83,0,0,1-1.63-1.68,15.8,15.8,0,0,1-1.27-2,16.33,16.33,0,0,1-.77-2.23,5.89,5.89,0,0,1-.3-2.33,16.24,16.24,0,0,1,.84,2.15,22.07,22.07,0,0,0,1,2.06,21.22,21.22,0,0,0,1,2A15.62,15.62,0,0,1,27.31,106.08Z"/><path class="cls-52" d="M40.49,113.46a7.69,7.69,0,0,1-3.33-.26A17.18,17.18,0,0,1,34,112a28.2,28.2,0,0,1-2.8-1.82,15.73,15.73,0,0,1-2.54-2.15,20.59,20.59,0,0,1,2.86,1.67c1.39.87,2.85,1.58,2.85,1.58a18.92,18.92,0,0,0,3,1.33C38.85,113.22,40.5,113.35,40.49,113.46Z"/><path class="cls-53" d="M35.05,89.9c-.09.06-.79-.59-1.65-1s-1.75-.8-1.75-.8-.85-.47-1.73-.85-1.83-.59-1.82-.69a3.72,3.72,0,0,1,2,.15,15.25,15.25,0,0,1,1.9.66,14.91,14.91,0,0,1,1.71,1.05C34.55,89,35.15,89.83,35.05,89.9Z"/><path class="cls-54" d="M48.43,101.57c-.06,0-.27-.38-.77-.82a9.3,9.3,0,0,0-2.09-1.27,24.17,24.17,0,0,1-3.17-1.91,23.66,23.66,0,0,1-2.71-2.52,11.75,11.75,0,0,1-2.18-3c.09-.07,1.25,1.35,2.58,2.57a29.78,29.78,0,0,0,2.79,2.28,30.87,30.87,0,0,0,3,2,8.52,8.52,0,0,1,2,1.55A1.83,1.83,0,0,1,48.43,101.57Z"/></g><path class="cls-55" d="M39.25,54.36c-.27-4-3.73-8.56-7.24-6.91-4.75,2.22-7.48,9.59-5.56,15.26,1.37,4.05,5.48,6.24,8.7,3.55C37.7,64.12,39.51,58,39.25,54.36Z"/><path class="cls-56" d="M38.74,53.47C38.45,50,34.86,46,31.21,47.41A10.79,10.79,0,0,0,25.44,60.8c1.42,3.55,5.69,5.47,9,3.11C37.12,62,39,56.66,38.74,53.47Z"/><path class="cls-57" d="M34.42,53.54c.4-2.46-1-5.75-3.32-5.23-3.14.7-5.82,4.83-5.49,8.57.24,2.66,2.37,4.58,4.67,3.37C32.1,59.3,34.05,55.8,34.42,53.54Z"/><path class="cls-58" d="M29.31,52.87a4.49,4.49,0,0,1,2.24.18,14.73,14.73,0,0,0,1.35.61,1.42,1.42,0,0,0,1.6-.95,4.7,4.7,0,0,0-.4-2.18c-.46-1.26-1.51-2.56-3-2.22-2.09.46-5.08,2.95-4.8,5.34C27.43,53.9,28.24,53.05,29.31,52.87Z"/><path class="cls-59" d="M32.4,54.46c-1.76-1-2.95-.78-4.68-.11-.69.26-1.38.19-1.76.86a2.79,2.79,0,0,0-.35,1.67c.24,2.66,2.37,4.58,4.67,3.37a6,6,0,0,0,1.94-1.85c.49-.67,1.46-1.86,1.44-2.73a.68.68,0,0,0-.38-.52C33,54.94,32.73,54.65,32.4,54.46Z"/><path class="cls-60" d="M38.74,53.47c-.22-2.64-2.36-5.62-5-6.24a7,7,0,0,1,1.88,4c.24,2.9-1.53,7.81-4,9.52a5.45,5.45,0,0,1-6.19,0l0,.1c1.42,3.55,5.69,5.47,9,3.11C37.12,62,39,56.66,38.74,53.47Z"/><path class="cls-61" d="M38.26,53.44a7.14,7.14,0,0,0-2.9-4.87,7.07,7.07,0,0,1,2.12,4.21c.26,3-1.6,8-4.23,9.74a5.91,5.91,0,0,1-6.81-.22,6,6,0,0,0,7.59.89C36.66,61.44,38.53,56.42,38.26,53.44Z"/><path class="cls-62" d="M37.3,54.87a3.59,3.59,0,0,1-1.79-1.52,14.69,14.69,0,0,1-1.9,5.13A3.38,3.38,0,0,1,37.4,59.9a15.84,15.84,0,0,0,1.35-5.44A1.29,1.29,0,0,1,37.3,54.87Z"/><g class="cls-29"><path class="cls-63" d="M32,57.62c.07,0-.16.56-.48,1a4.67,4.67,0,0,1-.78.88,3.49,3.49,0,0,1-1.08.49c-.58.17-1.17.07-1.16,0s.55-.13,1-.38a3.81,3.81,0,0,0,.85-.57,6,6,0,0,0,.82-.67C31.59,58,32,57.57,32,57.62Z"/><path class="cls-64" d="M29.46,49.82c.05.07-.69.73-1.24,1.54a13.87,13.87,0,0,0-1.6,3.5c-.25.94-.27,1.93-.36,1.94a4.38,4.38,0,0,1-.06-2,9.1,9.1,0,0,1,.54-2,8.79,8.79,0,0,1,1.14-1.71A4.45,4.45,0,0,1,29.46,49.82Z"/><path class="cls-65" d="M31.75,48.69c0,.08-.2.16-.37.25l-.34.18-.37.08c-.19,0-.39.12-.44.06s.05-.26.22-.42a1.78,1.78,0,0,1,.38-.28,1.59,1.59,0,0,1,.47,0C31.53,48.53,31.75,48.61,31.75,48.69Z"/><path class="cls-66" d="M37.06,58.42c-.08,0,.24-1.15.37-2.29a12.34,12.34,0,0,0,.08-2.27,9.89,9.89,0,0,0-.26-2.26c-.24-1.12-.81-2.13-.74-2.18a5,5,0,0,1,1.16,2.07,9.69,9.69,0,0,1,.45,2.35,11.42,11.42,0,0,1-.26,2.36A6.76,6.76,0,0,1,37.06,58.42Z"/><path class="cls-67" d="M35.26,61.84c-.06-.05.15-.38.32-.7s.34-.66.34-.66.22-.29.42-.61.39-.64.47-.62,0,.42-.08.8a5,5,0,0,1-.29.74,4.65,4.65,0,0,1-.51.6C35.65,61.68,35.32,61.9,35.26,61.84Z"/></g><path class="cls-68" d="M90.9,43.63c-1.42-3.7-.24-9.34,3.64-9.33,5.24,0,10.84,5.53,11.5,11.48.47,4.24-2.33,8-6.39,6.89C96.44,51.81,92.21,47,90.9,43.63Z"/><path class="cls-69" d="M91,42.6c-1.21-3.26.34-8.44,4.26-8.68a10.79,10.79,0,0,1,10.89,9.7c.21,3.81-2.84,7.37-6.87,6.64C96.08,49.68,92.1,45.6,91,42.6Z"/><path class="cls-70" d="M94.94,40.84c-1.4-2.06-1.53-5.64.79-6.15,3.14-.69,7.31,1.92,8.59,5.45.92,2.51-.2,5.15-2.8,5C99.47,45.07,96.23,42.73,94.94,40.84Z"/><path class="cls-71" d="M99.28,38.07a4.38,4.38,0,0,0-2,1.11c-.34.33-.6.83-1,1.12a1.41,1.41,0,0,1-1.85-.18A4.84,4.84,0,0,1,94,38c-.11-1.33.29-2.95,1.78-3.28,2.09-.46,5.85.52,6.61,2.81C101.41,38.21,100.33,37.79,99.28,38.07Z"/><path class="cls-72" d="M97.15,40.81c1.16-1.68,2.34-2,4.2-2.08.74,0,1.33-.41,2,0a2.72,2.72,0,0,1,1,1.37c.92,2.51-.2,5.15-2.8,5A6.09,6.09,0,0,1,99,44.31c-.73-.4-2.11-1.07-2.46-1.87a.7.7,0,0,1,.13-.63C96.86,41.48,96.93,41.13,97.15,40.81Z"/><path class="cls-73" d="M91,42.6c-.92-2.49-.23-6.09,1.88-7.76a7,7,0,0,0,0,4.39c1,2.74,4.69,6.44,7.68,6.93a5.45,5.45,0,0,0,5.6-2.65s0,.07,0,.11c.21,3.81-2.84,7.37-6.87,6.64C96.08,49.68,92.1,45.6,91,42.6Z"/><path class="cls-74" d="M91.41,42.38A7.19,7.19,0,0,1,92,36.73a7,7,0,0,0-.14,4.71c1,2.81,4.83,6.57,8,7a5.92,5.92,0,0,0,6.07-3.08,6,6,0,0,1-6.5,4C96.24,48.94,92.43,45.18,91.41,42.38Z"/><path class="cls-75" d="M92.89,43.26a3.67,3.67,0,0,0,1-2.13A14.51,14.51,0,0,0,97.76,45a3.38,3.38,0,0,0-2.84,2.89,15.94,15.94,0,0,1-3.52-4.35A1.31,1.31,0,0,0,92.89,43.26Z"/><g class="cls-29"><path class="cls-76" d="M98.83,43.52c0,.07.38.44.88.73a5.1,5.1,0,0,0,1.07.47,3.56,3.56,0,0,0,1.19,0c.59-.09,1.09-.44,1-.51s-.56.11-1.08.08a3.82,3.82,0,0,1-1-.16,5.42,5.42,0,0,1-1-.26C99.38,43.69,98.88,43.45,98.83,43.52Z"/><path class="cls-77" d="M97.86,35.37c0,.08.93.37,1.77.87a9.58,9.58,0,0,1,1.55,1.14,9.73,9.73,0,0,1,1.38,1.35c.63.75,1.06,1.64,1.14,1.61a4.38,4.38,0,0,0-.79-1.86,8.57,8.57,0,0,0-1.34-1.56,8.85,8.85,0,0,0-1.75-1.06A4.39,4.39,0,0,0,97.86,35.37Z"/><path class="cls-78" d="M95.3,35.31c0,.08.25.06.45.07l.38,0,.37-.09c.19,0,.4,0,.42-.13s-.16-.22-.38-.29a2,2,0,0,0-.46-.1,1.62,1.62,0,0,0-.44.17C95.43,35.08,95.27,35.24,95.3,35.31Z"/><path class="cls-79" d="M94.61,46.38c.06-.06-.71-.94-1.31-1.92a12.58,12.58,0,0,1-1-2,10.1,10.1,0,0,1-.71-2.15c-.26-1.12-.17-2.28-.25-2.29a4.9,4.9,0,0,0-.18,2.36,9.2,9.2,0,0,0,.59,2.32,11.11,11.11,0,0,0,1.24,2A6.53,6.53,0,0,0,94.61,46.38Z"/><path class="cls-80" d="M97.68,48.72c0-.08-.29-.29-.59-.51s-.58-.45-.58-.45-.32-.17-.64-.37-.63-.42-.69-.36.15.39.41.68a5.73,5.73,0,0,0,.58.55,5,5,0,0,0,.72.33C97.26,48.73,97.65,48.8,97.68,48.72Z"/></g><path class="cls-81" d="M102.89,78.59c2.69-2.35,8.07-2.9,9.54.63,2,4.75-.72,11.4-5.67,13.71-3.53,1.64-7.85.18-8.44-3.81C97.84,86,100.42,80.75,102.89,78.59Z"/><path class="cls-82" d="M102.05,76.6c2.64-2.28,8-2.65,9.62.94a10.79,10.79,0,0,1-5.25,13.6c-3.5,1.54-7.9-.08-8.63-4.11C97.21,83.84,99.63,78.69,102.05,76.6Z"/><path class="cls-83" d="M105.09,79.67c1.43-2,4.74-3.41,6-1.41,1.74,2.7.76,7.52-2.09,10-2,1.73-4.9,1.61-5.69-.86C102.71,85.4,103.77,81.54,105.09,79.67Z"/><path class="cls-84" d="M109.21,82.77a4.32,4.32,0,0,0-1.73-1.44c-.43-.2-1-.27-1.39-.51a1.43,1.43,0,0,1-.48-1.8,4.83,4.83,0,0,1,1.81-1.28c1.22-.57,2.87-.76,3.71.52,1.16,1.79,1.56,5.66-.32,7.17C109.83,84.81,109.84,83.65,109.21,82.77Z"/><path class="cls-85" d="M105.89,81.73c2,.5,2.65,1.52,3.42,3.21.3.67.85,1.1.65,1.84a2.75,2.75,0,0,1-.92,1.44c-2,1.73-4.9,1.61-5.69-.86a6,6,0,0,1-.09-2.69c.11-.81.26-2.34.88-3a.72.72,0,0,1,.64-.11C105.16,81.7,105.52,81.64,105.89,81.73Z"/><path class="cls-86" d="M102.05,76.6c2-1.74,5.62-2.36,7.93-1a7,7,0,0,0-4.12,1.53c-2.21,1.9-4.38,6.64-3.79,9.61a5.44,5.44,0,0,0,4.44,4.32l-.09,0c-3.5,1.54-7.9-.08-8.63-4.11C97.21,83.84,99.63,78.69,102.05,76.6Z"/><path class="cls-87" d="M102.41,76.91a7.2,7.2,0,0,1,5.49-1.45A7.08,7.08,0,0,0,103.43,77c-2.26,1.94-4.45,6.83-3.79,9.92a5.9,5.9,0,0,0,5,4.61,6,6,0,0,1-6-4.68C98,83.74,100.14,78.85,102.41,76.91Z"/><path class="cls-88" d="M102.1,78.6a3.59,3.59,0,0,0,2.34.17,14.81,14.81,0,0,0-2.23,5,3.38,3.38,0,0,0-3.7-1.64,15.44,15.44,0,0,1,2.84-4.82A1.29,1.29,0,0,0,102.1,78.6Z"/><g class="cls-29"><path class="cls-89" d="M104,84.26c-.08,0-.29.51-.38,1.08a4.84,4.84,0,0,0-.06,1.16,3.43,3.43,0,0,0,.42,1.11c.3.53.79.87.84.8s-.29-.48-.45-1a3.55,3.55,0,0,1-.21-1,6.2,6.2,0,0,1-.12-1A4.09,4.09,0,0,0,104,84.26Z"/><path class="cls-90" d="M111.23,80.49c-.08,0,0,1-.19,2a10.26,10.26,0,0,1-.52,1.86,9.88,9.88,0,0,1-.78,1.76c-.49.85-1.17,1.57-1.11,1.64a4.54,4.54,0,0,0,1.46-1.4,8.79,8.79,0,0,0,1-1.8,9.24,9.24,0,0,0,.38-2A4.5,4.5,0,0,0,111.23,80.49Z"/><path class="cls-91" d="M110.39,78.08c-.06.06,0,.25.09.43a3.25,3.25,0,0,1,.11.37s.11.15.21.32.19.35.28.35.14-.23.13-.46a1.84,1.84,0,0,0-.07-.47,1.79,1.79,0,0,0-.31-.35C110.66,78.11,110.45,78,110.39,78.08Z"/><path class="cls-92" d="M99.79,81.31c.07,0,.63-1,1.33-1.9a12.41,12.41,0,0,1,1.54-1.68,10.13,10.13,0,0,1,1.76-1.43c1-.63,2.08-1,2.06-1a4.8,4.8,0,0,0-2.27.66,9.31,9.31,0,0,0-2,1.36,11.92,11.92,0,0,0-1.47,1.87A6.39,6.39,0,0,0,99.79,81.31Z"/><path class="cls-93" d="M98.67,85c.09,0,.17-.38.27-.73s.22-.71.22-.71,0-.36.12-.72.17-.74.1-.78-.32.28-.5.63a4.74,4.74,0,0,0-.31.73,6.13,6.13,0,0,0-.06.79C98.52,84.62,98.59,85,98.67,85Z"/></g><path class="cls-94" d="M48.57,46.64c-4.89,3-8.79,8-8.53,13.82a14.32,14.32,0,0,0,2.31,6.83c1.34,2.18,1.43,4.84,3,6.86C52.55,83,69.76,69.2,70.51,61A14.94,14.94,0,0,0,67,50.66c-3.53-4.48-9.79-8-15.55-5.51A22.47,22.47,0,0,0,48.57,46.64Z"/><path class="cls-95" d="M48,46.53c-4.55,2.85-8.19,7.6-8,13.11a13.65,13.65,0,0,0,2.16,6.48c1.24,2.07,1.32,4.59,2.84,6.51C51.7,81,67.76,67.93,68.45,60.11a14.34,14.34,0,0,0-3.27-9.77c-3.3-4.26-9.13-7.56-14.5-5.23A19.8,19.8,0,0,0,48,46.53Z"/><path class="cls-96" d="M48.83,47c-3.48,2-6.25,5.33-6.06,9.19a9,9,0,0,0,1.64,4.54c1,1.45,1,3.21,2.17,4.55,5.07,5.9,16-4.6,16.55-10.07.24-2.47.42-3.61-1.2-5.54-2.51-3-7-5.29-11.06-3.66A16,16,0,0,0,48.83,47Z"/><path class="cls-97" d="M48.22,53.44a33.08,33.08,0,0,1,6-2.09,10.56,10.56,0,0,1,3.88-.18,4.21,4.21,0,0,1,2,1,4.17,4.17,0,0,0,2.17,1.07c.42.08.56-1.51.53-1.73a3.38,3.38,0,0,0-.77-1.82c-2.51-3-7-5.29-11.06-3.66a16,16,0,0,0-2,1,14.18,14.18,0,0,0-3.6,2.89c-.83.93-2.84,3.71-.52,4.31a4.82,4.82,0,0,0,2-.31C47.19,53.74,47.72,53.62,48.22,53.44Z"/><path class="cls-98" d="M61.15,54.45c-.4-.3-.67-.8-1-1.13a4.89,4.89,0,0,0-1.66-1.18,9.11,9.11,0,0,0-4.69.16A32.76,32.76,0,0,0,49.15,54a19.05,19.05,0,0,1-2.65.86A10.62,10.62,0,0,1,44,55a.85.85,0,0,0-.67.45c-1,1.56.22,3.9,1.09,5.22s1,3.21,2.17,4.55c2.3,2.68,5.91,1.78,8.56.18a19.78,19.78,0,0,0,5-4.38,19,19,0,0,0,1.79-2.57c.49-.87,1.15-2,.76-3a1.26,1.26,0,0,0-.75-.75l-.4-.1A1.39,1.39,0,0,1,61.15,54.45Z"/><path class="cls-99" d="M65.18,50.34a17.37,17.37,0,0,0-2.07-2.23,13.34,13.34,0,0,1,1.74,7.37c-.6,7.31-14.54,19.56-20.32,11.7-1.32-1.79-1.39-4.15-2.48-6.09a14.44,14.44,0,0,1-1.71-4.63,12.44,12.44,0,0,0-.3,3.18,13.65,13.65,0,0,0,2.16,6.48c1.24,2.07,1.32,4.59,2.84,6.51C51.7,81,67.76,67.93,68.45,60.11A14.34,14.34,0,0,0,65.18,50.34Z"/><path class="cls-100" d="M67.79,59.6C67.11,67.23,51.38,80,44.86,71.81c-1.49-1.87-1.57-4.33-2.79-6.35a14.43,14.43,0,0,1-1.91-4.66,15.8,15.8,0,0,0,1.65,3.63c1.22,2,1.3,4.48,2.79,6.35,6.52,8.2,22.25-4.59,22.93-12.21a11.34,11.34,0,0,0-.23-3.29A11.49,11.49,0,0,1,67.79,59.6Z"/><path class="cls-101" d="M42.2,66.12c0,.09.09.19.14.28a3.82,3.82,0,0,1,1.2-1.18,28.85,28.85,0,0,0-1.44-4,4.52,4.52,0,0,1-.55.94,1.68,1.68,0,0,1-.91.67A16.16,16.16,0,0,0,42.2,66.12Z"/><path class="cls-102" d="M64.91,64.51c-1.83.26-2.44-1.3-2.54-3.21A24.24,24.24,0,0,1,56.72,67c3.19-.18,3.67,2.65,2.48,5.35a25.06,25.06,0,0,0,8-8.44A9.38,9.38,0,0,1,64.91,64.51Z"/><g class="cls-29"><path class="cls-103" d="M53.54,64.21a3.58,3.58,0,0,1-2,1.32,4.77,4.77,0,0,1-1.75.17,4.13,4.13,0,0,1-.79-.17,3.43,3.43,0,0,1-.73-.36A3.74,3.74,0,0,1,47,63.92a4.67,4.67,0,0,1-.58-1.6c-.08-.45-.1-.75-.05-.76s.43,1.16,1.1,2a3.38,3.38,0,0,0,1.15.92,4,4,0,0,0,.63.25,4.81,4.81,0,0,0,.64.19,4.21,4.21,0,0,0,1.51,0A14.27,14.27,0,0,0,53.54,64.21Z"/></g><g class="cls-29"><path class="cls-104" d="M49.55,48.06c0,.1-.39.4-.78.73s-.74.68-.74.68-.41.29-.8.62-.75.7-.85.65.11-.57.42-1a6.19,6.19,0,0,1,.71-.85,5.62,5.62,0,0,1,1-.55C49,48.07,49.5,48,49.55,48.06Z"/></g><g class="cls-29"><path class="cls-105" d="M59.79,48.34s-.23-.19-.61-.37-.94-.33-1.5-.52A13.36,13.36,0,0,0,56.16,47a6.36,6.36,0,0,0-.69-.1,5.21,5.21,0,0,0-.68-.09,6.08,6.08,0,0,0-1.52.12,18.93,18.93,0,0,1-2.29.52,6.31,6.31,0,0,1,2.15-1.08,6.09,6.09,0,0,1,1.67-.3,5.87,5.87,0,0,1,.79,0,6.71,6.71,0,0,1,.75.18,10.49,10.49,0,0,1,1.55.61,8.62,8.62,0,0,1,1.46.79C59.73,48,59.84,48.32,59.79,48.34Z"/></g><g class="cls-29"><path class="cls-106" d="M57,61.94c.15.16-.39.92-.39.92s-.8.49-.95.33.4-.92.4-.92S56.86,61.78,57,61.94Z"/></g><g class="cls-29"><path class="cls-107" d="M54.43,72.87c.09.21-3.32,1.44-3.38,1.33s-.23,0-.58,0a5.69,5.69,0,0,1-1.3-.11,3.08,3.08,0,0,1-1.2-.49c-.29-.22-.43-.41-.39-.45s.23.06.53.17a4.14,4.14,0,0,0,1.14.21,6.63,6.63,0,0,0,1.68-.17C50.92,73.52,54.35,72.66,54.43,72.87Z"/></g><g class="cls-29"><path class="cls-108" d="M67.59,61A12.61,12.61,0,0,1,66,64.5a25.63,25.63,0,0,1-2.3,3.13,25.43,25.43,0,0,1-2.92,2.56,12.55,12.55,0,0,1-3.35,1.92c0-.1,1.57-1.12,3-2.37a28.09,28.09,0,0,0,2.67-2.66,28,28,0,0,0,2.42-2.89C66.61,62.66,67.48,61,67.59,61Z"/></g><path class="cls-109" d="M88.43,41.33c-2.31-3.95-6.52-4.47-10.51-5.12a6.36,6.36,0,0,0-4.62.86c-4.41,3.17-7,8.55-4.7,14,2.4,5.71,9,7.15,14,4.46C87.46,53,91.63,46.82,88.43,41.33Z"/><path class="cls-110" d="M87.64,41c-2.21-3.66-6.27-4.15-10.1-4.75a6.29,6.29,0,0,0-4.45.8c-4.24,2.93-6.72,7.92-4.52,13,2.3,5.29,8.63,6.62,13.51,4.13C86.71,51.71,90.73,46,87.64,41Z"/><path class="cls-111" d="M84.09,40.1c-1.53-2.06-4.33-2.33-7-2.67a5.17,5.17,0,0,0-3.07.45c-2.92,1.65-4.63,4.46-3.12,7.3s6,3.73,9.32,2.33C83.45,46.17,86.21,43,84.09,40.1Z"/><path class="cls-112" d="M74.07,41.24c1.41-.24,2.92-.79,4.37-.6a5,5,0,0,1,2.45,1.2c.5.38,1.27,1.21,1.91,1.3.91.14,2.2-.56,2.18-1.38a4.27,4.27,0,0,0-1.6-2.42c-1.69-1.47-4.14-1.64-6.26-1.91a5.17,5.17,0,0,0-3.07.45A4.72,4.72,0,0,0,71.6,41C71.38,41.67,73.91,41.27,74.07,41.24Z"/><path class="cls-113" d="M81.16,43.12a7.81,7.81,0,0,0-2-1.39,6.19,6.19,0,0,0-3.59.09c-1,.2-3.1.27-3.86.86a2.52,2.52,0,0,0-.29,3.17,5.65,5.65,0,0,0,2.44,1.79,8.64,8.64,0,0,0,6.44-.14c1-.4,2.81-1.14,3.11-2.23a.56.56,0,0,0-.07-.55c-.13-.14-.43-.09-.44.1,0-.29-1.32-1.38-1.59-1.61Z"/><path class="cls-114" d="M87.64,41c-2.21-3.66-6.27-4.15-10.1-4.75a6.29,6.29,0,0,0-4.45.8c-4.24,2.93-6.72,7.92-4.52,13,2.3,5.29,8.63,6.62,13.51,4.13C86.71,51.71,90.73,46,87.64,41Zm-7,7.93c-3.8,1.71-8.72.8-10.52-2.84-1.71-3.46.22-6.88,3.52-8.9a5.49,5.49,0,0,1,3.46-.55c3,.42,6.14.75,7.87,3.26C87.41,43.35,84.28,47.25,80.68,48.88Z"/><path class="cls-115" d="M77.71,36.19a22,22,0,0,1,5.93,1.51,5.79,5.79,0,0,1,.68.84,4.56,4.56,0,0,1,.75,2.23,5,5,0,0,0-.52-1.07C83,37.29,80.08,37,77.35,36.57a4.82,4.82,0,0,0-3.17.53c-2.4,1.54-4,3.94-3.77,6.53a5.66,5.66,0,0,1,0-3.21A12.65,12.65,0,0,1,73.64,37,5.56,5.56,0,0,1,77.71,36.19Zm10,6.25c.44,4-2.61,7.91-6,9.75-4.47,2.39-10.26,1.11-12.37-4a9.23,9.23,0,0,1-.42-1.29,9.37,9.37,0,0,0,.65,2.45c2.12,5.08,7.91,6.36,12.37,4C85.62,51.34,88.92,46.83,87.67,42.44Z"/><path class="cls-116" d="M78,36.72A14.52,14.52,0,0,1,82.87,38a1.14,1.14,0,0,1,.29-.58,30.26,30.26,0,0,0-5.52-1.2A4.45,4.45,0,0,1,78,36.72Z"/><path class="cls-117" d="M88.7,44.26c-.49,1.89-1.19,3.42-2.19,3.45s-1.51-.86-1.83-2a10.28,10.28,0,0,1-4,3.18l-.19.07c1.23.28,2.18.81,2.07,1.79-.19,1.61-3,3.39-5.09,4.54a11.16,11.16,0,0,0,4.61-1.2C85.72,52.22,89,48.31,88.7,44.26Z"/><path class="cls-118" d="M71.38,47.71A6.42,6.42,0,0,1,70.16,46a6,6,0,0,1-.59-1.95,1.5,1.5,0,0,1-.74.83,1,1,0,0,1-1-.26A9.24,9.24,0,0,0,68.57,50a1.79,1.79,0,0,0,.12.24,2.39,2.39,0,0,1,.84-1.94A3.29,3.29,0,0,1,71.38,47.71Z"/><g class="cls-29"><path class="cls-119" d="M77.81,47.09a4.16,4.16,0,0,1-1.86.38A7.31,7.31,0,0,1,74,47.29a5.34,5.34,0,0,1-1.71-1c-.78-.64-1.15-1.58-1-1.62s.61.72,1.38,1.16a5.49,5.49,0,0,0,1.6.65,8,8,0,0,0,1.72.37A9.41,9.41,0,0,1,77.81,47.09Z"/><path class="cls-120" d="M81.46,45.85c.08.09-.15.42-.45.7a3.91,3.91,0,0,1-.65.49,4.63,4.63,0,0,1-.8.16c-.4,0-.8,0-.82-.13s.35-.25.67-.42.62-.35.62-.35.34-.1.68-.23S81.39,45.77,81.46,45.85Z"/><path class="cls-121" d="M76.92,38.15c0,.11-.57.17-1.09.29a7,7,0,0,0-1,.3,4.47,4.47,0,0,0-1,.31c-.48.21-.89.57-1,.51s.18-.61.67-1a4.21,4.21,0,0,1,1-.61,4.89,4.89,0,0,1,1.19-.09C76.37,37.89,76.93,38,76.92,38.15Z"/><path class="cls-122" d="M83.15,51.32a4.72,4.72,0,0,1-1.73,1.55,9.54,9.54,0,0,1-2.15,1,8.93,8.93,0,0,1-2.35.2,6.44,6.44,0,0,1-1.6-.26c-.42-.14-.67-.31-.65-.35s.3,0,.71,0a9.73,9.73,0,0,0,1.53,0,10,10,0,0,0,2.16-.41,10.52,10.52,0,0,0,2.09-.68C82.18,51.93,83.08,51.23,83.15,51.32Z"/><path class="cls-123" d="M86.7,48.44c.09.07-.06.42-.26.74a5.74,5.74,0,0,1-.43.63,5.1,5.1,0,0,1-.62.43c-.33.2-.68.35-.75.27s.15-.4.37-.69l.43-.58L86,48.8C86.31,48.59,86.61,48.37,86.7,48.44Z"/></g><path class="cls-124" d="M94.66,73.71c-1.75-5-6.36-8.82-11.44-9.14s-10.13,4-12.18,8.64-5.6,11.2-2.27,16.21a9.79,9.79,0,0,0,3.56,3,18.26,18.26,0,0,1,1.94.78c1.4.89,1.47,3,3,4,5.21,3.49,11.09-3,14-7C94.64,85.58,96.71,79.52,94.66,73.71Z"/><path class="cls-125" d="M94.66,73.23a13.45,13.45,0,0,0-11.44-8.66c-5.09-.31-10.13,3.82-12.18,8.18s-5.6,10.61-2.27,15.35A9.75,9.75,0,0,0,72.33,91a18.05,18.05,0,0,1,1.94.74c1.4.84,1.47,2.84,3,3.78,5.21,3.3,11.09-2.83,14-6.59C94.64,84.46,96.71,78.73,94.66,73.23Z"/><path class="cls-126" d="M93.42,76.86a9.73,9.73,0,0,0-8.25-6.25c-3.68-.22-7.31,2.76-8.79,5.91s-4,7.65-1.63,11.07a7,7,0,0,0,2.56,2.06,12.31,12.31,0,0,1,1.4.54c1,.6,1.06,2,2.13,2.73,3.76,2.38,8-2,10.09-4.76C93.41,85,94.9,80.83,93.42,76.86Z"/><path class="cls-127" d="M77.57,85.73c2.43.49,4.46-1.1,6.78-1.44s4.68.83,7,.23c3.12-.83,3-5.25,2.1-7.66a9.73,9.73,0,0,0-8.25-6.25c-3.68-.22-7.31,2.76-8.79,5.91-.77,1.65-2,3.34-2.1,5.24A3.82,3.82,0,0,0,77.57,85.73Z"/><path class="cls-128" d="M84,85.23c-2.72.6-4.94,2.17-7.78,1-.64-.28-1.3-1-1.75,0a1.42,1.42,0,0,0,.33,1.45,7,7,0,0,0,2.56,2.06,12.31,12.31,0,0,1,1.4.54c1,.6,1.06,2,2.13,2.73,3.76,2.38,8-2,10.09-4.76.37-.47,1.49-1.5,1.29-2.08s-1-.7-1.51-.66a12.22,12.22,0,0,1-2.26-.09A14.16,14.16,0,0,0,84,85.23Z"/><path class="cls-129" d="M80,94.39c-1.19-.79-1.25-2.45-2.37-3.15a15.35,15.35,0,0,0-1.56-.62,7.8,7.8,0,0,1-2.85-2.38c-2.68-3.94.13-9,1.82-12.76s5.69-7.07,9.78-6.81A10.88,10.88,0,0,1,94,75.87c1.43,4,.37,8.06-1.72,11.49,2.74-4.18,4.17-9.25,2.35-14.13a13.45,13.45,0,0,0-11.44-8.66c-5.09-.31-10.13,3.82-12.18,8.18s-5.6,10.61-2.27,15.35A9.75,9.75,0,0,0,72.33,91a18.05,18.05,0,0,1,1.94.74c1.4.84,1.47,2.84,3,3.78,3.48,2.21,7.26.2,10.25-2.49C85.21,94.86,82.52,96,80,94.39Z"/><path class="cls-130" d="M87.75,92.93c-2.94,2.55-6.57,4.35-9.93,2.22-1.48-1-1.55-3-2.95-3.79a20.45,20.45,0,0,0-1.94-.74,9.81,9.81,0,0,1-3.56-2.86C66,83,69.54,76.88,71.64,72.41a15.5,15.5,0,0,1,4.63-5.6,15.34,15.34,0,0,0-3.69,4.83C70.48,76.11,67,82.24,70.32,87a9.62,9.62,0,0,0,3.55,2.87,19.07,19.07,0,0,1,1.95.74c1.39.84,1.46,2.84,3,3.79C81.77,96.28,85,95,87.75,92.93ZM95.3,75.77A10,10,0,0,0,94.84,74a10.92,10.92,0,0,0-9.19-7.21,9.47,9.47,0,0,0-6.71,2.69,9,9,0,0,1,5.77-1.91,10.87,10.87,0,0,1,9.18,7.2c1.43,4,.37,8.06-1.72,11.49A17.24,17.24,0,0,0,95.3,75.77Z"/><path class="cls-131" d="M78.71,92.59a3.16,3.16,0,0,0-1.06-1.35,15.35,15.35,0,0,0-1.56-.62,8.17,8.17,0,0,1-2.51-1.93,2.51,2.51,0,0,1-.31.26,3.46,3.46,0,0,1-3.06.65A10.29,10.29,0,0,0,72.33,91a18.05,18.05,0,0,1,1.94.74,3.89,3.89,0,0,1,1.37,1.72A5.72,5.72,0,0,1,78.71,92.59Z"/><path class="cls-132" d="M89,66.42A6,6,0,0,1,86.78,69a10.66,10.66,0,0,1,4.84,3,6.67,6.67,0,0,1,1.16-2.15A14,14,0,0,0,89,66.42Z"/><path class="cls-133" d="M71,72.75c-.57,1.21-1.23,2.53-1.84,3.92a4.89,4.89,0,0,1,3.16-1.49c.8,0,1.46.78,1.94,1.93l.76-1.63a12.38,12.38,0,0,1,1.94-3,8.13,8.13,0,0,1-2.62,0c-1.21-.31-1.43-1.53-1.26-2.9A14.66,14.66,0,0,0,71,72.75Z"/><path class="cls-134" d="M69.19,86.54s-.36-.33-.65-1a6.88,6.88,0,0,1-.49-2.6,11.64,11.64,0,0,1,.31-2.63c.16-.7.29-1.15.29-1.15a28.26,28.26,0,0,1,1.43-3.51,8.87,8.87,0,0,1,2.18-3.09c.08.06-1,1.58-1.66,3.32a35.17,35.17,0,0,0-1.17,3.52s-.16.44-.35,1.1A12,12,0,0,0,68.62,83a7.6,7.6,0,0,0,.22,2.47C69,86.1,69.24,86.51,69.19,86.54Zm2.36,2.36-.3-.44-.43-.33c-.22-.17-.43-.37-.53-.32s-.06.36.07.66a2.68,2.68,0,0,0,.3.55,2.86,2.86,0,0,0,.54.33c.29.14.6.2.65.1S71.72,89.13,71.55,88.9Zm8.89-15.71a14.35,14.35,0,0,0-2.24,2,13.61,13.61,0,0,0-1.58,2.51,6.94,6.94,0,0,0-.84,2.82c.11,0,.59-1.34,1.34-2.55a16.15,16.15,0,0,1,1.7-2.26,15,15,0,0,1,2-2c1.08-.93,2.35-1.62,2.31-1.72A7.18,7.18,0,0,0,80.44,73.19ZM87.05,72a4.51,4.51,0,0,0-.83-.23,5.3,5.3,0,0,0-.86.12c-.42.1-.81.29-.78.4s.43.12.82.17.77.12.77.12.38,0,.77,0,.8,0,.84-.07S87.46,72.1,87.05,72ZM83.91,92.2a3.89,3.89,0,0,1-1.2-.17,4.13,4.13,0,0,1-1.16-.34c-.56-.25-1-.72-1.12-.66s.23.7.82,1.14a3.92,3.92,0,0,0,1.29.65,4.14,4.14,0,0,0,1.44,0c.72-.16,1.28-.61,1.21-.7S84.52,92.21,83.91,92.2Zm8.61-8.57a10.74,10.74,0,0,1-.94,1.56C90.82,86.3,90,87.32,90,87.32s-.78,1.09-1.67,2.1a21.33,21.33,0,0,0-1.78,2,8.27,8.27,0,0,0,2.19-1.65,22.07,22.07,0,0,0,1.9-2,23.86,23.86,0,0,0,1.48-2.33,8.2,8.2,0,0,0,.75-1.76c.13-.51.12-.86.06-.87A4,4,0,0,0,92.52,83.63Z"/><path class="cls-135" d="M61.43,81.91c-3.07-3.18-9.48-3.87-13.51-3-4.61,1-9.08,6.51-6.17,11.46C45.31,96.45,54,98.6,59.69,94.7,63.76,91.93,65.15,85.77,61.43,81.91Zm-7.48.8h0Z"/><path class="cls-136" d="M60.55,81.55c-2.94-2.84-9.08-3.45-12.93-2.66-4.42.9-8.7,5.81-5.91,10.22,3.41,5.41,11.71,7.33,17.17,3.85C62.77,90.48,64.1,85,60.55,81.55Zm-7.17.71h0Z"/><path class="cls-137" d="M55.64,84.33c-2-2-6.23-2.37-8.87-1.83-3,.62-6,4-4.05,7A8.94,8.94,0,0,0,54.5,92.15C57.17,90.45,58.08,86.69,55.64,84.33Zm-4.91.49h0Z"/><path class="cls-138" d="M50.81,86.63c1.44-.26,2.93,0,4.36-.37s.88-1.69,0-2.38a7.58,7.58,0,0,0-2.56-1.15,12.64,12.64,0,0,0-5.8-.23c-2.28.47-5.86,3.29-4.23,5.93C44.32,91.3,48.64,87,50.81,86.63Z"/><path class="cls-139" d="M52.69,87.54a10.86,10.86,0,0,0-4.5,1.5c-.43.22-.92.35-1.34.59s-.68.48-1,.68-.68.27-.79.6a.73.73,0,0,0,.1.55c.7,1.18,2.38,1.59,3.65,1.78a8.33,8.33,0,0,0,5.73-1.09c1.32-.84,3-2.89,2.39-4.57a.75.75,0,0,0-.31-.44.82.82,0,0,0-.49-.06c-.57,0-1.09.24-1.66.32A17,17,0,0,1,52.69,87.54Z"/><path class="cls-140" d="M60.55,81.55c-2.94-2.84-9.08-3.45-12.93-2.66-4.14.85-8.17,5.22-6.35,9.4-.61-3.13,2.39-6.15,5.48-6.78s8.19-.15,10.59,2.18C60.26,86.51,59.17,91,56,93a9.84,9.84,0,0,1-6.2,1.37A12.33,12.33,0,0,0,58.88,93C62.77,90.48,64.1,85,60.55,81.55Z"/><path class="cls-141" d="M48.17,81.26a14.26,14.26,0,0,0-3.43.25A7.3,7.3,0,0,0,41.9,82.8a6.4,6.4,0,0,0-1,2.61A7.46,7.46,0,0,1,46,81.51,13.43,13.43,0,0,1,48.17,81.26Z"/><path class="cls-142" d="M58.1,93c3.89-2.48,5.22-8,1.66-11.41-2.15-2.08-6-3-9.43-3H50c3.2.15,6.62,1,8.59,3C62.09,85,60.76,90.48,56.87,93a11.42,11.42,0,0,1-5.33,1.69c.19,0,.38,0,.58,0A11.56,11.56,0,0,0,58.1,93Z"/><path class="cls-143" d="M61.76,83.13c-.17.8-.54,1.41-1.24,1.45a9.57,9.57,0,0,1-2.7-.37,5.44,5.44,0,0,1,1.07,4.71c1.2-.68,2.39-.79,2.92.77A7,7,0,0,0,61.76,83.13Z"/><path class="cls-144" d="M46,81.72a7.34,7.34,0,0,1,.77-.21,15.44,15.44,0,0,1,5.11-.09c-.72-.81-1-1.82.56-2.8a18.47,18.47,0,0,0-4.8.27,8.35,8.35,0,0,0-2,.7A1.46,1.46,0,0,1,46,81.72Z"/><path class="cls-145" d="M47.37,92a4.88,4.88,0,0,1-1.77-.48A8.14,8.14,0,0,1,44.45,91,4.06,4.06,0,0,1,44,90.6,4.43,4.43,0,0,1,42.88,89a2.25,2.25,0,0,1-.05-1.87,6.82,6.82,0,0,0,.52,1.65,4.28,4.28,0,0,0,1.1,1.25,8.08,8.08,0,0,0,1.38,1A7.82,7.82,0,0,1,47.37,92Zm4,.4c-.39,0-.76,0-.76,0s-.37.05-.76.06-.78,0-.81.08.33.31.74.43a4.58,4.58,0,0,0,.84.17,4.43,4.43,0,0,0,.83-.19c.41-.13.77-.35.73-.44S51.72,92.43,51.34,92.42ZM61,83.54a7.54,7.54,0,0,0-1.19-1.68,7.85,7.85,0,0,0-1.73-1.14,3.89,3.89,0,0,0-2-.48c0,.1.92.41,1.72.94a8.36,8.36,0,0,1,1.47,1.2A8.14,8.14,0,0,1,60.6,83.8c.55.79.85,1.73.95,1.7A3.73,3.73,0,0,0,61,83.54Zm.31,5.66a4.25,4.25,0,0,0,.41-.77,4.36,4.36,0,0,0,.08-.87c0-.43-.13-.85-.23-.84s-.17.41-.29.78a6.49,6.49,0,0,1-.26.72,6,6,0,0,1-.18.75c-.1.37-.27.74-.18.81S61.1,89.56,61.35,89.2Z"/><g class="cls-146"><path class="cls-147" d="M33.4,82.69c7-1.35,4.79-13.16-2.26-11.81S26.35,84,33.4,82.69Z"/></g><path class="cls-148" d="M32.63,81C39.1,79.77,37.19,69.72,30.71,71S26.15,82.24,32.63,81Z"/><path class="cls-149" d="M30.81,77.85c-4.84,1-4.73-5.58-1.2-6.26s4.73,5.59,1.2,6.26Z"/><path class="cls-150" d="M31,73.32c.29-.13.91-.21.94-.64s-.51-.76-.85-.92a2.54,2.54,0,0,0-1.52-.17,3,3,0,0,0-2,1.41c-.35.58-.87,1.8-.36,2.39.37.42,1.49-.54,1.81-.77A11.69,11.69,0,0,1,31,73.32Z"/><path class="cls-151" d="M31.91,73.92a10.89,10.89,0,0,0-2.39,1.41,10.7,10.7,0,0,1-1.22.74c-.29.15-.77.25-.65.69.31,1.23,2.19,1.29,3.16,1.09a2.54,2.54,0,0,0,1.88-1.54,3.5,3.5,0,0,0,.24-1.24c0-.38.11-.94-.28-1.14A.87.87,0,0,0,31.91,73.92Z"/><path class="cls-152" d="M30.82,70.94c3.83.74,4.53,7.15-.05,8A3.72,3.72,0,0,1,27,77.64,4.75,4.75,0,0,0,32.63,81C39.06,79.78,37.21,69.84,30.82,70.94Z"/><path class="cls-153" d="M34.79,72.41c1.75,2.49,1.09,6.66-2.95,7.43a4.47,4.47,0,0,1-4.18-1.16,4.43,4.43,0,0,0,4.68,1.75C36.71,79.6,37.12,74.76,34.79,72.41Z"/><path class="cls-154" d="M36.15,73.84c0,.94-.25,1.65-.91,1.74a2.16,2.16,0,0,1-1.3-.27,3.93,3.93,0,0,1-.89,2.36,1.76,1.76,0,0,1,1.76,1,4.22,4.22,0,0,1,.36,1A5.32,5.32,0,0,0,36.15,73.84Z"/><path class="cls-155" d="M28.05,73.2c.06.06-.17.48-.27.92a4.21,4.21,0,0,0-.09.89,3.56,3.56,0,0,0,0,.9c0,.45.22.9.15.94s-.4-.34-.57-.84a3.45,3.45,0,0,1-.18-1,3.6,3.6,0,0,1,.3-1C27.61,73.5,28,73.15,28.05,73.2Zm1.08-1.45a.83.83,0,0,0-.75.6c-.11.23-.1.48,0,.5s.21-.14.37-.25a2.2,2.2,0,0,1,.3-.2,2.76,2.76,0,0,1,.27-.25c.14-.13.33-.22.33-.31S29.38,71.7,29.13,71.75Zm5.77,6.6a4.37,4.37,0,0,1-.67.64l-.35.26a5,5,0,0,1-1.13.74,12.48,12.48,0,0,1-1.34.4,2,2,0,0,0,1.48,0,4.61,4.61,0,0,0,1.36-.66s.15-.12.35-.32a3.85,3.85,0,0,0,.65-.82,2.34,2.34,0,0,0,.35-1.45C35.51,77.11,35.31,77.84,34.9,78.35Zm.74-2.48s0,.69.1.76.52-.64.5-.66-.06-.81-.25-.79S35.66,75.88,35.64,75.87Z"/><g class="cls-146"><path class="cls-156" d="M88.23,34.56c-4.24,5.77-13.94-1.34-9.69-7.12s13.94,1.33,9.69,7.12Z"/></g><path class="cls-157" d="M87.05,33.14c-3.9,5.31-12.15-.74-8.25-6.05s12.15.74,8.25,6.05Z"/><path class="cls-158" d="M85,30.14c-2.13,2.89-7.26-.87-5.13-3.77S88,26.2,85,30.14Z"/><path class="cls-159" d="M80.79,28.4c-.24.21-.58.72-1,.58s-.47-.8-.47-1.17a2.52,2.52,0,0,1,.51-1.44A3,3,0,0,1,82,25.18c.67-.07,2,0,2.31.71.22.51-1.13,1.11-1.47,1.3A11.49,11.49,0,0,0,80.79,28.4Z"/><path class="cls-160" d="M81,29.44a10.49,10.49,0,0,1,2.29-1.55,10.73,10.73,0,0,0,1.2-.78c.26-.2.56-.59.91-.29,1,.81.21,2.53-.38,3.32a2.53,2.53,0,0,1-2.2,1,3.54,3.54,0,0,1-1.23-.31c-.34-.16-.89-.31-.9-.74A.86.86,0,0,1,81,29.44Z"/><path class="cls-161" d="M78.74,27.18c-1,3.77,4.5,7.16,7.26,3.4a3.69,3.69,0,0,0,.43-4,4.76,4.76,0,0,1,.62,6.52C83.17,38.42,75,32.47,78.74,27.18Z"/><path class="cls-162" d="M78.36,31.39c1.49,2.65,5.54,3.85,8,.54a4.47,4.47,0,0,0,.75-4.28,4.44,4.44,0,0,1-.43,5C84,36.22,79.47,34.5,78.36,31.39Z"/><path class="cls-163" d="M79.06,33.23c.85.39,1.6.48,2-.07a2.11,2.11,0,0,0,.32-1.29,3.94,3.94,0,0,0,2.51.22,1.76,1.76,0,0,0,.18,2,3.88,3.88,0,0,0,.79.78A5.31,5.31,0,0,1,79.06,33.23Z"/><path class="cls-164" d="M83,25.37a3.73,3.73,0,0,1,1,.17,3.52,3.52,0,0,1,.85.6c.38.37.59.84.52.88s-.39-.31-.78-.55a11.08,11.08,0,0,0-1.66-.67c-.45-.1-.92-.07-1-.15S82.43,25.37,83,25.37Zm-2.89,1.12c.07,0,.24-.09.41-.17a1.8,1.8,0,0,1,.35-.13,1.43,1.43,0,0,1,.31-.19c.16-.09.37-.14.38-.23s-.2-.19-.46-.19a1.37,1.37,0,0,0-.5.07,1.52,1.52,0,0,0-.37.35C80,26.21,80,26.45,80.07,26.49Zm2.21,7.67a2.36,2.36,0,0,0,1.46.31,4.25,4.25,0,0,0,1-.24c.26-.09.43-.17.43-.17a4.5,4.5,0,0,0,1.19-1c.53-.56.72-1.32.63-1.34s-.38.62-.93,1a4.9,4.9,0,0,1-1.16.7s-.15.09-.38.2a4.15,4.15,0,0,1-.87.34C83,34.19,82.29,34.06,82.28,34.16Zm-1.94-.49c-.1.16.59.58.61.56s.81,0,.81-.17-.66-.39-.65-.41S80.43,33.54,80.34,33.67Z"/><g class="cls-146"><path class="cls-165" d="M102.09,65c-5.15,7-16.92-1.62-11.76-8.64S107.24,58,102.09,65Z"/></g><path class="cls-166" d="M92.08,65.31c-6.38-4.8,1.07-14.73,7.46-9.93s-1.06,14.74-7.46,9.93Z"/><path class="cls-167" d="M95.76,62.84c-3.49-2.62,1.15-8.8,4.64-6.18s.1,9.84-4.64,6.18Z"/><path class="cls-168" d="M97.93,57.78c-.25-.3-.88-.71-.69-1.19s1-.57,1.41-.56a3.06,3.06,0,0,1,1.75.63,3.62,3.62,0,0,1,1.41,2.6c.08.81,0,2.42-.89,2.79-.62.26-1.33-1.38-1.55-1.8A15.18,15.18,0,0,0,97.93,57.78Z"/><path class="cls-169" d="M96.66,58a13.52,13.52,0,0,1,1.85,2.81,12.42,12.42,0,0,0,.93,1.46c.24.32.7.69.34,1.11-1,1.17-3.07.22-4-.51a3.06,3.06,0,0,1-1.23-2.68,4.34,4.34,0,0,1,.4-1.49c.19-.41.38-1.08.91-1.08A1.07,1.07,0,0,1,96.66,58Z"/><path class="cls-170" d="M99.43,55.31c-4.57-1.24-8.75,5.37-4.22,8.77a4.48,4.48,0,0,0,4.79.57,5.77,5.77,0,0,1-7.92.66C85.73,60.54,93.06,50.7,99.43,55.31Z"/><path class="cls-171" d="M94.33,54.79c-3.24,1.77-4.75,6.68-.77,9.67a5.46,5.46,0,0,0,5.18,1,5.37,5.37,0,0,1-6-.59C88.39,61.59,90.54,56.1,94.33,54.79Z"/><path class="cls-172" d="M92.08,55.62c-.48,1-.6,1.93.06,2.38a2.59,2.59,0,0,0,1.57.4,4.71,4.71,0,0,0-.3,3.05,2.14,2.14,0,0,0-2.47.18,5.38,5.38,0,0,0-1,1A6.46,6.46,0,0,1,92.08,55.62Z"/><path class="cls-173" d="M101.56,60.45a2.8,2.8,0,0,1-1,2.28c-.45.45-1,.7-1.07.62s.38-.48.67-1a4.66,4.66,0,0,0,.46-1,5.08,5.08,0,0,0,.38-1c.13-.54.1-1.12.2-1.15S101.57,59.81,101.56,60.45Zm-1.31-3.52c0,.09.11.29.2.5a2.75,2.75,0,0,1,.15.42,2.41,2.41,0,0,1,.23.38c.11.21.17.46.27.48s.23-.25.25-.56a2,2,0,0,0-.09-.61,1.84,1.84,0,0,0-.42-.45C100.59,56.91,100.3,56.84,100.25,56.93Zm-9.34,2.58a2.9,2.9,0,0,0-.39,1.77,5.46,5.46,0,0,0,.27,1.24c.12.32.21.53.21.53a5.7,5.7,0,0,0,1.13,1.45,2.44,2.44,0,0,0,1.62.79c0-.09-.74-.48-1.25-1.15a6,6,0,0,1-.84-1.42s-.1-.17-.24-.46A5.62,5.62,0,0,1,91,61.2C90.86,60.42,91,59.52,90.91,59.51Zm.63-2.34c-.2-.13-.72.71-.7.73s0,1,.2,1,.48-.79.51-.78S91.68,57.27,91.54,57.17Z"/><g class="cls-146"><path class="cls-174" d="M89.61,104.17c-4.21-5.79,5.51-12.87,9.73-7.06s-5.51,12.87-9.73,7.06Z"/></g><path class="cls-175" d="M90.19,102.49c-3.87-5.32,4.4-11.35,8.28-6s-4.4,11.35-8.28,6Z"/><path class="cls-176" d="M93.69,101.44c-2.12-2.91,3-6.66,5.15-3.75s-2.3,7.78-5.15,3.75Z"/><path class="cls-177" d="M96.62,98c-.13-.3-.52-.78-.26-1.11s.9-.21,1.25-.1a2.56,2.56,0,0,1,1.23.92,3,3,0,0,1,.48,2.39c-.14.66-.59,1.9-1.37,2-.56.06-.72-1.41-.8-1.79A11.73,11.73,0,0,0,96.62,98Z"/><path class="cls-178" d="M95.57,97.82a10.58,10.58,0,0,1,.78,2.66,9.27,9.27,0,0,0,.38,1.37c.11.31.39.72,0,1-1.07.68-2.47-.57-3-1.37A2.51,2.51,0,0,1,93.37,99,3.56,3.56,0,0,1,94,98c.25-.27.56-.76,1-.63A.83.83,0,0,1,95.57,97.82Z"/><path class="cls-179" d="M98.4,96.39c-3.3-2.08-8.19,2.12-5.45,5.89a3.72,3.72,0,0,0,3.64,1.61,4.76,4.76,0,0,1-6.4-1.4C86.35,97.2,94.49,91.22,98.4,96.39Z"/><path class="cls-180" d="M94.5,94.75a4.67,4.67,0,0,0-2.94,7.43,4.5,4.5,0,0,0,3.85,2,4.44,4.44,0,0,1-4.61-1.93C88.18,98.67,91.2,94.86,94.5,94.75Z"/><path class="cls-181" d="M92.53,94.86c-.62.69-.94,1.37-.52,1.88a2.15,2.15,0,0,0,1.13.7,4,4,0,0,0-1,2.33,1.77,1.77,0,0,0-2-.45,4.55,4.55,0,0,0-1,.52A5.32,5.32,0,0,1,92.53,94.86Z"/><path class="cls-182" d="M98.84,101a3.43,3.43,0,0,1-.47.93,3.62,3.62,0,0,1-.83.63c-.47.25-1,.31-1,.23s.41-.28.76-.58a11.18,11.18,0,0,0,1.14-1.38c.24-.39.35-.86.44-.85S99,100.46,98.84,101Zm-.18-3.09c-.07,0,0,.25,0,.44a2,2,0,0,1,0,.37,2,2,0,0,1,.09.35c0,.19,0,.4.09.44s.25-.14.33-.38a1.46,1.46,0,0,0,.08-.5,1.55,1.55,0,0,0-.22-.45C98.93,97.93,98.71,97.81,98.66,97.87Zm-8-.23a2.41,2.41,0,0,0-.74,1.3,4.41,4.41,0,0,0-.08,1,4.32,4.32,0,0,0,0,.47,4.61,4.61,0,0,0,.53,1.42c.38.68,1,1.09,1.09,1s-.47-.56-.7-1.21a4.89,4.89,0,0,1-.33-1.32s0-.16-.07-.42a3.9,3.9,0,0,1,0-.93C90.41,98.35,90.77,97.68,90.67,97.64ZM91.73,96c-.12-.15-.74.38-.72.4s-.27.77-.09.83.58-.51.59-.5S91.82,96.06,91.73,96Z"/><path class="cls-183" d="M88.79,111.5c-.13-4.1-3.77-7.14-7.77-7.65-5.64-.73-10.25-.24-15.15,2.66-3.18,1.89-5.69,5.19-4.48,8.83a48.21,48.21,0,0,0,7.45.59A46.82,46.82,0,0,0,88.79,111.5Z"/><path class="cls-184" d="M79.79,104.17c-5.64-.66-10.24-.22-15.15,2.4-3.86,2.07-6.74,6-3.18,10.1a14.15,14.15,0,0,0,12.22,4.46c4.33-.45,10.57-2.3,12.87-6.3C89.71,109.33,85.06,104.78,79.79,104.17Z"/><path class="cls-185" d="M79.31,109.6c-.6,0-1.18,0-1.7,0a27.06,27.06,0,0,0-7.53,1.21c-2.38.7-5.16,1.82-6.54,4-2.9,4.61,7.35,6,9.89,5.69a20.85,20.85,0,0,0,8.39-2.62,10.41,10.41,0,0,0,3.31-3c1.21-1.67.37-3.37-1.35-4.11A13.57,13.57,0,0,0,79.31,109.6Z"/><path class="cls-186" d="M73.43,120.46a23.6,23.6,0,0,0,3.22-.57,4.67,4.67,0,0,0,2.43-1.63c.71-1.12-.32-2.42-1-3.27a2.72,2.72,0,0,1-.66-2.08c.06-1.09.38-2-.64-2.77a3.24,3.24,0,0,0-2.15-.47,20.22,20.22,0,0,0-4.56,1.09c-2.38.7-5.16,1.82-6.54,4C60.64,119.38,70.89,120.73,73.43,120.46Z"/><path class="cls-187" d="M83.78,110.78a14.08,14.08,0,0,0-3.21-1,2.19,2.19,0,0,0-2,.64,4.44,4.44,0,0,0-.25,2.19,3.9,3.9,0,0,0,1,2.49c.35.49,1,1,1,1.7,0,.27-.5,1-.41,1.14.37.7,2.72-.59,3.09-.86a10.29,10.29,0,0,0,2.14-2.18C86.34,113.22,85.5,111.52,83.78,110.78Z"/><path class="cls-188" d="M66,111.15c4.91-2.62,9.52-3.06,15.15-2.41a9.77,9.77,0,0,1,6.39,3.31c.54-4.19-3.38-7.38-7.73-7.88-5.64-.66-10.24-.22-15.15,2.4-3.8,2-6.63,5.88-3.34,9.9C61.75,114.27,63.69,112.38,66,111.15Z"/><path class="cls-189" d="M65.45,108.36c4.69-2.43,9.1-2.84,14.49-2.24,3.26.37,6.24,2.26,7.15,4.92-.4-3.2-3.73-5.54-7.4-6-5.39-.6-9.79-.2-14.49,2.23-3,1.57-5.38,4.3-4.29,7.31C60.62,112,62.78,109.74,65.45,108.36Z"/><path class="cls-190" d="M76.15,108.48c-1.56-1-2.42-2.19-.85-3.14A24,24,0,0,1,77.85,104a23.77,23.77,0,0,0-10.29,1.27c1.42.06,2.86.35,3.4,1.23.42.67-.22,1.83-1.23,3.06A22.43,22.43,0,0,1,76.15,108.48Z"/><path class="cls-191" d="M73.42,105.53c0,.11-1.65.28-3.23.75a20.31,20.31,0,0,0-3,1.16,21.15,21.15,0,0,0-2.91,1.5c-1.4.87-2.63,2-2.71,1.91a9.38,9.38,0,0,1,2.39-2.38,18.88,18.88,0,0,1,2.9-1.77,18.85,18.85,0,0,1,3.25-1A9.21,9.21,0,0,1,73.42,105.53Zm2.62-.41c-.27-.06-.53-.09-.53-.09a5.24,5.24,0,0,0-.51.17c-.24.11-.48.25-.46.36s.28.17.54.21l.49.07.48-.15c.25-.08.5-.18.5-.29S76.3,105.19,76,105.12Zm-3.52,14.35a18,18,0,0,1-3-.46,17.68,17.68,0,0,1-3-.82,4.57,4.57,0,0,1-1.74-1.06c-.38-.42-.45-.82-.51-.81a1.24,1.24,0,0,0,.26,1,4.36,4.36,0,0,0,1.76,1.4,15.51,15.51,0,0,0,3,1.08,15.71,15.71,0,0,0,3.21.24,8.4,8.4,0,0,0,3.14-.55C75.64,119.38,74.07,119.58,72.52,119.47Zm8.47-2c-.51.24-1,.43-1,.43s-.47.29-1,.54-1,.49-1,.6.62.07,1.2-.06a8.46,8.46,0,0,0,1.13-.35,8.85,8.85,0,0,0,1-.67c.46-.37.86-.81.79-.89S81.5,117.3,81,117.52Z"/><path class="cls-192" d="M106.66,56c-1.45,4.71-1.68,8.72.22,13.34,1.41,3.43,4.59,6.38,8.76,4.74a47.1,47.1,0,0,0-3.39-23.47A7.91,7.91,0,0,0,106.66,56Z"/><path class="cls-193" d="M106.75,55.38c-1.38,4.29-1.54,7.95.41,12.22,1.54,3.35,5.07,6.24,9.59,4.15a10,10,0,0,0,6-8.81c.12-3.45-.89-8.62-4.56-11.08C113.15,48.49,108,51.36,106.75,55.38Z"/><path class="cls-194" d="M112.07,56.65A12.4,12.4,0,0,0,111.8,58,17.25,17.25,0,0,0,112,64c.39,2,1.13,4.33,3.13,5.77,4.18,3,6.85-4.75,6.91-6.78a14.11,14.11,0,0,0-1.5-7A9.38,9.38,0,0,0,118.06,53a2.91,2.91,0,0,0-4.25.37A9.13,9.13,0,0,0,112.07,56.65Z"/><path class="cls-195" d="M122.05,63a15.12,15.12,0,0,0-.14-2.6,3.74,3.74,0,0,0-1.3-2.17c-1-.74-2.43-.15-3.37.23a3.24,3.24,0,0,1-2.14.17c-1.07-.22-1.95-.62-2.83.05a2.11,2.11,0,0,0-.74,1.6A13.22,13.22,0,0,0,112,64c.39,2,1.13,4.33,3.13,5.77C119.32,72.84,122,65.06,122.05,63Z"/><path class="cls-196" d="M113.81,53.35a9.59,9.59,0,0,0-1.41,2.35,1.52,1.52,0,0,0,.37,1.65,5.63,5.63,0,0,0,2.14.56,4.54,4.54,0,0,0,2.59-.37,3.89,3.89,0,0,1,1.82-.49c.27,0,.89.55,1.07.51.75-.17-.23-2.22-.45-2.55a9.46,9.46,0,0,0-1.88-2A2.91,2.91,0,0,0,113.81,53.35Z"/><path class="cls-197" d="M111.87,67.3c-2-4.26-1.79-7.93-.41-12.22a7.34,7.34,0,0,1,4.1-4.43,7.25,7.25,0,0,0-8.81,4.73c-1.38,4.29-1.54,7.95.41,12.22,1.52,3.29,5,6.14,9.36,4.24A8.35,8.35,0,0,1,111.87,67.3Z"/><path class="cls-198" d="M109,67.26c-1.79-4.07-1.62-7.57-.32-11.68a6.91,6.91,0,0,1,5.8-4.77,6.86,6.86,0,0,0-6.86,4.79c-1.3,4.11-1.47,7.62.33,11.68,1.15,2.61,3.55,4.91,6.67,4.56C112,71.63,110.05,69.57,109,67.26Z"/><path class="cls-199" d="M110.55,58.93c-1.23,1-2.49,1.53-3.22.14a17.76,17.76,0,0,1-1-2.21,15.18,15.18,0,0,0-.08,8.24c.24-1.1.72-2.17,1.66-2.45.72-.22,1.79.47,2.87,1.47A14.42,14.42,0,0,1,110.55,58.93Z"/><path class="cls-200" d="M107.27,60.57c.11,0,.06,1.34.32,2.64a14.91,14.91,0,0,0,.76,2.58,15.47,15.47,0,0,0,1.1,2.51c.68,1.24,1.63,2.38,1.54,2.43a8.68,8.68,0,0,1-2-2.25,14.38,14.38,0,0,1-1.38-2.55,12.83,12.83,0,0,1-.55-2.7A5.93,5.93,0,0,1,107.27,60.57Zm-.06-2.11a2.83,2.83,0,0,0-.16.4,2.22,2.22,0,0,0,.11.42c.07.21.18.42.29.42s.2-.19.28-.38l.13-.38-.08-.4c0-.2-.12-.41-.23-.43S107.31,58.27,107.21,58.46ZM121,63.57a11.51,11.51,0,0,1-.85,2.31,11.64,11.64,0,0,1-1.19,2.18,3.34,3.34,0,0,1-1.29,1.18,6.16,6.16,0,0,1-.86.27,1.47,1.47,0,0,0,1,0,3.71,3.71,0,0,0,1.62-1.14,10.8,10.8,0,0,0,1.46-2.19,10.31,10.31,0,0,0,.66-2.47,5.44,5.44,0,0,0-.14-2.54C121.27,61.13,121.27,62.38,121,63.57Zm-.82-6.92c.17.43.29.87.29.87s.22.42.41.85.35.88.46.88.15-.47.1-.94a6.81,6.81,0,0,0-.2-.94,6.85,6.85,0,0,0-.54-.88c-.3-.42-.69-.8-.78-.76S120,56.21,120.13,56.65Z"/></g></g></g></svg>