<svg xmlns="http://www.w3.org/2000/svg" xmlns:xlink="http://www.w3.org/1999/xlink" viewBox="0 0 174.24 174.11"><defs><style>.cls-1{isolation:isolate;}.cls-2{fill:url(#radial-gradient);}.cls-3{fill:url(#radial-gradient-2);}.cls-4{fill:url(#linear-gradient);}.cls-5{fill:url(#linear-gradient-2);}.cls-6{fill:url(#linear-gradient-3);}.cls-7{fill:url(#linear-gradient-4);}.cls-8{fill:url(#linear-gradient-5);}.cls-9{fill:url(#linear-gradient-6);}.cls-10{fill:url(#linear-gradient-7);}.cls-11{fill:url(#linear-gradient-8);}.cls-12,.cls-13{mix-blend-mode:multiply;}.cls-12{opacity:0.45;fill:url(#linear-gradient-9);}.cls-13{opacity:0.55;fill:url(#linear-gradient-10);}.cls-14{mix-blend-mode:hard-light;fill:url(#linear-gradient-11);}</style><radialGradient id="radial-gradient" cx="87.12" cy="87.05" r="74.6" gradientUnits="userSpaceOnUse"><stop offset="0" stop-color="#90ddef"/><stop offset="1" stop-color="#a6d6f9" stop-opacity="0"/></radialGradient><radialGradient id="radial-gradient-2" cx="84.36" cy="62.7" r="63.05" gradientUnits="userSpaceOnUse"><stop offset="0" stop-color="#a0e2ea"/><stop offset="1" stop-color="#018ed9"/></radialGradient><linearGradient id="linear-gradient" x1="88.86" y1="170.1" x2="36.59" y2="37.2" gradientUnits="userSpaceOnUse"><stop offset="0" stop-color="#7e31a6"/><stop offset="1" stop-color="#7731b1" stop-opacity="0.2"/></linearGradient><linearGradient id="linear-gradient-2" x1="73.69" y1="176.06" x2="21.42" y2="43.17" xlink:href="#linear-gradient"/><linearGradient id="linear-gradient-3" x1="109.59" y1="161.94" x2="57.32" y2="29.04" xlink:href="#linear-gradient"/><linearGradient id="linear-gradient-4" x1="140.65" y1="149.73" x2="88.38" y2="16.83" xlink:href="#linear-gradient"/><linearGradient id="linear-gradient-5" x1="98.42" y1="166.34" x2="46.15" y2="33.44" xlink:href="#linear-gradient"/><linearGradient id="linear-gradient-6" x1="142.75" y1="148.9" x2="90.48" y2="16" xlink:href="#linear-gradient"/><linearGradient id="linear-gradient-7" x1="122.15" y1="157" x2="69.88" y2="24.1" xlink:href="#linear-gradient"/><linearGradient id="linear-gradient-8" x1="115.25" y1="159.72" x2="62.97" y2="26.82" xlink:href="#linear-gradient"/><linearGradient id="linear-gradient-9" x1="72.59" y1="152.14" x2="91.21" y2="60.4" gradientUnits="userSpaceOnUse"><stop offset="0" stop-color="#6d31a3"/><stop offset="1" stop-color="#b842b5" stop-opacity="0.3"/></linearGradient><linearGradient id="linear-gradient-10" x1="92.39" y1="165.56" x2="85.35" y2="101.79" gradientUnits="userSpaceOnUse"><stop offset="0" stop-color="#471aa3"/><stop offset="1" stop-color="#4c2ea3" stop-opacity="0.1"/></linearGradient><linearGradient id="linear-gradient-11" x1="165" y1="-15.77" x2="95.3" y2="69.86" gradientUnits="userSpaceOnUse"><stop offset="0" stop-color="#a4f6f6"/><stop offset="1" stop-color="#b5f4f9" stop-opacity="0"/></linearGradient></defs><g class="cls-1"><g id="Layer_2" data-name="Layer 2"><g id="OBJECTS"><path class="cls-2" d="M78.83.43C11.33,6.83-25,87.18,19.71,142.05h0a87,87,0,0,0,134.37.62h0C203.07,83.76,156.92-7,78.83.43Z"/><path class="cls-3" d="M148.85,92.88C146,123.78,120.23,150.21,86,150.21c-42.69,0-72.89-41.59-60.14-81.93A63.19,63.19,0,0,1,52.22,34a64.94,64.94,0,0,1,8.28-4.44,63.11,63.11,0,0,1,88.35,63.34Z"/><path class="cls-4" d="M115.75,142.77a63,63,0,0,1-85.87-27,75.29,75.29,0,0,0,22,7.32c13.75,2.13,30.38-.66,38.19,3.34C103.14,133.15,105.27,140.81,115.75,142.77Z"/><path class="cls-5" d="M62.67,113.87c-12.13.83-29-4.9-36.81-7.9A62.67,62.67,0,0,1,23,87.18a63.76,63.76,0,0,1,.38-7c3.42,4,11.26,12.5,21.12,17.7C57.85,105,79,112.76,62.67,113.87Z"/><path class="cls-6" d="M140.09,119.59a63.47,63.47,0,0,1-8.32,10.95,64.75,64.75,0,0,1-24.42-12.4c-13-11-14.83-15.94-44.86-25.58-21-6.73-32-17.79-36.73-23.86A62.59,62.59,0,0,1,31.83,55c6,6.43,19.14,19,35.85,25,23,8.16,26.69,7.42,47.45,26.32A53.86,53.86,0,0,0,140.09,119.59Z"/><path class="cls-7" d="M149.05,87.18a63,63,0,0,1-3.3,20.2c-6.1-.13-15.52-2.64-26.17-13.71-18.54-19.28-46-23-46.34-29.29s28.17-1.11,45.6,8.53c12.53,6.94,21.81,12,30.17,11.73C149,85.48,149.05,86.33,149.05,87.18Z"/><path class="cls-8" d="M60.26,52.15C52.71,48.63,44,48.07,43.58,51s5.19,12.6,15.2,10.75S65.82,54.74,60.26,52.15Z"/><path class="cls-9" d="M144.85,64.51c-9.35-5.69-25.33-9.59-50.11-15.33C73.89,44.35,64.6,35.75,60.5,29.54a62.74,62.74,0,0,1,17-4.8C82,29.06,91.43,35,110.68,39.91a118.7,118.7,0,0,1,25.92,9.66A62.85,62.85,0,0,1,144.85,64.51Z"/><path class="cls-10" d="M114.76,127.78c-3.25-1.79-14.46-8.16-7.41,4.82C110.11,137.7,122.18,131.85,114.76,127.78Z"/><path class="cls-11" d="M99.56,121.1c-1.52.11-.74,3.34.74,3.71S104.75,120.73,99.56,121.1Z"/><path class="cls-12" d="M145.74,107.41a61.94,61.94,0,0,1-5.65,12.18,63.23,63.23,0,0,1-24.34,23.18,63,63,0,0,1-85.87-27,61.46,61.46,0,0,1-4-9.85A62.67,62.67,0,0,1,23,87.18a63.76,63.76,0,0,1,.38-7A62.07,62.07,0,0,1,25.76,68.7c0-.14.09-.28.13-.42C35.05,58.45,52.34,64.09,61,77,74,96.36,105.12,154.1,145.74,107.41Z"/><path class="cls-13" d="M146,106.56a62.06,62.06,0,0,1-5.93,13C111.68,166.91,40.87,157.16,25.55,105A59.44,59.44,0,0,0,58,127.78C108.13,141.86,133.79,122.88,146,106.56Z"/><path class="cls-14" d="M144.85,64.51a62.5,62.5,0,0,1,4,28.37c-1.92-16.31-10-42.83-41.13-55.19C84.9,28.63,65.79,30.11,52.22,34a64.94,64.94,0,0,1,8.28-4.44A63.1,63.1,0,0,1,144.85,64.51Z"/></g></g></g></svg>