<svg xmlns="http://www.w3.org/2000/svg" xmlns:xlink="http://www.w3.org/1999/xlink" viewBox="0 0 74.55 74.5"><defs><style>.cls-1{isolation:isolate;}.cls-2{fill:url(#radial-gradient);}.cls-3{fill:url(#radial-gradient-2);}.cls-10,.cls-11,.cls-4,.cls-5,.cls-6{mix-blend-mode:screen;}.cls-10,.cls-4{opacity:0.5;}.cls-4{fill:url(#radial-gradient-3);}.cls-5{fill:url(#radial-gradient-4);}.cls-6,.cls-8,.cls-9{opacity:0.6;}.cls-11,.cls-7{fill:#52e1ee;}.cls-8,.cls-9{mix-blend-mode:multiply;}.cls-8{fill:url(#radial-gradient-5);}.cls-9{fill:url(#radial-gradient-6);}.cls-10{fill:url(#radial-gradient-7);}.cls-11{opacity:0.3;}</style><radialGradient id="radial-gradient" cx="37.28" cy="37.25" r="37.26" gradientUnits="userSpaceOnUse"><stop offset="0" stop-color="#ffe86f"/><stop offset="0.37" stop-color="#fee870" stop-opacity="0.99"/><stop offset="0.51" stop-color="#f9e873" stop-opacity="0.97"/><stop offset="0.6" stop-color="#f1e779" stop-opacity="0.92"/><stop offset="0.68" stop-color="#e6e782" stop-opacity="0.85"/><stop offset="0.75" stop-color="#d7e68d" stop-opacity="0.77"/><stop offset="0.8" stop-color="#c4e69a" stop-opacity="0.66"/><stop offset="0.86" stop-color="#aee5aa" stop-opacity="0.53"/><stop offset="0.91" stop-color="#95e4bd" stop-opacity="0.39"/><stop offset="0.95" stop-color="#77e3d3" stop-opacity="0.22"/><stop offset="0.99" stop-color="#58e1e9" stop-opacity="0.04"/><stop offset="1" stop-color="#52e1ee" stop-opacity="0"/></radialGradient><radialGradient id="radial-gradient-2" cx="26.07" cy="7.01" r="67.15" gradientUnits="userSpaceOnUse"><stop offset="0" stop-color="#f07"/><stop offset="0.14" stop-color="#fa0379"/><stop offset="0.31" stop-color="#ec0a80"/><stop offset="0.49" stop-color="#d4178a"/><stop offset="0.67" stop-color="#b32999"/><stop offset="0.87" stop-color="#8840ac"/><stop offset="0.9" stop-color="#8144af"/></radialGradient><radialGradient id="radial-gradient-3" cx="25.52" cy="6.56" r="53.06" gradientUnits="userSpaceOnUse"><stop offset="0" stop-color="#52e1ee"/><stop offset="1" stop-color="#3e8def"/></radialGradient><radialGradient id="radial-gradient-4" cx="26.32" cy="9.23" r="44.22" xlink:href="#radial-gradient-2"/><radialGradient id="radial-gradient-5" cx="26.07" cy="13.87" r="62.09" xlink:href="#radial-gradient-2"/><radialGradient id="radial-gradient-6" cx="36.91" cy="40.07" r="26.39" xlink:href="#radial-gradient-2"/><radialGradient id="radial-gradient-7" cx="75.07" cy="94.89" r="32.52" gradientTransform="translate(-86.87 -39.26) rotate(-27.99)" xlink:href="#radial-gradient-3"/></defs><g class="cls-1"><g id="Layer_2" data-name="Layer 2"><g id="OBJECTS"><path class="cls-2" d="M8.79,14.11C2.88,15.77,3.91,22,3,26.52c-.32,1.6-1.5,3-2.06,4.5a15.4,15.4,0,0,0-.59,8.45c.42,1.86,1.63,3.5,2,5.35s-.39,3-.33,4.73c.16,4.06,4.5,6.39,6.85,9.14,3.3,3.84,4.24,8,9.55,9.72,3.17,1,6.73,2,10,2.76s5.66,2.25,8.7,3.11c4.08,1.16,7.18-2.57,10.78-3.73,4.42-1.43,8.54-2.12,11.93-5.54,2.11-2.13,3.55-4.71,5.71-6.76,1.94-1.84,4.77-3.23,5.48-6,.76-3,.25-6,1.25-9,1.25-3.73,3.09-6.59,2-10.76-.51-2-2-3.45-2.59-5.4-.47-1.64.09-3.38-.52-5-1.35-3.67-4.86-5.24-7.28-8-1.91-2.19-3.36-4.68-5.39-6.83-1.73-1.83-2.9-3.64-5.26-4.51C50.06,1.52,48.13.41,44.71,1.1c-2.32.47-2.66.33-5-.54C34.14-1.56,30.12,3,24.9,2.75c-4.12-.2-7.7,2-10.36,4.92-2.15,2.35-3,5.31-6,6.7"/><circle class="cls-3" cx="36.86" cy="36.56" r="30.96"/><path class="cls-4" d="M6.43,38A31,31,0,0,1,66.11,26.4a31,31,0,1,0-58,21.71A31.08,31.08,0,0,1,6.43,38Z"/><path class="cls-5" d="M54.9,32.43a27.75,27.75,0,0,1-7.33,9.91C42.5,47,35.9,47.7,29.33,46.66c-6.06-1-12.44-5.16-15.07-10.75a25,25,0,0,1-2.51-10.13c0-3.64,2.13-6,4.54-8.52A28.35,28.35,0,0,1,36.86,8.35c7,0,18.15,2.72,19.29,11A24.74,24.74,0,0,1,54.9,32.43Z"/><g class="cls-6"><path class="cls-7" d="M62.32,28.43a4.5,4.5,0,0,0,4.5,4.5,4.9,4.9,0,0,0,.77-.07c0-.33-.07-.66-.12-1a3.49,3.49,0,0,1-1.83-6.72c-.12-.31-.25-.62-.38-.92A4.48,4.48,0,0,0,62.32,28.43Z"/><path class="cls-7" d="M39.32,61.27a6.67,6.67,0,0,0-6.63,5.95c.33,0,.66.1,1,.13a5.67,5.67,0,0,1,11.11-.87q.48-.12,1-.27A6.67,6.67,0,0,0,39.32,61.27Z"/><path class="cls-7" d="M58,56.27A8.34,8.34,0,0,1,65.64,48L66,47a9.28,9.28,0,0,0-8.44,12.59c.27-.24.53-.49.79-.74A8.48,8.48,0,0,1,58,56.27Z"/><path class="cls-7" d="M34.82,37.6A29.53,29.53,0,0,0,62.27,18.88l-.69-1A28.5,28.5,0,0,1,9.74,21.63c-.19.35-.37.7-.55,1.05A29.51,29.51,0,0,0,34.82,37.6Z"/><path class="cls-7" d="M48,13.6a17,17,0,0,1-33.87,2c-.3.32-.58.65-.86,1A18,18,0,0,0,49,13.6a17.8,17.8,0,0,0-1-5.95l-1.22-.44A17,17,0,0,1,48,13.6Z"/><path class="cls-7" d="M11.48,48.93a9.75,9.75,0,0,0-2.81.42c.14.31.29.61.44.92a8.79,8.79,0,0,1,11.21,8.5,8.77,8.77,0,0,1-.72,3.48l.84.55a9.73,9.73,0,0,0,.88-4A9.85,9.85,0,0,0,11.48,48.93Z"/><path class="cls-7" d="M28.05,66.23a23.19,23.19,0,0,0,.27-3.46A22.19,22.19,0,0,0,6.18,40.6c0,.34.09.68.14,1a21.19,21.19,0,0,1,21,21.16,21.82,21.82,0,0,1-.26,3.15Z"/><path class="cls-7" d="M38.32,50.93a2,2,0,1,0,2-2A2,2,0,0,0,38.32,50.93Zm3,0a1,1,0,1,1-1-1A1,1,0,0,1,41.32,50.93Z"/><path class="cls-7" d="M51.32,56.27A18.69,18.69,0,0,1,67.79,37.74l0-1a19.69,19.69,0,0,0-17.5,19.54,19.46,19.46,0,0,0,1.46,7.41c.3-.16.59-.33.88-.5A18.49,18.49,0,0,1,51.32,56.27Z"/><path class="cls-7" d="M29.65,45.27a3.67,3.67,0,1,0,3.67-3.67A3.67,3.67,0,0,0,29.65,45.27Zm6.33,0a2.67,2.67,0,1,1-2.66-2.67A2.66,2.66,0,0,1,36,45.27Z"/><path class="cls-7" d="M7,33.77a2.48,2.48,0,0,1-1.06,2c0,.26,0,.5,0,.76s0,.26,0,.39a3.5,3.5,0,0,0,.52-6.09c-.07.38-.14.75-.2,1.13A2.49,2.49,0,0,1,7,33.77Z"/></g><path class="cls-8" d="M56.5,12.62A26.3,26.3,0,1,1,8.94,23.17,31,31,0,1,0,56.5,12.62Z"/><path class="cls-9" d="M57.13,17.67A23.35,23.35,0,0,1,58.07,23a23.64,23.64,0,0,0-3.48-7.69A28.6,28.6,0,0,1,57.13,17.67Zm-46.35,9.2a23.5,23.5,0,0,0,.59,3.37c0-.49,0-1,0-1.47a23.51,23.51,0,0,1,.34-4C11.33,25.48,11.05,26.17,10.78,26.87Zm53.27,3.55c.06.71.09,1.42.09,2.14A27.95,27.95,0,0,1,9,39a27.94,27.94,0,1,0,55.05-8.58Z"/><path class="cls-10" d="M35.69,16.43c1.68,3.16-1.16,8-6.34,10.71s-10.74,2.43-12.42-.73,1.16-8,6.34-10.71S34,13.27,35.69,16.43Zm10.37-2.92c-3.65-.2-6.71,1.44-6.83,3.67s2.74,4.2,6.39,4.4,6.71-1.44,6.84-3.67S49.72,13.72,46.06,13.51Z"/><path class="cls-11" d="M10.32,15.35C4.72,16.92,5.7,22.82,4.83,27.1c-.31,1.51-1.42,2.83-1.95,4.26a14.51,14.51,0,0,0-.56,8c.4,1.76,1.55,3.31,1.89,5.07s-.38,2.82-.31,4.47c.15,3.84,4.25,6,6.48,8.65,3.11,3.64,4,7.55,9,9.2,3,1,6.36,1.85,9.41,2.61s5.36,2.13,8.24,3c3.85,1.09,6.79-2.44,10.19-3.54,4.19-1.35,8.09-2,11.3-5.24,2-2,3.35-4.46,5.39-6.39,1.84-1.75,4.53-3.07,5.19-5.7.72-2.84.24-5.7,1.18-8.54,1.19-3.53,2.93-6.24,1.94-10.18-.49-1.92-1.93-3.27-2.45-5.11-.45-1.56.08-3.2-.49-4.75-1.29-3.48-4.61-5-6.9-7.59-1.8-2.07-3.17-4.43-5.1-6.47-1.63-1.73-2.74-3.44-5-4.26-3-1.09-4.79-2.15-8-1.49-2.2.44-2.53.31-4.7-.51-5.31-2-9.12,2.31-14,2.07-3.9-.19-7.29,1.9-9.81,4.66-2,2.22-2.87,5-5.69,6.34"/></g></g></g></svg>