<svg xmlns="http://www.w3.org/2000/svg" xmlns:xlink="http://www.w3.org/1999/xlink" viewBox="0 0 66.79 66.79"><defs><style>.cls-1{isolation:isolate;}.cls-2{fill:url(#radial-gradient);}.cls-3{fill:url(#radial-gradient-2);}.cls-11,.cls-12,.cls-13,.cls-4,.cls-5{mix-blend-mode:screen;}.cls-11,.cls-4{opacity:0.5;}.cls-4{fill:url(#radial-gradient-3);}.cls-6{fill:url(#radial-gradient-4);}.cls-7{fill:url(#radial-gradient-5);}.cls-8{fill:url(#radial-gradient-6);}.cls-9{fill:url(#radial-gradient-7);}.cls-10,.cls-14{mix-blend-mode:multiply;}.cls-10,.cls-13,.cls-14{opacity:0.6;}.cls-10{fill:url(#radial-gradient-8);}.cls-11{fill:url(#radial-gradient-9);}.cls-12{fill:url(#radial-gradient-10);}.cls-13{fill:url(#radial-gradient-11);}.cls-14{fill:url(#radial-gradient-12);}</style><radialGradient id="radial-gradient" cx="33.4" cy="34.2" r="36.86" gradientUnits="userSpaceOnUse"><stop offset="0" stop-color="#fd8413"/><stop offset="0.34" stop-color="#fd8513" stop-opacity="0.99"/><stop offset="0.47" stop-color="#fd8714" stop-opacity="0.97"/><stop offset="0.55" stop-color="#fd8c15" stop-opacity="0.92"/><stop offset="0.63" stop-color="#fd9217" stop-opacity="0.85"/><stop offset="0.69" stop-color="#fd9a19" stop-opacity="0.77"/><stop offset="0.74" stop-color="#fea41c" stop-opacity="0.66"/><stop offset="0.79" stop-color="#feb01f" stop-opacity="0.53"/><stop offset="0.83" stop-color="#febe23" stop-opacity="0.38"/><stop offset="0.88" stop-color="#ffce28" stop-opacity="0.21"/><stop offset="0.91" stop-color="#ffdf2c" stop-opacity="0.03"/><stop offset="0.92" stop-color="#ffe22d" stop-opacity="0"/></radialGradient><radialGradient id="radial-gradient-2" cx="23.15" cy="5.32" r="63.8" gradientUnits="userSpaceOnUse"><stop offset="0.08" stop-color="#ffe22d"/><stop offset="0.32" stop-color="#fec124"/><stop offset="0.6" stop-color="#fea01b"/><stop offset="0.84" stop-color="#fd8b15"/><stop offset="1" stop-color="#fd8413"/></radialGradient><radialGradient id="radial-gradient-3" cx="20.91" cy="7.83" r="40.61" xlink:href="#radial-gradient-2"/><radialGradient id="radial-gradient-4" cx="12.84" cy="-4.52" r="93.3" xlink:href="#radial-gradient-2"/><radialGradient id="radial-gradient-5" cx="12.85" cy="-4.86" r="94.26" xlink:href="#radial-gradient-2"/><radialGradient id="radial-gradient-6" cx="12.85" cy="-4.52" r="93.3" xlink:href="#radial-gradient-2"/><radialGradient id="radial-gradient-7" cx="12.85" cy="-4.52" r="93.3" xlink:href="#radial-gradient-2"/><radialGradient id="radial-gradient-8" cx="23.15" cy="6.76" r="62.72" xlink:href="#radial-gradient-2"/><radialGradient id="radial-gradient-9" cx="35.3" cy="38.24" r="23.93" xlink:href="#radial-gradient-2"/><radialGradient id="radial-gradient-10" cx="20.68" cy="5.15" r="55.58" xlink:href="#radial-gradient-2"/><radialGradient id="radial-gradient-11" cx="25.47" cy="19.9" r="12.89" xlink:href="#radial-gradient-2"/><radialGradient id="radial-gradient-12" cx="33.66" cy="34.55" r="19.67" xlink:href="#radial-gradient-2"/></defs><g class="cls-1"><g id="Layer_2" data-name="Layer 2"><g id="OBJECTS"><path class="cls-2" d="M66.79,33.4A33.4,33.4,0,1,1,33.4,0,33.39,33.39,0,0,1,66.79,33.4Z"/><path class="cls-3" d="M62.81,33.4A29.41,29.41,0,1,1,33.4,4,29.4,29.4,0,0,1,62.81,33.4Z"/><path class="cls-4" d="M45.12,29a15.39,15.39,0,0,1-2.87,5.24A28.72,28.72,0,0,1,26.8,43.45a15.81,15.81,0,0,1-16.26-6.87C6.41,30.46,8.26,22,12.7,16.71A27.46,27.46,0,0,1,33.57,7c3.74,0,10.21.37,12.25,4.2s1.27,10.12.29,14.22C45.8,26.7,45.5,27.9,45.12,29Z"/><g class="cls-5"><path class="cls-6" d="M35.93,54.52A53.49,53.49,0,0,0,47.82,43a87.39,87.39,0,0,0,9-14.44c1.22-2.41,2.31-4.88,3.34-7.36a29.25,29.25,0,0,0-1.6-3l-.63,1.67c-1,2.57-2.11,5.14-3.33,7.64a85.9,85.9,0,0,1-8.56,14.18A51.38,51.38,0,0,1,34.82,52.91,48.25,48.25,0,0,1,21.35,59.2L20,59.58c.75.39,1.53.74,2.32,1.07A49.27,49.27,0,0,0,35.93,54.52Z"/><path class="cls-7" d="M14.13,28.36l0,0h0Z"/><path class="cls-8" d="M54.14,42.77c-2,2.53-3.26,4.21-3.26,4.21L50,48.16c-.55.74-1.3,1.84-2.28,3.1-1.89,2.55-4.53,5.85-7.32,9-.62.69-1.25,1.38-1.88,2.05a30.31,30.31,0,0,0,4.5-1.17c2.77-2.79,5.35-5.65,7.23-7.92,1.06-1.22,1.87-2.3,2.48-3l.93-1.15,3.06-4.43c1.68-2.46,3.81-5.71,6-9,.06-.73.1-1.47.1-2.22s0-1.33-.08-2l-1.5,2Z"/><path class="cls-9" d="M34.33,35.59a34.31,34.31,0,0,0,7.75-9.24,29.76,29.76,0,0,0,1.33-2.79c.31-1,.71-1.95.92-2.95a13.12,13.12,0,0,0,.22-6.37,6.73,6.73,0,0,0-1.6-3,7.67,7.67,0,0,0-2.79-1.93A14.06,14.06,0,0,0,34,8.47,29.12,29.12,0,0,0,22.87,11.8a24.57,24.57,0,0,0-2.44,1.5c-.78.58-1.46,1.1-2.19,1.66a33.06,33.06,0,0,0-4.07,3.6,13.07,13.07,0,0,0-.9,1.05,8.64,8.64,0,0,0-.79,1.15,9.07,9.07,0,0,0-.63,1.29c-.08.23-.13.48-.19.71a2.67,2.67,0,0,0-.12.75,4.75,4.75,0,0,0,.71,2.88,11.64,11.64,0,0,0,.88,1.09l1,.85a8.65,8.65,0,0,0,4.38,1.94,14.33,14.33,0,0,0,4.44-.05,17.81,17.81,0,0,0,7.5-3,9,9,0,0,0,3.92-6,5.74,5.74,0,0,0-2.46-5.5A4.9,4.9,0,0,0,29.31,15a5.66,5.66,0,0,0-2.28.51,8.08,8.08,0,0,0-2.77,2.25,7.83,7.83,0,0,0-.74,1,7.37,7.37,0,0,0-.46.79c-.22.44-.33.67-.29.69s.56-.86,1.81-2.23a8.26,8.26,0,0,1,2.7-1.95,4.27,4.27,0,0,1,4.13.39,4.8,4.8,0,0,1,1.9,4.67,7.93,7.93,0,0,1-3.6,5.09,16.74,16.74,0,0,1-7,2.56,13,13,0,0,1-4,0,7,7,0,0,1-3.58-1.65l-.05,0-.8-.74c-.24-.26-.43-.55-.64-.82a3.13,3.13,0,0,1-.42-1.88,1.29,1.29,0,0,1,.09-.5c.05-.16.08-.33.14-.5a7.12,7.12,0,0,1,.52-1,7.63,7.63,0,0,1,.68-1,11.47,11.47,0,0,1,.81-.91,32.18,32.18,0,0,1,3.92-3.32l2.15-1.58a20.89,20.89,0,0,1,2.26-1.32,26.65,26.65,0,0,1,10.32-2.91,11.86,11.86,0,0,1,5.15.71,4.81,4.81,0,0,1,3,3.44A10.91,10.91,0,0,1,41.94,20c-.2.91-.58,1.75-.85,2.62a26,26,0,0,1-1.23,2.48,31.81,31.81,0,0,1-7.27,8.42,40,40,0,0,1-9.35,5.81,31.79,31.79,0,0,1-10.12,2.77,19.28,19.28,0,0,1-2.47.14A17.42,17.42,0,0,1,8.25,42a21.37,21.37,0,0,1-3.2-.79,29.44,29.44,0,0,0,1.2,3.5c.5.11,1,.21,1.52.29a21.59,21.59,0,0,0,2.82.24,20.46,20.46,0,0,0,2.85-.19,34.93,34.93,0,0,0,11-3.13A42.93,42.93,0,0,0,34.33,35.59Z"/></g><path class="cls-10" d="M42.59,5.46A24.09,24.09,0,1,1,4.47,28.1,29.85,29.85,0,0,0,4,33.4,29.41,29.41,0,1,0,42.59,5.46Z"/><path class="cls-11" d="M60.63,33.45A27.23,27.23,0,0,1,10,47.34,27.22,27.22,0,0,0,54.12,15.8,27.12,27.12,0,0,1,60.63,33.45Z"/><path class="cls-12" d="M6.11,35.52A29.41,29.41,0,0,1,55.23,13.69,29.41,29.41,0,1,0,13.69,55.23,29.32,29.32,0,0,1,6.11,35.52Z"/><path class="cls-13" d="M24.74,17.65c2.17,2,1.23,6.56-2.1,10.15s-7.81,4.87-10,2.85-1.23-6.56,2.11-10.16S22.57,15.63,24.74,17.65Zm6.72-8.43c-3.3,1.61-5.19,4.54-4.22,6.53s4.44,2.32,7.74.71,5.19-4.53,4.22-6.53S34.76,7.62,31.46,9.22Z"/><path class="cls-14" d="M46.15,33.84a1.33,1.33,0,1,1-1.33-1.33A1.33,1.33,0,0,1,46.15,33.84Zm4.87.79a2.75,2.75,0,1,0,2.75,2.75A2.75,2.75,0,0,0,51,34.63ZM39.6,43.49A1.42,1.42,0,1,0,41,44.91,1.42,1.42,0,0,0,39.6,43.49ZM24.81,51.11a1,1,0,1,0,1,1A1,1,0,0,0,24.81,51.11ZM25.34,46a1.69,1.69,0,1,0,0,3.37,1.69,1.69,0,0,0,0-3.37Zm3.45,5.14a.71.71,0,1,0,.71.71A.71.71,0,0,0,28.79,51.11Zm-12.4-1.42a1.24,1.24,0,1,0,1.24,1.25A1.24,1.24,0,0,0,16.39,49.69Zm-1.06-7.61a1.77,1.77,0,1,0,1.77,1.77A1.77,1.77,0,0,0,15.33,42.08Zm3.36,5.31a.53.53,0,0,0-.53.53.53.53,0,0,0,.53.53.52.52,0,0,0,.53-.53A.53.53,0,0,0,18.69,47.39Zm27-28.52a1,1,0,0,0,0,1.95,1,1,0,1,0,0-1.95ZM50,15.32a2,2,0,1,0,2,2A2,2,0,0,0,50,15.32Zm.89,8a.62.62,0,1,0,.62.62A.62.62,0,0,0,50.85,23.3ZM48.46,44a.89.89,0,1,0,.88.88A.88.88,0,0,0,48.46,44Zm-3.37,6.91a1.42,1.42,0,1,0,1.42,1.41A1.42,1.42,0,0,0,45.09,50.94Z"/></g></g></g></svg>