<svg xmlns="http://www.w3.org/2000/svg" xmlns:xlink="http://www.w3.org/1999/xlink" viewBox="0 0 143.84 143.73"><defs><style>.cls-1{isolation:isolate;}.cls-2{fill:url(#radial-gradient);}.cls-3{fill:url(#radial-gradient-2);}.cls-4{fill:url(#linear-gradient);}.cls-5{fill:url(#linear-gradient-2);}.cls-6{fill:url(#linear-gradient-3);}.cls-7{fill:url(#linear-gradient-4);}.cls-8{fill:url(#linear-gradient-5);}.cls-9{fill:url(#linear-gradient-6);}.cls-10{fill:url(#linear-gradient-7);}.cls-11{fill:url(#linear-gradient-8);}.cls-12,.cls-13{mix-blend-mode:multiply;}.cls-12{opacity:0.45;fill:url(#linear-gradient-9);}.cls-13{opacity:0.55;fill:url(#linear-gradient-10);}.cls-14{fill:url(#linear-gradient-11);}</style><radialGradient id="radial-gradient" cx="71.92" cy="71.86" r="66.55" gradientUnits="userSpaceOnUse"><stop offset="0" stop-color="#ffb16c"/><stop offset="1" stop-color="#ffa360" stop-opacity="0"/></radialGradient><radialGradient id="radial-gradient-2" cx="63.11" cy="40.49" r="91.02" gradientUnits="userSpaceOnUse"><stop offset="0" stop-color="#ffa360"/><stop offset="1" stop-color="#f22749"/></radialGradient><linearGradient id="linear-gradient" x1="62.18" y1="3.93" x2="84.29" y2="157.93" gradientUnits="userSpaceOnUse"><stop offset="0" stop-color="#ffbb71"/><stop offset="1" stop-color="#ffbb71" stop-opacity="0"/></linearGradient><linearGradient id="linear-gradient-2" x1="64.03" y1="3.66" x2="86.14" y2="157.66" xlink:href="#linear-gradient"/><linearGradient id="linear-gradient-3" x1="64.47" y1="3.6" x2="86.58" y2="157.6" xlink:href="#linear-gradient"/><linearGradient id="linear-gradient-4" x1="65.34" y1="3.47" x2="87.45" y2="157.48" xlink:href="#linear-gradient"/><linearGradient id="linear-gradient-5" x1="74.77" y1="2.12" x2="96.88" y2="156.12" xlink:href="#linear-gradient"/><linearGradient id="linear-gradient-6" x1="58.35" y1="4.48" x2="80.46" y2="158.48" xlink:href="#linear-gradient"/><linearGradient id="linear-gradient-7" x1="42.3" y1="6.78" x2="64.41" y2="160.78" xlink:href="#linear-gradient"/><linearGradient id="linear-gradient-8" x1="76.44" y1="1.88" x2="98.55" y2="155.88" xlink:href="#linear-gradient"/><linearGradient id="linear-gradient-9" x1="64.13" y1="126.41" x2="75.09" y2="49.69" gradientUnits="userSpaceOnUse"><stop offset="0" stop-color="#d8274d"/><stop offset="1" stop-color="#f22749" stop-opacity="0"/></linearGradient><linearGradient id="linear-gradient-10" x1="73.86" y1="125.98" x2="69.66" y2="88.18" gradientUnits="userSpaceOnUse"><stop offset="0" stop-color="#a9273e"/><stop offset="1" stop-color="#b62738" stop-opacity="0"/></linearGradient><linearGradient id="linear-gradient-11" x1="123.6" y1="4.35" x2="81.59" y2="54.32" gradientUnits="userSpaceOnUse"><stop offset="0" stop-color="#ffecb8"/><stop offset="1" stop-color="#ffd371" stop-opacity="0.2"/></linearGradient></defs><g class="cls-1"><g id="Layer_2" data-name="Layer 2"><g id="OBJECTS"><path class="cls-2" d="M65.07.36C9.35,5.64-20.64,72,16.27,117.26h0a71.8,71.8,0,0,0,110.92.51h0C167.64,69.15,129.54-5.79,65.07.36Z"/><path class="cls-3" d="M127.49,71.87c0,1.64-.07,3.26-.21,4.87s-.32,3-.56,4.44-.54,2.83-.89,4.22a54.24,54.24,0,0,1-4.29,11.51c-.59,1.17-1.21,2.3-1.88,3.42a55.33,55.33,0,0,1-4.09,5.94c-.76,1-1.55,1.89-2.36,2.8a55.82,55.82,0,0,1-19.09,13.75c-.54.24-1.09.47-1.64.69-1.62.64-3.29,1.22-5,1.71-1.21.35-2.43.67-3.67.94a56,56,0,0,1-11.89,1.27,55.39,55.39,0,0,1-40.09-17.1c-1.2-1.24-2.34-2.55-3.42-3.91a55.08,55.08,0,0,1-5.78-8.89c-.42-.8-.82-1.62-1.2-2.45a54.28,54.28,0,0,1-3.34-9.42A55.71,55.71,0,0,1,17,63.27c.16-1.08.36-2.14.59-3.2s.54-2.34.87-3.48a54.61,54.61,0,0,1,2.17-6.19,55.84,55.84,0,0,1,5.64-10.26,54.09,54.09,0,0,1,4.44-5.56,55.86,55.86,0,0,1,10.12-8.79l.37-.24a55.19,55.19,0,0,1,25.38-9c1.75-.17,3.52-.25,5.31-.25a55,55,0,0,1,21.49,4.31c.73.3,1.46.63,2.18,1a55.33,55.33,0,0,1,8.53,5,56.31,56.31,0,0,1,8,7,55.59,55.59,0,0,1,11.14,17.12c.33.81.65,1.62.94,2.44a55.29,55.29,0,0,1,2.23,8.12A56.43,56.43,0,0,1,127.49,71.87Z"/><path class="cls-4" d="M127.49,71.87a55.34,55.34,0,0,1-1.66,13.53c-27.75-11.9-75.47,10-107.73.26A55.71,55.71,0,0,1,17,63.27c56.71,20.1,77.32-7.88,109.44-2A56.43,56.43,0,0,1,127.49,71.87Z"/><path class="cls-5" d="M124.25,53.12C94,48,58.86,68.88,18.5,56.59a54.61,54.61,0,0,1,2.17-6.19c32.76,12.76,72.26-3.48,102.64.28C123.64,51.49,124,52.3,124.25,53.12Z"/><path class="cls-6" d="M112.17,33.56C80.39,53.16,40.25,44.2,26.31,40.14a54.09,54.09,0,0,1,4.44-5.56c39.67,10.11,64.45-2.16,73.38-8A56.31,56.31,0,0,1,112.17,33.56Z"/><path class="cls-7" d="M95.6,21.59c-13.36,8.64-31.45,2.86-54.73,4.2a55.24,55.24,0,0,1,8.21-4.58c14.09.62,34,5.3,44.34-.59C94.15,20.92,94.88,21.25,95.6,21.59Z"/><path class="cls-8" d="M87.34,18.47c-3.76,1.83-10.75,3.39-20.72-1.91,1.75-.17,3.52-.25,5.31-.25A55.59,55.59,0,0,1,87.34,18.47Z"/><path class="cls-9" d="M121.54,96.91c-.59,1.17-1.21,2.3-1.88,3.42-23.87-10.81-67.93,1.21-97-2.8-.42-.8-.82-1.62-1.2-2.45C59.57,99.8,100.92,84.27,121.54,96.91Z"/><path class="cls-10" d="M87.49,125.22c-1.21.35-2.43.67-3.67.94-10.25-1.67-42-19.65-52-15.83-1.2-1.24-2.34-2.55-3.42-3.91C50.69,106.19,74.22,124.16,87.49,125.22Z"/><path class="cls-11" d="M113.21,109.07a55.82,55.82,0,0,1-19.09,13.75c-10.48-3.16-16.53-9.36-20.19-11.12-5.35-2.57-7-4.62,13.65-6.16A62.26,62.26,0,0,1,113.21,109.07Z"/><path class="cls-12" d="M126.72,81.18a55.64,55.64,0,0,1-42.9,45C44.15,134.79,9.06,99.47,17.63,60.07c4.6,8.7,14.82,18,37.14,21.44C88.56,86.74,110.56,77.43,126.72,81.18Z"/><path class="cls-13" d="M114.67,107.38c-.48.57-1,1.13-1.46,1.69a55.82,55.82,0,0,1-19.09,13.75c-.54.24-1.09.47-1.64.69-1.62.64-3.29,1.22-5,1.71-1.21.35-2.43.67-3.67.94a56,56,0,0,1-11.89,1.27,55.39,55.39,0,0,1-40.09-17.1q-1.56-1.6-3-3.35c9.13,3.43,22.38,4.13,41.59-.63C87.35,102.17,102.08,103.31,114.67,107.38Z"/><path class="cls-14" d="M127.49,71.87c0,1.64-.07,3.26-.21,4.87-.16-12.54-4.49-27.53-19.7-40.58-29.2-25-58.82-14.06-66.34-10.61a55.19,55.19,0,0,1,25.38-9c1.75-.17,3.52-.25,5.31-.25a55,55,0,0,1,21.49,4.31c.73.3,1.46.63,2.18,1a55.33,55.33,0,0,1,8.53,5,56.31,56.31,0,0,1,8,7,55.59,55.59,0,0,1,11.14,17.12c.33.81.65,1.62.94,2.44a55.29,55.29,0,0,1,2.23,8.12A56.43,56.43,0,0,1,127.49,71.87Z"/></g></g></g></svg>