<svg xmlns="http://www.w3.org/2000/svg" xmlns:xlink="http://www.w3.org/1999/xlink" viewBox="0 0 117.86 117.77"><defs><style>.cls-1{isolation:isolate;}.cls-2{fill:url(#radial-gradient);}.cls-3{fill:url(#radial-gradient-2);}.cls-4{fill:#f79c41;}.cls-5{fill:#ef903a;}.cls-6{fill:#e27c37;}.cls-7,.cls-8{mix-blend-mode:multiply;}.cls-7{opacity:0.35;fill:url(#linear-gradient);}.cls-8{opacity:0.45;fill:url(#linear-gradient-2);}.cls-9{mix-blend-mode:hard-light;fill:url(#linear-gradient-3);}</style><radialGradient id="radial-gradient" cx="58.93" cy="58.89" r="54.53" gradientUnits="userSpaceOnUse"><stop offset="0" stop-color="#ffd86c"/><stop offset="1" stop-color="#ffd160" stop-opacity="0"/></radialGradient><radialGradient id="radial-gradient-2" cx="56.92" cy="34.68" r="69.52" gradientUnits="userSpaceOnUse"><stop offset="0" stop-color="#ffe46a"/><stop offset="1" stop-color="#ffa44a"/></radialGradient><linearGradient id="linear-gradient" x1="20.04" y1="82.85" x2="100.56" y2="45.18" gradientUnits="userSpaceOnUse"><stop offset="0" stop-color="#e27437"/><stop offset="1" stop-color="#e27437" stop-opacity="0.2"/></linearGradient><linearGradient id="linear-gradient-2" x1="50.13" y1="124.63" x2="49.69" y2="11.8" gradientUnits="userSpaceOnUse"><stop offset="0" stop-color="#cc622e"/><stop offset="1" stop-color="#cc622e" stop-opacity="0.2"/></linearGradient><linearGradient id="linear-gradient-3" x1="99.43" y1="13.23" x2="71.73" y2="43.92" gradientUnits="userSpaceOnUse"><stop offset="0" stop-color="#fff2b6"/><stop offset="1" stop-color="#fff49a" stop-opacity="0.2"/></linearGradient></defs><g class="cls-1"><g id="Layer_2" data-name="Layer 2"><g id="OBJECTS"><path class="cls-2" d="M53.32.29C7.66,4.62-16.91,59,13.33,96.09h0a58.83,58.83,0,0,0,90.89.41h0C137.37,56.66,106.14-4.74,53.32.29Z"/><path class="cls-3" d="M104.46,58.78a45.53,45.53,0,0,1-.67,7.8c-.24,1.36-.53,2.7-.88,4A45.76,45.76,0,0,1,86.49,95,45.78,45.78,0,0,1,71,102.7,45.52,45.52,0,0,1,13.52,62c-.08-1.08-.12-2.16-.12-3.26a45.53,45.53,0,0,1,91-1.87C104.44,57.53,104.46,58.15,104.46,58.78Z"/><path class="cls-4" d="M18.18,79.09c-.32-.62-.61-1.26-.9-1.9a45.44,45.44,0,0,1-3.76-15.07V62c.91-.12,2.18.3,3.1,2.9C17.81,68.3,23.35,76.52,18.18,79.09Z"/><path class="cls-4" d="M53.94,71.35a3.35,3.35,0,0,1-.38,1c-1.45,2.6-6.5,3.88-12.13,2.9-4.9-.85-8.81-3.16-10.07-5.69A3.54,3.54,0,0,1,31,67.37c.57-3.28,6.08-4.07,12.42-3S54.51,68.07,53.94,71.35Z"/><path class="cls-4" d="M40.45,49.67h0c-1.26,1.9-5.19.16-9.76-2.83C27,44.42,24.29,42,24.1,40.14A1.81,1.81,0,0,1,24.38,39c1.26-1.92,6.27-2.05,10.85.95S41.71,47.76,40.45,49.67Z"/><path class="cls-4" d="M90.89,77.72c-3.69,3.07-8.11,3.86-9.86,1.76a2.62,2.62,0,0,1-.24-.34c-1.34-2.19.26-6.12,3.76-9s7.79-3.8,9.66-2a2,2,0,0,1,.2.21C96.16,70.44,94.58,74.64,90.89,77.72Z"/><path class="cls-4" d="M64.27,52.46c-3.73,2.95-7.52,4.58-9.69,1.84a4.58,4.58,0,0,1-.53-.84c-1.37-2.77,0-6.81,3.36-9.48,3.73-2.95,8.83-4.34,12.3.05l.06.09C71.8,46.83,68,49.54,64.27,52.46Z"/><path class="cls-4" d="M49.37,93.66c-.54.52-1.61.81-3.29.74-6.16-.27-12.86-7.77-11-10.18a.39.39,0,0,1,.08-.1c1.94-2.19,6.8,1.74,9.29,3C48.55,89.31,50.8,92.29,49.37,93.66Z"/><path class="cls-4" d="M73.53,88.14c0,1.41-1.92,2.91-5,3-5.56.24-8.72-.82-9.48-2.81a3,3,0,0,1-.16-.67c-.27-2.41,4.82-2,7.5-2.14C71.46,85.29,73.52,86.67,73.53,88.14Z"/><path class="cls-4" d="M90.37,56.18a3.88,3.88,0,0,1-3.32,1.53c-4.82,0-11.25-3.48-10.44-6.7a3.31,3.31,0,0,1,.38-.95c1.24-2,4.37-1,7.38-.39C90.4,51,91.69,54.23,90.37,56.18Z"/><path class="cls-4" d="M74.73,32.53a1.72,1.72,0,0,1-.11-.46C74.5,30.7,75.85,28.7,78.48,28a7.54,7.54,0,0,1,5.45.47,2.64,2.64,0,0,1,1.25,1.67C85.58,32,75.58,34.66,74.73,32.53Z"/><path class="cls-4" d="M47.24,28.27c-.34.2-.73.14-1.16-.29-2.95-2.95-3.22-7.77-1.61-8.57A3,3,0,0,1,46.12,19C49.31,19.41,49,27.23,47.24,28.27Z"/><path class="cls-4" d="M97.76,45.12a1.06,1.06,0,0,1-.73.05c-1.12-.3-2.59-2-3-4.6a3.29,3.29,0,0,1,1.51-3.45c1.1-.52,2.48.2,3,3.45C98.89,42.42,98.83,44.58,97.76,45.12Z"/><path class="cls-4" d="M92.34,89.7A45.29,45.29,0,0,1,80.3,99a1.82,1.82,0,0,1-.75-3c1.88-2.94,3.75-7.49,8-7.76a7.5,7.5,0,0,1,3,.35A4.21,4.21,0,0,1,92.34,89.7Z"/><path class="cls-4" d="M71,102.7A45.61,45.61,0,0,1,53.3,104a2.85,2.85,0,0,1,.43-1.61,2.44,2.44,0,0,1,1.72-1c3.21-.54,4.82-2.68,9.37-2.41a7.5,7.5,0,0,1,5,2.36A8.88,8.88,0,0,1,71,102.7Z"/><path class="cls-4" d="M65.12,19.75C64.9,20.88,63,21.29,62,20.86a.81.81,0,0,1-.43-.38c-.54-1.07,3-3.06,3.48-1.34A1.28,1.28,0,0,1,65.12,19.75Z"/><path class="cls-5" d="M51.16,79.94c-1.19-.6-2.14-1.08-1.87,1.33s2.14,3,3.75,3S52.23,80.47,51.16,79.94Z"/><path class="cls-5" d="M28.94,78.33c-1.08-.27-1.08,1.61-1.88,3.48S27.33,85,28.94,85,31.08,78.86,28.94,78.33Z"/><path class="cls-5" d="M24.12,54.23c-1-.47-2.15-1.08-2.42,0s2.15,4,3.49,4S27.06,55.56,24.12,54.23Z"/><path class="cls-5" d="M104.46,58.78a45.53,45.53,0,0,1-.67,7.8,3.54,3.54,0,0,1-1.21-.84c-2.68-2.68-.64-6.47,0-7.76.73-1.45,1.45-1.31,1.84-1.07C104.44,57.53,104.46,58.15,104.46,58.78Z"/><path class="cls-5" d="M76.87,61.72c-1.55-.19-2.41,1.08,0,2.15S79,62,76.87,61.72Z"/><path class="cls-5" d="M19.29,49.67c-.71.36-.8,1.88,1.08,1.61S20.9,48.87,19.29,49.67Z"/><path class="cls-5" d="M57.32,30.93c-.8.26-1.87,1.07,0,1.34S58.13,30.66,57.32,30.93Z"/><path class="cls-5" d="M61.88,30.93c-1-.58-1.08,2.14-.27,3.21S65.09,32.8,61.88,30.93Z"/><path class="cls-5" d="M70.45,94.4c-.59.13-.81,1.07.8,1.6S72.86,93.86,70.45,94.4Z"/><path class="cls-5" d="M47.15,99c-.81.27-1.61.8,0,1.34S48,98.68,47.15,99Z"/><path class="cls-5" d="M48.49,59.58c-1.37.07,1.6,1.88,2.41,2.14S54.11,59.31,48.49,59.58Z"/><path class="cls-5" d="M92.41,52.62c-.67.52.53,3.48,1.6,3.21S94.82,50.74,92.41,52.62Z"/><path class="cls-4" d="M70.86,71.39a13.49,13.49,0,0,1-.41,1.31c-.79,2.09-5.39,2.91-6.61,2l-.09-.08c-1.07-1.07,0-3.76.54-5.09.8-1.87,4.82-3.21,6.16-2.68C71.53,67.25,71.39,69.44,70.86,71.39Z"/><path class="cls-6" d="M24.1,40.14A1.81,1.81,0,0,1,24.38,39c1.26-1.92,6.27-2.05,10.85.95s6.48,7.85,5.22,9.76h0c.08-1.17-.42-2.81-2.13-5.1C33.85,38.64,25.72,36.59,24.1,40.14Z"/><path class="cls-6" d="M53.94,71.35a3.35,3.35,0,0,1-.38,1A8.23,8.23,0,0,0,48,66.81c-4.68-1.56-11-2.94-14.73,0a4.53,4.53,0,0,0-1.86,2.79A3.54,3.54,0,0,1,31,67.37c.57-3.28,6.08-4.07,12.42-3S54.51,68.07,53.94,71.35Z"/><path class="cls-6" d="M61.34,43.25c-5,1.72-7.08,6.59-7.29,10.21-1.37-2.77,0-6.81,3.36-9.48,3.73-2.95,8.83-4.34,12.3.05l.06.09C68.26,43,65.52,41.8,61.34,43.25Z"/><path class="cls-6" d="M70.86,71.39c0-1.94-.53-4.13-2.56-3.51s-4.44,4.41-4.46,6.78l-.09-.08c-1.07-1.07,0-3.76.54-5.09.8-1.87,4.82-3.21,6.16-2.68C71.53,67.25,71.39,69.44,70.86,71.39Z"/><path class="cls-6" d="M90.37,56.18c.61-3.53-5-4.68-7.87-5.7A8.72,8.72,0,0,0,77,50.06c1.24-2,4.37-1,7.38-.39C90.4,51,91.69,54.23,90.37,56.18Z"/><path class="cls-6" d="M74.73,32.53a1.72,1.72,0,0,1-.11-.46c1.7,1.12,6,.21,8.41-.88,1.72-.77,1.44-1.92.9-2.74a2.64,2.64,0,0,1,1.25,1.67C85.58,32,75.58,34.66,74.73,32.53Z"/><path class="cls-6" d="M47.24,28.27c-.34.2-.73.14-1.16-.29-2.95-2.95-3.22-7.77-1.61-8.57A3,3,0,0,1,46.12,19c-.65.12-1.65.69-1.65,3.05A8.19,8.19,0,0,0,47.24,28.27Z"/><path class="cls-6" d="M65.12,19.75c-.08-.46-.45-.9-1.64-.61A1.9,1.9,0,0,0,62,20.86a.81.81,0,0,1-.43-.38c-.54-1.07,3-3.06,3.48-1.34A1.28,1.28,0,0,1,65.12,19.75Z"/><path class="cls-6" d="M49.37,93.66c-.23-1.44-1.55-2.84-3.83-4.08a62.56,62.56,0,0,1-7-4.56,6.15,6.15,0,0,0-3.4-.9c1.94-2.19,6.8,1.74,9.29,3C48.55,89.31,50.8,92.29,49.37,93.66Z"/><path class="cls-6" d="M73.53,88.14c-.43-1.08-1.73-1.51-3.89-1.51h-7.5c-2.87,0-3,1.66-3,1.74a3,3,0,0,1-.16-.67c-.27-2.41,4.82-2,7.5-2.14C71.46,85.29,73.52,86.67,73.53,88.14Z"/><path class="cls-6" d="M69.86,101.31A8.88,8.88,0,0,1,71,102.7,45.61,45.61,0,0,1,53.3,104a2.85,2.85,0,0,1,.43-1.61C62.63,104.44,67.76,102.5,69.86,101.31Z"/><path class="cls-6" d="M92.34,89.7A45.29,45.29,0,0,1,80.3,99a2.14,2.14,0,0,1-1.15-1.14,21.66,21.66,0,0,0,11.46-9.25A4.21,4.21,0,0,1,92.34,89.7Z"/><path class="cls-6" d="M94.21,68.13c-.6-.21-4.88-1.4-9.84,4.31-2.51,2.89-3.38,5.13-3.58,6.7-1.34-2.19.26-6.12,3.76-9S92.34,66.3,94.21,68.13Z"/><path class="cls-6" d="M97,45.17c-1.12-.3-2.59-2-3-4.6a3.29,3.29,0,0,1,1.51-3.45,3.53,3.53,0,0,0-.7,2.64A10.28,10.28,0,0,0,97,45.17Z"/><path class="cls-6" d="M18.18,79.09c-.32-.62-.61-1.26-.9-1.9,1.28-1.16,2.54-3.28.94-6.63-2-4.15-2.93-7.72-4.7-8.44V62c.91-.12,2.18.3,3.1,2.9C17.81,68.3,23.35,76.52,18.18,79.09Z"/><path class="cls-7" d="M104.46,58.78A45.57,45.57,0,0,1,80.3,99,44.7,44.7,0,0,1,71,102.7,45.52,45.52,0,0,1,13.52,62c-.08-1.08-.12-2.16-.12-3.26a45.4,45.4,0,0,1,4.24-19.22c.45,39.44,81.86,49.35,84,3.53a45.57,45.57,0,0,1,2.74,13.82C104.44,57.53,104.46,58.15,104.46,58.78Z"/><path class="cls-8" d="M86.49,95A45.78,45.78,0,0,1,71,102.7,45.52,45.52,0,0,1,13.52,62c-.08-1.08-.12-2.16-.12-3.26a45.34,45.34,0,0,1,14.2-33C14.9,86.32,61.6,94.71,86.49,95Z"/><path class="cls-9" d="M104.46,58.78a45.53,45.53,0,0,1-.67,7.8c-.24,1.36-.53,2.7-.88,4C101.32,34,76.53,13.16,40.74,17a45.51,45.51,0,0,1,63.68,39.88C104.44,57.53,104.46,58.15,104.46,58.78Z"/></g></g></g></svg>