<svg xmlns="http://www.w3.org/2000/svg" xmlns:xlink="http://www.w3.org/1999/xlink" viewBox="0 0 223.97 223.97"><defs><style>.cls-1{isolation:isolate;}.cls-2{opacity:0.53;fill:url(#radial-gradient);}.cls-3{fill:url(#radial-gradient-2);}.cls-10,.cls-101,.cls-102,.cls-111,.cls-112,.cls-113,.cls-114,.cls-116,.cls-117,.cls-118,.cls-12,.cls-126,.cls-127,.cls-128,.cls-129,.cls-13,.cls-131,.cls-132,.cls-133,.cls-134,.cls-137,.cls-138,.cls-139,.cls-14,.cls-140,.cls-143,.cls-144,.cls-145,.cls-149,.cls-15,.cls-150,.cls-151,.cls-152,.cls-154,.cls-155,.cls-158,.cls-159,.cls-160,.cls-161,.cls-163,.cls-164,.cls-167,.cls-168,.cls-169,.cls-17,.cls-170,.cls-172,.cls-173,.cls-176,.cls-177,.cls-178,.cls-179,.cls-18,.cls-181,.cls-182,.cls-185,.cls-186,.cls-187,.cls-188,.cls-190,.cls-191,.cls-194,.cls-195,.cls-196,.cls-197,.cls-199,.cls-20,.cls-200,.cls-22,.cls-23,.cls-24,.cls-25,.cls-27,.cls-29,.cls-31,.cls-35,.cls-37,.cls-38,.cls-39,.cls-4,.cls-42,.cls-45,.cls-46,.cls-47,.cls-48,.cls-5,.cls-50,.cls-57,.cls-58,.cls-59,.cls-6,.cls-60,.cls-62,.cls-7,.cls-70,.cls-71,.cls-72,.cls-73,.cls-75,.cls-83,.cls-84,.cls-85,.cls-86,.cls-88,.cls-9,.cls-96,.cls-97,.cls-98,.cls-99{mix-blend-mode:screen;}.cls-10,.cls-101,.cls-102,.cls-111,.cls-112,.cls-113,.cls-114,.cls-116,.cls-117,.cls-118,.cls-12,.cls-126,.cls-127,.cls-128,.cls-129,.cls-13,.cls-131,.cls-132,.cls-133,.cls-137,.cls-138,.cls-139,.cls-14,.cls-140,.cls-143,.cls-144,.cls-149,.cls-15,.cls-150,.cls-151,.cls-152,.cls-154,.cls-158,.cls-159,.cls-160,.cls-161,.cls-163,.cls-167,.cls-168,.cls-169,.cls-170,.cls-172,.cls-176,.cls-177,.cls-178,.cls-179,.cls-18,.cls-181,.cls-185,.cls-186,.cls-187,.cls-188,.cls-190,.cls-194,.cls-195,.cls-196,.cls-197,.cls-199,.cls-20,.cls-22,.cls-23,.cls-24,.cls-31,.cls-35,.cls-38,.cls-4,.cls-42,.cls-45,.cls-46,.cls-47,.cls-48,.cls-5,.cls-50,.cls-57,.cls-58,.cls-59,.cls-6,.cls-60,.cls-62,.cls-7,.cls-70,.cls-71,.cls-72,.cls-73,.cls-75,.cls-83,.cls-84,.cls-85,.cls-86,.cls-88,.cls-96,.cls-97,.cls-98,.cls-99{opacity:0.25;}.cls-4{fill:url(#radial-gradient-3);}.cls-5{fill:url(#radial-gradient-4);}.cls-6{fill:url(#radial-gradient-5);}.cls-7{fill:url(#radial-gradient-6);}.cls-8{fill:url(#radial-gradient-7);}.cls-9{fill:url(#radial-gradient-8);}.cls-10{fill:url(#radial-gradient-9);}.cls-11{fill:url(#radial-gradient-10);}.cls-12{fill:url(#radial-gradient-11);}.cls-13{fill:url(#radial-gradient-12);}.cls-14{fill:url(#radial-gradient-13);}.cls-15{fill:url(#radial-gradient-14);}.cls-16{fill:url(#radial-gradient-15);}.cls-17{fill:url(#radial-gradient-16);}.cls-18{fill:url(#radial-gradient-17);}.cls-19{fill:url(#radial-gradient-18);}.cls-20{fill:url(#radial-gradient-19);}.cls-21{fill:url(#radial-gradient-20);}.cls-22{fill:url(#radial-gradient-21);}.cls-23{fill:url(#radial-gradient-22);}.cls-24{fill:url(#radial-gradient-23);}.cls-25{fill:url(#radial-gradient-24);}.cls-26{fill:url(#radial-gradient-25);}.cls-192,.cls-27,.cls-32,.cls-37{opacity:0.45;}.cls-27{fill:url(#radial-gradient-26);}.cls-28{fill:url(#radial-gradient-27);}.cls-30{fill:url(#radial-gradient-28);}.cls-31{fill:url(#radial-gradient-29);}.cls-109,.cls-124,.cls-135,.cls-146,.cls-183,.cls-192,.cls-32,.cls-33,.cls-43,.cls-55,.cls-68,.cls-81,.cls-94{mix-blend-mode:multiply;}.cls-32{fill:url(#radial-gradient-30);}.cls-109,.cls-124,.cls-135,.cls-146,.cls-183,.cls-33,.cls-43,.cls-55,.cls-68,.cls-81,.cls-94{opacity:0.5;}.cls-33{fill:url(#radial-gradient-31);}.cls-34{fill:url(#radial-gradient-32);}.cls-35{fill:url(#radial-gradient-33);}.cls-36{fill:url(#radial-gradient-34);}.cls-37{fill:url(#radial-gradient-35);}.cls-38{fill:url(#radial-gradient-36);}.cls-39{fill:url(#radial-gradient-37);}.cls-40{fill:url(#radial-gradient-38);}.cls-41{fill:url(#radial-gradient-39);}.cls-42{fill:url(#radial-gradient-40);}.cls-43{fill:url(#radial-gradient-41);}.cls-44{fill:url(#radial-gradient-42);}.cls-45{fill:url(#radial-gradient-43);}.cls-46{fill:url(#radial-gradient-44);}.cls-47{fill:url(#radial-gradient-45);}.cls-48{fill:url(#radial-gradient-46);}.cls-49{fill:url(#radial-gradient-47);}.cls-50{fill:url(#radial-gradient-48);}.cls-51{fill:url(#radial-gradient-49);}.cls-52{fill:url(#radial-gradient-50);}.cls-53{fill:url(#radial-gradient-51);}.cls-54{fill:url(#radial-gradient-52);}.cls-55{fill:url(#radial-gradient-53);}.cls-56{fill:url(#radial-gradient-54);}.cls-57{fill:url(#radial-gradient-55);}.cls-58{fill:url(#radial-gradient-56);}.cls-59{fill:url(#radial-gradient-57);}.cls-60{fill:url(#radial-gradient-58);}.cls-61{fill:url(#radial-gradient-59);}.cls-62{fill:url(#radial-gradient-60);}.cls-63{fill:url(#radial-gradient-61);}.cls-64{fill:url(#radial-gradient-62);}.cls-65{fill:url(#radial-gradient-63);}.cls-66{fill:url(#radial-gradient-64);}.cls-67{fill:url(#radial-gradient-65);}.cls-68{fill:url(#radial-gradient-66);}.cls-69{fill:url(#radial-gradient-67);}.cls-70{fill:url(#radial-gradient-68);}.cls-71{fill:url(#radial-gradient-69);}.cls-72{fill:url(#radial-gradient-70);}.cls-73{fill:url(#radial-gradient-71);}.cls-74{fill:url(#radial-gradient-72);}.cls-75{fill:url(#radial-gradient-73);}.cls-76{fill:url(#radial-gradient-74);}.cls-77{fill:url(#radial-gradient-75);}.cls-78{fill:url(#radial-gradient-76);}.cls-79{fill:url(#radial-gradient-77);}.cls-80{fill:url(#radial-gradient-78);}.cls-81{fill:url(#radial-gradient-79);}.cls-82{fill:url(#radial-gradient-80);}.cls-83{fill:url(#radial-gradient-81);}.cls-84{fill:url(#radial-gradient-82);}.cls-85{fill:url(#radial-gradient-83);}.cls-86{fill:url(#radial-gradient-84);}.cls-87{fill:url(#radial-gradient-85);}.cls-88{fill:url(#radial-gradient-86);}.cls-89{fill:url(#radial-gradient-87);}.cls-90{fill:url(#radial-gradient-88);}.cls-91{fill:url(#radial-gradient-89);}.cls-92{fill:url(#radial-gradient-90);}.cls-93{fill:url(#radial-gradient-91);}.cls-94{fill:url(#radial-gradient-92);}.cls-95{fill:url(#radial-gradient-93);}.cls-96{fill:url(#radial-gradient-94);}.cls-97{fill:url(#radial-gradient-95);}.cls-98{fill:url(#radial-gradient-96);}.cls-99{fill:url(#radial-gradient-97);}.cls-100{fill:url(#radial-gradient-98);}.cls-101{fill:url(#radial-gradient-99);}.cls-102{fill:url(#radial-gradient-100);}.cls-103{fill:url(#radial-gradient-101);}.cls-104{fill:url(#radial-gradient-102);}.cls-105{fill:url(#radial-gradient-103);}.cls-106{fill:url(#radial-gradient-104);}.cls-107{fill:url(#radial-gradient-105);}.cls-108{fill:url(#radial-gradient-106);}.cls-109{fill:url(#radial-gradient-107);}.cls-110{fill:url(#radial-gradient-108);}.cls-111{fill:url(#radial-gradient-109);}.cls-112{fill:url(#radial-gradient-110);}.cls-113{fill:url(#radial-gradient-111);}.cls-114{fill:url(#radial-gradient-112);}.cls-115{fill:url(#radial-gradient-113);}.cls-116{fill:url(#radial-gradient-114);}.cls-117{fill:url(#radial-gradient-115);}.cls-118{fill:url(#radial-gradient-116);}.cls-119{fill:url(#radial-gradient-117);}.cls-120{fill:url(#radial-gradient-118);}.cls-121{fill:url(#radial-gradient-119);}.cls-122{fill:url(#radial-gradient-120);}.cls-123{fill:url(#radial-gradient-121);}.cls-124{fill:url(#radial-gradient-122);}.cls-125{fill:url(#radial-gradient-123);}.cls-126{fill:url(#radial-gradient-124);}.cls-127{fill:url(#radial-gradient-125);}.cls-128{fill:url(#radial-gradient-126);}.cls-129{fill:url(#radial-gradient-127);}.cls-130{fill:url(#radial-gradient-128);}.cls-131{fill:url(#radial-gradient-129);}.cls-132{fill:url(#radial-gradient-130);}.cls-133{fill:url(#radial-gradient-131);}.cls-134{fill:url(#radial-gradient-132);}.cls-135{fill:url(#radial-gradient-133);}.cls-136{fill:url(#radial-gradient-134);}.cls-137{fill:url(#radial-gradient-135);}.cls-138{fill:url(#radial-gradient-136);}.cls-139{fill:url(#radial-gradient-137);}.cls-140{fill:url(#radial-gradient-138);}.cls-141{fill:url(#radial-gradient-139);}.cls-142{fill:url(#radial-gradient-140);}.cls-143{fill:url(#radial-gradient-141);}.cls-144{fill:url(#radial-gradient-142);}.cls-145{fill:url(#radial-gradient-143);}.cls-147{fill:url(#radial-gradient-144);}.cls-148{fill:url(#radial-gradient-145);}.cls-149{fill:url(#radial-gradient-146);}.cls-150{fill:url(#radial-gradient-147);}.cls-151{fill:url(#radial-gradient-148);}.cls-152{fill:url(#radial-gradient-149);}.cls-153{fill:url(#radial-gradient-150);}.cls-154{fill:url(#radial-gradient-151);}.cls-155{fill:url(#radial-gradient-152);}.cls-156{fill:url(#radial-gradient-153);}.cls-157{fill:url(#radial-gradient-154);}.cls-158{fill:url(#radial-gradient-155);}.cls-159{fill:url(#radial-gradient-156);}.cls-160{fill:url(#radial-gradient-157);}.cls-161{fill:url(#radial-gradient-158);}.cls-162{fill:url(#radial-gradient-159);}.cls-163{fill:url(#radial-gradient-160);}.cls-164{fill:url(#radial-gradient-161);}.cls-165{fill:url(#radial-gradient-162);}.cls-166{fill:url(#radial-gradient-163);}.cls-167{fill:url(#radial-gradient-164);}.cls-168{fill:url(#radial-gradient-165);}.cls-169{fill:url(#radial-gradient-166);}.cls-170{fill:url(#radial-gradient-167);}.cls-171{fill:url(#radial-gradient-168);}.cls-172{fill:url(#radial-gradient-169);}.cls-173{fill:url(#radial-gradient-170);}.cls-174{fill:url(#radial-gradient-171);}.cls-175{fill:url(#radial-gradient-172);}.cls-176{fill:url(#radial-gradient-173);}.cls-177{fill:url(#radial-gradient-174);}.cls-178{fill:url(#radial-gradient-175);}.cls-179{fill:url(#radial-gradient-176);}.cls-180{fill:url(#radial-gradient-177);}.cls-181{fill:url(#radial-gradient-178);}.cls-182{fill:url(#radial-gradient-179);}.cls-183{fill:url(#radial-gradient-180);}.cls-184{fill:url(#radial-gradient-181);}.cls-185{fill:url(#radial-gradient-182);}.cls-186{fill:url(#radial-gradient-183);}.cls-187{fill:url(#radial-gradient-184);}.cls-188{fill:url(#radial-gradient-185);}.cls-189{fill:url(#radial-gradient-186);}.cls-190{fill:url(#radial-gradient-187);}.cls-191{fill:url(#radial-gradient-188);}.cls-192{fill:url(#radial-gradient-189);}.cls-193{fill:url(#radial-gradient-190);}.cls-194{fill:url(#radial-gradient-191);}.cls-195{fill:url(#radial-gradient-192);}.cls-196{fill:url(#radial-gradient-193);}.cls-197{fill:url(#radial-gradient-194);}.cls-198{fill:url(#radial-gradient-195);}.cls-199{fill:url(#radial-gradient-196);}.cls-200{fill:url(#radial-gradient-197);}</style><radialGradient id="radial-gradient" cx="110.38" cy="111.98" r="112.34" gradientTransform="translate(111.98 -46.38) rotate(45)" gradientUnits="userSpaceOnUse"><stop offset="0" stop-color="#dfab45"/><stop offset="0.23" stop-color="#dfab45" stop-opacity="0.99"/><stop offset="0.38" stop-color="#dfab45" stop-opacity="0.95"/><stop offset="0.49" stop-color="#dfab45" stop-opacity="0.89"/><stop offset="0.6" stop-color="#dfab45" stop-opacity="0.79"/><stop offset="0.69" stop-color="#dfab45" stop-opacity="0.68"/><stop offset="0.78" stop-color="#dfab45" stop-opacity="0.53"/><stop offset="0.87" stop-color="#dfab45" stop-opacity="0.36"/><stop offset="0.94" stop-color="#dfab45" stop-opacity="0.16"/><stop offset="1" stop-color="#dfab45" stop-opacity="0"/></radialGradient><radialGradient id="radial-gradient-2" cx="64.47" cy="-5.51" r="208" gradientUnits="userSpaceOnUse"><stop offset="0.02" stop-color="#732fa4"/><stop offset="0.35" stop-color="#702da1"/><stop offset="0.62" stop-color="#682797"/><stop offset="0.86" stop-color="#591d86"/><stop offset="1" stop-color="#4f1579"/><stop offset="1" stop-color="#51167b"/></radialGradient><radialGradient id="radial-gradient-3" cx="40.93" cy="12" r="160.14" gradientTransform="matrix(1, 0.02, -0.02, 1.05, -1.68, 1.79)" gradientUnits="userSpaceOnUse"><stop offset="0.02" stop-color="#732fa4"/><stop offset="0.35" stop-color="#702da1"/><stop offset="0.62" stop-color="#682797"/><stop offset="0.77" stop-color="#60218d"/><stop offset="1" stop-color="#4f1579"/><stop offset="1" stop-color="#51167b"/></radialGradient><radialGradient id="radial-gradient-4" cx="40.89" cy="13.31" r="156.61" xlink:href="#radial-gradient-3"/><radialGradient id="radial-gradient-5" cx="40.94" cy="16.14" r="153.86" xlink:href="#radial-gradient-3"/><radialGradient id="radial-gradient-6" cx="61.45" cy="-5.51" r="207.78" gradientTransform="matrix(1, 0, 0, 1, 0, 0)" xlink:href="#radial-gradient-3"/><radialGradient id="radial-gradient-7" cx="58.17" cy="4.67" r="190.15" xlink:href="#radial-gradient-2"/><radialGradient id="radial-gradient-8" cx="34.19" cy="102.39" r="21.11" xlink:href="#radial-gradient-2"/><radialGradient id="radial-gradient-9" cx="43.87" cy="100.78" r="11.6" gradientTransform="matrix(1, 0, 0, 1, 0, 0)" xlink:href="#radial-gradient-3"/><radialGradient id="radial-gradient-10" cx="68.36" cy="-315.26" r="208" gradientTransform="translate(315.53 0.16) rotate(-148.89)" xlink:href="#radial-gradient-2"/><radialGradient id="radial-gradient-11" cx="38.89" cy="-284.78" r="160.14" gradientTransform="matrix(-0.84, -0.54, 0.56, -0.88, 318.83, -0.54)" xlink:href="#radial-gradient-3"/><radialGradient id="radial-gradient-12" cx="38.85" cy="-283.47" r="156.6" gradientTransform="matrix(-0.84, -0.54, 0.56, -0.88, 318.83, -0.54)" xlink:href="#radial-gradient-3"/><radialGradient id="radial-gradient-13" cx="38.89" cy="-280.63" r="153.85" gradientTransform="matrix(-0.84, -0.54, 0.56, -0.88, 318.83, -0.54)" xlink:href="#radial-gradient-3"/><radialGradient id="radial-gradient-14" cx="65.34" cy="-315.26" r="207.77" gradientTransform="translate(315.53 0.16) rotate(-148.89)" xlink:href="#radial-gradient-3"/><radialGradient id="radial-gradient-15" cx="62.06" cy="-305.08" r="190.14" gradientTransform="translate(315.53 0.16) rotate(-148.89)" xlink:href="#radial-gradient-2"/><radialGradient id="radial-gradient-16" cx="38.08" cy="-207.36" r="21.1" gradientTransform="translate(315.53 0.16) rotate(-148.89)" xlink:href="#radial-gradient-2"/><radialGradient id="radial-gradient-17" cx="47.75" cy="-208.98" r="11.6" gradientTransform="translate(315.53 0.16) rotate(-148.89)" xlink:href="#radial-gradient-3"/><radialGradient id="radial-gradient-18" cx="82.79" cy="-4.84" r="206.53" gradientTransform="translate(-10.71 -12.76) rotate(5.26)" xlink:href="#radial-gradient-2"/><radialGradient id="radial-gradient-19" cx="69.43" cy="-4.04" r="205.23" gradientTransform="matrix(1, 0, 0, 1, 0, 0)" xlink:href="#radial-gradient-3"/><radialGradient id="radial-gradient-20" cx="82.19" cy="8.26" r="174.94" gradientTransform="translate(-3.53 -4.62) rotate(1.84)" xlink:href="#radial-gradient-2"/><radialGradient id="radial-gradient-21" cx="97.18" cy="38.83" r="139.48" gradientTransform="matrix(0.92, 0, 0, 0.86, 11.77, -19.74)" xlink:href="#radial-gradient-2"/><radialGradient id="radial-gradient-22" cx="62.43" cy="-3.12" r="258.56" gradientTransform="matrix(1, 0, 0, 1, 0, 0)" xlink:href="#radial-gradient-3"/><radialGradient id="radial-gradient-23" cx="98.23" cy="18.09" r="135.54" gradientTransform="matrix(1, 0, 0, 1, 0, 0)" xlink:href="#radial-gradient-3"/><radialGradient id="radial-gradient-24" cx="153.08" cy="46.92" r="20.29" xlink:href="#radial-gradient-2"/><radialGradient id="radial-gradient-25" cx="82.48" cy="68.04" r="139.43" gradientTransform="translate(111.98 -46.38) rotate(45)" gradientUnits="userSpaceOnUse"><stop offset="0.08" stop-color="#dfab45"/><stop offset="1" stop-color="#e64a24"/></radialGradient><radialGradient id="radial-gradient-26" cx="71.99" cy="68.31" r="96.76" gradientTransform="translate(6.42 -4.71) scale(0.96 0.97)" gradientUnits="userSpaceOnUse"><stop offset="0" stop-color="#e64a24"/><stop offset="0.92" stop-color="#dfab45"/></radialGradient><radialGradient id="radial-gradient-27" cx="82.48" cy="69.84" r="138.26" gradientTransform="matrix(1, 0, 0, 1, 0, 0)" xlink:href="#radial-gradient-26"/><radialGradient id="radial-gradient-28" cx="136.63" cy="45.48" r="13.97" gradientTransform="matrix(1, 0, 0, 1, 0, 0)" xlink:href="#radial-gradient-26"/><radialGradient id="radial-gradient-29" cx="88.24" cy="144.9" r="0.02" gradientTransform="matrix(1, 0, 0, 1, 0, 0)" xlink:href="#radial-gradient-3"/><radialGradient id="radial-gradient-30" cx="63.22" cy="105.33" r="123.27" gradientTransform="matrix(1, 0, 0, 1, 0, 0)" xlink:href="#radial-gradient-25"/><radialGradient id="radial-gradient-31" cx="66.52" cy="8.89" r="191.24" gradientTransform="matrix(1, 0, 0, 1, 0, 0)" xlink:href="#radial-gradient-25"/><radialGradient id="radial-gradient-32" cx="64.69" cy="-4.54" r="206.53" xlink:href="#radial-gradient-2"/><radialGradient id="radial-gradient-33" cx="64.69" cy="-1.21" r="200.2" gradientTransform="matrix(1, 0, 0, 1, 0, 0)" xlink:href="#radial-gradient-3"/><radialGradient id="radial-gradient-34" cx="64.92" cy="1.92" r="194.19" gradientTransform="translate(7.29 -1.64) scale(0.93 0.98)" xlink:href="#radial-gradient-2"/><radialGradient id="radial-gradient-35" cx="65.24" cy="7.65" r="137.41" xlink:href="#radial-gradient-2"/><radialGradient id="radial-gradient-36" cx="83.93" cy="8.69" r="59.88" gradientTransform="matrix(1, 0, 0, 1, 0, 0)" xlink:href="#radial-gradient-3"/><radialGradient id="radial-gradient-37" cx="69.19" cy="38.53" r="10.35" xlink:href="#radial-gradient-2"/><radialGradient id="radial-gradient-38" cx="72.3" cy="64.01" r="8.27" xlink:href="#radial-gradient-2"/><radialGradient id="radial-gradient-39" cx="92.7" cy="55.33" r="5.6" xlink:href="#radial-gradient-2"/><radialGradient id="radial-gradient-40" cx="84.51" cy="25.39" r="104.7" gradientTransform="matrix(1, 0, 0, 1, 0, 0)" xlink:href="#radial-gradient-3"/><radialGradient id="radial-gradient-41" cx="70.79" cy="7.13" r="189.79" gradientTransform="matrix(1, 0, 0, 1, 0, 0)" xlink:href="#radial-gradient-25"/><radialGradient id="radial-gradient-42" cx="64.69" cy="-4.54" r="206.53" xlink:href="#radial-gradient-2"/><radialGradient id="radial-gradient-43" cx="46.07" cy="39.32" r="156.68" gradientTransform="translate(3.12 3.86) rotate(-3.55)" xlink:href="#radial-gradient-3"/><radialGradient id="radial-gradient-44" cx="49.32" cy="63.55" r="130.71" gradientTransform="translate(3.12 3.86) rotate(-3.55)" xlink:href="#radial-gradient-3"/><radialGradient id="radial-gradient-45" cx="45.14" cy="34.97" r="162.97" gradientTransform="translate(3.12 3.86) rotate(-3.55)" xlink:href="#radial-gradient-3"/><radialGradient id="radial-gradient-46" cx="65.4" cy="0.04" r="199.92" gradientTransform="matrix(1, 0, 0, 1, 0, 0)" xlink:href="#radial-gradient-3"/><radialGradient id="radial-gradient-47" cx="64.57" cy="11.88" r="183.04" gradientTransform="translate(5.52 -0.14) scale(0.92 1.01)" xlink:href="#radial-gradient-2"/><radialGradient id="radial-gradient-48" cx="69.14" cy="97.03" r="75.97" gradientTransform="matrix(1, 0, 0, 1, 0, 0)" xlink:href="#radial-gradient-3"/><radialGradient id="radial-gradient-49" cx="41.17" cy="165.86" r="5.27" xlink:href="#radial-gradient-2"/><radialGradient id="radial-gradient-50" cx="56.24" cy="180.24" r="7.5" xlink:href="#radial-gradient-2"/><radialGradient id="radial-gradient-51" cx="51.37" cy="143.44" r="4.47" xlink:href="#radial-gradient-2"/><radialGradient id="radial-gradient-52" cx="69.9" cy="157.5" r="8.33" xlink:href="#radial-gradient-2"/><radialGradient id="radial-gradient-53" cx="65.43" cy="-27.15" r="206.38" gradientTransform="translate(2.95 15.15) scale(0.96 1.14)" xlink:href="#radial-gradient-25"/><radialGradient id="radial-gradient-54" cx="65.19" cy="-4.46" r="206.38" xlink:href="#radial-gradient-2"/><radialGradient id="radial-gradient-55" cx="128.94" cy="65.15" r="206.4" gradientTransform="matrix(0.57, 0.13, -0.16, 0.7, 8.91, -39.05)" xlink:href="#radial-gradient-3"/><radialGradient id="radial-gradient-56" cx="128.55" cy="66.92" r="201.9" gradientTransform="matrix(0.57, 0.13, -0.16, 0.7, 8.91, -39.05)" xlink:href="#radial-gradient-3"/><radialGradient id="radial-gradient-57" cx="128.52" cy="65.15" r="206.39" gradientTransform="matrix(0.57, 0.13, -0.16, 0.7, 8.91, -39.05)" xlink:href="#radial-gradient-3"/><radialGradient id="radial-gradient-58" cx="65.1" cy="-3.68" r="204.93" gradientTransform="matrix(1, 0, 0, 1, 0, 0)" xlink:href="#radial-gradient-3"/><radialGradient id="radial-gradient-59" cx="64.03" cy="15.06" r="193.1" gradientTransform="translate(0.49 -5.9) scale(0.99 0.93)" xlink:href="#radial-gradient-2"/><radialGradient id="radial-gradient-60" cx="63.94" cy="25.11" r="135.54" gradientTransform="matrix(1, 0, 0, 1, 0, 0)" xlink:href="#radial-gradient-3"/><radialGradient id="radial-gradient-61" cx="49.25" cy="95.75" r="2.48" xlink:href="#radial-gradient-2"/><radialGradient id="radial-gradient-62" cx="45.21" cy="86.71" r="4.45" xlink:href="#radial-gradient-2"/><radialGradient id="radial-gradient-63" cx="50.4" cy="79.54" r="0.99" xlink:href="#radial-gradient-2"/><radialGradient id="radial-gradient-64" cx="60.69" cy="87.71" r="5.26" xlink:href="#radial-gradient-2"/><radialGradient id="radial-gradient-65" cx="58.64" cy="98.5" r="1.76" xlink:href="#radial-gradient-2"/><radialGradient id="radial-gradient-66" cx="206.32" cy="-53.42" r="206.38" gradientTransform="matrix(-0.87, 0.41, 0.48, 1.03, 307.69, -51.45)" xlink:href="#radial-gradient-25"/><radialGradient id="radial-gradient-67" cx="200.75" cy="-34.56" r="206.38" gradientTransform="matrix(-0.91, 0.42, 0.42, 0.91, 303.9, -66.22)" xlink:href="#radial-gradient-2"/><radialGradient id="radial-gradient-68" cx="342.49" cy="-19.54" r="206.39" gradientTransform="matrix(-0.46, 0.36, 0.44, 0.56, 279.88, -97.6)" xlink:href="#radial-gradient-3"/><radialGradient id="radial-gradient-69" cx="342.1" cy="-17.77" r="201.9" gradientTransform="matrix(-0.46, 0.36, 0.44, 0.56, 279.88, -97.6)" xlink:href="#radial-gradient-3"/><radialGradient id="radial-gradient-70" cx="342.06" cy="-19.54" r="206.39" gradientTransform="matrix(-0.46, 0.36, 0.44, 0.56, 279.88, -97.6)" xlink:href="#radial-gradient-3"/><radialGradient id="radial-gradient-71" cx="200.66" cy="-33.78" r="204.92" gradientTransform="matrix(-0.91, 0.42, 0.42, 0.91, 303.9, -66.22)" xlink:href="#radial-gradient-3"/><radialGradient id="radial-gradient-72" cx="200.68" cy="-17.07" r="193.1" gradientTransform="matrix(-0.9, 0.42, 0.39, 0.85, 301.09, -71.53)" xlink:href="#radial-gradient-2"/><radialGradient id="radial-gradient-73" cx="199.5" cy="-5" r="135.53" gradientTransform="matrix(-0.91, 0.42, 0.42, 0.91, 303.9, -66.22)" xlink:href="#radial-gradient-3"/><radialGradient id="radial-gradient-74" cx="184.81" cy="65.64" r="2.48" gradientTransform="matrix(-0.91, 0.42, 0.42, 0.91, 303.9, -66.22)" xlink:href="#radial-gradient-2"/><radialGradient id="radial-gradient-75" cx="180.77" cy="56.61" r="4.45" gradientTransform="matrix(-0.91, 0.42, 0.42, 0.91, 303.9, -66.22)" xlink:href="#radial-gradient-2"/><radialGradient id="radial-gradient-76" cx="185.95" cy="49.44" r="0.99" gradientTransform="matrix(-0.91, 0.42, 0.42, 0.91, 303.9, -66.22)" xlink:href="#radial-gradient-2"/><radialGradient id="radial-gradient-77" cx="196.25" cy="57.61" r="5.26" gradientTransform="matrix(-0.91, 0.42, 0.42, 0.91, 303.9, -66.22)" xlink:href="#radial-gradient-2"/><radialGradient id="radial-gradient-78" cx="194.2" cy="68.39" r="1.76" gradientTransform="matrix(-0.91, 0.42, 0.42, 0.91, 303.9, -66.22)" xlink:href="#radial-gradient-2"/><radialGradient id="radial-gradient-79" cx="-10.53" cy="-42.16" r="206.37" gradientTransform="matrix(-0.69, -0.67, -0.72, 0.73, 194.07, 83.13)" xlink:href="#radial-gradient-25"/><radialGradient id="radial-gradient-80" cx="-3.86" cy="-33.76" r="206.38" gradientTransform="matrix(-0.71, -0.7, -0.7, 0.71, 202.07, 79.19)" xlink:href="#radial-gradient-2"/><radialGradient id="radial-gradient-81" cx="4.76" cy="48.2" r="206.4" gradientTransform="matrix(-0.5, -0.31, -0.37, 0.61, 224.21, 44.94)" xlink:href="#radial-gradient-3"/><radialGradient id="radial-gradient-82" cx="4.37" cy="49.98" r="201.89" gradientTransform="matrix(-0.5, -0.31, -0.37, 0.61, 224.21, 44.94)" xlink:href="#radial-gradient-3"/><radialGradient id="radial-gradient-83" cx="4.34" cy="48.2" r="206.39" gradientTransform="matrix(-0.5, -0.31, -0.37, 0.61, 224.21, 44.94)" xlink:href="#radial-gradient-3"/><radialGradient id="radial-gradient-84" cx="-3.95" cy="-32.98" r="204.92" gradientTransform="matrix(-0.71, -0.7, -0.7, 0.71, 202.07, 79.19)" xlink:href="#radial-gradient-3"/><radialGradient id="radial-gradient-85" cx="-5" cy="-16.39" r="193.11" gradientTransform="matrix(-0.71, -0.7, -0.65, 0.67, 206.15, 75.01)" xlink:href="#radial-gradient-2"/><radialGradient id="radial-gradient-86" cx="-5.11" cy="-4.2" r="135.53" gradientTransform="matrix(-0.71, -0.7, -0.7, 0.71, 202.07, 79.19)" xlink:href="#radial-gradient-3"/><radialGradient id="radial-gradient-87" cx="-19.8" cy="66.44" r="2.48" gradientTransform="matrix(-0.71, -0.7, -0.7, 0.71, 202.07, 79.19)" xlink:href="#radial-gradient-2"/><radialGradient id="radial-gradient-88" cx="-23.84" cy="57.41" r="4.45" gradientTransform="matrix(-0.71, -0.7, -0.7, 0.71, 202.07, 79.19)" xlink:href="#radial-gradient-2"/><radialGradient id="radial-gradient-89" cx="-18.66" cy="50.24" r="0.99" gradientTransform="matrix(-0.71, -0.7, -0.7, 0.71, 202.07, 79.19)" xlink:href="#radial-gradient-2"/><radialGradient id="radial-gradient-90" cx="-8.36" cy="58.4" r="5.26" gradientTransform="matrix(-0.71, -0.7, -0.7, 0.71, 202.07, 79.19)" xlink:href="#radial-gradient-2"/><radialGradient id="radial-gradient-91" cx="-10.41" cy="69.19" r="1.76" gradientTransform="matrix(-0.71, -0.7, -0.7, 0.71, 202.07, 79.19)" xlink:href="#radial-gradient-2"/><radialGradient id="radial-gradient-92" cx="65.85" cy="-16.48" r="206.54" gradientTransform="translate(-5.49 5.43) scale(1.07 1.05)" xlink:href="#radial-gradient-25"/><radialGradient id="radial-gradient-93" cx="65.14" cy="-7.64" r="206.53" xlink:href="#radial-gradient-2"/><radialGradient id="radial-gradient-94" cx="65.13" cy="70.07" r="203.96" gradientTransform="translate(19.91 -30.62) scale(0.76 0.7)" xlink:href="#radial-gradient-3"/><radialGradient id="radial-gradient-95" cx="66.29" cy="70.42" r="201.44" gradientTransform="translate(19.91 -30.62) scale(0.76 0.7)" xlink:href="#radial-gradient-3"/><radialGradient id="radial-gradient-96" cx="65.5" cy="70.32" r="202.94" gradientTransform="translate(19.91 -30.62) scale(0.76 0.7)" xlink:href="#radial-gradient-3"/><radialGradient id="radial-gradient-97" cx="65.14" cy="8.18" r="184.42" gradientTransform="matrix(1, 0, 0, 1, 0, 0)" xlink:href="#radial-gradient-3"/><radialGradient id="radial-gradient-98" cx="81.99" cy="76.84" r="59.47" xlink:href="#radial-gradient-2"/><radialGradient id="radial-gradient-99" cx="66.03" cy="66.75" r="77.85" gradientTransform="matrix(1, 0, 0, 1, 0, 0)" xlink:href="#radial-gradient-3"/><radialGradient id="radial-gradient-100" cx="91.98" cy="30.41" r="166.63" gradientTransform="matrix(1, 0, 0, 1, 0, 0)" xlink:href="#radial-gradient-3"/><radialGradient id="radial-gradient-101" cx="81.21" cy="103.51" r="4.8" xlink:href="#radial-gradient-2"/><radialGradient id="radial-gradient-102" cx="78" cy="80.32" r="2.41" xlink:href="#radial-gradient-2"/><radialGradient id="radial-gradient-103" cx="90.1" cy="76.81" r="5.24" xlink:href="#radial-gradient-2"/><radialGradient id="radial-gradient-104" cx="91.65" cy="101.77" r="1.1" xlink:href="#radial-gradient-2"/><radialGradient id="radial-gradient-105" cx="82.96" cy="119.63" r="4.03" xlink:href="#radial-gradient-2"/><radialGradient id="radial-gradient-106" cx="101.66" cy="108.27" r="8.67" xlink:href="#radial-gradient-2"/><radialGradient id="radial-gradient-107" cx="64.15" cy="-17.56" r="206.53" gradientTransform="translate(-3.78 9.37) scale(1.04 1.08)" xlink:href="#radial-gradient-25"/><radialGradient id="radial-gradient-108" cx="64.69" cy="-4.54" r="206.53" xlink:href="#radial-gradient-2"/><radialGradient id="radial-gradient-109" cx="69.96" cy="133.31" r="206.54" gradientTransform="translate(34.85 -50.02) scale(0.69 0.56)" xlink:href="#radial-gradient-3"/><radialGradient id="radial-gradient-110" cx="75.86" cy="135.01" r="196.65" gradientTransform="translate(34.85 -50.02) scale(0.69 0.56)" xlink:href="#radial-gradient-3"/><radialGradient id="radial-gradient-111" cx="75.96" cy="133.22" r="198.27" gradientTransform="translate(34.85 -50.02) scale(0.69 0.56)" xlink:href="#radial-gradient-3"/><radialGradient id="radial-gradient-112" cx="64.69" cy="-4.54" r="206.53" gradientTransform="matrix(1, 0, 0, 1, 0, 0)" xlink:href="#radial-gradient-3"/><radialGradient id="radial-gradient-113" cx="126.97" cy="46.41" r="55.27" xlink:href="#radial-gradient-2"/><radialGradient id="radial-gradient-114" cx="114.31" cy="53.06" r="37.97" gradientTransform="matrix(1, 0, 0, 1, 0, 0)" xlink:href="#radial-gradient-3"/><radialGradient id="radial-gradient-115" cx="101.62" cy="35.68" r="115.36" gradientTransform="matrix(1, 0, 0, 1, 0, 0)" xlink:href="#radial-gradient-3"/><radialGradient id="radial-gradient-116" cx="102.35" cy="51.57" r="55.28" gradientTransform="matrix(1, 0, 0, 1, 0, 0)" xlink:href="#radial-gradient-3"/><radialGradient id="radial-gradient-117" cx="121.23" cy="74.98" r="4.09" xlink:href="#radial-gradient-2"/><radialGradient id="radial-gradient-118" cx="130.31" cy="75.67" r="1.76" xlink:href="#radial-gradient-2"/><radialGradient id="radial-gradient-119" cx="121.81" cy="62.97" r="2.54" xlink:href="#radial-gradient-2"/><radialGradient id="radial-gradient-120" cx="128.36" cy="85.69" r="5.13" xlink:href="#radial-gradient-2"/><radialGradient id="radial-gradient-121" cx="139.37" cy="80.48" r="1.71" xlink:href="#radial-gradient-2"/><radialGradient id="radial-gradient-122" cx="66.03" cy="-16.23" r="206.54" gradientTransform="translate(0 4.34) scale(1 1.06)" xlink:href="#radial-gradient-25"/><radialGradient id="radial-gradient-123" cx="66.03" cy="-6.54" r="206.53" xlink:href="#radial-gradient-2"/><radialGradient id="radial-gradient-124" cx="88.52" cy="34.39" r="148.97" gradientTransform="matrix(1, 0, 0, 1, 0, 0)" xlink:href="#radial-gradient-3"/><radialGradient id="radial-gradient-125" cx="89.74" cy="34.39" r="148.18" gradientTransform="matrix(1, 0, 0, 1, 0, 0)" xlink:href="#radial-gradient-3"/><radialGradient id="radial-gradient-126" cx="91.54" cy="44.77" r="136.55" gradientTransform="matrix(1, 0, 0, 1, 0, 0)" xlink:href="#radial-gradient-3"/><radialGradient id="radial-gradient-127" cx="66.03" cy="-6.54" r="206.53" gradientTransform="matrix(1, 0, 0, 1, 0, 0)" xlink:href="#radial-gradient-3"/><radialGradient id="radial-gradient-128" cx="118.17" cy="83.01" r="77.67" xlink:href="#radial-gradient-2"/><radialGradient id="radial-gradient-129" cx="101" cy="127.67" r="40.32" gradientTransform="matrix(1, 0, 0, 1, 0, 0)" xlink:href="#radial-gradient-3"/><radialGradient id="radial-gradient-130" cx="131.85" cy="88.56" r="38.07" gradientTransform="matrix(1, 0, 0, 1, 0, 0)" xlink:href="#radial-gradient-3"/><radialGradient id="radial-gradient-131" cx="100.45" cy="86.7" r="51.02" gradientTransform="matrix(1, 0, 0, 1, 0, 0)" xlink:href="#radial-gradient-3"/><radialGradient id="radial-gradient-132" cx="130.92" cy="133.86" r="18.78" xlink:href="#radial-gradient-2"/><radialGradient id="radial-gradient-133" cx="54.24" cy="-65.35" r="251.85" gradientTransform="translate(-3.2 7.85) scale(1.04 1.12)" xlink:href="#radial-gradient-25"/><radialGradient id="radial-gradient-134" cx="54.03" cy="-44.53" r="251.85" xlink:href="#radial-gradient-2"/><radialGradient id="radial-gradient-135" cx="60.01" cy="15.6" r="172.79" gradientTransform="matrix(1, 0, 0, 1, 0, 0)" xlink:href="#radial-gradient-3"/><radialGradient id="radial-gradient-136" cx="60.3" cy="15.4" r="172.74" gradientTransform="matrix(1, 0, 0, 1, 0, 0)" xlink:href="#radial-gradient-3"/><radialGradient id="radial-gradient-137" cx="63.88" cy="27.46" r="157.45" gradientTransform="matrix(1, 0, 0, 1, 0, 0)" xlink:href="#radial-gradient-3"/><radialGradient id="radial-gradient-138" cx="54.03" cy="-44.46" r="251.75" gradientTransform="matrix(1, 0, 0, 1, 0, 0)" xlink:href="#radial-gradient-3"/><radialGradient id="radial-gradient-139" cx="83.68" cy="96.15" r="68.79" xlink:href="#radial-gradient-2"/><radialGradient id="radial-gradient-140" cx="83.68" cy="96.15" r="68.79" xlink:href="#radial-gradient-2"/><radialGradient id="radial-gradient-141" cx="90.33" cy="15.98" r="160.82" gradientTransform="matrix(1, 0, 0, 1, 0, 0)" xlink:href="#radial-gradient-3"/><radialGradient id="radial-gradient-142" cx="68.88" cy="70.66" r="79.4" gradientTransform="matrix(1, 0, 0, 1, 0, 0)" xlink:href="#radial-gradient-3"/><radialGradient id="radial-gradient-143" cx="84.99" cy="140.97" r="13.29" xlink:href="#radial-gradient-2"/><radialGradient id="radial-gradient-144" cx="30.93" cy="-39.4" r="206.53" gradientTransform="matrix(1.07, -0.2, 0.22, 1.15, 12.45, 24.65)" xlink:href="#radial-gradient-25"/><radialGradient id="radial-gradient-145" cx="27.43" cy="-12.15" r="206.53" gradientTransform="matrix(0.98, -0.19, 0.19, 0.98, 14.41, 11.12)" xlink:href="#radial-gradient-2"/><radialGradient id="radial-gradient-146" cx="2.72" cy="127.4" r="5.63" gradientTransform="matrix(0.82, -0.16, 0.18, 0.92, 24.06, 4.61)" xlink:href="#radial-gradient-3"/><radialGradient id="radial-gradient-147" cx="2.49" cy="127.34" r="5.25" gradientTransform="matrix(0.82, -0.16, 0.18, 0.92, 24.06, 4.61)" xlink:href="#radial-gradient-3"/><radialGradient id="radial-gradient-148" cx="2.98" cy="127.52" r="5.49" gradientTransform="matrix(0.82, -0.16, 0.18, 0.92, 24.06, 4.61)" xlink:href="#radial-gradient-3"/><radialGradient id="radial-gradient-149" cx="27.41" cy="-12.08" r="206.42" gradientTransform="matrix(0.98, -0.19, 0.19, 0.98, 14.41, 11.12)" xlink:href="#radial-gradient-3"/><radialGradient id="radial-gradient-150" cx="1.84" cy="121.38" r="27.38" gradientTransform="matrix(0.94, -0.18, 0.17, 0.9, 16.69, 4.64)" xlink:href="#radial-gradient-2"/><radialGradient id="radial-gradient-151" cx="19" cy="117.33" r="7.32" gradientTransform="matrix(0.98, -0.19, 0.19, 0.98, 14.41, 11.12)" xlink:href="#radial-gradient-3"/><radialGradient id="radial-gradient-152" cx="15.48" cy="117.39" r="7.37" gradientTransform="matrix(0.98, -0.19, 0.19, 0.98, 14.41, 11.12)" xlink:href="#radial-gradient-2"/><radialGradient id="radial-gradient-153" cx="259.74" cy="-139.6" r="206.54" gradientTransform="matrix(-0.64, 0.88, 0.95, 0.7, 304.71, -159.93)" xlink:href="#radial-gradient-25"/><radialGradient id="radial-gradient-154" cx="276.47" cy="-130" r="206.54" gradientTransform="matrix(-0.59, 0.81, 0.81, 0.59, 291.7, -163.88)" xlink:href="#radial-gradient-2"/><radialGradient id="radial-gradient-155" cx="300.03" cy="1.49" r="5.63" gradientTransform="matrix(-0.5, 0.68, 0.76, 0.56, 281.96, -157.79)" xlink:href="#radial-gradient-3"/><radialGradient id="radial-gradient-156" cx="299.79" cy="1.42" r="5.25" gradientTransform="matrix(-0.5, 0.68, 0.76, 0.56, 281.96, -157.79)" xlink:href="#radial-gradient-3"/><radialGradient id="radial-gradient-157" cx="300.29" cy="1.6" r="5.49" gradientTransform="matrix(-0.5, 0.68, 0.76, 0.56, 281.96, -157.79)" xlink:href="#radial-gradient-3"/><radialGradient id="radial-gradient-158" cx="276.44" cy="-129.92" r="206.43" gradientTransform="matrix(-0.59, 0.81, 0.81, 0.59, 291.7, -163.88)" xlink:href="#radial-gradient-3"/><radialGradient id="radial-gradient-159" cx="262.92" cy="-7.43" r="27.38" gradientTransform="matrix(-0.57, 0.77, 0.74, 0.54, 285.23, -165.04)" xlink:href="#radial-gradient-2"/><radialGradient id="radial-gradient-160" cx="268.03" cy="-0.51" r="7.32" gradientTransform="matrix(-0.59, 0.81, 0.81, 0.59, 291.7, -163.88)" xlink:href="#radial-gradient-3"/><radialGradient id="radial-gradient-161" cx="264.52" cy="-0.44" r="7.37" gradientTransform="matrix(-0.59, 0.81, 0.81, 0.59, 291.7, -163.88)" xlink:href="#radial-gradient-2"/><radialGradient id="radial-gradient-162" cx="286.69" cy="-128.66" r="250.64" gradientTransform="matrix(-0.64, 0.88, 0.95, 0.7, 304.71, -159.93)" xlink:href="#radial-gradient-25"/><radialGradient id="radial-gradient-163" cx="38.02" cy="-100.51" r="250.62" gradientTransform="matrix(-0.8, -0.6, -0.6, 0.8, 208.62, 66.83)" xlink:href="#radial-gradient-2"/><radialGradient id="radial-gradient-164" cx="12.51" cy="62.61" r="6.84" gradientTransform="matrix(-0.67, -0.5, -0.56, 0.75, 203.62, 56.83)" xlink:href="#radial-gradient-3"/><radialGradient id="radial-gradient-165" cx="12.22" cy="62.52" r="6.37" gradientTransform="matrix(-0.67, -0.5, -0.56, 0.75, 203.62, 56.83)" xlink:href="#radial-gradient-3"/><radialGradient id="radial-gradient-166" cx="12.83" cy="62.74" r="6.66" gradientTransform="matrix(-0.67, -0.5, -0.56, 0.75, 203.62, 56.83)" xlink:href="#radial-gradient-3"/><radialGradient id="radial-gradient-167" cx="37.99" cy="-100.42" r="250.48" gradientTransform="matrix(-0.8, -0.6, -0.6, 0.8, 208.62, 66.83)" xlink:href="#radial-gradient-3"/><radialGradient id="radial-gradient-168" cx="7.9" cy="52.1" r="33.22" gradientTransform="matrix(-0.76, -0.57, -0.55, 0.73, 209.36, 60.04)" xlink:href="#radial-gradient-2"/><radialGradient id="radial-gradient-169" cx="27.78" cy="56.62" r="8.89" gradientTransform="matrix(-0.8, -0.6, -0.6, 0.8, 208.62, 66.83)" xlink:href="#radial-gradient-3"/><radialGradient id="radial-gradient-170" cx="23.52" cy="56.69" r="8.94" gradientTransform="matrix(-0.8, -0.6, -0.6, 0.8, 208.62, 66.83)" xlink:href="#radial-gradient-2"/><radialGradient id="radial-gradient-171" cx="25.68" cy="-99.02" r="206.53" gradientTransform="matrix(-0.64, -0.88, -0.95, 0.69, 191.45, 154.57)" xlink:href="#radial-gradient-25"/><radialGradient id="radial-gradient-172" cx="23.88" cy="-80.83" r="206.54" gradientTransform="matrix(-0.59, -0.81, -0.81, 0.59, 199.83, 142.71)" xlink:href="#radial-gradient-2"/><radialGradient id="radial-gradient-173" cx="-1.62" cy="54.12" r="5.63" gradientTransform="matrix(-0.49, -0.68, -0.76, 0.55, 197.11, 131.34)" xlink:href="#radial-gradient-3"/><radialGradient id="radial-gradient-174" cx="-1.86" cy="54.05" r="5.25" gradientTransform="matrix(-0.49, -0.68, -0.76, 0.55, 197.11, 131.34)" xlink:href="#radial-gradient-3"/><radialGradient id="radial-gradient-175" cx="-1.36" cy="54.23" r="5.49" gradientTransform="matrix(-0.49, -0.68, -0.76, 0.55, 197.11, 131.34)" xlink:href="#radial-gradient-3"/><radialGradient id="radial-gradient-176" cx="23.86" cy="-80.76" r="206.43" gradientTransform="matrix(-0.59, -0.81, -0.81, 0.59, 199.83, 142.71)" xlink:href="#radial-gradient-3"/><radialGradient id="radial-gradient-177" cx="-2.05" cy="45.05" r="27.38" gradientTransform="matrix(-0.56, -0.77, -0.74, 0.54, 201.57, 136.97)" xlink:href="#radial-gradient-2"/><radialGradient id="radial-gradient-178" cx="15.45" cy="48.66" r="7.32" gradientTransform="matrix(-0.59, -0.81, -0.81, 0.59, 199.83, 142.71)" xlink:href="#radial-gradient-3"/><radialGradient id="radial-gradient-179" cx="11.93" cy="48.72" r="7.37" gradientTransform="matrix(-0.59, -0.81, -0.81, 0.59, 199.83, 142.71)" xlink:href="#radial-gradient-2"/><radialGradient id="radial-gradient-180" cx="66.31" cy="44.37" r="156.7" gradientTransform="matrix(1, 0, 0, 1, 0, 0)" xlink:href="#radial-gradient-25"/><radialGradient id="radial-gradient-181" cx="64.27" cy="-4.49" r="206.64" xlink:href="#radial-gradient-2"/><radialGradient id="radial-gradient-182" cx="73.02" cy="73.9" r="144.39" gradientTransform="translate(8.02 -1.54) scale(0.92 0.95)" xlink:href="#radial-gradient-3"/><radialGradient id="radial-gradient-183" cx="73" cy="74.66" r="143.72" gradientTransform="translate(8.02 -1.54) scale(0.92 0.95)" xlink:href="#radial-gradient-3"/><radialGradient id="radial-gradient-184" cx="78.21" cy="84.76" r="131.74" gradientTransform="translate(8.02 -1.54) scale(0.92 0.95)" xlink:href="#radial-gradient-3"/><radialGradient id="radial-gradient-185" cx="64.31" cy="43.02" r="158.57" gradientTransform="matrix(1, 0, 0, 1, 0, 0)" xlink:href="#radial-gradient-3"/><radialGradient id="radial-gradient-186" cx="65.09" cy="81.37" r="139.16" gradientTransform="translate(4.83 -3) scale(0.96 0.93)" xlink:href="#radial-gradient-2"/><radialGradient id="radial-gradient-187" cx="44.26" cy="102.04" r="109.05" gradientTransform="matrix(1, 0, 0, 1, 0, 0)" xlink:href="#radial-gradient-3"/><radialGradient id="radial-gradient-188" cx="116.8" cy="183.06" r="14.65" xlink:href="#radial-gradient-2"/><radialGradient id="radial-gradient-189" cx="159.21" cy="-157.63" r="267.85" gradientTransform="matrix(1, 0, 0, 1, 0, 0)" xlink:href="#radial-gradient-25"/><radialGradient id="radial-gradient-190" cx="-65.01" cy="-183.05" r="163.47" gradientTransform="matrix(0.16, -0.99, 1.25, 0.21, 232.68, 86.56)" xlink:href="#radial-gradient-2"/><radialGradient id="radial-gradient-191" cx="-68.81" cy="-131.12" r="114.22" gradientTransform="matrix(0.15, -0.91, 1.19, 0.2, 232.79, 79.06)" xlink:href="#radial-gradient-3"/><radialGradient id="radial-gradient-192" cx="-68.83" cy="-130.52" r="113.7" gradientTransform="matrix(0.15, -0.91, 1.19, 0.2, 232.79, 79.06)" xlink:href="#radial-gradient-3"/><radialGradient id="radial-gradient-193" cx="-64.7" cy="-122.52" r="104.21" gradientTransform="matrix(0.15, -0.91, 1.19, 0.2, 232.79, 79.06)" xlink:href="#radial-gradient-3"/><radialGradient id="radial-gradient-194" cx="-64.98" cy="-145.46" r="125.44" gradientTransform="matrix(0.16, -0.99, 1.25, 0.21, 232.68, 86.56)" xlink:href="#radial-gradient-3"/><radialGradient id="radial-gradient-195" cx="-70.43" cy="-129.49" r="110.09" gradientTransform="matrix(0.16, -0.94, 1.16, 0.19, 230.73, 81.58)" xlink:href="#radial-gradient-2"/><radialGradient id="radial-gradient-196" cx="-80.84" cy="-98.77" r="86.27" gradientTransform="matrix(0.16, -0.99, 1.25, 0.21, 232.68, 86.56)" xlink:href="#radial-gradient-3"/><radialGradient id="radial-gradient-197" cx="-23.46" cy="-34.67" r="11.59" gradientTransform="matrix(0.16, -0.99, 1.25, 0.21, 232.68, 86.56)" xlink:href="#radial-gradient-2"/></defs><g class="cls-1"><g id="Layer_2" data-name="Layer 2"><g id="OBJECTS"><circle class="cls-2" cx="111.98" cy="111.98" r="111.98" transform="translate(-46.38 111.98) rotate(-45)"/><path class="cls-3" d="M39.58,74.5a15.39,15.39,0,0,0-6,1.07C21.74,80.13,17.88,93,18.35,104.86c.41,10.37,7.12,29.37,21.1,25.71,5.65-1.48,9.28-7.32,9.09-12.93-.12-3.72-1.54-5.29.46-8.65,1.69-2.85,4.07-5.1,5.51-8.14C59.83,89.6,51.41,74.82,39.58,74.5Z"/><path class="cls-4" d="M33.54,80.51c-2.39-3.53-8.62,3.86-9.87,6-3.14,5.29-4.18,11.7-4.08,17.78a36.34,36.34,0,0,0,3.07,13.81,18.62,18.62,0,0,0,3.92,6.24c2.58,2.34,4.27-1.15,4.56-3.65a19.3,19.3,0,0,0-.43-5.56c-1.06-6-2.05-12.3-.57-18.26.92-3.7,2.76-7.12,3.77-10.79a7.85,7.85,0,0,0,.34-3.59A5.09,5.09,0,0,0,33.54,80.51Z"/><path class="cls-5" d="M24.26,94.53l.34,0c.62,0,1.29-.28,1.83,0a1.73,1.73,0,0,1,.56.64l1.79,2.86c1,1.64,1.17-.5,1.36-1.28.92-3.7,2.76-7.12,3.77-10.79a7.85,7.85,0,0,0,.34-3.59,5.09,5.09,0,0,0-.71-1.94c-2.17-3.21-6.94,2.21-8.29,3.82-1.06,1.27-2.88,2.83-3.44,4.36C21.13,90.51,22,94,24.26,94.53Z"/><path class="cls-6" d="M29,101.05a1.73,1.73,0,0,0-1.09-1.27,3.27,3.27,0,0,1-.56-.13c-.47-.22-.52-.84-.59-1.34a2.31,2.31,0,0,0-.53-1.24,1.23,1.23,0,0,0-1.24-.39c-.44.14-.81.59-1.26.47s-.47-.39-.64-.66a4.58,4.58,0,0,0-2.49-1.92,34.52,34.52,0,0,0-1,9.68,36.34,36.34,0,0,0,3.07,13.81,18.62,18.62,0,0,0,3.92,6.24c2.58,2.34,4.27-1.15,4.56-3.65a19.3,19.3,0,0,0-.43-5.56c-.79-4.45-.71-9-1.58-13.31A4.86,4.86,0,0,0,29,101.05Z"/><path class="cls-7" d="M39.58,74.5a14,14,0,0,0-3,.23c1.65,1.2,3.85,3.52,2.51,6.81-2,5-7.39,13.48-7.39,27.15,0,11.45,4,19-.33,21.38a12.1,12.1,0,0,0,8.07.5c5.65-1.48,9.28-7.32,9.09-12.93-.12-3.72-1.54-5.29.46-8.65,1.69-2.85,4.07-5.1,5.51-8.14.11-.24.21-.49.31-.73.47-3.06.87-6,1.2-8.72C55.07,82.72,48.24,74.73,39.58,74.5Z"/><path class="cls-8" d="M39.47,77.88a18.22,18.22,0,0,1,8.69,13.66c-.31,2.49-.67,5.19-1.1,8-.09.22-.18.45-.29.67-1.32,2.79-3.5,4.85-5.05,7.46-1.83,3.09-.54,4.53-.42,7.93.17,5.15-3.16,10.51-8.34,11.87a10.73,10.73,0,0,1-1.23.25,3.23,3.23,0,0,1-1.14,1,11.13,11.13,0,0,0,7.41.45c5.18-1.35,8.51-6.71,8.34-11.86-.12-3.4-1.42-4.84.42-7.93,1.55-2.61,3.73-4.67,5.05-7.47.1-.22.2-.44.29-.66.43-2.81.79-5.51,1.09-8C52.37,85.76,46.76,78.83,39.47,77.88Z"/><path class="cls-9" d="M23.2,91.54c.18.06-.66,2.94-1,5.89a40.67,40.67,0,0,0-.25,5.89,41.71,41.71,0,0,0,.36,5.9c.39,2.94,1.29,5.81,1.11,5.87s-1.38-2.72-2-5.71a35.05,35.05,0,0,1-.76-6,36.46,36.46,0,0,1,.64-6.06C21.87,94.28,23,91.47,23.2,91.54Zm3.38-7a10,10,0,0,0-1.07,1.2,10.26,10.26,0,0,0-.58,1.5c-.22.78-.29,1.58-.12,1.63s.56-.62,1-1.24.85-1.2.85-1.2.31-.66.68-1.31.79-1.28.66-1.42S27.17,84,26.58,84.56Zm12.36,39.49a10.08,10.08,0,0,1-1.3,1.77,10.15,10.15,0,0,1-1.45,1.65c-.82.75-1.84,1.29-1.79,1.46s1.26-.07,2.34-.71a8.92,8.92,0,0,0,1.93-1.57,9.31,9.31,0,0,0,1.12-2.22c.4-1.19.38-2.43.2-2.44S39.5,123.09,38.94,124.05ZM46.87,80.5a10,10,0,0,0-2.19-2.82,9.94,9.94,0,0,0-3.2-1.57c-1.73-.5-3.5-.29-3.48-.1s1.69.3,3.17,1a10,10,0,0,1,2.68,1.71A10.12,10.12,0,0,1,46.07,81c1,1.32,1.43,2.94,1.6,2.91S47.71,82.08,46.87,80.5Z"/><path class="cls-10" d="M40.2,97.83c-2.17-3.38-3.69-6-4.75-8.07a49.56,49.56,0,0,0-3.74,18.93c0,1.07,0,2.1.1,3.1.94-2.87,3.57-5.53,10.74-2.82A39.39,39.39,0,0,1,48,111.53,7,7,0,0,1,49,109c1.69-2.85,4.07-5.1,5.51-8.14.11-.24.21-.49.31-.73.47-3.06.87-6,1.2-8.72a.3.3,0,0,0,0-.1C50.83,97.7,44,103.8,40.2,97.83Z"/><path class="cls-11" d="M156.75,179.12a15.64,15.64,0,0,0,5.71,2.19c12.48,2.21,22.44-6.83,28.16-17.21,5-9.09,9.08-28.83-4.78-32.92-5.6-1.65-11.73,1.48-14.47,6.38-1.81,3.24-1.41,5.32-4.86,7.16-2.91,1.57-6.11,2.27-8.92,4.13C147.22,155.73,146.8,172.73,156.75,179.12Z"/><path class="cls-12" d="M165,177.1c.21,4.26,9.37,1.15,11.52,0,5.43-2.91,9.63-7.85,12.68-13.11a36.29,36.29,0,0,0,4.51-13.41,18.47,18.47,0,0,0-.13-7.37c-1-3.34-4.25-1.22-5.79.77a19.55,19.55,0,0,0-2.5,5c-2.22,5.73-4.6,11.6-9,15.93-2.7,2.7-6,4.67-8.81,7.29a7.92,7.92,0,0,0-2.14,2.9A5.16,5.16,0,0,0,165,177.1Z"/><path class="cls-13" d="M180.22,169.89a2.75,2.75,0,0,0-.26-.22c-.51-.36-1.25-.43-1.55-1a1.7,1.7,0,0,1-.15-.84c0-1.13,0-2.25,0-3.38,0-1.93-1.26-.16-1.83.4-2.7,2.7-6,4.67-8.81,7.29a7.92,7.92,0,0,0-2.14,2.9,5.16,5.16,0,0,0-.39,2c.19,3.87,7.08,1.69,9.07,1,1.56-.54,3.93-.94,5.2-2C180.83,175,181.89,171.47,180.22,169.89Z"/><path class="cls-14" d="M179.58,161.88a1.73,1.73,0,0,0,.27,1.65,3.26,3.26,0,0,1,.42.41c.29.42,0,1-.19,1.45a2.29,2.29,0,0,0-.18,1.34,1.24,1.24,0,0,0,.85,1c.45.1,1-.09,1.32.24a1.25,1.25,0,0,1,.22.9,4.48,4.48,0,0,0,1.14,2.93,34.54,34.54,0,0,0,5.81-7.79,36.29,36.29,0,0,0,4.51-13.41,18.47,18.47,0,0,0-.13-7.37c-1-3.34-4.25-1.22-5.79.77a19.55,19.55,0,0,0-2.5,5c-1.62,4.22-4,8-5.53,12.21C179.72,161.39,179.64,161.63,179.58,161.88Z"/><path class="cls-15" d="M156.75,179.12a14.71,14.71,0,0,0,2.69,1.35c-.8-1.88-1.48-5,1.37-7.13,4.31-3.22,13.29-7.72,20.35-19.43,5.92-9.8,6.39-18.35,11.34-18.13a12.19,12.19,0,0,0-6.66-4.6c-5.6-1.65-11.73,1.48-14.47,6.38-1.81,3.24-1.41,5.32-4.86,7.16-2.91,1.57-6.11,2.27-8.92,4.13-.22.14-.43.3-.64.46-2,2.38-3.84,4.69-5.54,6.85C147.75,164.08,149.46,174.44,156.75,179.12Z"/><path class="cls-16" d="M158.6,176.28a18.24,18.24,0,0,1-.38-16.18c1.55-2,3.26-4.1,5.07-6.28l.59-.43c2.58-1.7,5.51-2.34,8.19-3.78,3.16-1.69,2.8-3.59,4.46-6.57,2.51-4.5,8.13-7.36,13.26-5.85.42.12.81.27,1.19.42a3.08,3.08,0,0,1,1.5-.28,11.08,11.08,0,0,0-6.11-4.22c-5.13-1.51-10.75,1.35-13.26,5.85-1.66,3-1.3,4.88-4.46,6.57-2.68,1.44-5.61,2.08-8.19,3.78l-.59.43c-1.81,2.18-3.52,4.3-5.07,6.28C151.63,162.87,152.85,171.7,158.6,176.28Z"/><path class="cls-17" d="M179.58,173c-.11-.15,2.09-2.18,3.9-4.53a41.23,41.23,0,0,0,3.27-4.92,40.14,40.14,0,0,0,2.73-5.23c1.19-2.72,1.9-5.64,2.09-5.6s-.22,3-1.22,5.93a35.79,35.79,0,0,1-2.47,5.57,35.67,35.67,0,0,1-3.69,4.85C182.14,171.34,179.69,173.14,179.58,173Zm-6.49,4.22a9.69,9.69,0,0,0,1.53-.47,10.17,10.17,0,0,0,1.28-1c.59-.55,1.06-1.19.93-1.33s-.79.25-1.46.57-1.35.58-1.35.58-.61.4-1.26.77-1.34.69-1.3.87S172.3,177.39,173.09,177.22ZM182.91,137a10,10,0,0,1,2-.85,10.49,10.49,0,0,1,2.09-.66,16.48,16.48,0,0,0,2.29-.32c0-.18-1.12-.6-2.37-.6a8.67,8.67,0,0,0-2.46.35,8.52,8.52,0,0,0-2.11,1.32c-1,.81-1.58,1.88-1.43,2S181.93,137.56,182.91,137Zm-29.29,33.19a10.1,10.1,0,0,0,.41,3.54,10.21,10.21,0,0,0,1.94,3c1.21,1.33,2.84,2.05,2.92,1.89s-1.29-1.14-2.21-2.48a13.81,13.81,0,0,1-2.13-5.94c-.15-1.63.29-3.26.13-3.32S153.72,168.43,153.62,170.22Z"/><path class="cls-18" d="M168.28,158.82c.12,4,.05,7.07-.1,9.37a49.38,49.38,0,0,0,13-14.28c.56-.91,1.05-1.82,1.52-2.71-2.29,2-5.91,2.9-10.65-3.13a39.51,39.51,0,0,1-3.36-5,7,7,0,0,1-2.16,1.66c-2.91,1.57-6.11,2.27-8.92,4.13-.22.14-.43.3-.64.46-2,2.38-3.84,4.69-5.54,6.85l0,.09C159.11,153.45,168.09,151.74,168.28,158.82Z"/><path class="cls-19" d="M170.65,37.09c-7.33-5.32-16.49-9.56-25.65-10-3.51-.16-8.69-.35-11.88,1.23-5.2,2.55-7.15,8.17-6.44,13.67.81,6.17,4.93,11.1,9.72,14.82a24.27,24.27,0,0,0,3,2c3.07,1.76,6.45,2.62,9.28,4.77,5,3.61,9,9.87,15.52,10.44,5.49.48,11-2.68,14-7.14C185.33,56.56,179.86,43.79,170.65,37.09Z"/><path class="cls-20" d="M178.27,66.84a17.86,17.86,0,0,0,3.14-11.65c-1.66,2.64-3.89,2.8-7.27-2.06C168.94,45.65,149,36.71,141.31,34c-4.92-1.73-5.24-4.72-4.84-6.66a11.83,11.83,0,0,0-3.35,1c-5.2,2.55-7.15,8.17-6.44,13.67.81,6.17,4.93,11.1,9.72,14.82a24.27,24.27,0,0,0,3,2c3.07,1.76,6.45,2.62,9.28,4.77,5,3.61,9,9.87,15.52,10.44C169.74,74.46,175.21,71.3,178.27,66.84Z"/><path class="cls-21" d="M134.24,39.92c8.78,3.41,31.5,14.47,37.23,23.31,2.28,3.53,3.31,3.83,4.88,3.63.52-1.88,1.56-2.78,1.48-4.7-1.75,2.59-4,2.68-7.21-2.29-5-7.64-24.6-17.21-32.2-20.16-1.77-.69-4.23-2.13-5.09-3.88a6.94,6.94,0,0,1-.91-4.69c-1.81,1-4.22,2.89-3,5.06A9.07,9.07,0,0,0,134.24,39.92Z"/><path class="cls-22" d="M175.41,50.12c1,.42,1.88-.32,2.48-1.76A22.6,22.6,0,0,0,169,36.9c-6.54-4.44-14.72-8-22.9-8.34-1.44-.06-3-.37-4.27.34-1,.56-1.83,1.2-1,2.36a8.37,8.37,0,0,0,3.82,2.47c7.67,3.12,9.77,3.7,16.33,6.7S172.82,49,175.41,50.12Z"/><path class="cls-23" d="M156.28,37.7a1.53,1.53,0,0,1-.41.14,4.93,4.93,0,0,1-2.67-.72l-2.42-.94c-2.06-.81-4.12-1.62-6.16-2.45a8.37,8.37,0,0,1-3.82-2.47c-.81-1.16,0-1.8,1-2.36,1.26-.71,2.83-.4,4.27-.34a35.85,35.85,0,0,1,7.19,1.11c1.19.3,2.34.69,3.51,1.06a2.18,2.18,0,0,1,1.73,1.67l.43,1.23a2,2,0,0,1,.16,1.21c-.3.95-1.82,1-2.18,1.93-.05.13-.07.26-.12.39A1.11,1.11,0,0,1,156.28,37.7ZM169,36.9a53.47,53.47,0,0,0-5.65-3.35,14.21,14.21,0,0,0-2.24-1.2.66.66,0,0,0-.61.09.68.68,0,0,0-.19.58,4.52,4.52,0,0,0,.12.62,3.36,3.36,0,0,1-.34,2.31A5.85,5.85,0,0,0,159,38.49c0,1,1.18,1.6,1.92,1.94,6.55,3,11.87,8.54,14.46,9.69,1,.42,1.88-.32,2.48-1.76A22.6,22.6,0,0,0,169,36.9Z"/><path class="cls-24" d="M169.41,48.49a92.36,92.36,0,0,0-15.31-9c1,1.55,1.48,3.44-.15,5.25-3.64,4-18.6,4.72-18.6,4.72l35.71,21.83S159.29,51.83,169.41,48.49Z"/><path class="cls-25" d="M150.85,29.87c0,.36-1.95.47-1.95.47s-1.86-.48-1.82-.85S149,29,149,29,150.89,29.51,150.85,29.87Zm15.83,6.89c-.94-.73-1.91-1.45-2.66-2l-1.25-.88a11.82,11.82,0,0,0-1.36-.72A24.27,24.27,0,0,0,158.27,32a18,18,0,0,0-4.72-1c-.06.18,2.22,1,4.4,1.88a28.74,28.74,0,0,1,2.91,1.4,10.51,10.51,0,0,1,1.24.78l1.26.76c.76.44,1.77,1.07,2.79,1.72,2,1.27,4.09,2.5,4.19,2.35S168.57,38.23,166.68,36.76Zm-5.79,17.39c2.33,1.88,4.49,4,4.49,4l1.43,1.24c.87.74,2,1.73,3.23,2.68a16.49,16.49,0,0,0,3.58,2.27,3.63,3.63,0,0,0,1.89.44c0-.1-.7-.32-1.65-.9a19.17,19.17,0,0,1-3.22-2.52l-4.38-4.18L164.8,56c-.89-.73-2.09-1.68-3.36-2.55-2.52-1.79-5.44-2.87-5.5-2.69S158.58,52.22,160.89,54.15ZM135.64,41.3a15.22,15.22,0,0,1-1.9-2.18,15,15,0,0,1-1.67-2.36c-.74-1.27-1.17-2.7-1.36-2.67a5.85,5.85,0,0,0,.51,3.06,13.38,13.38,0,0,0,1.49,2.78,13.22,13.22,0,0,0,2.35,2.1c1.3.9,2.78,1.39,2.85,1.22S136.69,42.32,135.64,41.3Z"/><circle class="cls-26" cx="111.98" cy="111.98" r="76.59" transform="translate(-46.38 111.98) rotate(-45)"/><path class="cls-27" d="M149.51,83.3A27.19,27.19,0,0,1,141.94,89c-7.61,4.06-16.22,5.74-24.55,8s-16.81,5.3-22.91,11.4c-2.87,2.87-5.09,6.29-7.5,9.55-4.94,6.67-11.15,13-19.15,15.19-5.91,1.63-13.64.45-19.07-2.38-4.51-2.36-6.88-8.82-7.7-13.49-1.92-10.86,1.46-22.53,5.68-32.47a71.25,71.25,0,0,1,65-43.18c18.28,0,46.73,7.38,42.56,31.2a22.09,22.09,0,0,1-3.24,8.53A18.19,18.19,0,0,1,149.51,83.3Z"/><path class="cls-28" d="M130.58,37.68A61.48,61.48,0,1,1,39.17,91.37c0-1.16,0-2.31.1-3.46a76.6,76.6,0,1,0,91.31-50.23Z"/><g class="cls-29"><path class="cls-30" d="M148.25,56.61a58.44,58.44,0,0,0-9.32-11.83,71.67,71.67,0,0,0-7.46-2.31A58.15,58.15,0,0,1,148.25,56.61Z"/></g><path class="cls-31" d="M88.21,144.9h0Z"/><path class="cls-32" d="M186,112.39a72.08,72.08,0,0,1-133.51,37.7,72.07,72.07,0,0,0,118-82.37A71.78,71.78,0,0,1,186,112.39Z"/><path class="cls-33" d="M50,67c2.58,4.67,9.74,5.23,14.67,5.24a51.44,51.44,0,0,0,10.4-1.34,72.76,72.76,0,0,0,27.56-12.06c6.54-4.72,18.85-10,16.41-19.32a11,11,0,0,0-2-3.94c-1.68-.11-3.38-.19-5.09-.19A76.45,76.45,0,0,0,50,67Z"/><path class="cls-34" d="M114.52,38.62C112.18,29.67,97,25.73,89.37,26.33c-17.15,1.36-35,10.76-39.31,28.26-.22.89-.43,1.79-.61,2.69a13.75,13.75,0,0,0-.4,4c.61,7.12,9.12,7.85,14.61,7.86a47.77,47.77,0,0,0,9.74-1.25A68.33,68.33,0,0,0,99.18,56.63C105.3,52.23,116.81,47.35,114.52,38.62Z"/><path class="cls-35" d="M114.52,38.62c-1.31-5-6.66-8.46-12.45-10.41A8.87,8.87,0,0,1,103.36,31c2,7.48-7.91,11.67-13.16,15.44A58.68,58.68,0,0,1,68.09,56a41.24,41.24,0,0,1-8.34,1.07c-3,0-7.11-.27-9.79-2.07-.18.74-.36,1.49-.51,2.24a13.75,13.75,0,0,0-.4,4c.61,7.12,9.12,7.85,14.61,7.86a47.77,47.77,0,0,0,9.74-1.25A68.33,68.33,0,0,0,99.18,56.63C105.3,52.23,116.81,47.35,114.52,38.62Z"/><path class="cls-36" d="M111.9,37.62c-1-4.15-4.7-7.19-9.05-9.2,2.86,1.89,5.07,4.36,5.83,7.43,2.12,8.57-8.55,13.37-14.23,17.69a61.49,61.49,0,0,1-23.91,11,41.86,41.86,0,0,1-9,1.23,25.24,25.24,0,0,1-8-1.06c2.85,2.49,7.69,2.83,11.2,2.84a41.76,41.76,0,0,0,9-1.23,61.64,61.64,0,0,0,23.91-11C103.35,51,114,46.2,111.9,37.62Z"/><path class="cls-37" d="M100.82,30.53c-5.34-5.34-20.16-4.45-32.3,3.65S50.05,49.6,56.21,53.12s19.7-1.28,29.17-7C102.44,35.79,103.13,32.84,100.82,30.53Z"/><path class="cls-38" d="M81.57,43.62c-.32.8-.79,1.53-1.14,2.31-.5,1.1-.22,2.48-1,3.44-1.11,1.44-4.6,2-6.21,2.52-4.92,1.76-12.1,4.07-17.06,1.23-6.16-3.52.16-10.85,12.31-18.94,1.82-1.22,4.18-3,6.34-3.49a3.21,3.21,0,0,1,3.19,1c.64,1,.54,1.63,1.53,2.33a6.8,6.8,0,0,1,2.3,2.69,7.11,7.11,0,0,1,.45,2.39A11.67,11.67,0,0,1,81.57,43.62Zm19.25-13.09C97.36,27.07,81.2,24,82.05,32.23a5.43,5.43,0,0,0,.7,1.84c1.36,2.65,2.16,5.81,1.12,8.6A10.29,10.29,0,0,0,83,45.19c-.28,3.15,2.78.68,3.91,0,2-1.21,3.92-2.44,5.83-3.73a43.06,43.06,0,0,0,6.93-5.39C101.22,34.46,102.72,32.43,100.82,30.53Z"/><path class="cls-39" d="M74.47,33.08c.07.17-2.42,1.44-4.71,3a49.53,49.53,0,0,0-4.39,3.37,50,50,0,0,0-4.15,3.64c-2,1.95-3.71,4.15-3.86,4s1.32-2.51,3.18-4.67a40.28,40.28,0,0,1,4-4,41.71,41.71,0,0,1,4.73-3.14C71.74,33.89,74.4,32.92,74.47,33.08Zm4-2.73s-2.25,1.2-2.12,1.54,2.6-.32,2.6-.32S81.15,30.36,81,30,78.42,30.35,78.42,30.35Z"/><g class="cls-29"><path class="cls-40" d="M83.62,61.08c.1.15-2.39,1.79-5.13,3a41.78,41.78,0,0,1-5.63,2,40.18,40.18,0,0,1-5.93.81c-3,.19-6-.13-5.94-.31s2.95-.2,5.85-.61a49.4,49.4,0,0,0,5.7-1.16,50.69,50.69,0,0,0,5.6-1.59C80.9,62.26,83.53,60.92,83.62,61.08Z"/><path class="cls-41" d="M99.14,50.73c.12.13-1.27,1.56-2.76,2.89s-3.07,2.55-3.07,2.55-1.67,1.1-3.41,2.07a13.55,13.55,0,0,1-3.64,1.68c-.09-.16,1.54-1.29,3.13-2.46l3.15-2.36,3.26-2.21C97.42,51.77,99,50.59,99.14,50.73Z"/></g><path class="cls-42" d="M79.06,66.42a67.84,67.84,0,0,0,20.12-9.79c1.24-.89,2.69-1.8,4.21-2.76-6,0-11.47-1.46-8.9-7.3.62-1.41,1.16-2.75,1.63-4C94,43.94,91.88,45.19,90.2,46.4a57.24,57.24,0,0,1-11.59,6.39c3.15.55,5.67,2,5.67,5.36C84.28,60.85,82.1,63.73,79.06,66.42Z"/><path class="cls-43" d="M87,164.07c-4.91-4.13-11.63-6.47-16.21-10.81-4.37-4.15-6.93-8.83-12.69-11.66-4.67-2.3-12.46-4.74-17.59-2.16a76.79,76.79,0,0,0,48.59,45.65C94.4,179.34,94.47,170.39,87,164.07Z"/><path class="cls-44" d="M82.43,163.33c-4.49-4-10.65-6.29-14.85-10.5-4-4-6.35-8.57-11.62-11.33s-14.61-5.64-18.76.24c-15.38,21.82,13.85,49.95,36.55,47.32C87.47,187.47,92.73,172.52,82.43,163.33Z"/><path class="cls-45" d="M45.67,176.85a37.24,37.24,0,0,0,16.58,8.61c4.51,1,11.93,2.46,14.51-2.54a5,5,0,0,0,.59-2.23c0-2.23-1.82-4-3.62-5.33-5.27-3.84-11.57-6.27-16.31-10.75-2.69-2.53-4.77-5.61-7.14-8.43-2-2.36-3.59-5.37-6.84-6.21-10.79-2.78-8.48,9.7-6.21,15.39A31,31,0,0,0,45.67,176.85Z"/><path class="cls-46" d="M73.73,175.36c-2.11-1.54-7.17-5.69-10-3.42-1.45,1.16-1.13,3.5-1.89,5.06-.69,1.39-2.53,2.36-2.91,3.83-1.86,7.11,15.24,7.14,17.85,2.09a5,5,0,0,0,.59-2.23C77.36,178.46,75.53,176.68,73.73,175.36Z"/><path class="cls-47" d="M45.67,176.85c2.33,2.05,5,3.28,7.45,5.15a2.32,2.32,0,0,0,1.5.65c1-.08,1.41-1.3,1.29-2.26a11.49,11.49,0,0,1-.44-2.88c.33-2.38,3.87-3.35,4.08-5.75.07-.84-.3-1.75.11-2.49a6,6,0,0,0,.53-.82,1.58,1.58,0,0,0-.15-1.18c-.92-2-3.37-3.31-4.82-5-1.73-2-3.25-4.11-4.94-6.12-2-2.36-3.59-5.37-6.84-6.21-10.79-2.78-8.48,9.7-6.21,15.39A31,31,0,0,0,45.67,176.85Z"/><path class="cls-48" d="M82.43,163.33c-4.49-4-10.65-6.29-14.85-10.5-4-4-6.35-8.57-11.62-11.33s-14.61-5.64-18.76.24a24,24,0,0,0-2.6,4.76c4.47-.85,10,1.11,13.59,3,5.27,2.75,7.62,7.3,11.62,11.32C64,165,70.16,167.3,74.66,171.31c5.35,4.77,6.49,11.09,4.44,16.29C88.65,183.29,91.25,171.2,82.43,163.33Z"/><path class="cls-49" d="M54.48,144.44c4.86,2.77,7,7.35,10.72,11.4,3.87,4.25,9.55,6.54,13.7,10.58a15.28,15.28,0,0,1,3.3,18.19c4.25-5.62,4.2-14.15-2-20.21-4.15-4-9.83-6.33-13.7-10.58-3.7-4-5.86-8.63-10.72-11.4s-13.49-5.68-17.31.24c-.32.5-.62,1-.89,1.51C41.55,139,49.83,141.79,54.48,144.44Z"/><path class="cls-50" d="M67.58,152.83c-1.07-1.09-2-2.21-3-3.32-1,5.53-4.89,7.16-8.16,7.5,1,1.27,2.12,2.55,3.35,3.79,3,3,7,5,10.67,7.41a13.57,13.57,0,0,1,7.9-7.89C74.67,157.91,70.62,155.87,67.58,152.83Z"/><g class="cls-29"><path class="cls-51" d="M44.43,172.56c-.13.12-1.52-1.2-2.67-2.74a26.79,26.79,0,0,1-2.06-3.24A26.27,26.27,0,0,1,38.45,163c-.5-1.86-.67-3.76-.49-3.79s.67,1.78,1.37,3.5A34.34,34.34,0,0,0,40.89,166a34.84,34.84,0,0,0,1.65,3.3C43.45,170.92,44.57,172.44,44.43,172.56Z"/><path class="cls-52" d="M65.87,184.55c0,.19-2.75.31-5.42-.41a27,27,0,0,1-5.14-1.9,44.44,44.44,0,0,1-4.56-3,23.94,23.94,0,0,1-4.13-3.5c.11-.15,2.36,1.33,4.64,2.73s4.66,2.57,4.66,2.57a30.85,30.85,0,0,0,4.79,2.17C63.2,184.16,65.87,184.38,65.87,184.55Z"/><path class="cls-53" d="M57,146.24c-.13.1-1.28-1-2.68-1.66s-2.85-1.3-2.85-1.3-1.38-.77-2.81-1.38-3-1-3-1.14,1.66-.19,3.26.26A23.86,23.86,0,0,1,52,142.09a23.28,23.28,0,0,1,2.79,1.7C56.19,144.75,57.17,146.13,57,146.24Z"/><path class="cls-54" d="M78.77,165.22c-.09,0-.43-.63-1.24-1.33a15.71,15.71,0,0,0-3.4-2.08A39.5,39.5,0,0,1,69,158.72a39.92,39.92,0,0,1-4.41-4.11c-2.06-2.2-3.69-4.73-3.54-4.83s2,2.2,4.2,4.18a46.92,46.92,0,0,0,4.54,3.71A46.88,46.88,0,0,0,74.58,161a13.16,13.16,0,0,1,3.31,2.53C78.66,164.41,78.85,165.2,78.77,165.22Z"/></g><path class="cls-55" d="M63.85,88.43C63.4,82,57.78,74.5,52.06,77.18,44.34,80.79,39.9,92.78,43,102c2.23,6.58,8.92,10.15,14.16,5.77C61.32,104.3,64.27,94.34,63.85,88.43Z"/><path class="cls-56" d="M63,87c-.46-5.64-6.3-12.22-12.24-9.87-8,3.17-12.63,13.69-9.39,21.79,2.31,5.77,9.26,8.9,14.7,5C60.39,100.91,63.44,92.16,63,87Z"/><path class="cls-57" d="M56,87.1c.65-4-1.62-9.37-5.4-8.52-5.1,1.14-9.45,7.86-8.92,13.94.39,4.33,3.85,7.45,7.59,5.49C52.21,96.46,55.38,90.77,56,87.1Z"/><path class="cls-58" d="M47.68,86a7.1,7.1,0,0,1,3.63.29,22.69,22.69,0,0,0,2.21,1,2.3,2.3,0,0,0,2.6-1.54,7.79,7.79,0,0,0-.65-3.55c-.75-2-2.46-4.16-4.89-3.61-3.39.75-8.26,4.79-7.8,8.69C44.62,87.67,45.94,86.3,47.68,86Z"/><path class="cls-59" d="M52.71,88.58c-2.87-1.68-4.8-1.27-7.62-.18-1.13.44-2.25.31-2.87,1.4a4.52,4.52,0,0,0-.56,2.72c.39,4.33,3.85,7.45,7.59,5.49a9.94,9.94,0,0,0,3.17-3c.79-1.08,2.37-3,2.33-4.44a1.16,1.16,0,0,0-.62-.85C53.59,89.37,53.24,88.89,52.71,88.58Z"/><path class="cls-60" d="M63,87c-.35-4.3-3.84-9.14-8.11-10.15A11.23,11.23,0,0,1,58,83.29C58.35,88,55.47,96,51.4,98.78a8.88,8.88,0,0,1-10.07,0c0,.05,0,.11.05.16,2.31,5.77,9.26,8.9,14.7,5C60.39,100.91,63.44,92.16,63,87Z"/><path class="cls-61" d="M62.24,86.93A11.66,11.66,0,0,0,57.51,79,11.47,11.47,0,0,1,61,85.86c.42,4.83-2.61,13-6.89,15.84A9.6,9.6,0,0,1,43,101.33a9.75,9.75,0,0,0,12.34,1.45C59.63,99.94,62.67,91.77,62.24,86.93Z"/><path class="cls-62" d="M60.67,89.26a5.94,5.94,0,0,1-2.91-2.47,24,24,0,0,1-3.09,8.33c2-.39,4.56-.24,6.17,2.31A25.25,25.25,0,0,0,63,88.59,2.11,2.11,0,0,1,60.67,89.26Z"/><g class="cls-29"><path class="cls-63" d="M52.08,93.72c.12.07-.25.92-.78,1.69A8.11,8.11,0,0,1,50,96.83a6.08,6.08,0,0,1-1.75.81c-.95.27-1.91.1-1.89,0s.89-.22,1.65-.62a6.23,6.23,0,0,0,1.39-.93A10,10,0,0,0,50.76,95C51.39,94.35,52,93.65,52.08,93.72Z"/><path class="cls-64" d="M47.92,81c.08.11-1.12,1.19-2,2.5a15.6,15.6,0,0,0-1.51,2.75,15.39,15.39,0,0,0-1.1,2.94c-.41,1.54-.44,3.15-.58,3.16a7.2,7.2,0,0,1-.11-3.29,14.58,14.58,0,0,1,.89-3.22,14.28,14.28,0,0,1,1.86-2.77A7.28,7.28,0,0,1,47.92,81Z"/><path class="cls-65" d="M51.64,79.2c0,.14-.32.26-.6.41a5.85,5.85,0,0,0-.54.3,4.71,4.71,0,0,0-.61.13c-.3.07-.63.19-.72.09s.09-.43.37-.69a3.18,3.18,0,0,1,.61-.46,3.36,3.36,0,0,1,.76-.06C51.29,78.94,51.65,79.07,51.64,79.2Z"/><path class="cls-66" d="M60.28,95c-.13,0,.39-1.87.61-3.73A20.17,20.17,0,0,0,61,87.6a16.88,16.88,0,0,0-.42-3.66c-.4-1.82-1.32-3.48-1.21-3.55a8.2,8.2,0,0,1,1.88,3.36A15.49,15.49,0,0,1,62,87.57a18.52,18.52,0,0,1-.42,3.85A10.94,10.94,0,0,1,60.28,95Z"/><path class="cls-67" d="M57.36,100.6c-.1-.1.23-.62.52-1.15s.55-1.07.55-1.07.35-.48.68-1,.64-1,.77-1,0,.68-.13,1.3a9.67,9.67,0,0,1-.47,1.2,9.1,9.1,0,0,1-.84,1C58,100.32,57.46,100.69,57.36,100.6Z"/></g><path class="cls-68" d="M147.86,71c-2.31-6-.39-15.19,5.93-15.18,8.52,0,17.62,9,18.69,18.68.77,6.9-3.78,13-10.39,11.2C156.87,84.28,150,76.49,147.86,71Z"/><path class="cls-69" d="M148,69.3c-2-5.31.55-13.74,6.92-14.12,8.6-.52,17.24,7.06,17.72,15.77.35,6.21-4.62,12-11.18,10.8C156.28,80.81,149.81,74.18,148,69.3Z"/><path class="cls-70" d="M154.43,66.43c-2.28-3.35-2.49-9.17,1.29-10,5.11-1.13,11.89,3.12,14,8.86,1.48,4.09-.34,8.38-4.56,8.18C161.8,73.32,156.52,69.5,154.43,66.43Z"/><path class="cls-71" d="M161.49,61.92a7.25,7.25,0,0,0-3.17,1.81,23.32,23.32,0,0,1-1.58,1.83,2.31,2.31,0,0,1-3-.3,8,8,0,0,1-.92-3.49c-.17-2.17.48-4.81,2.91-5.34,3.4-.75,9.51.85,10.75,4.57C165,62.15,163.19,61.46,161.49,61.92Z"/><path class="cls-72" d="M158,66.39c1.88-2.74,3.81-3.18,6.83-3.38,1.2-.09,2.16-.67,3.19.05a4.5,4.5,0,0,1,1.65,2.23c1.48,4.09-.34,8.38-4.56,8.18a9.76,9.76,0,0,1-4.14-1.4c-1.18-.64-3.42-1.73-4-3a1.12,1.12,0,0,1,.2-1C157.56,67.48,157.68,66.9,158,66.39Z"/><path class="cls-73" d="M148,69.3c-1.5-4-.38-9.91,3.05-12.63a11.28,11.28,0,0,0,0,7.15c1.63,4.45,7.62,10.46,12.48,11.27a8.89,8.89,0,0,0,9.11-4.31,1,1,0,0,1,0,.17c.35,6.21-4.62,12-11.18,10.8C156.28,80.81,149.81,74.18,148,69.3Z"/><path class="cls-74" d="M148.69,68.93a11.67,11.67,0,0,1,.93-9.19,11.53,11.53,0,0,0-.23,7.67c1.66,4.57,7.86,10.68,12.94,11.45a9.61,9.61,0,0,0,9.88-5,9.77,9.77,0,0,1-10.58,6.54C156.55,79.61,150.35,73.49,148.69,68.93Z"/><path class="cls-75" d="M151.1,70.37a5.93,5.93,0,0,0,1.59-3.47A23.83,23.83,0,0,0,159,73.15c-2,.49-4.24,1.71-4.62,4.7a25.44,25.44,0,0,1-5.72-7.08A2.11,2.11,0,0,0,151.1,70.37Z"/><g class="cls-29"><path class="cls-76" d="M160.77,70.79c-.08.11.61.72,1.42,1.19a8.1,8.1,0,0,0,1.74.76,6.17,6.17,0,0,0,1.93,0c1-.15,1.78-.72,1.7-.84s-.91.18-1.76.14a6.18,6.18,0,0,1-1.66-.26,9.35,9.35,0,0,1-1.65-.42C161.66,71.07,160.84,70.67,160.77,70.79Z"/><path class="cls-77" d="M159.17,57.54c0,.13,1.52.6,2.89,1.41a16.18,16.18,0,0,1,2.53,1.86A15.6,15.6,0,0,1,166.83,63c1,1.22,1.73,2.67,1.86,2.62a7.35,7.35,0,0,0-1.3-3,10.44,10.44,0,0,0-5-4.26A7.23,7.23,0,0,0,159.17,57.54Z"/><path class="cls-78" d="M155,57.44c.06.13.41.1.72.11s.62,0,.62,0,.29-.08.6-.13.66-.09.7-.22-.27-.35-.63-.48a3.59,3.59,0,0,0-.75-.15,3.28,3.28,0,0,0-.71.27C155.23,57.06,155,57.32,155,57.44Z"/><path class="cls-79" d="M153.89,75.44c.1-.1-1.15-1.53-2.13-3.12a20,20,0,0,1-1.68-3.3,16.39,16.39,0,0,1-1.17-3.5c-.41-1.81-.27-3.71-.4-3.72a7.88,7.88,0,0,0-.28,3.83,15.28,15.28,0,0,0,.94,3.78,18.63,18.63,0,0,0,2,3.31A11.11,11.11,0,0,0,153.89,75.44Z"/><path class="cls-80" d="M158.89,79.25c.05-.13-.47-.47-1-.83s-1-.73-1-.73-.52-.28-1-.61-1-.68-1.12-.59.23.64.67,1.12a8,8,0,0,0,.93.9,8.24,8.24,0,0,0,1.18.53C158.21,79.26,158.85,79.37,158.89,79.25Z"/></g><path class="cls-81" d="M167.36,127.84c4.38-3.83,13.12-4.71,15.52,1,3.23,7.72-1.16,18.55-9.22,22.3-5.74,2.68-12.77.29-13.74-6.2C159.15,139.82,163.34,131.35,167.36,127.84Z"/><path class="cls-82" d="M166,124.6c4.29-3.71,13.05-4.31,15.65,1.52,3.51,7.87-.56,18.62-8.55,22.13-5.69,2.5-12.84-.12-14-6.68C158.13,136.38,162.07,128,166,124.6Z"/><path class="cls-83" d="M170.94,129.6c2.34-3.31,7.71-5.55,9.82-2.3,2.85,4.38,1.25,12.23-3.4,16.2-3.3,2.82-8,2.62-9.26-1.4C167.08,138.92,168.8,132.64,170.94,129.6Z"/><path class="cls-84" d="M177.64,134.63a7.18,7.18,0,0,0-2.8-2.33c-.71-.34-1.62-.44-2.27-.84a2.31,2.31,0,0,1-.78-2.93,7.92,7.92,0,0,1,3-2.08c2-.93,4.67-1.24,6,.85,1.89,2.92,2.54,9.2-.51,11.67C178.65,138,178.67,136.06,177.64,134.63Z"/><path class="cls-85" d="M172.24,133c3.22.8,4.31,2.46,5.56,5.21.5,1.1,1.39,1.79,1.07,3a4.48,4.48,0,0,1-1.51,2.33c-3.3,2.82-8,2.62-9.26-1.4a10.06,10.06,0,0,1-.14-4.37c.19-1.33.42-3.81,1.44-4.8a1.12,1.12,0,0,1,1-.17C171.06,132.89,171.64,132.8,172.24,133Z"/><path class="cls-86" d="M166,124.6c3.27-2.83,9.14-3.84,12.9-1.58a11.27,11.27,0,0,0-6.7,2.49c-3.6,3.09-7.13,10.81-6.17,15.64a8.87,8.87,0,0,0,7.22,7l-.15.08c-5.69,2.5-12.84-.12-14-6.68C158.13,136.38,162.07,128,166,124.6Z"/><path class="cls-87" d="M166.58,125.1a11.68,11.68,0,0,1,8.94-2.35,11.5,11.5,0,0,0-7.27,2.47c-3.69,3.16-7.24,11.11-6.18,16.14a9.63,9.63,0,0,0,8.17,7.49,9.75,9.75,0,0,1-9.83-7.61C159.34,136.21,162.89,128.26,166.58,125.1Z"/><path class="cls-88" d="M166.08,127.86a5.93,5.93,0,0,0,3.81.28,23.72,23.72,0,0,0-3.63,8.11c-1.16-1.69-3.09-3.36-6-2.67a25.38,25.38,0,0,1,4.62-7.85A2.1,2.1,0,0,0,166.08,127.86Z"/><g class="cls-29"><path class="cls-89" d="M169.08,137.06c-.13,0-.46.83-.62,1.75a8.31,8.31,0,0,0-.09,1.9,5.83,5.83,0,0,0,.68,1.8c.49.86,1.3,1.41,1.38,1.3s-.49-.78-.75-1.6a6.63,6.63,0,0,1-.34-1.64,10.06,10.06,0,0,1-.18-1.7C169.14,138,169.22,137.09,169.08,137.06Z"/><path class="cls-90" d="M180.93,130.92c-.13,0,0,1.63-.31,3.2a15.54,15.54,0,0,1-.85,3A15.94,15.94,0,0,1,178.5,140c-.78,1.38-1.89,2.55-1.8,2.65a7.08,7.08,0,0,0,2.38-2.27,14.33,14.33,0,0,0,1.62-2.92,14.48,14.48,0,0,0,.62-3.28A7.16,7.16,0,0,0,180.93,130.92Z"/><path class="cls-91" d="M179.56,127c-.09.1.05.41.15.71s.18.6.18.6.18.24.34.51.31.58.45.58.23-.37.22-.76a2.78,2.78,0,0,0-.12-.75,3,3,0,0,0-.5-.58C180,127.06,179.65,126.9,179.56,127Z"/><path class="cls-92" d="M162.31,132.26c.13.06,1-1.61,2.18-3.09a20.69,20.69,0,0,1,2.5-2.74,16.31,16.31,0,0,1,2.86-2.31c1.56-1,3.38-1.56,3.35-1.69a8,8,0,0,0-3.69,1.08,15.31,15.31,0,0,0-3.2,2.21,18.63,18.63,0,0,0-2.4,3.05A11,11,0,0,0,162.31,132.26Z"/><path class="cls-93" d="M160.5,138.27c.14,0,.27-.6.44-1.19s.35-1.14.35-1.14.08-.59.21-1.18.28-1.2.15-1.26-.51.45-.81,1a9.41,9.41,0,0,0-.51,1.19,8.68,8.68,0,0,0-.09,1.29C160.25,137.64,160.37,138.28,160.5,138.27Z"/></g><path class="cls-94" d="M79,75.87c-7.94,4.89-14.29,13-13.86,22.48a23.1,23.1,0,0,0,3.75,11.11c2.18,3.55,2.32,7.87,5,11.15,11.61,14.42,39.62-8,40.83-21.45.54-6-2-12-5.7-16.75-5.75-7.3-15.94-13-25.3-9A35.91,35.91,0,0,0,79,75.87Z"/><path class="cls-95" d="M78.07,75.68C70.66,80.32,64.74,88.06,65.14,97a22.06,22.06,0,0,0,3.5,10.54c2,3.37,2.16,7.47,4.63,10.58,10.83,13.69,36.94-7.64,38.07-20.35.51-5.72-1.86-11.43-5.32-15.9-5.36-6.92-14.85-12.29-23.59-8.5A33.69,33.69,0,0,0,78.07,75.68Z"/><path class="cls-96" d="M79.42,76.42c-5.65,3.25-10.16,8.67-9.86,14.94a14.74,14.74,0,0,0,2.67,7.39c1.55,2.36,1.65,5.23,3.53,7.41,8.26,9.59,26.07-7.49,26.93-16.39.39-4,.68-5.88-2-9-4.09-4.85-11.33-8.61-18-6A26.12,26.12,0,0,0,79.42,76.42Z"/><path class="cls-97" d="M78.43,86.92c3.23-1.25,6.25-2.75,9.68-3.4a17.41,17.41,0,0,1,6.31-.29A6.91,6.91,0,0,1,97.6,84.8a6.74,6.74,0,0,0,3.52,1.73c.69.14.91-2.46.87-2.81a5.46,5.46,0,0,0-1.25-3c-4.09-4.85-11.33-8.61-18-6a26.12,26.12,0,0,0-3.33,1.61,23.31,23.31,0,0,0-5.85,4.7c-1.34,1.52-4.62,6-.85,7,.9.23,2.34-.3,3.22-.52A19.58,19.58,0,0,0,78.43,86.92Z"/><path class="cls-98" d="M99.46,88.57a24,24,0,0,1-1.66-1.84,8,8,0,0,0-2.7-1.91c-2.36-.84-5.29-.25-7.64.26a52.18,52.18,0,0,0-7.52,2.77,34,34,0,0,1-4.29,1.38,16.67,16.67,0,0,1-4.09.3,1.4,1.4,0,0,0-1.1.73c-1.67,2.53.36,6.34,1.77,8.49,1.55,2.36,1.65,5.23,3.53,7.41,3.75,4.35,9.61,2.89,13.94.29a32.37,32.37,0,0,0,8.13-7.13,28.82,28.82,0,0,0,2.92-4.19c.8-1.4,1.87-3.17,1.24-4.83a2,2,0,0,0-1.22-1.22c-.21-.07-.44-.1-.66-.17A2,2,0,0,1,99.46,88.57Z"/><path class="cls-99" d="M106,81.88a28.55,28.55,0,0,0-3.36-3.62,21.6,21.6,0,0,1,2.82,12c-1,11.88-23.65,31.82-33,19-2.15-2.91-2.26-6.74-4-9.89a23.27,23.27,0,0,1-2.79-7.54A19.28,19.28,0,0,0,65.14,97a22.06,22.06,0,0,0,3.5,10.54c2,3.37,2.16,7.47,4.63,10.58,10.83,13.69,36.94-7.64,38.07-20.35C111.85,92.06,109.48,86.35,106,81.88Z"/><path class="cls-100" d="M110.26,97c-1.1,12.4-26.68,33.21-37.3,19.86-2.41-3-2.54-7-4.53-10.33a23.34,23.34,0,0,1-3.1-7.58A25.23,25.23,0,0,0,68,104.8c2,3.29,2.12,7.29,4.53,10.33,10.62,13.35,36.2-7.46,37.3-19.86a18.48,18.48,0,0,0-.36-5.35A19,19,0,0,1,110.26,97Z"/><path class="cls-101" d="M68.64,107.55c.09.15.15.31.24.46a5.89,5.89,0,0,1,1.94-1.92c-.77-2.17-1.23-4.5-2.33-6.55a8.44,8.44,0,0,1-.91,1.53,2.67,2.67,0,0,1-1.48,1.08A26.29,26.29,0,0,0,68.64,107.55Z"/><path class="cls-102" d="M105.58,104.94c-3,.42-4-2.12-4.13-5.23a39.26,39.26,0,0,1-9.18,9.19c5.19-.29,6,4.32,4,8.71a40.78,40.78,0,0,0,13-13.73A15.38,15.38,0,0,1,105.58,104.94Z"/><g class="cls-29"><path class="cls-103" d="M87.09,104.44c.13.13-1.32,1.59-3.34,2.15a7.32,7.32,0,0,1-2.83.27,7,7,0,0,1-1.3-.26,6.34,6.34,0,0,1-1.19-.59,6.27,6.27,0,0,1-2.05-2,7.91,7.91,0,0,1-.94-2.61c-.13-.73-.16-1.22-.07-1.24s.69,1.9,1.78,3.32A5.54,5.54,0,0,0,79,105a6,6,0,0,0,1,.4,6.82,6.82,0,0,0,1,.31,7.11,7.11,0,0,0,2.45,0C85.37,105.43,87,104.3,87.09,104.44Z"/></g><g class="cls-29"><path class="cls-104" d="M80.59,78.17c.07.17-.63.65-1.26,1.19s-1.2,1.12-1.2,1.12-.67.46-1.3,1-1.23,1.14-1.39,1,.19-.92.69-1.67a10.08,10.08,0,0,1,1.15-1.39,9.92,9.92,0,0,1,1.56-.89C79.65,78.2,80.53,78,80.59,78.17Z"/></g><g class="cls-29"><path class="cls-105" d="M97.26,78.64c-.08,0-.38-.32-1-.6s-1.53-.55-2.43-.86a23.16,23.16,0,0,0-2.48-.67,9,9,0,0,0-1.12-.17,8.31,8.31,0,0,0-1.1-.15,9.75,9.75,0,0,0-2.48.19c-1.82.36-3.65,1-3.72.85a9.91,9.91,0,0,1,3.49-1.75,10,10,0,0,1,2.72-.5,8.61,8.61,0,0,1,1.28,0,10,10,0,0,1,1.23.3,19.09,19.09,0,0,1,2.52,1,14,14,0,0,1,2.36,1.28C97.16,78.08,97.34,78.6,97.26,78.64Z"/></g><g class="cls-29"><path class="cls-106" d="M92.74,100.76c.25.26-.64,1.49-.64,1.49s-1.29.8-1.54.53.64-1.49.64-1.49S92.49,100.49,92.74,100.76Z"/></g><g class="cls-29"><path class="cls-107" d="M88.54,118.54c.14.33-5.41,2.33-5.5,2.16,0,0-.37,0-1,.07a8.94,8.94,0,0,1-2.1-.16,5.41,5.41,0,0,1-2-.81c-.46-.35-.69-.67-.63-.73s.38.1.87.27a6.16,6.16,0,0,0,1.85.34,10.71,10.71,0,0,0,2.73-.27C82.83,119.59,88.4,118.19,88.54,118.54Z"/></g><g class="cls-29"><path class="cls-108" d="M109.94,99.23c.16.06-1,3-2.64,5.69a40.7,40.7,0,0,1-3.73,5.09,40.8,40.8,0,0,1-4.75,4.16c-2.53,1.9-5.36,3.28-5.44,3.13s2.54-1.82,4.86-3.85a47.07,47.07,0,0,0,4.36-4.33,46.15,46.15,0,0,0,3.93-4.71C108.35,101.92,109.77,99.15,109.94,99.23Z"/></g><path class="cls-109" d="M143.84,67.23c-3.75-6.43-10.61-7.28-17.09-8.34a10.39,10.39,0,0,0-7.52,1.4c-7.17,5.16-11.36,13.92-7.65,22.76,3.9,9.3,14.61,11.64,22.85,7.25C142.26,86.14,149.05,76.17,143.84,67.23Z"/><path class="cls-110" d="M142.57,66.6c-3.61-5.95-10.21-6.74-16.45-7.72a10.35,10.35,0,0,0-7.24,1.3C112,65,108,73.07,111.53,81.25c3.75,8.61,14,10.78,22,6.72C141.05,84.11,147.58,74.88,142.57,66.6Z"/><path class="cls-111" d="M136.78,65.23c-2.48-3.36-7-3.8-11.33-4.35a8.5,8.5,0,0,0-5,.73c-4.75,2.69-7.53,7.26-5.07,11.88,2.59,4.85,9.69,6.07,15.16,3.78C135.74,75.1,140.24,69.89,136.78,65.23Z"/><path class="cls-112" d="M120.48,67.09c2.3-.4,4.75-1.3,7.12-1a8.3,8.3,0,0,1,4,2c.8.62,2.06,2,3.11,2.12,1.48.22,3.57-.92,3.54-2.25s-1.61-3.09-2.61-4c-2.74-2.38-6.73-2.66-10.17-3.1a8.5,8.5,0,0,0-5,.73c-2.37,1.34-3.11,2.6-4,5.11C116.1,67.78,120.22,67.13,120.48,67.09Z"/><path class="cls-113" d="M132,70.14a12.85,12.85,0,0,0-3.33-2.27c-1.91-.75-3.92-.23-5.85.16-1.58.32-5,.44-6.28,1.4-1.45,1.13-1.48,3.83-.47,5.15a9.25,9.25,0,0,0,4,2.91,14,14,0,0,0,10.49-.22c1.56-.65,4.57-1.87,5.06-3.64a.93.93,0,0,0-.11-.89c-.21-.23-.7-.14-.72.17,0-.48-2.16-2.25-2.58-2.62Z"/><path class="cls-114" d="M142.57,66.6c-3.61-5.95-10.21-6.74-16.45-7.72a10.35,10.35,0,0,0-7.24,1.3C112,65,108,73.07,111.53,81.25c3.75,8.61,14,10.78,22,6.72C141.05,84.11,147.58,74.88,142.57,66.6ZM131.23,79.51c-6.17,2.78-14.18,1.29-17.1-4.62-2.78-5.62.36-11.2,5.72-14.48a8.92,8.92,0,0,1,5.63-.89c4.86.67,10,1.22,12.8,5.31C142.18,70.51,137.1,76.86,131.23,79.51Z"/><path class="cls-115" d="M126.41,58.87c3.3.55,6.71,1,9.63,2.45a8.31,8.31,0,0,1,1.11,1.37,7.31,7.31,0,0,1,1.22,3.63,7.5,7.5,0,0,0-.84-1.74c-2.57-3.92-7.27-4.44-11.71-5.09a7.82,7.82,0,0,0-5.15.85c-3.91,2.51-6.52,6.42-6.13,10.64a9.09,9.09,0,0,1-.07-5.24,20.88,20.88,0,0,1,5.32-5.62A9.07,9.07,0,0,1,126.41,58.87ZM142.61,69c.71,6.52-4.25,12.88-9.82,15.86-7.26,3.9-16.68,1.82-20.11-6.44a16,16,0,0,1-.69-2.09,15.31,15.31,0,0,0,1.07,4c3.43,8.26,12.85,10.34,20.11,6.45C139.28,83.51,144.65,76.18,142.61,69Z"/><path class="cls-116" d="M127,59.72a24.3,24.3,0,0,1,7.85,2.07,1.74,1.74,0,0,1,.48-.93,47.43,47.43,0,0,0-9-2A7.83,7.83,0,0,1,127,59.72Z"/><path class="cls-117" d="M144.27,72c-.78,3.07-1.92,5.56-3.55,5.61s-2.45-1.41-3-3.27a16.67,16.67,0,0,1-6.51,5.17l-.3.12c2,.46,3.54,1.31,3.36,2.9-.31,2.62-4.82,5.53-8.28,7.39a18,18,0,0,0,7.5-2C139.43,84.94,144.7,78.59,144.27,72Z"/><path class="cls-118" d="M116.11,77.6a10,10,0,0,1-3-5.89,2.35,2.35,0,0,1-1.2,1.36,1.59,1.59,0,0,1-1.55-.42,15.11,15.11,0,0,0,1.12,8.6c.06.14.14.26.2.4a4,4,0,0,1,1.36-3.16A5.51,5.51,0,0,1,116.11,77.6Z"/><g class="cls-29"><path class="cls-119" d="M126.57,76.59c0,.18-1.46.55-3,.62a12.09,12.09,0,0,1-3.14-.28,8.78,8.78,0,0,1-2.79-1.57c-1.27-1-1.87-2.56-1.69-2.63s1,1.17,2.24,1.88a8.86,8.86,0,0,0,2.6,1.06,13.49,13.49,0,0,0,2.81.61C125,76.45,126.55,76.41,126.57,76.59Z"/><path class="cls-120" d="M132.51,74.59c.13.13-.24.68-.73,1.13a6.81,6.81,0,0,1-1.06.79,6.3,6.3,0,0,1-1.3.26c-.66.07-1.31,0-1.33-.2s.55-.42,1.08-.69,1-.57,1-.57.55-.16,1.1-.38S132.39,74.45,132.51,74.59Z"/><path class="cls-121" d="M125.12,62.06c0,.18-.93.27-1.78.46a11,11,0,0,0-1.63.49,7.42,7.42,0,0,0-1.59.51c-.78.34-1.45.93-1.59.83s.3-1,1.09-1.61a6.52,6.52,0,0,1,1.71-1,8.19,8.19,0,0,1,1.94-.15C124.23,61.64,125.13,61.88,125.12,62.06Z"/><path class="cls-122" d="M135.26,83.47c.13.13-1.16,1.55-2.81,2.53a15.52,15.52,0,0,1-3.51,1.57,14.67,14.67,0,0,1-3.83.32,10.43,10.43,0,0,1-2.59-.43c-.69-.22-1.09-.49-1.06-.57s.49,0,1.16.07a14.61,14.61,0,0,0,2.48,0,16.16,16.16,0,0,0,3.51-.66,17.62,17.62,0,0,0,3.4-1.12C133.67,84.46,135.13,83.34,135.26,83.47Z"/><path class="cls-123" d="M141,78.79c.14.11-.11.68-.42,1.22a11.11,11.11,0,0,1-.7,1,10.16,10.16,0,0,1-1,.71c-.53.32-1.1.57-1.22.43s.24-.64.59-1.12l.71-.94.93-.71C140.39,79,140.89,78.68,141,78.79Z"/></g><path class="cls-124" d="M154,119.9c-2.85-8.07-10.36-14.35-18.61-14.87s-16.48,6.57-19.81,14.06c-3.42,7.69-9.11,18.22-3.69,26.37a16,16,0,0,0,5.78,4.92,30.19,30.19,0,0,1,3.16,1.27c2.27,1.45,2.39,4.88,4.8,6.5,8.47,5.68,18-4.86,22.76-11.32C154,139.2,157.32,129.36,154,119.9Z"/><path class="cls-125" d="M154,119.11c-2.85-7.65-10.36-13.59-18.61-14.08s-16.48,6.22-19.81,13.31c-3.42,7.28-9.11,17.25-3.69,25a15.8,15.8,0,0,0,5.78,4.66,29.85,29.85,0,0,1,3.16,1.2c2.27,1.37,2.39,4.62,4.8,6.16,8.47,5.37,18-4.61,22.76-10.72C154,137.38,157.32,128.06,154,119.11Z"/><path class="cls-126" d="M152,125a15.83,15.83,0,0,0-13.42-10.16c-6-.36-11.89,4.48-14.29,9.6s-6.57,12.45-2.66,18a11.37,11.37,0,0,0,4.17,3.36,22.32,22.32,0,0,1,2.28.87c1.64,1,1.72,3.33,3.46,4.44,6.11,3.88,13-3.32,16.42-7.73C151.94,138.2,154.37,131.47,152,125Z"/><path class="cls-127" d="M126.18,139.44c3.95.8,7.26-1.79,11-2.33s7.61,1.36,11.34.37c5.09-1.34,4.88-8.54,3.42-12.46a15.83,15.83,0,0,0-13.42-10.16c-6-.36-11.89,4.48-14.29,9.6-1.26,2.69-3.26,5.44-3.43,8.54C120.65,136.37,123,138.8,126.18,139.44Z"/><path class="cls-128" d="M136.56,138.65c-4.43,1-8.05,3.52-12.65,1.55-1-.45-2.13-1.62-2.86-.09a2.32,2.32,0,0,0,.54,2.36,11.37,11.37,0,0,0,4.17,3.36,22.32,22.32,0,0,1,2.28.87c1.64,1,1.72,3.33,3.46,4.44,6.11,3.88,13-3.32,16.42-7.73.59-.77,2.42-2.45,2.09-3.39s-1.61-1.15-2.46-1.08a18.89,18.89,0,0,1-3.68-.13C141.45,138.54,139,138.11,136.56,138.65Z"/><path class="cls-129" d="M130.17,153.53c-1.94-1.27-2-4-3.86-5.12a24.19,24.19,0,0,0-2.53-1,12.71,12.71,0,0,1-4.65-3.88c-4.35-6.41.22-14.7,3-20.76,2.68-5.9,9.26-11.49,15.92-11.07s12.65,5.35,15,11.71.6,13.12-2.81,18.69c4.46-6.8,6.79-15,3.83-23-2.85-7.65-10.36-13.59-18.61-14.08s-16.48,6.22-19.81,13.31c-3.42,7.28-9.11,17.25-3.69,25a15.91,15.91,0,0,0,5.78,4.66,29.85,29.85,0,0,1,3.16,1.2c2.27,1.37,2.39,4.62,4.8,6.16,5.66,3.59,11.8.32,16.67-4.06C138.6,154.31,134.23,156.2,130.17,153.53Z"/><path class="cls-130" d="M142.73,151.17c-4.78,4.14-10.69,7.06-16.14,3.6-2.42-1.53-2.53-4.79-4.8-6.15a28.61,28.61,0,0,0-3.16-1.21,15.92,15.92,0,0,1-5.79-4.66c-5.41-7.72.27-17.69,3.69-25a25.29,25.29,0,0,1,7.54-9.11,24.68,24.68,0,0,0-6,7.86c-3.42,7.28-9.11,17.25-3.69,25a15.78,15.78,0,0,0,5.79,4.67,30.53,30.53,0,0,1,3.15,1.2c2.27,1.37,2.39,4.62,4.8,6.15C133,156.61,138.26,154.6,142.73,151.17ZM155,123.25a18.18,18.18,0,0,0-.76-2.85c-2.3-6.36-8.32-11.3-15-11.72-3.93-.24-7.82,1.61-10.91,4.38a14.5,14.5,0,0,1,9.38-3.12c6.63.41,12.65,5.35,14.94,11.71s.6,13.12-2.81,18.7C153.29,135.21,155.44,129.27,155,123.25Z"/><path class="cls-131" d="M128,150.61a5.09,5.09,0,0,0-1.72-2.2,24.19,24.19,0,0,0-2.53-1,13.26,13.26,0,0,1-4.09-3.15,4.23,4.23,0,0,1-.51.44,5.67,5.67,0,0,1-5,1.05,16.6,16.6,0,0,0,3.45,2.22,29.85,29.85,0,0,1,3.16,1.2A6.56,6.56,0,0,1,123,152,9.36,9.36,0,0,1,128,150.61Z"/><path class="cls-132" d="M144.71,108a9.72,9.72,0,0,1-3.55,4.21A17.51,17.51,0,0,1,149,117.1a10.68,10.68,0,0,1,1.87-3.49A22.45,22.45,0,0,0,144.71,108Z"/><path class="cls-133" d="M115.56,118.34c-.92,2-2,4.12-3,6.37,1.61-1.41,3.4-2.48,5.14-2.43,1.29,0,2.36,1.28,3.15,3.16.43-.93.85-1.82,1.23-2.67a20.37,20.37,0,0,1,3.17-4.84,13.07,13.07,0,0,1-4.28-.06c-2-.51-2.32-2.49-2-4.73A23.71,23.71,0,0,0,115.56,118.34Z"/><path class="cls-134" d="M112.55,140.78a3.68,3.68,0,0,1-1-1.64,11,11,0,0,1-.81-4.23,18.64,18.64,0,0,1,.51-4.27c.25-1.14.48-1.88.48-1.88a45.9,45.9,0,0,1,2.31-5.71c1.33-2.82,3.41-5.17,3.56-5s-1.64,2.57-2.71,5.4a55.48,55.48,0,0,0-1.91,5.72s-.25.71-.56,1.79a20.49,20.49,0,0,0-.76,4,12.58,12.58,0,0,0,.37,4C112.27,140.05,112.63,140.72,112.55,140.78Zm3.84,3.83-.5-.71-.69-.54c-.35-.28-.71-.61-.87-.52s-.09.58.11,1.06a5.22,5.22,0,0,0,.5.9,4.6,4.6,0,0,0,.88.54c.46.22,1,.32,1.05.16S116.66,145,116.39,144.61Zm14.46-25.55a23.07,23.07,0,0,0-3.64,3.18,22.23,22.23,0,0,0-2.58,4.09c-1.06,2.18-1.54,4.54-1.36,4.58s1-2.17,2.18-4.14a25.92,25.92,0,0,1,2.76-3.68,25.46,25.46,0,0,1,3.2-3.29c1.76-1.51,3.83-2.63,3.76-2.8S132.84,117.67,130.85,119.06Zm10.75-2a8.12,8.12,0,0,0-1.36-.37,8,8,0,0,0-1.39.2c-.68.17-1.31.47-1.27.65s.7.2,1.34.28,1.24.18,1.24.18.62,0,1.26,0,1.3.06,1.36-.11S142.26,117.28,141.6,117ZM136.48,150a6.91,6.91,0,0,1-1.94-.27,7.37,7.37,0,0,1-1.89-.56c-.92-.42-1.66-1.18-1.81-1.08s.37,1.14,1.32,1.86a4.69,4.69,0,0,0,4.44,1c1.17-.25,2.08-1,2-1.14S137.49,150,136.48,150Zm14-13.95a17.14,17.14,0,0,1-1.53,2.55c-1.24,1.8-2.65,3.46-2.65,3.46s-1.27,1.77-2.71,3.42-3,3.19-2.91,3.33,1.94-1.15,3.57-2.69a35.49,35.49,0,0,0,3.09-3.25,37.68,37.68,0,0,0,2.4-3.78A12.13,12.13,0,0,0,151,136.2c.21-.83.19-1.41.11-1.42S150.84,135.3,150.5,136Z"/><path class="cls-135" d="M99.93,133.24c-5-5.18-15.43-6.29-22-4.86C70.45,130,63.18,139,67.91,147c5.8,9.86,19.91,13.36,29.19,7C103.71,149.53,106,139.51,99.93,133.24Zm-12.18,1.3h.08S87.8,134.54,87.75,134.54Z"/><path class="cls-136" d="M98.49,132.66c-4.78-4.63-14.77-5.62-21-4.34-7.18,1.47-14.14,9.45-9.61,16.63,5.54,8.8,19.05,11.92,27.93,6.26C102.11,147.18,104.27,138.25,98.49,132.66Zm-11.66,1.15h0Z"/><path class="cls-137" d="M90.51,137.17c-3.28-3.17-10.13-3.85-14.42-3-4.93,1-9.71,6.48-6.6,11.4,3.8,6,13.07,8.18,19.16,4.3C93,147.14,94.48,141,90.51,137.17Zm-8,.79h0Z"/><path class="cls-138" d="M82.65,140.92c2.34-.43,4.77,0,7.09-.6s1.43-2.76-.07-3.88a12.41,12.41,0,0,0-4.16-1.87,20.55,20.55,0,0,0-9.42-.37c-3.72.76-9.55,5.36-6.89,9.64C72.09,148.51,79.12,141.56,82.65,140.92Z"/><path class="cls-139" d="M85.7,142.4c-2.63.1-5,1.25-7.31,2.43-.7.36-1.5.58-2.18,1s-1.1.78-1.69,1.11-1.12.42-1.29,1a1.14,1.14,0,0,0,.17.89c1.14,1.92,3.86,2.59,5.93,2.9a13.57,13.57,0,0,0,9.32-1.77c2.15-1.37,4.84-4.7,3.89-7.45a1.2,1.2,0,0,0-.51-.71,1.38,1.38,0,0,0-.78-.1c-.94.08-1.79.4-2.71.53S86.65,142.36,85.7,142.4Z"/><path class="cls-140" d="M98.49,132.66c-4.78-4.63-14.77-5.62-21-4.34-6.74,1.38-13.28,8.49-10.32,15.29-1-5.08,3.88-10,8.91-11s13.31-.23,17.23,3.55c4.73,4.59,3,11.91-2.23,15.21A16,16,0,0,1,81,153.58a20.08,20.08,0,0,0,14.8-2.37C102.11,147.18,104.27,138.25,98.49,132.66Z"/><path class="cls-141" d="M78.35,132.18a24.42,24.42,0,0,0-5.57.4,12.19,12.19,0,0,0-4.63,2.1,10.62,10.62,0,0,0-1.64,4.26,12.19,12.19,0,0,1,8.26-6.36A22.63,22.63,0,0,1,78.35,132.18Z"/><path class="cls-142" d="M94.5,151.21c6.33-4,8.49-13,2.71-18.55-3.5-3.39-9.77-4.8-15.35-4.83l-.61,0c5.2.24,10.76,1.7,14,4.81,5.78,5.59,3.62,14.52-2.71,18.55A18.49,18.49,0,0,1,83.83,154c.32,0,.63.06,1,.07A18.8,18.8,0,0,0,94.5,151.21Z"/><path class="cls-143" d="M100.47,135.22c-.29,1.3-.88,2.29-2,2.36a15.65,15.65,0,0,1-4.39-.6,8.89,8.89,0,0,1,1.74,7.67c2-1.11,3.88-1.3,4.75,1.25A11.35,11.35,0,0,0,100.47,135.22Z"/><path class="cls-144" d="M74.8,132.93a11.06,11.06,0,0,1,1.25-.35,25.68,25.68,0,0,1,8.31-.15c-1.18-1.31-1.59-3,.91-4.54a30.08,30.08,0,0,0-7.81.43,14,14,0,0,0-3.29,1.15A2.37,2.37,0,0,1,74.8,132.93Z"/><path class="cls-145" d="M77.05,149.68a7.84,7.84,0,0,1-2.88-.79,11.47,11.47,0,0,1-1.86-.95,8.21,8.21,0,0,1-.79-.56,7.38,7.38,0,0,1-1.76-2.58c-.65-1.5-.26-3.1-.08-3a10,10,0,0,0,.84,2.67,7.13,7.13,0,0,0,1.78,2,12.61,12.61,0,0,0,2.25,1.66A12.79,12.79,0,0,1,77.05,149.68Zm6.45.66c-.62,0-1.23-.06-1.23-.06s-.6.07-1.23.09-1.27,0-1.32.13.54.5,1.2.7a7.32,7.32,0,0,0,1.37.27,7.48,7.48,0,0,0,1.35-.3c.66-.22,1.25-.58,1.19-.73S84.13,150.35,83.5,150.34Zm15.8-14.45a12.07,12.07,0,0,0-2-2.74,13,13,0,0,0-2.8-1.84,6.28,6.28,0,0,0-3.21-.79c0,.16,1.49.66,2.8,1.53a13.81,13.81,0,0,1,2.38,2,12.65,12.65,0,0,1,2,2.3c.9,1.28,1.38,2.81,1.54,2.77A5.89,5.89,0,0,0,99.3,135.89Zm.49,9.2a7.13,7.13,0,0,0,.68-1.24,7.34,7.34,0,0,0,.12-1.42c0-.71-.21-1.38-.37-1.37s-.28.67-.47,1.27-.42,1.18-.42,1.18-.11.6-.29,1.21-.44,1.21-.31,1.31S99.39,145.67,99.79,145.09Z"/><g class="cls-146"><path class="cls-147" d="M54.33,134.5c11.45-2.19,7.8-21.4-3.67-19.21s-7.8,21.4,3.67,19.21Z"/></g><path class="cls-148" d="M53.08,131.77c10.52-2,7.42-18.36-3.12-16.35s-7.42,18.36,3.12,16.35Z"/><path class="cls-149" d="M50.11,126.63c-7.86,1.61-7.68-9.08-1.94-10.17s7.68,9.08,1.94,10.17Z"/><path class="cls-150" d="M50.49,119.27c.48-.22,1.47-.35,1.54-1s-.84-1.25-1.38-1.5a4.07,4.07,0,0,0-2.48-.27,4.91,4.91,0,0,0-3.23,2.29c-.57.93-1.41,2.92-.57,3.88.59.68,2.41-.87,2.93-1.25A18.75,18.75,0,0,1,50.49,119.27Z"/><path class="cls-151" d="M51.91,120.24A17.14,17.14,0,0,0,48,122.53a19,19,0,0,1-2,1.21c-.47.24-1.26.41-1.07,1.13.52,2,3.57,2.08,5.14,1.76a4.09,4.09,0,0,0,3.06-2.5,5.82,5.82,0,0,0,.4-2c0-.6.18-1.52-.46-1.84A1.4,1.4,0,0,0,51.91,120.24Z"/><path class="cls-152" d="M50.14,115.4c6.23,1.2,7.36,11.62-.1,13a6,6,0,0,1-6.1-2.15,7.71,7.71,0,0,0,9.14,5.47C63.54,129.77,60.53,113.61,50.14,115.4Z"/><path class="cls-153" d="M56.59,117.79c2.84,4,1.77,10.83-4.79,12.09A7.32,7.32,0,0,1,45,128a7.23,7.23,0,0,0,7.62,2.84C59.72,129.48,60.38,121.6,56.59,117.79Z"/><path class="cls-154" d="M58.8,120.11c0,1.52-.41,2.68-1.47,2.83a3.48,3.48,0,0,1-2.13-.45,6.29,6.29,0,0,1-1.44,3.85A2.87,2.87,0,0,1,56.62,128a7.1,7.1,0,0,1,.59,1.71C59.79,127.28,60.17,123.29,58.8,120.11Z"/><path class="cls-155" d="M45.62,119.08c.11.08-.27.76-.43,1.49A6.46,6.46,0,0,0,45,122a6.06,6.06,0,0,0,0,1.46c.07.74.36,1.46.25,1.53s-.66-.56-.93-1.38a5.59,5.59,0,0,1-.29-1.67,5.78,5.78,0,0,1,.49-1.63C44.9,119.56,45.52,119,45.62,119.08Zm1.77-2.37a2.48,2.48,0,0,0-.77.29,2.63,2.63,0,0,0-.46.68c-.17.39-.17.79,0,.83s.36-.23.61-.42a3.27,3.27,0,0,1,.5-.32,3.52,3.52,0,0,1,.42-.42c.24-.2.55-.35.54-.49S47.8,116.64,47.39,116.71Zm9.38,10.74a7,7,0,0,1-1.1,1,6.23,6.23,0,0,1-.55.42,8.4,8.4,0,0,1-1.85,1.21,20.59,20.59,0,0,1-2.18.64,3.24,3.24,0,0,0,2.42,0,7.59,7.59,0,0,0,2.21-1.08s.24-.2.56-.52a7.1,7.1,0,0,0,1.07-1.33,3.88,3.88,0,0,0,.56-2.36C57.76,125.42,57.43,126.61,56.77,127.45Zm1.21-4s-.06,1.13.15,1.24.86-1.05.82-1.07-.1-1.32-.41-1.29S58,123.43,58,123.41Z"/><g class="cls-146"><path class="cls-156" d="M143.52,56.21c-6.9,9.39-22.68-2.17-15.76-11.58s22.67,2.17,15.76,11.58Z"/></g><path class="cls-157" d="M141.59,53.91c-6.34,8.63-19.76-1.21-13.41-9.85s19.76,1.2,13.41,9.85Z"/><path class="cls-158" d="M138.23,49c-3.46,4.71-11.82-1.41-8.35-6.13s13.18-.28,8.35,6.13Z"/><path class="cls-159" d="M131.42,46.19c-.4.34-.94,1.19-1.6.94s-.76-1.29-.76-1.89a4.08,4.08,0,0,1,.82-2.35A4.87,4.87,0,0,1,133.34,41c1.09-.11,3.24,0,3.75,1.15.36.83-1.83,1.81-2.39,2.11A19.14,19.14,0,0,0,131.42,46.19Z"/><path class="cls-160" d="M131.69,47.89a17.47,17.47,0,0,1,3.73-2.52,18.11,18.11,0,0,0,2-1.27c.42-.33.91-1,1.48-.48,1.58,1.33.35,4.12-.62,5.4a4.08,4.08,0,0,1-3.57,1.68,5.37,5.37,0,0,1-2-.51c-.56-.25-1.46-.49-1.47-1.2A1.38,1.38,0,0,1,131.69,47.89Z"/><path class="cls-161" d="M128.08,44.21c-1.6,6.14,7.33,11.65,11.82,5.53a6,6,0,0,0,.69-6.44,7.74,7.74,0,0,1,1,10.61C135.29,62.49,122,52.82,128.08,44.21Z"/><path class="cls-162" d="M127.46,51.06c2.42,4.3,9,6.26,13,.88a7.27,7.27,0,0,0,1.22-7,7.21,7.21,0,0,1-.7,8.1C136.66,58.92,129.27,56.12,127.46,51.06Z"/><path class="cls-163" d="M128.6,54.06c1.39.63,2.6.78,3.19-.12a3.41,3.41,0,0,0,.51-2.1,6.42,6.42,0,0,0,4.1.35,2.87,2.87,0,0,0,.28,3.3A7,7,0,0,0,138,56.76C134.66,58,130.88,56.66,128.6,54.06Z"/><path class="cls-164" d="M134.94,41.28a5.59,5.59,0,0,1,1.68.26,5.48,5.48,0,0,1,1.39,1c.61.59,1,1.36.84,1.43s-.64-.51-1.28-.89a6.75,6.75,0,0,0-1.32-.61,6.65,6.65,0,0,0-1.37-.48c-.73-.17-1.5-.12-1.54-.25S134.09,41.28,134.94,41.28Zm-4.7,1.8c.12.07.39-.14.67-.27a3.42,3.42,0,0,1,.56-.21,3.9,3.9,0,0,1,.51-.31c.27-.15.61-.23.63-.37s-.34-.3-.76-.32a2.44,2.44,0,0,0-.81.12,2.31,2.31,0,0,0-.59.57C130.2,42.63,130.12,43,130.24,43.08Zm3.6,12.49a3.89,3.89,0,0,0,2.37.5,6.65,6.65,0,0,0,1.66-.39c.43-.15.71-.28.71-.28a7.62,7.62,0,0,0,1.93-1.54,3.25,3.25,0,0,0,1-2.18c-.12,0-.63,1-1.52,1.69a8.15,8.15,0,0,1-1.89,1.15s-.23.14-.61.32a6.48,6.48,0,0,1-1.42.54C135.06,55.62,133.85,55.4,133.84,55.57Zm-3.15-.81c-.17.27,1,1,1,.93s1.33,0,1.32-.28-1.07-.64-1.05-.67S130.82,54.56,130.69,54.76Z"/><g class="cls-146"><path class="cls-165" d="M166.06,105.68c-8.38,11.4-27.52-2.63-19.13-14.05s27.52,2.63,19.13,14.05Z"/></g><path class="cls-166" d="M149.79,106.23c-10.39-7.8,1.72-24,12.13-16.14s-1.73,24-12.13,16.14Z"/><path class="cls-167" d="M155.77,102.22c-5.68-4.26,1.87-14.32,7.55-10s.16,16-7.55,10Z"/><path class="cls-168" d="M159.29,94c-.41-.49-1.43-1.16-1.12-1.95s1.58-.91,2.3-.89a4.92,4.92,0,0,1,2.85,1,6,6,0,0,1,2.29,4.22c.12,1.32,0,3.94-1.44,4.54-1,.42-2.17-2.25-2.54-2.93A23,23,0,0,0,159.29,94Z"/><path class="cls-169" d="M157.23,94.29a21.77,21.77,0,0,1,3,4.57,20.33,20.33,0,0,0,1.51,2.38c.39.52,1.15,1.12.56,1.8-1.63,1.9-5,.37-6.54-.82a5,5,0,0,1-2-4.36,6.8,6.8,0,0,1,.65-2.42c.31-.67.61-1.76,1.48-1.76A1.71,1.71,0,0,1,157.23,94.29Z"/><path class="cls-170" d="M161.74,90c-7.43-2-14.23,8.74-6.87,14.27a7.28,7.28,0,0,0,7.8.92c-3.17,3.26-8.2,4.61-12.88,1.08C139.46,98.47,151.37,82.47,161.74,90Z"/><path class="cls-171" d="M153.43,89.12c-5.25,2.89-7.71,10.87-1.24,15.73a8.87,8.87,0,0,0,8.43,1.58,8.77,8.77,0,0,1-9.82-1C143.78,100.19,147.27,91.26,153.43,89.12Z"/><path class="cls-172" d="M149.78,90.47c-.78,1.68-1,3.15.1,3.87a4.14,4.14,0,0,0,2.55.65,7.73,7.73,0,0,0-.49,5,3.47,3.47,0,0,0-4,.3,8.12,8.12,0,0,0-1.55,1.55C144.88,97.76,146.59,93.2,149.78,90.47Z"/><path class="cls-173" d="M165.21,98.33a6.93,6.93,0,0,1-.35,2,6.73,6.73,0,0,1-1.2,1.68c-.73.74-1.67,1.14-1.75,1s.62-.77,1.09-1.54a7.71,7.71,0,0,0,.76-1.6,7.49,7.49,0,0,0,.61-1.66c.21-.87.16-1.82.32-1.85S165.22,97.29,165.21,98.33Zm-2.14-5.73c-.08.14.18.48.33.82a4.17,4.17,0,0,1,.24.69,4.1,4.1,0,0,1,.38.61c.17.34.27.75.43.78s.38-.41.4-.92a1.6,1.6,0,0,0-.82-1.71C163.63,92.56,163.15,92.46,163.07,92.6Zm-15.19,4.2a4.72,4.72,0,0,0-.64,2.87,7.77,7.77,0,0,0,.45,2,6.87,6.87,0,0,0,2.17,3.23c1.1,1.07,2.6,1.45,2.64,1.28s-1.21-.78-2-1.87a9.39,9.39,0,0,1-1.37-2.3s-.17-.29-.39-.75a8.37,8.37,0,0,1-.63-1.72C147.8,98.29,148.08,96.82,147.88,96.8Zm1-3.81c-.32-.21-1.18,1.15-1.14,1.18s0,1.61.33,1.61.79-1.29.82-1.27S149.14,93.16,148.9,93Z"/><g class="cls-146"><path class="cls-174" d="M145.77,169.45c-6.86-9.43,8.95-20.94,15.82-11.49s-9,20.94-15.82,11.49Z"/></g><path class="cls-175" d="M146.71,166.72c-6.29-8.67,7.16-18.47,13.47-9.79s-7.16,18.46-13.47,9.79Z"/><path class="cls-176" d="M152.39,165c-3.43-4.73,4.94-10.83,8.38-6.09S157,171.55,152.39,165Z"/><path class="cls-177" d="M157.16,159.37c-.2-.48-.84-1.26-.42-1.8s1.47-.34,2-.15a4,4,0,0,1,2,1.49,4.86,4.86,0,0,1,.79,3.88c-.23,1.07-1,3.1-2.24,3.22-.9.1-1.17-2.29-1.29-2.91A18.9,18.9,0,0,0,157.16,159.37Z"/><path class="cls-178" d="M155.46,159.11a18,18,0,0,1,1.27,4.33,17.68,17.68,0,0,0,.61,2.24c.18.5.63,1.16,0,1.55-1.74,1.11-4-.92-5-2.23a4.14,4.14,0,0,1-.52-3.92,5.77,5.77,0,0,1,1.1-1.74c.41-.45.91-1.24,1.59-1A1.42,1.42,0,0,1,155.46,159.11Z"/><path class="cls-179" d="M160.06,156.79c-5.37-3.39-13.32,3.44-8.86,9.58a6,6,0,0,0,5.92,2.61,7.72,7.72,0,0,1-10.41-2.26C140.45,158.1,153.71,148.38,160.06,156.79Z"/><path class="cls-180" d="M153.72,154.12c-4.84,1-8.71,6.69-4.78,12.09a7.3,7.3,0,0,0,6.26,3.28,7.21,7.21,0,0,1-7.5-3.13C143.44,160.5,148.35,154.31,153.72,154.12Z"/><path class="cls-181" d="M150.52,154.3c-1,1.13-1.54,2.24-.86,3.07a3.46,3.46,0,0,0,1.85,1.13,6.31,6.31,0,0,0-1.58,3.79,2.87,2.87,0,0,0-3.23-.73,6.9,6.9,0,0,0-1.6.84C144.89,158.86,147.35,155.68,150.52,154.3Z"/><path class="cls-182" d="M160.77,164.22a5.5,5.5,0,0,1-.76,1.52,5.7,5.7,0,0,1-1.36,1c-.75.4-1.59.5-1.61.36s.67-.45,1.23-.94a6.54,6.54,0,0,0,1-1.08,6.18,6.18,0,0,0,.88-1.16c.38-.64.57-1.39.71-1.39S161,163.41,160.77,164.22Zm-.29-5c-.1.09,0,.42.05.73a2.88,2.88,0,0,1,0,.59,3.48,3.48,0,0,1,.15.58c0,.31,0,.65.15.72s.4-.24.54-.63a2.52,2.52,0,0,0,.13-.81,2.44,2.44,0,0,0-.36-.74C160.92,159.3,160.57,159.1,160.48,159.19Zm-13-.37a4,4,0,0,0-1.2,2.11,6.63,6.63,0,0,0-.13,1.7c0,.46.05.77.05.77a7.61,7.61,0,0,0,.87,2.3c.62,1.11,1.71,1.77,1.78,1.64a15.5,15.5,0,0,1-1.15-2,7.91,7.91,0,0,1-.52-2.14,7,7,0,0,1-.13-.69A7.13,7.13,0,0,1,147,161C147.07,160,147.64,158.89,147.49,158.82Zm1.72-2.75c-.2-.24-1.2.62-1.17.66s-.44,1.25-.14,1.34.94-.83,1-.8S149.36,156.26,149.21,156.07Z"/><path class="cls-183" d="M144.44,181.36c-.22-6.66-6.14-11.6-12.66-12.44-9.16-1.17-16.66-.38-24.64,4.34-5.17,3.06-9.24,8.43-7.28,14.35a76.48,76.48,0,0,0,44.58-6.25Z"/><path class="cls-184" d="M129.78,169.44c-9.16-1.06-16.66-.35-24.64,3.92-6.28,3.35-11,9.77-5.17,16.43,4.92,5.66,12.55,8,19.88,7.24,7-.73,17.19-3.74,20.94-10.25C145.93,177.84,138.36,170.44,129.78,169.44Z"/><path class="cls-185" d="M129,178.29c-1-.08-1.92-.1-2.77-.09a44.29,44.29,0,0,0-12.25,2c-3.87,1.15-8.39,3-10.64,6.53-4.72,7.5,12,9.69,16.09,9.25a33.94,33.94,0,0,0,13.65-4.25,17.14,17.14,0,0,0,5.39-4.81c2-2.72.6-5.48-2.2-6.69A22.33,22.33,0,0,0,129,178.29Z"/><path class="cls-186" d="M119.44,195.94a38.82,38.82,0,0,0,5.24-.92,7.52,7.52,0,0,0,3.95-2.65c1.16-1.83-.52-3.93-1.6-5.32a4.45,4.45,0,0,1-1.08-3.38c.1-1.78.61-3.29-1-4.52a5.27,5.27,0,0,0-3.5-.75,32.39,32.39,0,0,0-7.41,1.76c-3.87,1.15-8.39,3-10.64,6.53C98.63,194.19,115.3,196.38,119.44,195.94Z"/><path class="cls-187" d="M136.28,180.19a23.36,23.36,0,0,0-5.23-1.64,3.61,3.61,0,0,0-3.24,1c-.56.78-.42,2.61-.39,3.57a6.26,6.26,0,0,0,1.62,4.05c.58.8,1.57,1.7,1.6,2.77,0,.44-.82,1.58-.67,1.85.61,1.15,4.43-1,5-1.41a16.5,16.5,0,0,0,3.49-3.54C140.44,184.16,139.08,181.4,136.28,180.19Z"/><path class="cls-188" d="M107.33,180.8c8-4.26,15.48-5,24.64-3.92a15.82,15.82,0,0,1,10.39,5.39c.87-6.82-5.49-12-12.58-12.83-9.16-1.06-16.66-.35-24.64,3.92-6.17,3.3-10.77,9.56-5.43,16.09C100.45,185.88,103.6,182.8,107.33,180.8Z"/><path class="cls-189" d="M106.46,176.26c7.64-4,14.8-4.62,23.57-3.63,5.3.59,10.16,3.67,11.64,8-.65-5.21-6.08-9-12-9.69-8.77-1-15.93-.32-23.57,3.63-4.91,2.55-8.76,7-7,11.89C98.61,182.24,102.12,178.5,106.46,176.26Z"/><path class="cls-190" d="M123.86,176.46c-2.52-1.68-3.93-3.57-1.38-5.11a39.09,39.09,0,0,1,4.16-2.2,38.67,38.67,0,0,0-16.74,2.07c2.31.09,4.64.57,5.53,2,.68,1.1-.36,3-2,5A36.12,36.12,0,0,1,123.86,176.46Z"/><path class="cls-191" d="M119.43,171.65c0,.19-2.69.46-5.25,1.22a33.89,33.89,0,0,0-5,1.9,33.93,33.93,0,0,0-4.73,2.44c-2.27,1.41-4.27,3.23-4.41,3.1s1.67-2.21,3.88-3.87a30,30,0,0,1,4.72-2.87A29.35,29.35,0,0,1,114,172C116.67,171.42,119.43,171.48,119.43,171.65Zm4.25-.66a7,7,0,0,0-.85-.14,7.3,7.3,0,0,0-.83.28c-.4.17-.78.41-.75.58s.46.27.87.34l.81.11.78-.24c.4-.13.8-.29.81-.47S124.11,171.1,123.68,171ZM118,194.33a28.88,28.88,0,0,1-5-.75,29.19,29.19,0,0,1-4.84-1.32,7.32,7.32,0,0,1-2.83-1.74c-.62-.67-.72-1.32-.83-1.3s-.15.72.42,1.61a7.08,7.08,0,0,0,2.87,2.28,25.5,25.5,0,0,0,4.94,1.76,25.86,25.86,0,0,0,5.22.39c2.62-.06,5.15-.72,5.11-.9S120.49,194.51,118,194.33Zm13.77-3.16c-.83.38-1.67.7-1.67.7s-.78.46-1.59.87-1.67.8-1.63,1,1,.11,1.94-.1a14.16,14.16,0,0,0,1.85-.57,13.49,13.49,0,0,0,1.59-1.09c.75-.6,1.4-1.32,1.29-1.46S132.58,190.8,131.74,191.17Z"/><path class="cls-192" d="M173.49,91c-2.36,7.65-2.72,14.17.36,21.69,2.29,5.58,7.47,10.38,14.25,7.71a76.26,76.26,0,0,0-5.51-38.17A12.85,12.85,0,0,0,173.49,91Z"/><path class="cls-193" d="M173.65,90.08c-2.25,7-2.52,12.94.66,19.87,2.51,5.46,8.25,10.17,15.6,6.75a16.26,16.26,0,0,0,9.75-14.31c.2-5.62-1.46-14-7.42-18C184.06,78.87,175.75,83.55,173.65,90.08Z"/><path class="cls-194" d="M182.3,92.14c-.2.75-.34,1.48-.45,2.15a28.42,28.42,0,0,0,.35,9.89c.63,3.2,1.84,7,5.08,9.37,6.81,4.93,11.15-7.72,11.25-11a23,23,0,0,0-2.43-11.36,15.31,15.31,0,0,0-4.06-5,4.73,4.73,0,0,0-6.91.6A15,15,0,0,0,182.3,92.14Z"/><path class="cls-195" d="M198.53,102.53a26.2,26.2,0,0,0-.22-4.24,6.08,6.08,0,0,0-2.12-3.52c-1.65-1.21-4-.24-5.48.37a5.28,5.28,0,0,1-3.48.28c-1.74-.37-3.18-1-4.61.07a3.47,3.47,0,0,0-1.2,2.61,21.42,21.42,0,0,0,.78,6.08c.63,3.2,1.84,7,5.08,9.37C194.09,118.48,198.43,105.83,198.53,102.53Z"/><path class="cls-196" d="M185.13,86.78a15.79,15.79,0,0,0-2.3,3.82,2.46,2.46,0,0,0,.61,2.69c.7.57,2.52.76,3.48.9a7.2,7.2,0,0,0,4.22-.6,6.39,6.39,0,0,1,3-.79c.43.07,1.45.9,1.74.83,1.22-.28-.37-3.61-.74-4.15a15,15,0,0,0-3.05-3.3A4.73,4.73,0,0,0,185.13,86.78Z"/><path class="cls-197" d="M182,109.48c-3.19-6.94-2.92-12.9-.67-19.88A11.91,11.91,0,0,1,188,82.39a11.79,11.79,0,0,0-14.33,7.69c-2.25,7-2.52,12.94.66,19.87,2.47,5.37,8.07,10,15.23,6.9A13.59,13.59,0,0,1,182,109.48Z"/><path class="cls-198" d="M177.35,109.4c-2.92-6.61-2.64-12.31-.52-19a11.26,11.26,0,0,1,9.43-7.76,11.14,11.14,0,0,0-11.15,7.8c-2.11,6.68-2.39,12.38.53,19,1.88,4.25,5.77,8,10.86,7.42C182.26,116.52,179,113.16,177.35,109.4Z"/><path class="cls-199" d="M179.82,95.86c-2,1.69-4,2.48-5.24.23a30,30,0,0,1-1.64-3.6,24.71,24.71,0,0,0-.13,13.4c.4-1.79,1.18-3.53,2.71-4,1.17-.35,2.9.76,4.66,2.39A23.33,23.33,0,0,1,179.82,95.86Z"/><path class="cls-200" d="M174.49,98.53c.18,0,.1,2.17.52,4.3a24.09,24.09,0,0,0,1.23,4.18,25.19,25.19,0,0,0,1.8,4.1c1.1,2,2.65,3.87,2.5,4a14.42,14.42,0,0,1-3.32-3.67,23.57,23.57,0,0,1-2.24-4.15,20,20,0,0,1-.89-4.39C173.9,100.64,174.31,98.5,174.49,98.53Zm-.1-3.43a4.33,4.33,0,0,0-.26.64,4.11,4.11,0,0,0,.17.69c.12.34.3.68.48.68s.33-.31.45-.62l.21-.61-.13-.65c-.08-.33-.18-.67-.36-.71S174.55,94.78,174.39,95.1Zm22.35,8.31a18.31,18.31,0,0,1-1.38,3.75,19.27,19.27,0,0,1-1.94,3.55,5.76,5.76,0,0,1-2.09,1.93c-.74.36-1.4.34-1.4.43a2.48,2.48,0,0,0,1.65-.06,6.1,6.1,0,0,0,2.64-1.87,17.36,17.36,0,0,0,2.38-3.56,16.34,16.34,0,0,0,1.06-4c.29-2,0-4.14-.22-4.13S197.25,101.47,196.74,103.41Zm-1.33-11.27c.27.71.47,1.42.47,1.42s.36.68.66,1.39.57,1.43.76,1.43.24-.76.15-1.53a9.13,9.13,0,0,0-.32-1.54,11.15,11.15,0,0,0-.87-1.42c-.5-.69-1.12-1.31-1.28-1.24S195.15,91.43,195.41,92.14Z"/></g></g></g></svg>