<svg xmlns="http://www.w3.org/2000/svg" xmlns:xlink="http://www.w3.org/1999/xlink" viewBox="0 0 118.2 118.2"><defs><style>.cls-1{isolation:isolate;}.cls-2{fill:url(#radial-gradient);}.cls-3{fill:url(#radial-gradient-2);}.cls-4,.cls-47,.cls-48,.cls-49,.cls-50{mix-blend-mode:screen;}.cls-4,.cls-47,.cls-48{opacity:0.45;}.cls-4{fill:url(#radial-gradient-3);}.cls-10,.cls-11,.cls-12,.cls-13,.cls-14,.cls-15,.cls-16,.cls-17,.cls-18,.cls-19,.cls-20,.cls-21,.cls-22,.cls-5,.cls-6,.cls-7,.cls-8,.cls-9{mix-blend-mode:multiply;}.cls-5,.cls-6{opacity:0.5;}.cls-5{fill:url(#radial-gradient-4);}.cls-6{fill:url(#radial-gradient-5);}.cls-7{opacity:0.35;}.cls-8{fill:url(#radial-gradient-6);}.cls-9{fill:url(#radial-gradient-7);}.cls-10{fill:url(#radial-gradient-8);}.cls-11{fill:url(#radial-gradient-9);}.cls-12{fill:url(#radial-gradient-10);}.cls-13{fill:url(#radial-gradient-11);}.cls-14{fill:url(#radial-gradient-12);}.cls-15{fill:url(#radial-gradient-13);}.cls-16{fill:url(#radial-gradient-14);}.cls-17{fill:url(#radial-gradient-15);}.cls-18{fill:url(#radial-gradient-16);}.cls-19{fill:url(#radial-gradient-17);}.cls-20{fill:url(#radial-gradient-18);}.cls-21{fill:url(#radial-gradient-19);}.cls-22{fill:url(#radial-gradient-20);}.cls-23{fill:url(#radial-gradient-21);}.cls-24{fill:url(#radial-gradient-22);}.cls-25{fill:url(#radial-gradient-23);}.cls-26{fill:url(#radial-gradient-24);}.cls-27{fill:url(#radial-gradient-25);}.cls-28{fill:url(#radial-gradient-26);}.cls-29{fill:url(#radial-gradient-27);}.cls-30{fill:url(#radial-gradient-28);}.cls-31{fill:url(#radial-gradient-29);}.cls-32{fill:url(#radial-gradient-30);}.cls-33{fill:url(#radial-gradient-31);}.cls-34{fill:url(#radial-gradient-32);}.cls-35{fill:url(#radial-gradient-33);}.cls-36{fill:url(#radial-gradient-34);}.cls-37{fill:url(#radial-gradient-35);}.cls-38{fill:url(#radial-gradient-36);}.cls-39{fill:url(#radial-gradient-37);}.cls-40{fill:url(#radial-gradient-38);}.cls-41{fill:url(#radial-gradient-39);}.cls-42{fill:url(#radial-gradient-40);}.cls-43{fill:url(#radial-gradient-41);}.cls-44{fill:url(#radial-gradient-42);}.cls-45{fill:url(#radial-gradient-43);}.cls-46{fill:url(#radial-gradient-44);}.cls-47{fill:url(#radial-gradient-45);}.cls-48{fill:url(#radial-gradient-46);}.cls-49{fill:url(#radial-gradient-47);}.cls-50{fill:url(#radial-gradient-48);}</style><radialGradient id="radial-gradient" cx="-3.32" cy="-78.51" r="200.4" gradientTransform="translate(59.1 -24.48) rotate(45)" gradientUnits="userSpaceOnUse"><stop offset="0.06" stop-color="#fce085"/><stop offset="0.96" stop-color="#e988fd"/></radialGradient><radialGradient id="radial-gradient-2" cx="58.33" cy="58.09" r="60.95" gradientTransform="translate(106.91 -9.45) rotate(79.9)" gradientUnits="userSpaceOnUse"><stop offset="0.06" stop-color="#fce085"/><stop offset="0.4" stop-color="#fcdf86" stop-opacity="0.99"/><stop offset="0.52" stop-color="#fbdd89" stop-opacity="0.97"/><stop offset="0.61" stop-color="#fad98f" stop-opacity="0.92"/><stop offset="0.68" stop-color="#f9d397" stop-opacity="0.85"/><stop offset="0.74" stop-color="#f8cba1" stop-opacity="0.76"/><stop offset="0.79" stop-color="#f5c2ae" stop-opacity="0.66"/><stop offset="0.84" stop-color="#f3b6be" stop-opacity="0.53"/><stop offset="0.88" stop-color="#f0a9d0" stop-opacity="0.38"/><stop offset="0.92" stop-color="#ed9ae4" stop-opacity="0.21"/><stop offset="0.96" stop-color="#e98afa" stop-opacity="0.03"/><stop offset="0.96" stop-color="#e988fd" stop-opacity="0"/></radialGradient><radialGradient id="radial-gradient-3" cx="-1.75" cy="-65.75" r="172.68" gradientTransform="matrix(1, 0, 0, 1, 0, 0)" xlink:href="#radial-gradient"/><radialGradient id="radial-gradient-4" cx="-0.49" cy="-56.03" r="181.52" gradientTransform="matrix(1, 0, 0, 1, 0, 0)" xlink:href="#radial-gradient"/><radialGradient id="radial-gradient-5" cx="-41.85" cy="-17.07" r="157.01" gradientTransform="matrix(1.05, -0.08, 0.08, 1.01, 44.64, -21.22)" xlink:href="#radial-gradient"/><radialGradient id="radial-gradient-6" cx="20.79" cy="30.11" r="40.34" gradientTransform="matrix(1, 0, 0, 1, 0, 0)" xlink:href="#radial-gradient"/><radialGradient id="radial-gradient-7" cx="19.87" cy="65.41" r="25.18" gradientTransform="matrix(1, 0, 0, 1, 0, 0)" xlink:href="#radial-gradient"/><radialGradient id="radial-gradient-8" cx="34.52" cy="50.54" r="50.17" gradientTransform="matrix(1, 0, 0, 1, 0, 0)" xlink:href="#radial-gradient"/><radialGradient id="radial-gradient-9" cx="55.22" cy="-16.21" r="62.82" gradientTransform="matrix(1, 0, 0, 1, 0, 0)" xlink:href="#radial-gradient"/><radialGradient id="radial-gradient-10" cx="97.44" cy="1.51" r="59.67" gradientTransform="matrix(1, 0, 0, 1, 0, 0)" xlink:href="#radial-gradient"/><radialGradient id="radial-gradient-11" cx="70.84" cy="23.63" r="34.38" gradientTransform="matrix(1, 0, 0, 1, 0, 0)" xlink:href="#radial-gradient"/><radialGradient id="radial-gradient-12" cx="31.82" cy="-2.63" r="71.73" gradientTransform="matrix(1, 0, 0, 1, 0, 0)" xlink:href="#radial-gradient"/><radialGradient id="radial-gradient-13" cx="68.13" cy="37.99" r="46.54" gradientTransform="matrix(1, 0, 0, 1, 0, 0)" xlink:href="#radial-gradient"/><radialGradient id="radial-gradient-14" cx="19.48" cy="78.19" r="44.99" gradientTransform="matrix(1, 0, 0, 1, 0, 0)" xlink:href="#radial-gradient"/><radialGradient id="radial-gradient-15" cx="8.11" cy="31.78" r="47.78" gradientTransform="matrix(1, 0, 0, 1, 0, 0)" xlink:href="#radial-gradient"/><radialGradient id="radial-gradient-16" cx="65.03" cy="53.24" r="61.39" gradientTransform="matrix(1, 0, 0, 1, 0, 0)" xlink:href="#radial-gradient"/><radialGradient id="radial-gradient-17" cx="8.05" cy="9.84" r="41.85" gradientTransform="matrix(1, 0, 0, 1, 0, 0)" xlink:href="#radial-gradient"/><radialGradient id="radial-gradient-18" cx="50.76" cy="27.85" r="1.55" gradientTransform="matrix(1, 0, 0, 1, 0, 0)" xlink:href="#radial-gradient"/><radialGradient id="radial-gradient-19" cx="52.31" cy="28.08" r="0.14" gradientTransform="matrix(1, 0, 0, 1, 0, 0)" xlink:href="#radial-gradient"/><radialGradient id="radial-gradient-20" cx="21.23" cy="-5.94" r="42.4" gradientTransform="matrix(1, 0, 0, 1, 0, 0)" xlink:href="#radial-gradient"/><radialGradient id="radial-gradient-21" cx="58.82" cy="60.97" r="12.47" gradientTransform="matrix(1, 0, 0, 1, 0, 0)" xlink:href="#radial-gradient"/><radialGradient id="radial-gradient-22" cx="66" cy="57.92" r="8.13" gradientTransform="matrix(1, 0, 0, 1, 0, 0)" xlink:href="#radial-gradient"/><radialGradient id="radial-gradient-23" cx="49.17" cy="13.33" r="18.97" gradientTransform="matrix(1, 0, 0, 1, 0, 0)" xlink:href="#radial-gradient"/><radialGradient id="radial-gradient-24" cx="51.51" cy="14.59" r="8.13" gradientTransform="matrix(1, 0, 0, 1, 0, 0)" xlink:href="#radial-gradient"/><radialGradient id="radial-gradient-25" cx="15.89" cy="40.98" r="13.01" gradientTransform="matrix(1, 0, 0, 1, 0, 0)" xlink:href="#radial-gradient"/><radialGradient id="radial-gradient-26" cx="16.27" cy="43.87" r="18.43" gradientTransform="matrix(1, 0, 0, 1, 0, 0)" xlink:href="#radial-gradient"/><radialGradient id="radial-gradient-27" cx="23.76" cy="64.38" r="9.21" gradientTransform="matrix(1, 0, 0, 1, 0, 0)" xlink:href="#radial-gradient"/><radialGradient id="radial-gradient-28" cx="27.16" cy="64.48" r="12.47" gradientTransform="matrix(1, 0, 0, 1, 0, 0)" xlink:href="#radial-gradient"/><radialGradient id="radial-gradient-29" cx="55.73" cy="85.63" r="20.59" gradientTransform="matrix(1, 0, 0, 1, 0, 0)" xlink:href="#radial-gradient"/><radialGradient id="radial-gradient-30" cx="61.65" cy="87.56" r="11.92" gradientTransform="matrix(1, 0, 0, 1, 0, 0)" xlink:href="#radial-gradient"/><radialGradient id="radial-gradient-31" cx="62.69" cy="96.02" r="10.3" gradientTransform="matrix(1, 0, 0, 1, 0, 0)" xlink:href="#radial-gradient"/><radialGradient id="radial-gradient-32" cx="70.73" cy="68.03" r="22.22" gradientTransform="matrix(1, 0, 0, 1, 0, 0)" xlink:href="#radial-gradient"/><radialGradient id="radial-gradient-33" cx="92.96" cy="45.8" r="9.76" gradientTransform="matrix(1, 0, 0, 1, 0, 0)" xlink:href="#radial-gradient"/><radialGradient id="radial-gradient-34" cx="96.2" cy="51.2" r="5.42" gradientTransform="matrix(1, 0, 0, 1, 0, 0)" xlink:href="#radial-gradient"/><radialGradient id="radial-gradient-35" cx="99.23" cy="56" r="15.72" gradientTransform="matrix(1, 0, 0, 1, 0, 0)" xlink:href="#radial-gradient"/><radialGradient id="radial-gradient-36" cx="63.36" cy="35.99" r="7.05" gradientTransform="matrix(1, 0, 0, 1, 0, 0)" xlink:href="#radial-gradient"/><radialGradient id="radial-gradient-37" cx="65.88" cy="30.91" r="20.05" gradientTransform="matrix(1, 0, 0, 1, 0, 0)" xlink:href="#radial-gradient"/><radialGradient id="radial-gradient-38" cx="30.26" cy="41.32" r="8.13" gradientTransform="matrix(1, 0, 0, 1, 0, 0)" xlink:href="#radial-gradient"/><radialGradient id="radial-gradient-39" cx="24.07" cy="21.48" r="8.13" gradientTransform="matrix(1, 0, 0, 1, 0, 0)" xlink:href="#radial-gradient"/><radialGradient id="radial-gradient-40" cx="89.82" cy="22.1" r="15.18" gradientTransform="matrix(1, 0, 0, 1, 0, 0)" xlink:href="#radial-gradient"/><radialGradient id="radial-gradient-41" cx="93.61" cy="31.48" r="7.05" gradientTransform="matrix(1, 0, 0, 1, 0, 0)" xlink:href="#radial-gradient"/><radialGradient id="radial-gradient-42" cx="76.96" cy="50.04" r="8.67" gradientTransform="matrix(1, 0, 0, 1, 0, 0)" xlink:href="#radial-gradient"/><radialGradient id="radial-gradient-43" cx="78.13" cy="75.19" r="11.38" gradientTransform="matrix(1, 0, 0, 1, 0, 0)" xlink:href="#radial-gradient"/><radialGradient id="radial-gradient-44" cx="34.47" cy="84.22" r="8.67" gradientTransform="matrix(1, 0, 0, 1, 0, 0)" xlink:href="#radial-gradient"/><radialGradient id="radial-gradient-45" cx="4.05" cy="-45.18" r="137.25" gradientTransform="matrix(1, 0, 0, 1, 0, 0)" xlink:href="#radial-gradient"/><radialGradient id="radial-gradient-46" cx="-126.86" cy="-39.47" r="81.45" gradientTransform="matrix(1.34, -0.17, 0.15, 1.18, 176.31, 6.32)" xlink:href="#radial-gradient"/><radialGradient id="radial-gradient-47" cx="-465.93" cy="151.87" r="27.05" gradientTransform="translate(157.41 -427.5) rotate(-54.35)" xlink:href="#radial-gradient"/><radialGradient id="radial-gradient-48" cx="-211.07" cy="159.1" r="14.92" gradientTransform="translate(133.86 -222.35) rotate(-29.87)" xlink:href="#radial-gradient"/></defs><g class="cls-1"><g id="Layer_2" data-name="Layer 2"><g id="OBJECTS"><circle class="cls-2" cx="59.1" cy="59.1" r="49.4" transform="translate(-24.48 59.1) rotate(-45)"/><circle class="cls-3" cx="59.1" cy="59.1" r="59.1" transform="translate(-9.45 106.91) rotate(-79.9)"/><path class="cls-4" d="M12.4,62a49.39,49.39,0,0,1,84.15-35.1A49.39,49.39,0,1,0,24.35,94.2,49.18,49.18,0,0,1,12.4,62Z"/><path class="cls-5" d="M90.91,21.58c-.87,1.93.71,4.79,1.14,6.74A26.29,26.29,0,0,1,92.53,38c-.81,5.22-3.88,10.29-8.68,12.5a43.81,43.81,0,0,1-6.7,2A31.87,31.87,0,0,0,57.88,68c-2.59,4.87-4,10.53-7.91,14.41-5.33,5.28-14.07,5.69-21.06,3-6.7-2.58-11-7.71-16.71-11.53-.14,4.31,4.2,10.39,6.64,13.81A49.4,49.4,0,0,0,103.7,37.83C101.33,32.87,96.33,23.63,90.91,21.58Z"/><path class="cls-6" d="M99.81,35.9a58.06,58.06,0,0,0-7-9.82c1,1.51,1.88,3,2.55,4.12A46.12,46.12,0,0,1,31.15,92.57a46.53,46.53,0,0,1-10.92-9.5,66.88,66.88,0,0,0,4.33,5.61A46,46,0,0,0,105.84,55.4,46.45,46.45,0,0,0,99.81,35.9Z"/><g class="cls-7"><path class="cls-8" d="M32,52.09s-4.32-5.21-7.74-2.51,1.08,4.85,1.44,9.53S28,72.25,36.31,69,35.06,54.79,32,52.09Z"/><path class="cls-9" d="M30.2,75.49a12.16,12.16,0,0,0-7.56,4.32c-2.88,3.78,2.7,8.46,9.9,6.48S37.75,75.13,30.2,75.49Z"/><path class="cls-10" d="M54.31,93.13c15.48-1.44,16-13.32,12.06-16.92s-15.12-5.4-15.12-5.4-7.74-1.44-11.34,5.4S38.83,94.56,54.31,93.13Z"/><path class="cls-11" d="M62.39,15.49c.28,7.08-8.22,18.42,4.82,22.67C78,41.66,80.62,30.54,95.67,25.89A49.3,49.3,0,0,0,61.25,9.75,16.1,16.1,0,0,1,62.39,15.49Z"/><path class="cls-12" d="M99.3,48.86c1.45,7.64,4.54,13.63,8.78,16.58a49.17,49.17,0,0,0-7.9-33.78A40.18,40.18,0,0,0,99.3,48.86Z"/><path class="cls-13" d="M93,48.68c3.6-4.68.18-7.2.18-7.2S88.5,35.54,83.1,37.7s-12.95,7.74-7.73,11.88S89.4,53.35,93,48.68Z"/><path class="cls-14" d="M68.47,51.52c-1.87-6-8.84-9.31-10.91-15.27-.88-2.54-.8-4.58-3.64-5.77-4.26-1.79-7-.07-10.8,2-2.67,1.5-5.41,3.35-6.48,6.22a11.21,11.21,0,0,0-.28,5.64,31.26,31.26,0,0,0,6.23,13.68c3.34,4.39,8.24,8.38,13.73,7.88a16.26,16.26,0,0,0,7.54-3.17A14.25,14.25,0,0,0,67,60,9.44,9.44,0,0,0,68.47,51.52Z"/><path class="cls-15" d="M71.77,71.71c.9,4.68,7.73,9.18,16.19,5,2.22-1.09,4.74-2.1,6.21-4.19a35.89,35.89,0,0,0,4.08-8.29l0,0C100.43,58,92,56.3,88,57.31,77.17,60,70.87,67,71.77,71.71Z"/><path class="cls-16" d="M57.9,108.47a36.77,36.77,0,0,0-13.49-13A26.25,26.25,0,0,0,24,93.81,49.27,49.27,0,0,0,57.9,108.47Z"/><path class="cls-17" d="M19,59.69a12.77,12.77,0,0,0-9.19-4.27c-.09,1.22-.15,2.44-.15,3.68a49,49,0,0,0,5.59,22.81C21.31,75.52,24.25,65.69,19,59.69Z"/><path class="cls-18" d="M104.15,79.36C97.22,78,90.07,78.82,86,83.77c-5.94,7.2-9,7-13.85,13-2.72,3.32-2.79,7.53-2.33,10.6A49.46,49.46,0,0,0,104.15,79.36Z"/><path class="cls-19" d="M12.52,47.79c7.08-5.66,17-.85,19-8.78,1.46-5.83-6.56-9.36-10.92-10.83A49.3,49.3,0,0,0,10.8,48.72,4.66,4.66,0,0,0,12.52,47.79Z"/><path class="cls-20" d="M52.33,28.14a2.55,2.55,0,0,0-1.39.33Z"/><path class="cls-21" d="M52.45,28.11l-.12,0h0Z"/><path class="cls-22" d="M43.41,26.26c9.54-4.88,6.07-9.6,8.71-16.06a49.28,49.28,0,0,0-27.3,13.34C27.8,26.46,34.3,30.91,43.41,26.26Z"/></g><path class="cls-23" d="M62.48,69.2a1.62,1.62,0,1,1-1.62-1.62A1.62,1.62,0,0,1,62.48,69.2Z"/><circle class="cls-24" cx="67.33" cy="63.29" r="1.06"/><circle class="cls-25" cx="52.28" cy="25.87" r="2.46"/><circle class="cls-26" cx="52.84" cy="19.96" r="1.06"/><circle class="cls-27" cx="18.02" cy="49.58" r="1.69"/><path class="cls-28" d="M21.68,56.05a2.4,2.4,0,1,1-2.39-2.39A2.39,2.39,0,0,1,21.68,56.05Z"/><path class="cls-29" d="M26.46,70.47a1.2,1.2,0,1,1-1.2-1.2A1.19,1.19,0,0,1,26.46,70.47Z"/><path class="cls-30" d="M30.82,72.72A1.62,1.62,0,1,1,29.2,71.1,1.62,1.62,0,0,1,30.82,72.72Z"/><path class="cls-31" d="M61.77,99.24a2.67,2.67,0,1,1-2.67-2.67A2.66,2.66,0,0,1,61.77,99.24Z"/><circle class="cls-32" cx="63.6" cy="95.44" r="1.55"/><path class="cls-33" d="M65.71,102.83a1.34,1.34,0,0,1-2.67,0,1.34,1.34,0,1,1,2.67,0Z"/><path class="cls-34" d="M77.25,82.71a2.89,2.89,0,1,1-2.88-2.89A2.88,2.88,0,0,1,77.25,82.71Z"/><path class="cls-35" d="M95.82,52.25A1.27,1.27,0,1,1,94.56,51,1.27,1.27,0,0,1,95.82,52.25Z"/><path class="cls-36" d="M97.79,54.78a.7.7,0,0,1-.7.71.71.71,0,0,1-.71-.71.7.7,0,0,1,.71-.7A.7.7,0,0,1,97.79,54.78Z"/><path class="cls-37" d="M103.84,66.39a2,2,0,1,1-2-2A2,2,0,0,1,103.84,66.39Z"/><circle class="cls-38" cx="64.52" cy="40.64" r="0.91"/><circle class="cls-39" cx="69.16" cy="44.16" r="2.6"/><path class="cls-40" d="M32.65,46.69a1.06,1.06,0,1,1-1-1A1.06,1.06,0,0,1,32.65,46.69Z"/><path class="cls-41" d="M26.46,26.85a1.06,1.06,0,1,1-1.05-1.05A1.05,1.05,0,0,1,26.46,26.85Z"/><circle class="cls-42" cx="92.3" cy="32.13" r="1.97"/><circle class="cls-43" cx="94.77" cy="36.14" r="0.91"/><path class="cls-44" d="M79.5,55.77a1.13,1.13,0,1,1-1.12-1.13A1.12,1.12,0,0,1,79.5,55.77Z"/><path class="cls-45" d="M81.47,82.71A1.48,1.48,0,1,1,80,81.23,1.48,1.48,0,0,1,81.47,82.71Z"/><path class="cls-46" d="M37,90a1.13,1.13,0,1,1-1.12-1.12A1.12,1.12,0,0,1,37,90Z"/><path class="cls-47" d="M18.21,73.26C16.1,70.25,5.85,51,27.56,26.83s54.58-12.67,60-.61-4.22,22.32-20.5,22.92S43.84,72.66,33.29,76,20.41,76.4,18.21,73.26Z"/><path class="cls-48" d="M21.82,62.37C19.88,60.47,10,48,25.23,29S67.61,14.73,73,22.63s-1.42,16-14.34,18.05S42.18,59.41,34.07,62.78,23.84,64.35,21.82,62.37Z"/><path class="cls-49" d="M33.77,30.34c2.34,1.68,1.72,6.55-1.39,10.87s-7.51,6.48-9.85,4.8-1.71-6.54,1.39-10.87S31.43,28.67,33.77,30.34Z"/><path class="cls-50" d="M44.47,21.68c.79,1.38-.63,3.68-3.18,5.14s-5.25,1.54-6,.16.63-3.68,3.18-5.14S43.68,20.31,44.47,21.68Z"/></g></g></g></svg>