<svg xmlns="http://www.w3.org/2000/svg" xmlns:xlink="http://www.w3.org/1999/xlink" viewBox="0 0 71 71"><defs><style>.cls-1{isolation:isolate;}.cls-2{fill:url(#radial-gradient);}.cls-3{fill:url(#radial-gradient-2);}.cls-4,.cls-5,.cls-7,.cls-8{mix-blend-mode:screen;}.cls-4,.cls-8{opacity:0.5;}.cls-4{fill:url(#radial-gradient-3);}.cls-5{fill:url(#radial-gradient-4);}.cls-10,.cls-11,.cls-6,.cls-9{mix-blend-mode:multiply;opacity:0.6;}.cls-6{fill:url(#radial-gradient-5);}.cls-7{opacity:0.4;fill:url(#radial-gradient-6);}.cls-8{fill:url(#radial-gradient-7);}.cls-9{fill:url(#radial-gradient-8);}.cls-10{fill:url(#radial-gradient-9);}.cls-11{fill:url(#radial-gradient-10);}</style><radialGradient id="radial-gradient" cx="0.17" cy="0.84" r="79.27" gradientUnits="userSpaceOnUse"><stop offset="0" stop-color="#f07"/><stop offset="0.14" stop-color="#fa0379"/><stop offset="0.31" stop-color="#ec0a80"/><stop offset="0.49" stop-color="#d4178a"/><stop offset="0.67" stop-color="#b32999"/><stop offset="0.87" stop-color="#8840ac"/><stop offset="0.9" stop-color="#8144af"/></radialGradient><radialGradient id="radial-gradient-2" cx="35.63" cy="35.12" r="39.51" gradientUnits="userSpaceOnUse"><stop offset="0" stop-color="#f07"/><stop offset="0.33" stop-color="#fe0077" stop-opacity="0.99"/><stop offset="0.46" stop-color="#fb0279" stop-opacity="0.97"/><stop offset="0.54" stop-color="#f5057c" stop-opacity="0.92"/><stop offset="0.61" stop-color="#ed0a7f" stop-opacity="0.85"/><stop offset="0.67" stop-color="#e21084" stop-opacity="0.77"/><stop offset="0.72" stop-color="#d4178a" stop-opacity="0.66"/><stop offset="0.77" stop-color="#c42091" stop-opacity="0.53"/><stop offset="0.81" stop-color="#b22a99" stop-opacity="0.39"/><stop offset="0.86" stop-color="#9c35a3" stop-opacity="0.22"/><stop offset="0.89" stop-color="#8642ad" stop-opacity="0.04"/><stop offset="0.9" stop-color="#8144af" stop-opacity="0"/></radialGradient><radialGradient id="radial-gradient-3" cx="11.42" cy="4.88" r="52.82" gradientUnits="userSpaceOnUse"><stop offset="0.37" stop-color="#f3a300"/><stop offset="0.6" stop-color="#f3a201" stop-opacity="0.99"/><stop offset="0.69" stop-color="#f39f07" stop-opacity="0.96"/><stop offset="0.75" stop-color="#f29910" stop-opacity="0.92"/><stop offset="0.8" stop-color="#f2901c" stop-opacity="0.85"/><stop offset="0.84" stop-color="#f1852d" stop-opacity="0.76"/><stop offset="0.88" stop-color="#f17842" stop-opacity="0.64"/><stop offset="0.92" stop-color="#f0675a" stop-opacity="0.51"/><stop offset="0.95" stop-color="#ee5477" stop-opacity="0.35"/><stop offset="0.97" stop-color="#ed4096" stop-opacity="0.19"/><stop offset="1" stop-color="#ec29b8" stop-opacity="0"/></radialGradient><radialGradient id="radial-gradient-4" cx="0.56" cy="1.23" r="68.83" xlink:href="#radial-gradient"/><radialGradient id="radial-gradient-5" cx="1.81" cy="9.73" r="73.19" xlink:href="#radial-gradient"/><radialGradient id="radial-gradient-6" cx="5.86" cy="13.28" r="66.22" xlink:href="#radial-gradient"/><radialGradient id="radial-gradient-7" cx="14.63" cy="8.77" r="23.33" xlink:href="#radial-gradient-3"/><radialGradient id="radial-gradient-8" cx="31.51" cy="34.49" r="26.29" gradientTransform="translate(38.48 -10.78) rotate(45)" xlink:href="#radial-gradient"/><radialGradient id="radial-gradient-9" cx="34.84" cy="35.11" r="27.89" xlink:href="#radial-gradient"/><radialGradient id="radial-gradient-10" cx="37.12" cy="36.99" r="27.76" xlink:href="#radial-gradient"/></defs><g class="cls-1"><g id="Layer_2" data-name="Layer 2"><g id="OBJECTS"><path class="cls-2" d="M67.46,35.5a32,32,0,1,1-32-32A32,32,0,0,1,67.46,35.5Z"/><path class="cls-3" d="M71,35.5A35.5,35.5,0,1,1,35.5,0,35.51,35.51,0,0,1,71,35.5Z"/><path class="cls-4" d="M53.45,22.36a7.88,7.88,0,0,1-1.36.84c-3,1.38-6.14,1.49-9.32,1.8A25.83,25.83,0,0,0,35,27c-2.81,1.21-4.27,3.46-5.77,6a31.81,31.81,0,0,0-3.18,8.86,12.94,12.94,0,0,1-4,6.68c-3.45,2.76-7.8,1.77-10.81-1.1C8,44.26,7.07,40,7.07,35.67A29.6,29.6,0,0,1,36.68,6.06,33,33,0,0,1,43,6.67c4.16.81,8.55,2.46,11.35,5.79,1.19,1.42,2.65,3.77,2.28,5.72C56.38,19.6,54.88,21.28,53.45,22.36Z"/><path class="cls-5" d="M5.38,37.52A32,32,0,0,1,59.92,14.89a32,32,0,1,0-47,43.24A31.85,31.85,0,0,1,5.38,37.52Z"/><path class="cls-6" d="M5.09,45.36A32,32,0,1,0,57.23,12.07c4.85,6.51,7.58,15.25,1.65,14.26-7.57-1.26-14.13-2.78-23.72,3.53s-1.77,19.69-15.39,23C12.77,54.51,8,50.08,5.09,45.36Z"/><path class="cls-7" d="M59.39,15.37A30.63,30.63,0,0,1,8.87,49.81,30.63,30.63,0,1,0,59.39,15.37Z"/><path class="cls-8" d="M34.05,11.19c.92,2.11-1.27,5.11-4.91,6.71s-7.33,1.19-8.26-.91,1.27-5.11,4.91-6.71S33.12,9.09,34.05,11.19Zm-20,11c-1.65,2.7-1.73,5.65-.18,6.62s4.17-.45,5.83-3.14,1.74-5.65.18-6.61S15.7,19.5,14,22.19Z"/><path class="cls-9" d="M46.65,18.19a6,6,0,0,1-1.87.81,6.36,6.36,0,0,1-2.52.6,10.87,10.87,0,0,1-8.13-2.8c-2.07-2.09-2.92-5-1-7.51,3-3.84,8.79-2.28,12.48.48a9.11,9.11,0,0,1,1.31.89A4.61,4.61,0,0,1,46.65,18.19ZM24.08,16.55s0,0,0,0Zm-3.41-.9a2.43,2.43,0,0,1,.4-2.94,6.93,6.93,0,0,1,2.22-1.2,2.38,2.38,0,0,1,2.29,4,6.33,6.33,0,0,1-.79.6,1.63,1.63,0,0,1-.56.38l-.09,0-.06,0,.05,0-.51.21.39-.15A2.47,2.47,0,0,1,20.67,15.65Zm2.92,1.08ZM60.42,46.65a2.91,2.91,0,0,0-1.28-2.29c-2.82-2.45-6.24-.86-8.2,1.72a9.81,9.81,0,0,0-.75,1.23A7.28,7.28,0,0,0,48.75,54a2.84,2.84,0,0,0,1.09,1.56,2.7,2.7,0,0,0,2.6.65C56.5,54.78,60.76,51.42,60.42,46.65ZM44.75,57.79A3.4,3.4,0,0,0,40.11,59a2.76,2.76,0,0,0-.22,2,2.59,2.59,0,0,0,1.81,1.8,2.47,2.47,0,0,0,2.65-.94,3.52,3.52,0,0,0,.4-.18A2.26,2.26,0,0,0,44.75,57.79ZM17,41.51a12.27,12.27,0,0,0,1-1.1,8.34,8.34,0,0,0,1.49-4.34,7,7,0,0,0-.56-4.91,4.33,4.33,0,0,0-.3-.41c-1-2.08-3.05-3.61-5.53-3.08-3.48.75-5.49,4.38-5.82,7.66a11.09,11.09,0,0,0,.63,4.82h0l.05.11a5.64,5.64,0,0,0,2.22,2.88,4.17,4.17,0,0,0,3.57.51A5.94,5.94,0,0,0,17,41.51Zm8.82-11a2.46,2.46,0,0,1-2.28.62,2.42,2.42,0,0,1-1.69-1.69,3.55,3.55,0,0,1,.27-2.54,3.62,3.62,0,0,1,.38-.58,2.16,2.16,0,0,1,.53-.7,2.25,2.25,0,0,1,1.91-1.06,2.63,2.63,0,0,1,2.42,1.89h0a2.37,2.37,0,0,1-.17,3.05,4.34,4.34,0,0,1-1.12.93C25.83,30.54,25.1,31.09,25.81,30.48Zm.64-1.85h0C26.39,28.86,26.45,29,26.45,28.63ZM59,38.4a3.72,3.72,0,0,1,.08-.68,2.29,2.29,0,0,1,.51-.88,1.6,1.6,0,0,1,1.57-.42,1.67,1.67,0,0,1,1,.77,2.47,2.47,0,0,1-.63,3.18A1.74,1.74,0,0,1,59,38.87a1.38,1.38,0,0,1,0-.2l0-.26Zm-.05.48h0C59.05,39.43,59.05,39.42,59,38.88ZM44.21,52.35a4.87,4.87,0,0,0-1.09-7.75c-2.63-1.52-6-.9-8.62.18-3.85,1.57-8.81,6.69-4.35,10.51,2.79,2.38,6.6,1.94,9.55,0a9.33,9.33,0,0,0,2.7-1.43A9.89,9.89,0,0,0,44.21,52.35ZM31.26,60.89h0a1.56,1.56,0,0,0-.58-.92,1.75,1.75,0,0,0-.75-.75,3.46,3.46,0,0,0-1.86-.42,1.93,1.93,0,0,0-1.84,2.38,1.86,1.86,0,0,0,1.37,1.34l0,0c-.55-.2-.14,0,0,.06a3.42,3.42,0,0,0,.83.36.35.35,0,0,0,.11,0,1.78,1.78,0,0,0,1.45.14A1.88,1.88,0,0,0,31.26,60.89ZM16.53,21.18c-1.85-1.86-4.73,1-2.87,2.88S18.39,23,16.53,21.18Z"/><path class="cls-10" d="M20.67,15.65a2.43,2.43,0,0,1,.4-2.94,6.93,6.93,0,0,1,2.22-1.2A2.37,2.37,0,0,1,26,12.64a2.45,2.45,0,0,1,.29,1.53,2,2,0,0,0-1.67-.25,6.23,6.23,0,0,0-2,1.07A2,2,0,0,0,22,16.71,2.53,2.53,0,0,1,20.67,15.65Zm-5.2,8.94a1.92,1.92,0,0,1,1.6-2.48,2,2,0,0,0-.54-.93c-1.85-1.86-4.73,1-2.87,2.88A1.84,1.84,0,0,0,15.47,24.59ZM12.71,42.43a5.1,5.1,0,0,1-2-2.61.36.36,0,0,1,0-.09h0a9.81,9.81,0,0,1-.57-4.34c.29-3,2.11-6.23,5.24-6.91a4.23,4.23,0,0,1,1.27-.06A4.45,4.45,0,0,0,13,27.67c-3.48.75-5.49,4.38-5.82,7.66a11.09,11.09,0,0,0,.63,4.82h0l.05.11a5.64,5.64,0,0,0,2.22,2.88,4.17,4.17,0,0,0,3.57.51A5.21,5.21,0,0,0,15.23,43,3.71,3.71,0,0,1,12.71,42.43ZM33.46,11.91c2.69-3.46,7.92-2.05,11.25.43a8,8,0,0,1,1.17.81,4.28,4.28,0,0,1,1.5,4.44,4.61,4.61,0,0,0-.45-6.93,9.11,9.11,0,0,0-1.31-.89C41.93,7,36.13,5.45,33.14,9.29a4.9,4.9,0,0,0-.64,5.11A4.34,4.34,0,0,1,33.46,11.91ZM23.28,30a3.16,3.16,0,0,1,.24-2.28,2.9,2.9,0,0,1,.34-.52,2.15,2.15,0,0,1,.48-.64,2,2,0,0,1,1.72-1,2.37,2.37,0,0,1,1.07.34,2.53,2.53,0,0,0-2.2-1.46A2.25,2.25,0,0,0,23,25.59a2.16,2.16,0,0,0-.53.7,3.62,3.62,0,0,0-.38.58,3.55,3.55,0,0,0-.27,2.54,2.42,2.42,0,0,0,1.69,1.69,2.85,2.85,0,0,0,.49.06A2.14,2.14,0,0,1,23.28,30Zm38.91,7.15a1.67,1.67,0,0,0-1-.77,1.6,1.6,0,0,0-1.57.42l-.08.1.1.12a2.29,2.29,0,0,1-.42,2.76,1.87,1.87,0,0,0,2.34.55A2.47,2.47,0,0,0,62.19,37.19Zm-3,7.17a4.76,4.76,0,0,0-2.72-1.2,4,4,0,0,1,.47.37,2.61,2.61,0,0,1,1.16,2.06c.31,4.29-3.54,7.33-7.19,8.64a2.32,2.32,0,0,1-2.17-.47,2.61,2.61,0,0,0,.06.27,2.84,2.84,0,0,0,1.09,1.56,2.7,2.7,0,0,0,2.6.65c4.06-1.46,8.32-4.82,8-9.59A2.91,2.91,0,0,0,59.14,44.36ZM44.87,57.89a1.87,1.87,0,0,1-.95,1.24,3.7,3.7,0,0,1-.35.17,2.23,2.23,0,0,1-2.4.84,2.82,2.82,0,0,1-1.2-.81A3.05,3.05,0,0,0,39.89,61a2.59,2.59,0,0,0,1.81,1.8,2.47,2.47,0,0,0,2.65-.94,3.52,3.52,0,0,0,.4-.18A2.24,2.24,0,0,0,44.87,57.89Zm-13.62,3a1.49,1.49,0,0,0-.3-.62,1.49,1.49,0,0,1-.36.17,1.59,1.59,0,0,1-1.3-.12l-.11,0a3.76,3.76,0,0,1-.74-.32c-.13-.09-.5-.24,0-.06l0,0a1.67,1.67,0,0,1-1.11-.9,1.82,1.82,0,0,0-1.13,2.19,1.86,1.86,0,0,0,1.37,1.34l0,0c-.55-.2-.14,0,0,.06a3.42,3.42,0,0,0,.83.36.35.35,0,0,0,.11,0,1.78,1.78,0,0,0,1.45.14,1.88,1.88,0,0,0,1.3-2.23Zm11.15-7a9.89,9.89,0,0,0,1.81-1.55,4.89,4.89,0,0,0-.12-7.05,4.48,4.48,0,0,1-.66,5.43,8.89,8.89,0,0,1-1.62,1.39,8.52,8.52,0,0,1-2.44,1.29c-2.66,1.71-6.09,2.11-8.61,0a3.84,3.84,0,0,1-1.27-4.6c-1.4,2-1.73,4.47.66,6.52,2.79,2.38,6.6,1.94,9.55,0A9.33,9.33,0,0,0,42.4,53.9Z"/><path class="cls-11" d="M39.83,29.8a.44.44,0,1,1-.44-.44A.44.44,0,0,1,39.83,29.8Zm3-2.46a1.52,1.52,0,1,0,1.51,1.51A1.52,1.52,0,0,0,42.86,27.34Zm-2.34,5.05a.44.44,0,0,0-.44.44.45.45,0,1,0,.44-.44ZM17.24,46.27a.63.63,0,1,0,.64.63A.63.63,0,0,0,17.24,46.27Zm2.34-4.42a1.33,1.33,0,1,0,1.32,1.33A1.33,1.33,0,0,0,19.58,41.85Zm.25,4.42a.57.57,0,1,0,.57.56A.57.57,0,0,0,19.83,46.27Zm1.33,9.21a.88.88,0,1,0,.88.88A.88.88,0,0,0,21.16,55.48Zm3-3a.88.88,0,1,0,.89.88A.88.88,0,0,0,24.18,52.45Zm1.46,3.91a.56.56,0,0,0-.57.57.57.57,0,1,0,1.13,0A.56.56,0,0,0,25.64,56.36ZM47,40.21a.76.76,0,1,0,.76.76A.76.76,0,0,0,47,40.21Zm2.27-5.3a1.26,1.26,0,1,0,1.27,1.26A1.26,1.26,0,0,0,49.29,34.91Zm1.27,4.79a.64.64,0,1,0,.63.64A.64.64,0,0,0,50.56,39.7Zm3.91-3.78a.63.63,0,1,0,.63.63A.63.63,0,0,0,54.47,35.92ZM53.46,17a.51.51,0,0,0-.51.51.5.5,0,0,0,.51.5.5.5,0,0,0,.5-.5A.5.5,0,0,0,53.46,17Zm4-2a1.46,1.46,0,1,0,1.45,1.45A1.45,1.45,0,0,0,57.43,15ZM58,19.89a.89.89,0,1,0,.88.89A.88.88,0,0,0,58,19.89Zm-30.16,0a.76.76,0,0,0,0,1.52.76.76,0,0,0,0-1.52Zm2.84-2.14a.95.95,0,1,0,.95.95A.94.94,0,0,0,30.68,17.75Zm1.26,3.91a.95.95,0,1,0,.95.95A.94.94,0,0,0,31.94,21.66ZM24.12,33.9a.57.57,0,0,0-.57.57.57.57,0,0,0,1.14,0A.57.57,0,0,0,24.12,33.9ZM13.9,17.62a.57.57,0,1,0,.57.57A.58.58,0,0,0,13.9,17.62Zm2.65-2.9a1.33,1.33,0,1,0,1.33,1.33A1.32,1.32,0,0,0,16.55,14.72Zm1.7,4.54a.5.5,0,0,0-.5.51.5.5,0,0,0,.5.5.5.5,0,0,0,.51-.5A.51.51,0,0,0,18.25,19.26Zm-7.76,6.06a.7.7,0,1,0,.7.69A.69.69,0,0,0,10.49,25.32ZM26,8.79a.95.95,0,1,0,.95,1A.94.94,0,0,0,26,8.79ZM30.68,9a.57.57,0,0,0,0,1.14.57.57,0,0,0,0-1.14ZM50.49,20.15a.95.95,0,1,0,.95.94A.94.94,0,0,0,50.49,20.15Zm0-8.33a.82.82,0,1,0,.82.82A.82.82,0,0,0,50.49,11.82ZM34.59,59.64a.95.95,0,1,0,.95,1A.94.94,0,0,0,34.59,59.64Zm2.53,4.42a.57.57,0,1,0,0,1.13.57.57,0,1,0,0-1.13ZM61.91,30.62a1.14,1.14,0,1,0,1.14,1.14A1.14,1.14,0,0,0,61.91,30.62Zm2,3.53a.57.57,0,1,0,0,1.14.57.57,0,1,0,0-1.14Z"/></g></g></g></svg>