<svg xmlns="http://www.w3.org/2000/svg" xmlns:xlink="http://www.w3.org/1999/xlink" viewBox="0 0 142.98 142.87"><defs><style>.cls-1{isolation:isolate;}.cls-2{fill:url(#radial-gradient);}.cls-3{fill:url(#radial-gradient-2);}.cls-4{fill:url(#linear-gradient);}.cls-5{fill:url(#linear-gradient-2);}.cls-6{fill:url(#linear-gradient-3);}.cls-7{fill:url(#linear-gradient-4);}.cls-8{fill:url(#linear-gradient-5);}.cls-9{fill:url(#linear-gradient-6);}.cls-10{fill:url(#linear-gradient-7);}.cls-11{fill:url(#linear-gradient-8);}.cls-12{fill:url(#linear-gradient-9);}.cls-13,.cls-14{mix-blend-mode:multiply;opacity:0.45;}.cls-13{fill:url(#linear-gradient-10);}.cls-14{fill:url(#linear-gradient-11);}.cls-15{mix-blend-mode:hard-light;opacity:0.75;fill:url(#linear-gradient-12);}</style><radialGradient id="radial-gradient" cx="71.49" cy="71.43" r="66.15" gradientUnits="userSpaceOnUse"><stop offset="0" stop-color="#ffd1b8"/><stop offset="1" stop-color="#ffd8d3" stop-opacity="0"/></radialGradient><radialGradient id="radial-gradient-2" cx="68.64" cy="34.79" r="82.75" gradientUnits="userSpaceOnUse"><stop offset="0" stop-color="#ffb56f"/><stop offset="1" stop-color="#fb367e"/></radialGradient><linearGradient id="linear-gradient" x1="83.78" y1="148.14" x2="56.98" y2="-32.65" gradientUnits="userSpaceOnUse"><stop offset="0" stop-color="#e0386f"/><stop offset="1" stop-color="#c93890" stop-opacity="0"/></linearGradient><linearGradient id="linear-gradient-2" x1="83.02" y1="148.25" x2="56.22" y2="-32.53" xlink:href="#linear-gradient"/><linearGradient id="linear-gradient-3" x1="82.45" y1="148.33" x2="55.65" y2="-32.45" xlink:href="#linear-gradient"/><linearGradient id="linear-gradient-4" x1="117.88" y1="143.08" x2="91.08" y2="-37.7" xlink:href="#linear-gradient"/><linearGradient id="linear-gradient-5" x1="80.5" y1="148.62" x2="53.7" y2="-32.16" xlink:href="#linear-gradient"/><linearGradient id="linear-gradient-6" x1="61.56" y1="151.43" x2="34.76" y2="-29.35" xlink:href="#linear-gradient"/><linearGradient id="linear-gradient-7" x1="92.91" y1="146.78" x2="66.11" y2="-34" xlink:href="#linear-gradient"/><linearGradient id="linear-gradient-8" x1="131.49" y1="141.06" x2="104.69" y2="-39.72" xlink:href="#linear-gradient"/><linearGradient id="linear-gradient-9" x1="122.22" y1="142.44" x2="95.42" y2="-38.35" xlink:href="#linear-gradient"/><linearGradient id="linear-gradient-10" x1="50.35" y1="108.57" x2="80.37" y2="55.81" gradientUnits="userSpaceOnUse"><stop offset="0" stop-color="#ca1b6a"/><stop offset="1" stop-color="#ca1b6a" stop-opacity="0.1"/></linearGradient><linearGradient id="linear-gradient-11" x1="46.89" y1="150.2" x2="89.77" y2="70.28" gradientUnits="userSpaceOnUse"><stop offset="0" stop-color="#a41b6a"/><stop offset="1" stop-color="#b51b6a" stop-opacity="0.13"/></linearGradient><linearGradient id="linear-gradient-12" x1="115.53" y1="19.3" x2="84.34" y2="57.32" gradientUnits="userSpaceOnUse"><stop offset="0" stop-color="#ffb8b1"/><stop offset="1" stop-color="#ffc4b1" stop-opacity="0.1"/></linearGradient></defs><g class="cls-1"><g id="Layer_2" data-name="Layer 2"><g id="OBJECTS"><path class="cls-2" d="M64.68.35C9.3,5.61-20.52,71.54,16.17,116.56h0a71.38,71.38,0,0,0,110.26.51h0C166.64,68.74,128.76-5.75,64.68.35Z"/><path class="cls-3" d="M126.79,71.34c0,.47,0,.94,0,1.41a55,55,0,0,1-.9,8.67c-.06.34-.13.69-.2,1-.22,1.09-.48,2.17-.77,3.23a54.6,54.6,0,0,1-4.05,10.6c-.55,1.07-1.12,2.12-1.73,3.15-.21.35-.42.71-.64,1-.62,1-1.27,2-2,2.92a56.24,56.24,0,0,1-4.43,5.44h0a54.68,54.68,0,0,1-8.17,7.25,55.69,55.69,0,0,1-7.36,4.5,55,55,0,0,1-25,6c-1.35,0-2.7,0-4-.14a55,55,0,0,1-32.44-13.61,55.64,55.64,0,0,1-8.29-9.12,54.81,54.81,0,0,1-10.1-26,56.19,56.19,0,0,1-.37-6.38c0-1.66.07-3.29.22-4.91a55.13,55.13,0,0,1,3-13.7c.49-1.34,1-2.66,1.59-3.95a55.39,55.39,0,0,1,13.94-18.9h0a55.74,55.74,0,0,1,9.45-6.71A55.28,55.28,0,0,1,123.35,52.1a53.17,53.17,0,0,1,1.91,6.29,55,55,0,0,1,1.5,11.19C126.78,70.16,126.79,70.75,126.79,71.34Z"/><path class="cls-4" d="M110.53,32.74c-3.69,11.6-22.72,13.15-49.42,6.49A53.34,53.34,0,0,0,24.34,43,55.27,55.27,0,0,1,44.5,23.62c7.42-.48,13.4,1.94,17.9,4,10.06,4.53,24.66,7.44,26,2.27,1.58-6.31-4.22-7.44-16.87-9.06-5.34-.68-7.68-2.12-8.59-3.54a55.28,55.28,0,0,1,47.63,15.48Z"/><path class="cls-5" d="M123.21,52.43C101.44,70.8,74,65.23,48.78,62.2,30.42,60,20.8,64,16.55,66.7a54.13,54.13,0,0,1,3-13.64c15.1-3.19,24.53-1.6,52,2.35,26.49,3.8,41.58-7.73,46.84-12.87A54.77,54.77,0,0,1,123.21,52.43Z"/><path class="cls-6" d="M126.63,73a54.84,54.84,0,0,1-1.1,9.66c-4.07-1.16-9.6-.91-20.3,3.49-14.92,6.15-21.09,3.88-40.88-1S36.45,84.84,37.1,89s9.08,10,25.3,7.44,31.15,4.53,31.15,9.06-15.25-1-42.18,6.15a43.69,43.69,0,0,1-16.3,1.18A54.79,54.79,0,0,1,16.7,77.93C25.16,67.11,40,67.69,54.29,72.55c17.2,5.82,28.55,6.47,49.32,1.29C116.08,70.73,123.05,71.71,126.63,73Z"/><path class="cls-7" d="M120.71,96.41a54.78,54.78,0,0,1-8.73,12.5c-1-5.68-15.83-7.57-8-11.78C109.53,94.11,117,95.43,120.71,96.41Z"/><path class="cls-8" d="M103.81,116.14a56.42,56.42,0,0,1-7.34,4.48A40.84,40.84,0,0,0,73.11,124c-2.06.93-3.93,1.74-5.65,2.44a55,55,0,0,1-19.1-4.91c4.36-.84,8.3-2.65,17.94-5.62C81.76,111.13,96.42,114,103.81,116.14Z"/><path class="cls-9" d="M48.13,86.13c-4.19.53-3.57,4.21-1.3,6.15s12.33,1.29,13-1S53.32,85.49,48.13,86.13Z"/><path class="cls-10" d="M76,23.39c-3.58,0-7.46-1.3-8.43,1.29s12.65,5.5,14,3.88S83.49,23.39,76,23.39Z"/><path class="cls-11" d="M126.62,69.83c-5.81-.39-12.71-1.86-12.3-4.07.71-3.93,7.66-6.23,10.8-7.07A54.56,54.56,0,0,1,126.62,69.83Z"/><path class="cls-12" d="M116.57,106.22l.41-1.08C116.76,105.74,116.62,106.11,116.57,106.22Z"/><path class="cls-13" d="M116.53,103.4a56.24,56.24,0,0,1-4.43,5.44h0a54.68,54.68,0,0,1-8.17,7.25,55.69,55.69,0,0,1-7.36,4.5,55,55,0,0,1-25,6c-1.35,0-2.7,0-4-.14A55.24,55.24,0,0,1,16.7,77.72a56.19,56.19,0,0,1-.37-6.38c0-1.66.07-3.29.22-4.91a55.13,55.13,0,0,1,3-13.7c.49-1.34,1-2.66,1.59-3.95C32.42,50,47.6,56.42,65.37,75.72,86.73,98.93,104.65,103.78,116.53,103.4Z"/><path class="cls-14" d="M124.9,85.68a54.6,54.6,0,0,1-4.05,10.6,55.32,55.32,0,0,1-4.32,7.12,56.24,56.24,0,0,1-4.43,5.44h0a54.68,54.68,0,0,1-8.17,7.25,55.69,55.69,0,0,1-7.36,4.5,55,55,0,0,1-25,6c-1.35,0-2.7,0-4-.14a55,55,0,0,1-32.44-13.61,55.64,55.64,0,0,1-8.29-9.12,98.51,98.51,0,0,0,29.65,6.77C101.69,113.86,118.61,97.39,124.9,85.68Z"/><path class="cls-15" d="M126.79,71.34c0,.47,0,.94,0,1.41a55,55,0,0,1-.9,8.67l-6.75,18-2.07,5.5c.36-1,.87-2.51,1.43-4.45,3.92-13.6,10.25-47.94-18.49-66.67C64,10.33,35.63,29.5,35.08,29.87a55.74,55.74,0,0,1,9.45-6.71A55.28,55.28,0,0,1,123.35,52.1a53.17,53.17,0,0,1,1.91,6.29,55,55,0,0,1,1.5,11.19C126.78,70.16,126.79,70.75,126.79,71.34Z"/></g></g></g></svg>