<svg xmlns="http://www.w3.org/2000/svg" xmlns:xlink="http://www.w3.org/1999/xlink" viewBox="0 0 170.21 170.21"><defs><style>.cls-1{isolation:isolate;}.cls-2{fill:url(#radial-gradient);}.cls-3{fill:url(#radial-gradient-2);}.cls-12,.cls-4,.cls-5,.cls-80,.cls-81{mix-blend-mode:screen;}.cls-4{fill:url(#radial-gradient-3);}.cls-5{fill:url(#radial-gradient-4);}.cls-6{mix-blend-mode:darken;opacity:0.8;}.cls-10,.cls-11,.cls-15,.cls-16,.cls-17,.cls-18,.cls-19,.cls-22,.cls-23,.cls-24,.cls-25,.cls-26,.cls-29,.cls-30,.cls-31,.cls-32,.cls-33,.cls-36,.cls-37,.cls-38,.cls-39,.cls-40,.cls-43,.cls-44,.cls-45,.cls-46,.cls-47,.cls-50,.cls-51,.cls-52,.cls-53,.cls-54,.cls-57,.cls-58,.cls-59,.cls-60,.cls-61,.cls-64,.cls-65,.cls-66,.cls-67,.cls-68,.cls-7,.cls-71,.cls-72,.cls-73,.cls-74,.cls-75,.cls-78,.cls-79,.cls-8,.cls-82,.cls-83,.cls-84,.cls-85,.cls-86,.cls-89,.cls-9,.cls-90,.cls-91,.cls-92,.cls-93,.cls-96{mix-blend-mode:multiply;}.cls-15,.cls-17,.cls-22,.cls-24,.cls-29,.cls-31,.cls-36,.cls-38,.cls-43,.cls-45,.cls-50,.cls-52,.cls-57,.cls-59,.cls-64,.cls-66,.cls-7,.cls-71,.cls-73,.cls-82,.cls-84,.cls-9,.cls-90,.cls-92{opacity:0.5;}.cls-7{fill:url(#radial-gradient-5);}.cls-8{fill:url(#radial-gradient-6);}.cls-9{fill:url(#radial-gradient-7);}.cls-10{fill:url(#radial-gradient-8);}.cls-11,.cls-19,.cls-26,.cls-33,.cls-40,.cls-47,.cls-54,.cls-61,.cls-68,.cls-75,.cls-86,.cls-89{opacity:0.4;}.cls-11{fill:url(#radial-gradient-9);}.cls-12{opacity:0.45;}.cls-13{fill:url(#radial-gradient-10);}.cls-14{fill:url(#radial-gradient-11);}.cls-15{fill:url(#radial-gradient-12);}.cls-16{fill:url(#radial-gradient-13);}.cls-17{fill:url(#radial-gradient-14);}.cls-18{fill:url(#radial-gradient-15);}.cls-19{fill:url(#radial-gradient-16);}.cls-20{fill:url(#radial-gradient-17);}.cls-21{fill:url(#radial-gradient-18);}.cls-22{fill:url(#radial-gradient-19);}.cls-23{fill:url(#radial-gradient-20);}.cls-24{fill:url(#radial-gradient-21);}.cls-25{fill:url(#radial-gradient-22);}.cls-26{fill:url(#radial-gradient-23);}.cls-27{fill:url(#radial-gradient-24);}.cls-28{fill:url(#radial-gradient-25);}.cls-29{fill:url(#radial-gradient-26);}.cls-30{fill:url(#radial-gradient-27);}.cls-31{fill:url(#radial-gradient-28);}.cls-32{fill:url(#radial-gradient-29);}.cls-33{fill:url(#radial-gradient-30);}.cls-34{fill:url(#radial-gradient-31);}.cls-35{fill:url(#radial-gradient-32);}.cls-36{fill:url(#radial-gradient-33);}.cls-37{fill:url(#radial-gradient-34);}.cls-38{fill:url(#radial-gradient-35);}.cls-39{fill:url(#radial-gradient-36);}.cls-40{fill:url(#radial-gradient-37);}.cls-41{fill:url(#radial-gradient-38);}.cls-42{fill:url(#radial-gradient-39);}.cls-43{fill:url(#radial-gradient-40);}.cls-44{fill:url(#radial-gradient-41);}.cls-45{fill:url(#radial-gradient-42);}.cls-46{fill:url(#radial-gradient-43);}.cls-47{fill:url(#radial-gradient-44);}.cls-48{fill:url(#radial-gradient-45);}.cls-49{fill:url(#radial-gradient-46);}.cls-50{fill:url(#radial-gradient-47);}.cls-51{fill:url(#radial-gradient-48);}.cls-52{fill:url(#radial-gradient-49);}.cls-53{fill:url(#radial-gradient-50);}.cls-54{fill:url(#radial-gradient-51);}.cls-55{fill:url(#radial-gradient-52);}.cls-56{fill:url(#radial-gradient-53);}.cls-57{fill:url(#radial-gradient-54);}.cls-58{fill:url(#radial-gradient-55);}.cls-59{fill:url(#radial-gradient-56);}.cls-60{fill:url(#radial-gradient-57);}.cls-61{fill:url(#radial-gradient-58);}.cls-62{fill:url(#radial-gradient-59);}.cls-63{fill:url(#radial-gradient-60);}.cls-64{fill:url(#radial-gradient-61);}.cls-65{fill:url(#radial-gradient-62);}.cls-66{fill:url(#radial-gradient-63);}.cls-67{fill:url(#radial-gradient-64);}.cls-68{fill:url(#radial-gradient-65);}.cls-69{fill:url(#radial-gradient-66);}.cls-70{fill:url(#radial-gradient-67);}.cls-71{fill:url(#radial-gradient-68);}.cls-72{fill:url(#radial-gradient-69);}.cls-73{fill:url(#radial-gradient-70);}.cls-74{fill:url(#radial-gradient-71);}.cls-75{fill:url(#radial-gradient-72);}.cls-76{fill:url(#radial-gradient-73);}.cls-77{fill:url(#radial-gradient-74);}.cls-78,.cls-79,.cls-96{opacity:0.6;}.cls-78{fill:url(#radial-gradient-75);}.cls-79{fill:url(#radial-gradient-76);}.cls-80{fill:url(#radial-gradient-77);}.cls-81{fill:url(#radial-gradient-78);}.cls-82{fill:url(#radial-gradient-79);}.cls-83{fill:url(#radial-gradient-80);}.cls-84{fill:url(#radial-gradient-81);}.cls-85{fill:url(#radial-gradient-82);}.cls-86{fill:url(#radial-gradient-83);}.cls-87{fill:url(#radial-gradient-84);}.cls-88{fill:url(#radial-gradient-85);}.cls-89{fill:url(#radial-gradient-86);}.cls-90{fill:url(#radial-gradient-87);}.cls-91{fill:url(#radial-gradient-88);}.cls-92{fill:url(#radial-gradient-89);}.cls-93{fill:url(#radial-gradient-90);}.cls-94{fill:url(#radial-gradient-91);}.cls-95{fill:url(#radial-gradient-92);}.cls-97{fill:url(#radial-gradient-93);}.cls-98{fill:url(#radial-gradient-94);}.cls-99{fill:url(#radial-gradient-95);}.cls-100{fill:url(#radial-gradient-96);}.cls-101{fill:url(#radial-gradient-97);}.cls-102{fill:url(#radial-gradient-98);}.cls-103{fill:url(#radial-gradient-99);}.cls-104{fill:url(#radial-gradient-100);}.cls-105{fill:url(#radial-gradient-101);}.cls-106{fill:url(#radial-gradient-102);}.cls-107{fill:url(#radial-gradient-103);}.cls-108{fill:url(#radial-gradient-104);}.cls-109{fill:url(#radial-gradient-105);}.cls-110{fill:url(#radial-gradient-106);}.cls-111{fill:url(#radial-gradient-107);}.cls-112{fill:url(#radial-gradient-108);}.cls-113{fill:url(#radial-gradient-109);}.cls-114{fill:url(#radial-gradient-110);}.cls-115{fill:url(#radial-gradient-111);}.cls-116{fill:url(#radial-gradient-112);}.cls-117{fill:url(#radial-gradient-113);}.cls-118{fill:url(#radial-gradient-114);}.cls-119{fill:url(#radial-gradient-115);}.cls-120{fill:url(#radial-gradient-116);}.cls-121{fill:url(#radial-gradient-117);}.cls-122{fill:url(#radial-gradient-118);}.cls-123{fill:url(#radial-gradient-119);}.cls-124{fill:url(#radial-gradient-120);}.cls-125{fill:url(#radial-gradient-121);}.cls-126{fill:url(#radial-gradient-122);}.cls-127{fill:url(#radial-gradient-123);}.cls-128{fill:url(#radial-gradient-124);}.cls-129{fill:url(#radial-gradient-125);}.cls-130{fill:url(#radial-gradient-126);}.cls-131{fill:url(#radial-gradient-127);}.cls-132{fill:url(#radial-gradient-128);}.cls-133{fill:url(#radial-gradient-129);}.cls-134{fill:url(#radial-gradient-130);}.cls-135{fill:url(#radial-gradient-131);}.cls-136{fill:url(#radial-gradient-132);}.cls-137{fill:url(#radial-gradient-133);}.cls-138{fill:url(#radial-gradient-134);}.cls-139{fill:url(#radial-gradient-135);}.cls-140{fill:url(#radial-gradient-136);}.cls-141{fill:url(#radial-gradient-137);}</style><radialGradient id="radial-gradient" cx="71.61" cy="-3.85" r="168.13" gradientTransform="translate(63.67 -39.1) rotate(37.4)" gradientUnits="userSpaceOnUse"><stop offset="0" stop-color="#f07"/><stop offset="0.14" stop-color="#fa0379"/><stop offset="0.31" stop-color="#ec0a80"/><stop offset="0.49" stop-color="#d4178a"/><stop offset="0.67" stop-color="#b32999"/><stop offset="0.87" stop-color="#8840ac"/><stop offset="0.9" stop-color="#8144af"/></radialGradient><radialGradient id="radial-gradient-2" cx="92.86" cy="85.66" r="87" gradientTransform="translate(63.67 -39.1) rotate(37.4)" gradientUnits="userSpaceOnUse"><stop offset="0" stop-color="#f07"/><stop offset="0.37" stop-color="#fe0077" stop-opacity="0.99"/><stop offset="0.51" stop-color="#fb0279" stop-opacity="0.97"/><stop offset="0.6" stop-color="#f5057c" stop-opacity="0.92"/><stop offset="0.68" stop-color="#ed0a7f" stop-opacity="0.85"/><stop offset="0.75" stop-color="#e21084" stop-opacity="0.77"/><stop offset="0.8" stop-color="#d4178a" stop-opacity="0.66"/><stop offset="0.86" stop-color="#c42091" stop-opacity="0.53"/><stop offset="0.91" stop-color="#b22a99" stop-opacity="0.39"/><stop offset="0.95" stop-color="#9c35a3" stop-opacity="0.22"/><stop offset="0.99" stop-color="#8642ad" stop-opacity="0.04"/><stop offset="1" stop-color="#8144af" stop-opacity="0"/></radialGradient><radialGradient id="radial-gradient-3" cx="148.04" cy="174.64" r="133.22" gradientTransform="matrix(0.82, 1.07, -0.94, 0.72, 185.7, -340.01)" gradientUnits="userSpaceOnUse"><stop offset="0.05" stop-color="#f3a300"/><stop offset="0.41" stop-color="#f3a201" stop-opacity="0.99"/><stop offset="0.54" stop-color="#f39f07" stop-opacity="0.96"/><stop offset="0.63" stop-color="#f29910" stop-opacity="0.92"/><stop offset="0.7" stop-color="#f2901c" stop-opacity="0.85"/><stop offset="0.77" stop-color="#f1852d" stop-opacity="0.76"/><stop offset="0.82" stop-color="#f17842" stop-opacity="0.64"/><stop offset="0.87" stop-color="#f0675a" stop-opacity="0.51"/><stop offset="0.92" stop-color="#ee5477" stop-opacity="0.35"/><stop offset="0.96" stop-color="#ed4096" stop-opacity="0.19"/><stop offset="1" stop-color="#ec29b8" stop-opacity="0"/></radialGradient><radialGradient id="radial-gradient-4" cx="68.76" cy="-0.59" r="136.29" gradientTransform="translate(63.67 -39.1) rotate(37.4)" xlink:href="#radial-gradient-3"/><radialGradient id="radial-gradient-5" cx="138.08" cy="106.15" r="98.46" gradientTransform="matrix(-0.76, -0.84, 0.82, -0.79, 88.2, 264.93)" xlink:href="#radial-gradient"/><radialGradient id="radial-gradient-6" cx="133.17" cy="105.74" r="83.19" gradientTransform="translate(86.61 257.93) rotate(-133)" xlink:href="#radial-gradient"/><radialGradient id="radial-gradient-7" cx="133.13" cy="101.11" r="78.9" gradientTransform="translate(86.61 257.93) rotate(-133)" xlink:href="#radial-gradient"/><radialGradient id="radial-gradient-8" cx="92.33" cy="126.18" r="87.68" gradientTransform="translate(86.61 257.93) rotate(-133)" xlink:href="#radial-gradient"/><radialGradient id="radial-gradient-9" cx="149.66" cy="116.87" r="107.39" gradientTransform="translate(86.61 257.93) rotate(-133)" xlink:href="#radial-gradient"/><radialGradient id="radial-gradient-10" cx="90.38" cy="85.57" r="12.61" gradientTransform="matrix(-0.44, -0.9, 0.9, -0.44, 67.86, 251.94)" xlink:href="#radial-gradient"/><radialGradient id="radial-gradient-11" cx="103.74" cy="40.83" r="9.55" gradientTransform="matrix(0.28, -0.72, 0.93, 0.37, 43.28, 204.61)" xlink:href="#radial-gradient"/><radialGradient id="radial-gradient-12" cx="156.87" cy="111.11" r="79.52" gradientTransform="matrix(-0.37, -1.09, 1.17, -0.55, 9.02, 269.41)" xlink:href="#radial-gradient"/><radialGradient id="radial-gradient-13" cx="158.93" cy="114.13" r="67.2" gradientTransform="matrix(-0.34, -0.96, 1.03, -0.47, 11.02, 262.58)" xlink:href="#radial-gradient"/><radialGradient id="radial-gradient-14" cx="158.9" cy="110.39" r="63.73" gradientTransform="matrix(-0.34, -0.96, 1.03, -0.47, 11.02, 262.58)" xlink:href="#radial-gradient"/><radialGradient id="radial-gradient-15" cx="125.94" cy="130.64" r="70.82" gradientTransform="matrix(-0.34, -0.96, 1.03, -0.47, 11.02, 262.58)" xlink:href="#radial-gradient"/><radialGradient id="radial-gradient-16" cx="172.25" cy="123.12" r="86.74" gradientTransform="matrix(-0.34, -0.96, 1.03, -0.47, 11.02, 262.58)" xlink:href="#radial-gradient"/><radialGradient id="radial-gradient-17" cx="127.11" cy="84.52" r="10.18" gradientTransform="matrix(-0.02, -1.06, 1.09, -0.16, -5.07, 249.78)" xlink:href="#radial-gradient"/><radialGradient id="radial-gradient-18" cx="137.19" cy="11.94" r="7.71" gradientTransform="matrix(0.61, -0.64, 0.75, 0.67, -8.04, 193.25)" xlink:href="#radial-gradient"/><radialGradient id="radial-gradient-19" cx="175.78" cy="162.87" r="79.52" gradientTransform="matrix(0.53, 0.77, -0.79, 0.69, 128.16, -120.11)" xlink:href="#radial-gradient"/><radialGradient id="radial-gradient-20" cx="181.32" cy="174.22" r="67.19" gradientTransform="matrix(0.48, 0.67, -0.7, 0.6, 128.62, -115.07)" xlink:href="#radial-gradient"/><radialGradient id="radial-gradient-21" cx="181.28" cy="170.48" r="63.73" gradientTransform="matrix(0.48, 0.67, -0.7, 0.6, 128.62, -115.07)" xlink:href="#radial-gradient"/><radialGradient id="radial-gradient-22" cx="148.33" cy="190.73" r="70.82" gradientTransform="matrix(0.48, 0.67, -0.7, 0.6, 128.62, -115.07)" xlink:href="#radial-gradient"/><radialGradient id="radial-gradient-23" cx="194.64" cy="183.21" r="86.74" gradientTransform="matrix(0.48, 0.67, -0.7, 0.6, 128.62, -115.07)" xlink:href="#radial-gradient"/><radialGradient id="radial-gradient-24" cx="165.57" cy="134.83" r="10.19" gradientTransform="matrix(0.25, 0.82, -0.81, 0.38, 143.76, -108.05)" xlink:href="#radial-gradient"/><radialGradient id="radial-gradient-25" cx="218.28" cy="16.06" r="7.71" gradientTransform="matrix(-0.33, 0.64, -0.73, -0.35, 157.38, -64.7)" xlink:href="#radial-gradient"/><radialGradient id="radial-gradient-26" cx="144.04" cy="144.49" r="74.06" gradientTransform="matrix(-1.14, 0.19, -0.36, -1.24, 268.03, 232.02)" xlink:href="#radial-gradient"/><radialGradient id="radial-gradient-27" cx="145.54" cy="152.73" r="62.58" gradientTransform="matrix(-1, 0.18, -0.3, -1.1, 261.3, 229.07)" xlink:href="#radial-gradient"/><radialGradient id="radial-gradient-28" cx="145.51" cy="149.24" r="59.36" gradientTransform="matrix(-1, 0.18, -0.3, -1.1, 261.3, 229.07)" xlink:href="#radial-gradient"/><radialGradient id="radial-gradient-29" cx="114.82" cy="168.1" r="65.96" gradientTransform="matrix(-1, 0.18, -0.3, -1.1, 261.3, 229.07)" xlink:href="#radial-gradient"/><radialGradient id="radial-gradient-30" cx="157.94" cy="161.1" r="80.79" gradientTransform="matrix(-1, 0.18, -0.3, -1.1, 261.3, 229.07)" xlink:href="#radial-gradient"/><radialGradient id="radial-gradient-31" cx="128.45" cy="125.07" r="9.49" gradientTransform="matrix(-1.05, -0.15, 0.01, -1.1, 245.9, 243.2)" xlink:href="#radial-gradient"/><radialGradient id="radial-gradient-32" cx="177.03" cy="37.18" r="7.18" gradientTransform="matrix(-0.54, -0.7, 0.78, -0.63, 189.69, 236.4)" xlink:href="#radial-gradient"/><radialGradient id="radial-gradient-33" cx="125.81" cy="133.22" r="47.23" gradientTransform="matrix(1.15, -0.06, 0.21, 1.28, -80.33, -74.84)" xlink:href="#radial-gradient"/><radialGradient id="radial-gradient-34" cx="129.62" cy="143.51" r="39.91" gradientTransform="matrix(1.02, -0.06, 0.17, 1.12, -73.89, -71.41)" xlink:href="#radial-gradient"/><radialGradient id="radial-gradient-35" cx="129.6" cy="141.29" r="37.85" gradientTransform="matrix(1.02, -0.06, 0.17, 1.12, -73.89, -71.41)" xlink:href="#radial-gradient"/><radialGradient id="radial-gradient-36" cx="110.03" cy="153.32" r="42.06" gradientTransform="matrix(1.02, -0.06, 0.17, 1.12, -73.89, -71.41)" xlink:href="#radial-gradient"/><radialGradient id="radial-gradient-37" cx="137.53" cy="148.85" r="51.52" gradientTransform="matrix(1.02, -0.06, 0.17, 1.12, -73.89, -71.41)" xlink:href="#radial-gradient"/><radialGradient id="radial-gradient-38" cx="125.8" cy="117.47" r="6.05" gradientTransform="matrix(1.02, 0.27, -0.13, 1.09, -57.51, -82.81)" xlink:href="#radial-gradient"/><radialGradient id="radial-gradient-39" cx="171.18" cy="31.84" r="4.58" gradientTransform="matrix(0.46, 0.76, -0.84, 0.54, -2.37, -70.13)" xlink:href="#radial-gradient"/><radialGradient id="radial-gradient-40" cx="63.04" cy="107.59" r="78.96" gradientTransform="matrix(1.01, -0.51, 0.53, 1.01, -29.88, -9.67)" xlink:href="#radial-gradient"/><radialGradient id="radial-gradient-41" cx="52.19" cy="110.07" r="66.72" gradientTransform="translate(-23.47 -10.06) rotate(-27.23)" xlink:href="#radial-gradient"/><radialGradient id="radial-gradient-42" cx="52.16" cy="106.35" r="63.28" gradientTransform="translate(-23.47 -10.06) rotate(-27.23)" xlink:href="#radial-gradient"/><radialGradient id="radial-gradient-43" cx="19.44" cy="126.47" r="70.33" gradientTransform="translate(-23.47 -10.06) rotate(-27.23)" xlink:href="#radial-gradient"/><radialGradient id="radial-gradient-44" cx="65.42" cy="118.99" r="86.13" gradientTransform="translate(-23.47 -10.06) rotate(-27.23)" xlink:href="#radial-gradient"/><radialGradient id="radial-gradient-45" cx="23.95" cy="111.94" r="10.11" gradientTransform="matrix(0.98, -0.18, 0.18, 0.98, -11.6, -26.94)" xlink:href="#radial-gradient"/><radialGradient id="radial-gradient-46" cx="71.88" cy="105.04" r="7.66" gradientTransform="matrix(0.61, 0.47, -0.61, 0.79, 40.96, -36.57)" xlink:href="#radial-gradient"/><radialGradient id="radial-gradient-47" cx="79.26" cy="160.68" r="65.97" gradientTransform="matrix(-1.07, 0.36, -0.38, -1.07, 237.91, 243.23)" xlink:href="#radial-gradient"/><radialGradient id="radial-gradient-48" cx="74.24" cy="172.22" r="55.75" gradientTransform="translate(231.97 242.3) rotate(160.99)" xlink:href="#radial-gradient"/><radialGradient id="radial-gradient-49" cx="74.2" cy="169.12" r="52.87" gradientTransform="translate(231.97 242.3) rotate(160.99)" xlink:href="#radial-gradient"/><radialGradient id="radial-gradient-50" cx="46.87" cy="185.92" r="58.75" gradientTransform="translate(231.97 242.3) rotate(160.99)" xlink:href="#radial-gradient"/><radialGradient id="radial-gradient-51" cx="85.28" cy="179.68" r="71.96" gradientTransform="translate(231.97 242.3) rotate(160.99)" xlink:href="#radial-gradient"/><radialGradient id="radial-gradient-52" cx="70.48" cy="162.36" r="8.45" gradientTransform="translate(217.75 256.08) rotate(178.1)" xlink:href="#radial-gradient"/><radialGradient id="radial-gradient-53" cx="163.91" cy="104.82" r="6.4" gradientTransform="matrix(-0.54, -0.55, 0.71, -0.7, 164.29, 259.82)" xlink:href="#radial-gradient"/><radialGradient id="radial-gradient-54" cx="79.48" cy="131.61" r="35.38" gradientTransform="matrix(-1.13, -0.03, 0.01, -1.14, 188.9, 274.61)" xlink:href="#radial-gradient"/><radialGradient id="radial-gradient-55" cx="79.72" cy="142.55" r="29.89" gradientTransform="translate(183.56 271) rotate(-178.96)" xlink:href="#radial-gradient"/><radialGradient id="radial-gradient-56" cx="79.7" cy="140.88" r="28.35" gradientTransform="translate(183.56 271) rotate(-178.96)" xlink:href="#radial-gradient"/><radialGradient id="radial-gradient-57" cx="65.04" cy="149.89" r="31.51" gradientTransform="translate(183.56 271) rotate(-178.96)" xlink:href="#radial-gradient"/><radialGradient id="radial-gradient-58" cx="85.64" cy="146.55" r="38.59" gradientTransform="translate(183.56 271) rotate(-178.96)" xlink:href="#radial-gradient"/><radialGradient id="radial-gradient-59" cx="84.5" cy="129.86" r="4.53" gradientTransform="translate(165.92 279.63) rotate(-161.84)" xlink:href="#radial-gradient"/><radialGradient id="radial-gradient-60" cx="147.28" cy="69.58" r="3.43" gradientTransform="matrix(-0.32, -0.7, 0.91, -0.41, 113.96, 263.75)" xlink:href="#radial-gradient"/><radialGradient id="radial-gradient-61" cx="161.11" cy="196.9" r="65.97" gradientTransform="matrix(0.1, -1.13, 1.14, 0.07, -170.05, 251.59)" xlink:href="#radial-gradient"/><radialGradient id="radial-gradient-62" cx="166.4" cy="214.11" r="55.74" gradientTransform="translate(-166.4 245.57) rotate(-85.7)" xlink:href="#radial-gradient"/><radialGradient id="radial-gradient-63" cx="166.37" cy="211.01" r="52.87" gradientTransform="translate(-166.4 245.57) rotate(-85.7)" xlink:href="#radial-gradient"/><radialGradient id="radial-gradient-64" cx="139.03" cy="227.81" r="58.76" gradientTransform="translate(-166.4 245.57) rotate(-85.7)" xlink:href="#radial-gradient"/><radialGradient id="radial-gradient-65" cx="177.44" cy="221.57" r="71.96" gradientTransform="translate(-166.4 245.57) rotate(-85.7)" xlink:href="#radial-gradient"/><radialGradient id="radial-gradient-66" cx="172.12" cy="175.93" r="8.45" gradientTransform="translate(-174.47 227.95) rotate(-68.58)" xlink:href="#radial-gradient"/><radialGradient id="radial-gradient-67" cx="265.17" cy="38.78" r="6.4" gradientTransform="matrix(0.72, -0.28, 0.36, 0.93, -156.16, 177.41)" xlink:href="#radial-gradient"/><radialGradient id="radial-gradient-68" cx="169.05" cy="136.6" r="35.37" gradientTransform="matrix(0.48, -1.03, 1.04, 0.46, -178.43, 194.08)" xlink:href="#radial-gradient"/><radialGradient id="radial-gradient-69" cx="181.21" cy="149.82" r="29.89" gradientTransform="translate(-173.39 190.44) rotate(-65.64)" xlink:href="#radial-gradient"/><radialGradient id="radial-gradient-70" cx="181.19" cy="148.15" r="28.35" gradientTransform="translate(-173.39 190.44) rotate(-65.64)" xlink:href="#radial-gradient"/><radialGradient id="radial-gradient-71" cx="166.53" cy="157.17" r="31.51" gradientTransform="translate(-173.39 190.44) rotate(-65.64)" xlink:href="#radial-gradient"/><radialGradient id="radial-gradient-72" cx="187.13" cy="153.82" r="38.59" gradientTransform="translate(-173.39 190.44) rotate(-65.64)" xlink:href="#radial-gradient"/><radialGradient id="radial-gradient-73" cx="183.24" cy="108" r="4.53" gradientTransform="translate(-174.86 169.84) rotate(-48.53)" xlink:href="#radial-gradient"/><radialGradient id="radial-gradient-74" cx="213.12" cy="-19.09" r="3.43" gradientTransform="matrix(0.77, -0.01, 0.02, 1, -139.9, 129.49)" xlink:href="#radial-gradient"/><radialGradient id="radial-gradient-75" cx="71.61" cy="18.1" r="151.84" xlink:href="#radial-gradient"/><radialGradient id="radial-gradient-76" cx="74.83" cy="46.68" r="122.49" xlink:href="#radial-gradient"/><radialGradient id="radial-gradient-77" cx="83.3" cy="5.9" r="45.17" gradientTransform="translate(81.39 -51.16) rotate(48.78)" xlink:href="#radial-gradient-3"/><radialGradient id="radial-gradient-78" cx="62.37" cy="25.07" r="23.93" gradientTransform="translate(35.38 -18.03) rotate(8.8)" xlink:href="#radial-gradient-3"/><radialGradient id="radial-gradient-79" cx="115.62" cy="83.51" r="108.15" gradientTransform="matrix(0.89, 0.7, -0.68, 0.91, 61.22, -44.84)" xlink:href="#radial-gradient"/><radialGradient id="radial-gradient-80" cx="106.43" cy="78.93" r="91.4" xlink:href="#radial-gradient"/><radialGradient id="radial-gradient-81" cx="106.38" cy="73.84" r="86.68" xlink:href="#radial-gradient"/><radialGradient id="radial-gradient-82" cx="61.57" cy="101.39" r="96.33" xlink:href="#radial-gradient"/><radialGradient id="radial-gradient-83" cx="124.55" cy="91.15" r="117.98" xlink:href="#radial-gradient"/><radialGradient id="radial-gradient-84" cx="50.62" cy="68.86" r="13.85" gradientTransform="translate(83.8 -35.63) rotate(54.51)" xlink:href="#radial-gradient"/><radialGradient id="radial-gradient-85" cx="50.54" cy="59.32" r="10.48" gradientTransform="matrix(-0.16, 0.75, -0.98, -0.21, 115.28, 7.78)" xlink:href="#radial-gradient"/><radialGradient id="radial-gradient-86" cx="164" cy="186.42" r="118.71" gradientTransform="matrix(-0.29, 0.96, -0.96, -0.29, 297.08, 15.62)" xlink:href="#radial-gradient"/><radialGradient id="radial-gradient-87" cx="150.24" cy="167.22" r="108.82" gradientTransform="matrix(-0.34, 1.08, -1.09, -0.32, 302.24, 10.67)" xlink:href="#radial-gradient"/><radialGradient id="radial-gradient-88" cx="145.77" cy="174.12" r="91.96" gradientTransform="matrix(-0.29, 0.96, -0.96, -0.29, 297.08, 15.62)" xlink:href="#radial-gradient"/><radialGradient id="radial-gradient-89" cx="145.72" cy="169" r="87.22" gradientTransform="matrix(-0.29, 0.96, -0.96, -0.29, 297.08, 15.62)" xlink:href="#radial-gradient"/><radialGradient id="radial-gradient-90" cx="100.63" cy="196.71" r="96.92" gradientTransform="matrix(-0.29, 0.96, -0.96, -0.29, 297.08, 15.62)" xlink:href="#radial-gradient"/><radialGradient id="radial-gradient-91" cx="115.96" cy="147.83" r="13.94" gradientTransform="translate(300.53 35.34) rotate(124.03)" xlink:href="#radial-gradient"/><radialGradient id="radial-gradient-92" cx="184.75" cy="64.58" r="10.56" gradientTransform="matrix(-0.76, 0.11, -0.15, -0.99, 272.1, 79.88)" xlink:href="#radial-gradient"/><radialGradient id="radial-gradient-93" cx="91.12" cy="-4.11" r="178.62" xlink:href="#radial-gradient"/><radialGradient id="radial-gradient-94" cx="91.13" cy="-4.18" r="178.73" xlink:href="#radial-gradient"/><radialGradient id="radial-gradient-95" cx="91.13" cy="-4.19" r="178.73" xlink:href="#radial-gradient"/><radialGradient id="radial-gradient-96" cx="91.12" cy="-4.15" r="178.68" xlink:href="#radial-gradient"/><radialGradient id="radial-gradient-97" cx="91.13" cy="-4.25" r="178.85" xlink:href="#radial-gradient"/><radialGradient id="radial-gradient-98" cx="91.12" cy="-4.21" r="178.78" xlink:href="#radial-gradient"/><radialGradient id="radial-gradient-99" cx="91.11" cy="-4.26" r="178.87" xlink:href="#radial-gradient"/><radialGradient id="radial-gradient-100" cx="91.12" cy="-4.16" r="178.68" xlink:href="#radial-gradient"/><radialGradient id="radial-gradient-101" cx="91.12" cy="-4.18" r="178.72" xlink:href="#radial-gradient"/><radialGradient id="radial-gradient-102" cx="91.13" cy="-4.19" r="178.75" xlink:href="#radial-gradient"/><radialGradient id="radial-gradient-103" cx="91.12" cy="-4.2" r="178.77" xlink:href="#radial-gradient"/><radialGradient id="radial-gradient-104" cx="91.12" cy="-4.19" r="178.73" xlink:href="#radial-gradient"/><radialGradient id="radial-gradient-105" cx="91.12" cy="-4.16" r="178.65" xlink:href="#radial-gradient"/><radialGradient id="radial-gradient-106" cx="91.11" cy="-4.13" r="178.6" xlink:href="#radial-gradient"/><radialGradient id="radial-gradient-107" cx="91.12" cy="-4.19" r="178.73" xlink:href="#radial-gradient"/><radialGradient id="radial-gradient-108" cx="91.13" cy="-4.15" r="178.65" xlink:href="#radial-gradient"/><radialGradient id="radial-gradient-109" cx="91.12" cy="-4.17" r="178.7" xlink:href="#radial-gradient"/><radialGradient id="radial-gradient-110" cx="91.12" cy="-4.18" r="178.71" xlink:href="#radial-gradient"/><radialGradient id="radial-gradient-111" cx="91.13" cy="-4.18" r="178.66" xlink:href="#radial-gradient"/><radialGradient id="radial-gradient-112" cx="91.12" cy="-4.18" r="178.72" xlink:href="#radial-gradient"/><radialGradient id="radial-gradient-113" cx="91.13" cy="-4.13" r="178.62" xlink:href="#radial-gradient"/><radialGradient id="radial-gradient-114" cx="91.12" cy="-4.19" r="178.73" xlink:href="#radial-gradient"/><radialGradient id="radial-gradient-115" cx="91.11" cy="-4.18" r="178.73" xlink:href="#radial-gradient"/><radialGradient id="radial-gradient-116" cx="91.11" cy="-4.2" r="178.77" xlink:href="#radial-gradient"/><radialGradient id="radial-gradient-117" cx="91.12" cy="-4.18" r="178.72" xlink:href="#radial-gradient"/><radialGradient id="radial-gradient-118" cx="91.13" cy="-4.24" r="178.79" xlink:href="#radial-gradient"/><radialGradient id="radial-gradient-119" cx="91.11" cy="-4.19" r="178.73" xlink:href="#radial-gradient"/><radialGradient id="radial-gradient-120" cx="91.12" cy="-4.28" r="178.83" xlink:href="#radial-gradient"/><radialGradient id="radial-gradient-121" cx="91.15" cy="-4.22" r="178.77" xlink:href="#radial-gradient"/><radialGradient id="radial-gradient-122" cx="91.13" cy="-4.2" r="178.75" xlink:href="#radial-gradient"/><radialGradient id="radial-gradient-123" cx="91.12" cy="-4.16" r="178.7" xlink:href="#radial-gradient"/><radialGradient id="radial-gradient-124" cx="91.12" cy="-4.16" r="178.69" xlink:href="#radial-gradient"/><radialGradient id="radial-gradient-125" cx="91.12" cy="-4.36" r="178.95" xlink:href="#radial-gradient"/><radialGradient id="radial-gradient-126" cx="91.12" cy="-4.25" r="178.8" xlink:href="#radial-gradient"/><radialGradient id="radial-gradient-127" cx="91.12" cy="-4.19" r="178.74" xlink:href="#radial-gradient"/><radialGradient id="radial-gradient-128" cx="91.13" cy="-4.16" r="178.69" xlink:href="#radial-gradient"/><radialGradient id="radial-gradient-129" cx="91.13" cy="-4.18" r="178.71" xlink:href="#radial-gradient"/><radialGradient id="radial-gradient-130" cx="91.11" cy="-4.27" r="178.85" xlink:href="#radial-gradient"/><radialGradient id="radial-gradient-131" cx="91.11" cy="-4.19" r="178.75" xlink:href="#radial-gradient"/><radialGradient id="radial-gradient-132" cx="91.1" cy="-4.15" r="178.7" xlink:href="#radial-gradient"/><radialGradient id="radial-gradient-133" cx="91.08" cy="-4.17" r="178.75" xlink:href="#radial-gradient"/><radialGradient id="radial-gradient-134" cx="91.09" cy="-4.18" r="178.74" xlink:href="#radial-gradient"/><radialGradient id="radial-gradient-135" cx="91.15" cy="-4.12" r="178.64" xlink:href="#radial-gradient"/><radialGradient id="radial-gradient-136" cx="91.15" cy="-4.2" r="178.69" xlink:href="#radial-gradient"/><radialGradient id="radial-gradient-137" cx="91.12" cy="-4.19" r="178.73" xlink:href="#radial-gradient"/></defs><g class="cls-1"><g id="Layer_2" data-name="Layer 2"><g id="OBJECTS"><path class="cls-2" d="M145.52,131.29a76,76,0,1,1-14.23-106.6A76,76,0,0,1,145.52,131.29Z"/><path class="cls-3" d="M152.71,136.79A85.1,85.1,0,1,1,136.79,17.5,85.09,85.09,0,0,1,152.71,136.79Z"/><path class="cls-4" d="M46.14,43c1.16-6.79,7.25-13.17,12.4-16.69C69.42,18.82,83.43,18.19,96.09,20c39.55,5.73,55.4,48.18,48.68,62.35s-23.88,11.29-37.49-5.32S67.07,69.32,55.56,60.61c-4.39-3.32-8.33-7.48-9.4-13.13A12.71,12.71,0,0,1,46.14,43Z"/><path class="cls-5" d="M23.73,45.17a76,76,0,0,1,136,54.64A76.05,76.05,0,1,0,9.52,76.65,75.72,75.72,0,0,1,23.73,45.17Z"/><g class="cls-6"><path class="cls-7" d="M57.31,138.46c1.46-9.9,14.53-16.16,29.19-14s25.37,11.94,23.91,21.84-14.53,16.16-29.2,14S55.85,148.35,57.31,138.46Z"/><path class="cls-8" d="M63.52,141.74c1.07-7.28,10.9-11.86,21.94-10.23s19.13,8.86,18.06,16.14-10.9,11.86-22,10.23S62.44,149,63.52,141.74Z"/><path class="cls-9" d="M77.31,135.35c11,1.63,19.13,8.85,18,16.13a10,10,0,0,1-3.55,6.1c6.32-1.39,11-5.05,11.71-9.93,1.07-7.28-7-14.51-18.06-16.14-7.46-1.1-14.36.64-18.39,4.13A28.53,28.53,0,0,1,77.31,135.35Z"/><path class="cls-10" d="M81.61,152.19c-8.93-1.32-15.92-6.3-17.7-12a7.49,7.49,0,0,0-.39,1.55c-1.08,7.28,7,14.51,18,16.14s20.87-2.95,22-10.23a9.23,9.23,0,0,0-.36-4.14C101,149.87,91.84,153.7,81.61,152.19Z"/><path class="cls-11" d="M68.74,127.27c11.47-5.88,31.17,4.24,15,2.8s-22.05,7.79-21.81,13.43,6.64,11.4,14,13.93,19.73,2.75,26.5-4.82-3.83-17.58-3.67-19,5.22-.47,9.62,7a11.17,11.17,0,0,1,1.25,8.58,12.62,12.62,0,0,0,.79-2.86c1.46-9.9-9.24-19.67-23.91-21.84C73.63,122.56,62,127.16,58.34,135A36.94,36.94,0,0,1,68.74,127.27Z"/><g class="cls-12"><path class="cls-13" d="M105.22,138.87c.69-.33,1.81.57,2.51,2s.72,2.89,0,3.23-1.8-.58-2.51-2S104.54,139.2,105.22,138.87Z"/><path class="cls-14" d="M107.85,147.22c.53.21.69,1.09.34,2s-1.06,1.41-1.6,1.2-.68-1.1-.34-2S107.31,147,107.85,147.22Z"/></g></g><g class="cls-6"><path class="cls-15" d="M44.61,93.75c4.84-7.8,17.58-9.66,28.45-4.17S88.81,105.86,84,113.65s-17.57,9.67-28.44,4.17S39.77,101.55,44.61,93.75Z"/><path class="cls-16" d="M48.33,98c3.57-5.74,13.09-7,21.28-2.89S81.55,107.29,78,113s-13.08,7-21.27,2.9S44.77,103.77,48.33,98Z"/><path class="cls-17" d="M61.69,96.24c8.19,4.14,11.94,12.15,8.38,17.88a10.65,10.65,0,0,1-5.1,4.14c5.55.45,10.63-1.39,13-5.24,3.57-5.73-.18-13.74-8.37-17.88-5.53-2.8-11.67-3.11-16.17-1.25A22.4,22.4,0,0,1,61.69,96.24Z"/><path class="cls-18" d="M58.85,111.23c-6.62-3.35-10.33-9.22-9.63-14.38A10.41,10.41,0,0,0,48.33,98c-3.56,5.74.19,13.74,8.38,17.89S74.42,118.76,78,113a8.75,8.75,0,0,0,1.26-3.5C75.17,114.23,66.44,115.07,58.85,111.23Z"/><path class="cls-19" d="M57.87,87.41c11.32-2,23.24,11.38,10.87,6.09s-20.45.86-22.36,5.57,1.06,11.09,6,15.05,14.69,7.26,22.89,2.73,3.49-15.48,4.14-16.6,4.33.93,5.07,8.17a10.45,10.45,0,0,1-2.19,7.4A12.27,12.27,0,0,0,84,113.65c4.84-7.79,0-18.57-10.91-24.07-9.54-4.82-20.53-4-26.34,1.59A36.65,36.65,0,0,1,57.87,87.41Z"/><g class="cls-12"><path class="cls-20" d="M82.61,106.21c.66-.1,1.22.93,1.25,2.3s-.51,2.56-1.18,2.66-1.23-.92-1.25-2.3S81.94,106.31,82.61,106.21Z"/><path class="cls-21" d="M81.59,113.77c.35.31.14,1.07-.46,1.7s-1.36.9-1.71.58-.14-1.07.46-1.7S81.24,113.45,81.59,113.77Z"/></g></g><g class="cls-6"><path class="cls-22" d="M108.41,75.59c-2,7.19-11.57,11.56-21.28,9.75S71.21,76.23,73.25,69s11.57-11.55,21.28-9.75S110.45,68.4,108.41,75.59Z"/><path class="cls-23" d="M104.55,73.1c-1.5,5.29-8.65,8.47-16,7.11s-12-6.76-10.53-12,8.65-8.48,16-7.12S106.05,67.81,104.55,73.1Z"/><path class="cls-24" d="M94.52,77.55c-7.31-1.37-12-6.76-10.52-12a8.6,8.6,0,0,1,3.06-4.39c-4.44.91-8,3.51-9,7.06-1.5,5.28,3.21,10.68,10.53,12,4.94.92,9.8-.24,12.9-2.72A18.31,18.31,0,0,1,94.52,77.55Z"/><path class="cls-25" d="M93.4,65.2c5.91,1.1,10.12,4.84,10.72,9a7.2,7.2,0,0,0,.43-1.12c1.5-5.29-3.21-10.69-10.52-12s-14.46,1.82-16,7.12a7.38,7.38,0,0,0-.2,3C80,66.58,86.62,63.93,93.4,65.2Z"/><path class="cls-26" d="M99.47,83.57c-8.4,4.11-20.68-3.58-9.84-2.28S105.4,76,105.84,71.84s-3.29-8.41-8-10.38-13.08-2.31-18.47,3.1.72,12.88.47,13.9-3.59.26-5.79-5.22A8.53,8.53,0,0,1,74.09,67,10.66,10.66,0,0,0,73.25,69c-2,7.19,4.17,14.49,13.88,16.3,8.53,1.59,16.91-1.59,20.21-7.25A30.18,30.18,0,0,1,99.47,83.57Z"/><g class="cls-12"><path class="cls-27" d="M76,74.54c-.49.23-1.16-.45-1.48-1.51s-.18-2.12.32-2.35,1.16.44,1.48,1.51S76.47,74.31,76,74.54Z"/><path class="cls-28" d="M75.08,68.41c-.34-.16-.35-.81,0-1.44s.87-1,1.21-.84.35.8,0,1.43S75.42,68.57,75.08,68.41Z"/></g></g><g class="cls-6"><path class="cls-29" d="M99.39,122.35c-6.47-5.59-6.34-17.58.3-26.78S117,83.44,123.42,89s6.33,17.57-.3,26.77S105.86,127.93,99.39,122.35Z"/><path class="cls-30" d="M103.87,119.54c-4.76-4.11-4.57-13.06.43-20s12.91-9.22,17.67-5.11,4.57,13.07-.43,20S108.63,123.65,103.87,119.54Z"/><path class="cls-31" d="M104.16,107c5-6.93,12.91-9.21,17.67-5.1a9.86,9.86,0,0,1,3.07,5.29c1.22-5.05.26-10-2.93-12.74-4.76-4.11-12.67-1.82-17.67,5.11-3.38,4.68-4.55,10.29-3.5,14.7A20.94,20.94,0,0,1,104.16,107Z"/><path class="cls-32" d="M117.54,111.78c-4,5.61-10,8.17-14.63,6.77a9,9,0,0,0,1,1c4.76,4.11,12.67,1.83,17.67-5.1s5.19-15.89.43-20a8.32,8.32,0,0,0-3-1.66C122.67,97.21,122.17,105.36,117.54,111.78Z"/><path class="cls-33" d="M95.48,109.23c-.15-10.71,13.85-19.73,7.19-9.12s-2.19,18.94,1.87,21.38,10.36.64,14.72-3.33,8.81-12.46,5.83-20.66S111.36,92,110.42,91.29s1.49-3.85,8.25-3.49a9.72,9.72,0,0,1,6.49,3.1A11.42,11.42,0,0,0,123.42,89c-6.47-5.59-17.09-2.66-23.73,6.54-5.82,8.08-6.64,18.3-2.37,24.46A33.89,33.89,0,0,1,95.48,109.23Z"/><g class="cls-12"><path class="cls-34" d="M116.37,89.2c0-.63,1-1,2.3-.81s2.29.83,2.28,1.46-1,1-2.3.82S116.37,89.83,116.37,89.2Z"/><path class="cls-35" d="M123.18,91.23c.33-.27,1,0,1.5.67s.62,1.39.29,1.66-1,0-1.51-.66S122.84,91.51,123.18,91.23Z"/></g></g><g class="cls-6"><path class="cls-36" d="M66.11,57.55c3.69,4,2.72,11.6-2.16,16.94S52.12,80.9,48.43,76.88s-2.71-11.6,2.17-16.94S62.43,53.53,66.11,57.55Z"/><path class="cls-37" d="M63.07,59c2.71,3,1.93,8.61-1.75,12.62s-8.86,4.89-11.57,1.94-1.93-8.62,1.75-12.63S60.36,56,63.07,59Z"/><path class="cls-38" d="M62,66.92c-3.68,4-8.86,4.89-11.57,1.93a6.25,6.25,0,0,1-1.55-3.58c-1.15,3.11-.91,6.3.91,8.29,2.71,3,7.89,2.09,11.57-1.94a11.84,11.84,0,0,0,3.3-9A13.23,13.23,0,0,1,62,66.92Z"/><path class="cls-39" d="M53.84,62.9c3-3.25,6.92-4.44,9.76-3.21a5.06,5.06,0,0,0-.53-.69c-2.71-3-7.89-2.09-11.57,1.93S47,70.6,49.75,73.56a5.5,5.5,0,0,0,1.8,1.28C49.51,71.75,50.43,66.63,53.84,62.9Z"/><path class="cls-40" d="M67.62,66.15c-.7,6.79-10.23,11.47-5.23,5.24s2.79-11.83.4-13.68-6.51-1.17-9.57,1S46.72,66,48,71.39s8.3,4.47,8.83,5-1.22,2.32-5.48,1.6a6.26,6.26,0,0,1-3.89-2.44,7.79,7.79,0,0,0,1,1.31c3.69,4,10.63,2.94,15.52-2.39,4.28-4.69,5.55-11.11,3.3-15.32A21.81,21.81,0,0,1,67.62,66.15Z"/><g class="cls-12"><path class="cls-41" d="M52.91,77.29c0,.4-.73.55-1.52.35s-1.38-.7-1.33-1.1.72-.55,1.51-.35S53,76.89,52.91,77.29Z"/><path class="cls-42" d="M48.75,75.5c-.23.15-.64-.09-.9-.54s-.3-.92-.06-1.07.64.09.9.54S49,75.35,48.75,75.5Z"/></g></g><g class="cls-6"><path class="cls-43" d="M38.12,40.81c7.32,3.28,9.31,14.73,4.45,25.58s-14.75,17-22.07,13.69S11.2,65.35,16.06,54.5,30.81,37.52,38.12,40.81Z"/><path class="cls-44" d="M34.24,44.88c5.38,2.42,6.78,11,3.11,19.17S26.35,76.88,21,74.47s-6.77-11-3.11-19.17S28.85,42.47,34.24,44.88Z"/><path class="cls-45" d="M36.17,56.92c-3.67,8.17-11,12.84-16.39,10.42a8,8,0,0,1-3.93-4.07c-.3,5.18,1.5,9.58,5.11,11.2,5.39,2.41,12.73-2.25,16.39-10.42C39.83,58.53,40,52.82,38.17,49A22.8,22.8,0,0,1,36.17,56.92Z"/><path class="cls-46" d="M22.23,56.57c3-6.61,8.33-10.92,13.12-11a7.62,7.62,0,0,0-1.11-.64c-5.39-2.41-12.72,2.25-16.39,10.42S15.58,72.05,21,74.47a7.51,7.51,0,0,0,3.27.63C19.79,72.05,18.84,64.14,22.23,56.57Z"/><path class="cls-47" d="M44.27,52.07C46.31,62.2,34.21,75.2,38.85,63s-1.21-18.71-5.62-19.76S23,45.89,19.43,51,13,65.67,17.37,72.54s14.4.88,15.45,1.3S32,78,25.36,79.75a9,9,0,0,1-6.89-.9,9.72,9.72,0,0,0,2,1.23c7.32,3.28,17.2-2.85,22.07-13.69,4.27-9.53,3.25-19.51-2-24A29.35,29.35,0,0,1,44.27,52.07Z"/><g class="cls-12"><path class="cls-48" d="M27.37,77.7c.11.6-.84,1.27-2.11,1.49s-2.38-.07-2.49-.67.84-1.27,2.11-1.5S27.26,77.1,27.37,77.7Z"/><path class="cls-49" d="M20.35,77.9c-.28.37-1,.3-1.59-.16s-.85-1.13-.57-1.49,1-.3,1.59.16S20.63,77.54,20.35,77.9Z"/></g></g><g class="cls-6"><path class="cls-50" d="M132,127c-5.66-3.59-5.93-13.3-.61-21.69S145.61,93,151.27,96.61s5.93,13.29.61,21.68S137.66,130.57,132,127Z"/><path class="cls-51" d="M135.7,124.07c-4.16-2.64-4.29-9.9-.28-16.22s10.63-9.3,14.79-6.66,4.29,9.91.29,16.22S139.87,126.71,135.7,124.07Z"/><path class="cls-52" d="M135.54,113.89c4-6.32,10.63-9.3,14.8-6.66a6.7,6.7,0,0,1,2.77,3.84c.86-4.25-.1-8.11-2.9-9.88-4.16-2.64-10.78.34-14.79,6.66-2.71,4.27-3.52,9-2.48,12.38A19.05,19.05,0,0,1,135.54,113.89Z"/><path class="cls-53" d="M147,115.84c-3.24,5.11-8.19,8-12.17,7.57a6,6,0,0,0,.84.66c4.17,2.64,10.79-.34,14.8-6.66s3.88-13.58-.29-16.22a6.22,6.22,0,0,0-2.62-.91C150.9,103.33,150.74,110,147,115.84Z"/><path class="cls-54" d="M128.27,116.93c-.48-8.62,11.08-17.92,5.79-8.39s-1.24,15.62,2.28,17,8.78-1,12.35-4.8,7.06-11.33,4.27-17.53-11.81-2.45-12.63-2.93,1.14-3.32,6.88-4a7.46,7.46,0,0,1,5.59,1.57,8,8,0,0,0-1.53-1.26c-5.66-3.59-14.56.3-19.88,8.68-4.67,7.37-5,15.75-1.22,20.11A24.63,24.63,0,0,1,128.27,116.93Z"/><g class="cls-12"><path class="cls-55" d="M145.3,97.76c0-.51.85-1,1.92-1s2,.35,2,.86-.84,1-1.92,1S145.32,98.27,145.3,97.76Z"/><path class="cls-56" d="M151.13,98.43c.28-.28.86-.13,1.3.32s.57,1,.29,1.3-.85.13-1.29-.32S150.85,98.69,151.13,98.43Z"/></g></g><g class="cls-6"><path class="cls-57" d="M115.42,143.63c-2.19-2.85-.55-7.79,3.68-11s9.42-3.57,11.61-.72.54,7.79-3.68,11S117.61,146.47,115.42,143.63Z"/><path class="cls-58" d="M117.82,142.84c-1.61-2.09-.34-5.78,2.84-8.22s7.06-2.73,8.67-.63.34,5.77-2.83,8.22S119.43,144.94,117.82,142.84Z"/><path class="cls-59" d="M119.61,137.68c3.18-2.44,7.06-2.73,8.68-.63a3.66,3.66,0,0,1,.69,2.44c1.21-2,1.43-4.1.35-5.5-1.61-2.1-5.49-1.82-8.67.63a8.4,8.4,0,0,0-3.53,5.78A10.32,10.32,0,0,1,119.61,137.68Z"/><path class="cls-60" d="M125,140.78c-2.57,2-5.6,2.54-7.52,1.57a3.12,3.12,0,0,0,.31.49c1.61,2.1,5.49,1.82,8.68-.63s4.45-6.13,2.83-8.22a3.3,3.3,0,0,0-1.15-1C129.28,135.19,128,138.51,125,140.78Z"/><path class="cls-61" d="M115.38,137.88c1.35-4.43,8.88-7,4.46-3.17s-3.49,7.65-2,9,4.6,1.13,7.1-.14,5.64-4.41,5.37-8.05-5.49-3.4-5.82-3.79,1.18-1.47,4.2-.75a4,4,0,0,1,2.53,1.81,4.2,4.2,0,0,0-.54-.91c-2.19-2.85-7.39-2.53-11.61.72-3.71,2.85-5.43,7-4.31,9.91A13.44,13.44,0,0,1,115.38,137.88Z"/><g class="cls-12"><path class="cls-62" d="M127.49,131.35c.09-.26.6-.32,1.15-.14s.93.53.84.79-.6.33-1.15.15S127.41,131.61,127.49,131.35Z"/><path class="cls-63" d="M130.3,132.76c.19-.09.46.09.6.4s.1.63-.09.71-.46-.09-.6-.4S130.12,132.85,130.3,132.76Z"/></g></g><g class="cls-6"><path class="cls-64" d="M27.77,110.64c5.53-3.77,14.56-.18,20.16,8s5.64,17.92.1,21.7-14.56.18-20.15-8S22.23,114.42,27.77,110.64Z"/><path class="cls-65" d="M29,115.19c4.07-2.77,10.79,0,15,6.16s4.33,13.44.26,16.22-10.8,0-15-6.15S24.9,118,29,115.19Z"/><path class="cls-66" d="M38.39,119.08c4.21,6.18,4.33,13.44.26,16.22a6.72,6.72,0,0,1-4.62,1c3.56,2.48,7.48,3.12,10.21,1.25,4.07-2.78,4-10-.26-16.22-2.85-4.17-6.84-6.78-10.39-7.18A19.05,19.05,0,0,1,38.39,119.08Z"/><path class="cls-67" d="M32.05,128.85c-3.41-5-4.14-10.7-2.14-14.17a7.14,7.14,0,0,0-.94.51c-4.07,2.78-4,10,.26,16.23s10.94,8.93,15,6.15a6.26,6.26,0,0,0,1.88-2C42,137.35,36,134.58,32.05,128.85Z"/><path class="cls-68" d="M38.47,111.19c8.11,3,12.08,17.27,5.42,8.64S30,112.51,27.36,115.19s-2.59,8.45-.48,13.24,7.61,11,14.41,10.86,6.92-9.87,7.68-10.43,2.61,2.36,1,7.89a7.49,7.49,0,0,1-3.65,4.52,7.94,7.94,0,0,0,1.76-.91c5.54-3.78,5.49-13.49-.1-21.7-4.92-7.2-12.47-10.85-18-9.07A24.7,24.7,0,0,1,38.47,111.19Z"/><g class="cls-12"><path class="cls-69" d="M49.34,134.43c.47.18.54,1.15.14,2.15s-1.09,1.66-1.57,1.48-.54-1.15-.15-2.16S48.86,134.24,49.34,134.43Z"/><path class="cls-70" d="M46.42,139.51c.14.36-.23.84-.81,1.06s-1.18.12-1.32-.24.23-.83.81-1.06S46.28,139.15,46.42,139.51Z"/></g></g><g class="cls-6"><path class="cls-71" d="M19,88.83c3.49-.89,7.37,2.58,8.68,7.74s-.45,10.06-3.93,11-7.37-2.58-8.68-7.75S15.56,89.71,19,88.83Z"/><path class="cls-72" d="M18.81,91.34c2.57-.65,5.45,2,6.43,5.86s-.29,7.57-2.85,8.22-5.44-2-6.43-5.86S16.25,92,18.81,91.34Z"/><path class="cls-73" d="M22.84,95c1,3.89-.29,7.57-2.85,8.22a3.59,3.59,0,0,1-2.51-.34c1.33,1.9,3.19,3,4.91,2.51,2.56-.65,3.84-4.33,2.85-8.22a8.38,8.38,0,0,0-3.91-5.52A10.19,10.19,0,0,1,22.84,95Z"/><path class="cls-74" d="M17.85,98.78c-.8-3.14-.11-6.15,1.53-7.53a3.75,3.75,0,0,0-.57.09C16.25,92,15,95.67,16,99.56s3.87,6.51,6.43,5.86a3.35,3.35,0,0,0,1.32-.69C21.31,104.9,18.77,102.39,17.85,98.78Z"/><path class="cls-75" d="M24.33,91.07c3.54,3,2.91,10.92,1.15,5.35S19.84,90.18,18,91s-2.86,3.78-2.67,6.58,1.82,6.92,5.26,8.12,5.3-3.7,5.79-3.84.87,1.67-1,4.15a4,4,0,0,1-2.67,1.6,4.22,4.22,0,0,0,1.06-.13c3.48-.89,5.25-5.79,3.93-11-1.15-4.53-4.28-7.76-7.39-7.88A13.29,13.29,0,0,1,24.33,91.07Z"/><g class="cls-12"><path class="cls-76" d="M25.54,104.77c.2.18.06.68-.32,1.11s-.86.64-1.07.46-.06-.68.32-1.11S25.33,104.59,25.54,104.77Z"/><path class="cls-77" d="M23.13,106.8c0,.2-.27.38-.6.38s-.62-.16-.62-.36.27-.38.6-.39S23.13,106.59,23.13,106.8Z"/></g></g><path class="cls-78" d="M160,72A66.29,66.29,0,0,1,35.74,27.26a76,76,0,1,0,109.78,104A75.8,75.8,0,0,0,160,72Z"/><path class="cls-79" d="M152.77,99A69.46,69.46,0,0,1,20.55,58.83,69.46,69.46,0,1,0,152.77,99Z"/><path class="cls-80" d="M132.73,57.64c-4,3.55-11.56,1.61-16.76-4.33s-6.14-13.63-2.08-17.19,11.55-1.61,16.76,4.33S136.79,54.09,132.73,57.64Z"/><path class="cls-81" d="M107.91,33.14c-.43,2.82-4.14,4.59-8.27,4s-7.13-3.45-6.7-6.27,4.15-4.59,8.28-3.95S108.35,30.32,107.91,33.14Z"/><g class="cls-6"><path class="cls-82" d="M108.25,31.14c.23,11-12.78,20.16-29,20.51S49.53,43.36,49.3,32.38,62.08,12.21,78.36,11.87,108,20.15,108.25,31.14Z"/><path class="cls-83" d="M100.92,28.72c.18,8.08-9.63,14.84-21.89,15.1S56.69,37.74,56.52,29.65s9.63-14.84,21.89-15.1S100.75,20.64,100.92,28.72Z"/><path class="cls-84" d="M87.16,38.18C74.9,38.43,64.82,32.09,64.65,24a11,11,0,0,1,2.73-7.26c-6.59,2.67-11,7.48-10.86,12.9C56.69,37.74,66.77,44.08,79,43.82c8.29-.17,15.44-3.33,19.16-7.84A31.38,31.38,0,0,1,87.16,38.18Z"/><path class="cls-85" d="M79.42,20.72c9.91-.21,18.39,3.9,21.37,9.75a9.32,9.32,0,0,0,.13-1.75c-.17-8.08-10.24-14.43-22.51-14.17s-22.06,7-21.89,15.1a10.08,10.08,0,0,0,1.14,4.42C58.82,26.78,68.05,21,79.42,20.72Z"/><path class="cls-86" d="M97.92,45.35c-11.35,8.47-34.53,1.13-16.72-.29s22.46-12.48,21.17-18.55S93.08,15.39,84.62,14s-21.88.64-27.82,10.07S64.16,42.41,64.25,44s-5.57,1.46-11.69-5.76a12.3,12.3,0,0,1-2.93-9.07,13.59,13.59,0,0,0-.33,3.25c.23,11,13.62,19.61,29.9,19.27,14.29-.3,26.06-7.42,28.56-16.59A40.41,40.41,0,0,1,97.92,45.35Z"/><g class="cls-12"><path class="cls-87" d="M56.28,39.47c-.68.49-2.07-.28-3.09-1.72s-1.3-3-.62-3.48,2.06.28,3.09,1.72S57,39,56.28,39.47Z"/><path class="cls-88" d="M51.91,30.91c-.62-.13-.95-1.05-.74-2.06s.9-1.72,1.52-1.59.94,1.06.73,2.07S52.53,31,51.91,30.91Z"/></g></g><g class="cls-6"><path class="cls-89" d="M127.68,87.08c-12-7.71-13.22-32.15-5.62-15.86S141.73,88,147,84.64s7.21-12.66,5.54-21.13-8.3-20.4-19.29-22.68-14.69,13.4-16.12,14-3.34-4.74,1.32-13a12.37,12.37,0,0,1,7.51-6,14.36,14.36,0,0,0-3.18.84c-10.27,4.08-13.69,19.73-7.64,35,5.32,13.37,16.17,22,25.69,21.09A40.67,40.67,0,0,1,127.68,87.08Z"/><path class="cls-90" d="M144.71,91.82c-10.28,4.08-23.51-4.95-29.57-20.17s-2.63-30.88,7.64-35,23.51,4.94,29.57,20.17S155,87.73,144.71,91.82Z"/><path class="cls-91" d="M144.41,84.06c-7.56,3-17.38-3.85-21.94-15.32s-2.13-23.2,5.42-26.21,17.38,3.86,22,15.32S152,81.05,144.41,84.06Z"/><path class="cls-92" d="M130.65,74.41c-4.56-11.47-2.13-23.2,5.43-26.2a11,11,0,0,1,7.8,0c-4.83-5.28-10.92-7.71-16-5.7-7.55,3-10,14.74-5.42,26.21C125.55,76.49,131,82.12,136.6,84A31.49,31.49,0,0,1,130.65,74.41Z"/><path class="cls-93" d="M144.38,61c3.68,9.27,2.79,18.71-1.67,23.58a10.57,10.57,0,0,0,1.7-.49c7.55-3,10-14.74,5.43-26.21s-14.39-18.32-22-15.32a10.38,10.38,0,0,0-3.76,2.63C131.41,43.69,140.15,50.34,144.38,61Z"/><g class="cls-12"><path class="cls-94" d="M118.55,45.76c-.69-.47-.45-2,.54-3.51s2.37-2.29,3.06-1.82.46,2-.53,3.52S119.25,46.23,118.55,45.76Z"/><path class="cls-95" d="M125.08,38.63c-.09-.63.67-1.27,1.69-1.42s1.94.24,2,.87-.66,1.26-1.69,1.41S125.18,39.26,125.08,38.63Z"/></g></g><g class="cls-96"><path class="cls-97" d="M36.83,83.3a.89.89,0,0,1-1.24.16.88.88,0,1,1,1.07-1.4A.89.89,0,0,1,36.83,83.3Z"/><path class="cls-98" d="M30.69,89.25a1.77,1.77,0,1,1-.33-2.48A1.78,1.78,0,0,1,30.69,89.25Z"/><path class="cls-99" d="M37,89.66a.76.76,0,1,1-.14-1.06A.75.75,0,0,1,37,89.66Z"/><path class="cls-100" d="M35.38,98.07a1.39,1.39,0,1,1-.26-1.94A1.39,1.39,0,0,1,35.38,98.07Z"/><path class="cls-101" d="M67.85,79.7a.89.89,0,0,1-1.24.16.88.88,0,0,1,1.08-1.4A.89.89,0,0,1,67.85,79.7Z"/><path class="cls-102" d="M72.57,82.67a1.64,1.64,0,1,1-.31-2.3A1.64,1.64,0,0,1,72.57,82.67Z"/><path class="cls-103" d="M69.56,85.77a.63.63,0,0,1-.88.12.63.63,0,1,1,.88-.12Z"/><path class="cls-104" d="M43,35.3a.88.88,0,1,1-.16-1.24A.89.89,0,0,1,43,35.3Z"/><path class="cls-105" d="M47.57,39.74a1.64,1.64,0,1,1-.3-2.3A1.64,1.64,0,0,1,47.57,39.74Z"/><path class="cls-106" d="M44,42.28a1,1,0,1,1-.19-1.42A1,1,0,0,1,44,42.28Z"/><path class="cls-107" d="M103.64,49.08A.75.75,0,1,1,103.5,48,.76.76,0,0,1,103.64,49.08Z"/><path class="cls-108" d="M108.89,54.69a2.53,2.53,0,1,1-.47-3.54A2.54,2.54,0,0,1,108.89,54.69Z"/><path class="cls-109" d="M102.17,57.65a1.13,1.13,0,1,1-.21-1.59A1.13,1.13,0,0,1,102.17,57.65Z"/><path class="cls-110" d="M72.49,57.83a.88.88,0,1,1-.16-1.23A.87.87,0,0,1,72.49,57.83Z"/><path class="cls-111" d="M78.63,57.28a.76.76,0,1,1-.14-1.06A.75.75,0,0,1,78.63,57.28Z"/><path class="cls-112" d="M112.9,77.28a.64.64,0,0,1-.89.12.63.63,0,0,1-.12-.88.64.64,0,0,1,.89-.12A.63.63,0,0,1,112.9,77.28Z"/><path class="cls-113" d="M117.5,82.07a1.64,1.64,0,1,1-.31-2.3A1.64,1.64,0,0,1,117.5,82.07Z"/><path class="cls-114" d="M115.45,27a1.76,1.76,0,1,1-.33-2.47A1.76,1.76,0,0,1,115.45,27Z"/><path class="cls-115" d="M121.4,28.35a1.26,1.26,0,1,1-.24-1.77A1.26,1.26,0,0,1,121.4,28.35Z"/><path class="cls-116" d="M116.58,33.41a1.39,1.39,0,1,1-.26-1.95A1.39,1.39,0,0,1,116.58,33.41Z"/><path class="cls-117" d="M86.8,93.55A1.13,1.13,0,1,1,86.59,92,1.13,1.13,0,0,1,86.8,93.55Z"/><path class="cls-118" d="M95.12,95.14a2.15,2.15,0,1,1-.41-3A2.15,2.15,0,0,1,95.12,95.14Z"/><path class="cls-119" d="M89.3,99.43a1,1,0,1,1-1.61-1.23,1,1,0,1,1,1.61,1.23Z"/><path class="cls-120" d="M93.09,103.6a.75.75,0,0,1-1.06.14.76.76,0,1,1,.92-1.2A.75.75,0,0,1,93.09,103.6Z"/><path class="cls-121" d="M46.51,86.41a1.76,1.76,0,1,1-.33-2.47A1.76,1.76,0,0,1,46.51,86.41Z"/><path class="cls-122" d="M13.6,84.6a1.39,1.39,0,1,1-.27-1.95A1.4,1.4,0,0,1,13.6,84.6Z"/><path class="cls-123" d="M19.69,85.76a1.89,1.89,0,1,1-.35-2.65A1.89,1.89,0,0,1,19.69,85.76Z"/><path class="cls-124" d="M18.24,114.67a1,1,0,1,1-1.6-1.22,1,1,0,0,1,1.6,1.22Z"/><path class="cls-125" d="M22,113.45a.77.77,0,0,1-1.07.14.76.76,0,1,1,1.07-.14Z"/><path class="cls-126" d="M36.36,106.77a1.14,1.14,0,1,1-.22-1.6A1.14,1.14,0,0,1,36.36,106.77Z"/><path class="cls-127" d="M56.41,124.16a1,1,0,1,1-.19-1.41A1,1,0,0,1,56.41,124.16Z"/><path class="cls-128" d="M62.53,126.13a1.39,1.39,0,1,1-.26-1.94A1.39,1.39,0,0,1,62.53,126.13Z"/><path class="cls-129" d="M58,130a.89.89,0,1,1-.17-1.24A.89.89,0,0,1,58,130Z"/><path class="cls-130" d="M51.39,143.19a.76.76,0,1,1-.14-1.06A.76.76,0,0,1,51.39,143.19Z"/><path class="cls-131" d="M57.09,149.45a1.51,1.51,0,1,1-.29-2.12A1.52,1.52,0,0,1,57.09,149.45Z"/><path class="cls-132" d="M89.89,117.35a1,1,0,1,1-.19-1.41A1,1,0,0,1,89.89,117.35Z"/><path class="cls-133" d="M93.81,121.78a1.39,1.39,0,1,1-.26-2A1.4,1.4,0,0,1,93.81,121.78Z"/><path class="cls-134" d="M125.46,124.85a1,1,0,1,1-1.61-1.23,1,1,0,0,1,1.61,1.23Z"/><path class="cls-135" d="M120,130.35a2.65,2.65,0,1,1-.5-3.72A2.67,2.67,0,0,1,120,130.35Z"/><path class="cls-136" d="M114.78,135.9a.89.89,0,0,1-1.24.17.88.88,0,0,1-.16-1.24.88.88,0,0,1,1.4,1.07Z"/><path class="cls-137" d="M137,133.48a.63.63,0,1,1-.12-.88A.63.63,0,0,1,137,133.48Z"/><path class="cls-138" d="M136.41,138.78a1.39,1.39,0,1,1-.26-1.95A1.4,1.4,0,0,1,136.41,138.78Z"/><path class="cls-139" d="M114.79,150.84a.88.88,0,1,1-.16-1.23A.88.88,0,0,1,114.79,150.84Z"/><path class="cls-140" d="M157.42,87.18a1.13,1.13,0,1,1-.21-1.59A1.13,1.13,0,0,1,157.42,87.18Z"/><path class="cls-141" d="M157.26,94.05a2.15,2.15,0,1,1-.4-3A2.15,2.15,0,0,1,157.26,94.05Z"/></g></g></g></g></svg>